<?xml version="1.0" encoding="UTF-8" ?>
<!DOCTYPE svg PUBLIC "-//W3C//DTD SVG 1.1//EN" "http://www.w3.org/Graphics/SVG/1.1/DTD/svg11.dtd">
<svg width="396pt" height="396pt" viewBox="0 0 396 396" version="1.1" xmlns="http://www.w3.org/2000/svg">
<g id="#ffb600ff">
<path fill="#ffb600" opacity="1.00" d=" M 193.70 0.00 L 198.60 0.00 C 214.39 0.06 230.12 2.13 245.48 5.76 C 222.74 20.02 199.52 33.54 176.57 47.47 C 124.11 79.06 71.59 110.54 19.14 142.15 C 14.95 144.70 10.81 147.35 6.33 149.38 C 17.05 107.00 42.15 68.43 76.81 41.75 C 110.01 15.84 151.60 1.01 193.70 0.00 Z" />
</g>
<g id="#f6921eff">
<path fill="#f6921e" opacity="1.00" d=" M 245.48 5.76 C 288.41 16.03 327.43 41.56 354.34 76.51 C 387.27 118.71 401.97 174.66 393.49 227.56 C 371.27 205.76 349.70 183.31 327.61 161.37 C 306.00 139.66 284.38 117.95 262.79 96.21 C 258.78 92.28 254.99 88.12 250.78 84.40 C 248.72 90.71 247.36 97.21 245.67 103.61 C 244.24 109.40 242.36 115.09 241.68 121.04 C 241.23 120.89 240.34 120.58 239.90 120.43 C 242.59 108.57 245.86 96.84 248.82 85.05 C 241.85 83.01 234.82 81.17 227.79 79.39 C 227.01 82.20 226.31 85.04 225.93 87.94 C 220.82 84.46 216.99 79.55 212.48 75.39 C 211.67 76.40 210.85 77.42 210.09 78.46 C 210.40 77.35 210.72 76.25 211.05 75.15 C 204.03 73.20 197.01 71.26 189.94 69.52 C 186.71 81.27 184.02 93.17 180.70 104.90 C 166.18 101.33 151.65 97.80 137.18 94.02 C 135.45 101.64 133.39 109.18 131.57 116.78 C 137.54 118.42 143.57 119.86 149.49 121.65 C 154.91 123.23 157.99 129.48 156.70 134.83 C 148.96 166.42 141.20 198.00 133.40 229.57 C 132.54 233.70 128.18 236.95 123.94 235.81 C 118.41 234.59 113.02 232.81 107.47 231.65 C 104.04 239.78 100.58 247.91 96.91 255.94 C 98.13 258.02 99.66 259.91 101.39 261.58 C 112.36 272.29 122.99 283.32 134.01 293.98 C 133.18 297.02 132.45 300.09 131.66 303.14 C 133.90 306.88 137.25 309.69 140.31 312.72 C 164.62 337.08 189.01 361.36 213.29 385.75 C 215.64 388.00 217.66 390.69 220.49 392.37 C 223.93 392.53 227.38 392.18 230.81 392.69 C 192.76 399.10 152.88 393.98 117.61 378.33 C 84.65 363.86 55.87 340.06 35.43 310.42 C 3.14 264.27 -8.06 203.90 6.33 149.38 C 10.81 147.35 14.95 144.70 19.14 142.15 C 71.59 110.54 124.11 79.06 176.57 47.47 C 199.52 33.54 222.74 20.02 245.48 5.76 Z" />
<path fill="#f6921e" opacity="1.00" d=" M 271.92 194.90 C 277.12 191.04 280.61 185.33 282.88 179.35 C 282.94 180.07 283.06 181.50 283.13 182.21 C 278.97 192.67 269.26 200.43 258.22 202.44 L 257.03 201.70 C 262.31 200.27 267.60 198.37 271.92 194.90 Z" />
<path fill="#f6921e" opacity="1.00" d=" M 279.07 224.00 C 282.70 230.35 281.89 238.13 280.70 245.05 C 277.61 259.55 270.71 274.77 256.94 281.91 C 240.80 290.18 221.93 287.99 204.65 285.49 C 203.94 285.00 203.23 284.52 202.52 284.05 C 217.99 286.88 234.43 288.58 249.66 283.65 C 260.43 280.29 269.09 271.88 273.79 261.75 C 279.15 250.11 282.89 236.68 279.07 224.00 Z" />
</g>
<g id="#ed6c0cff">
<path fill="#ed6c0c" opacity="1.00" d=" M 212.48 75.39 C 216.99 79.55 220.82 84.46 225.93 87.94 C 224.59 96.69 221.98 105.19 220.21 113.86 C 214.05 112.70 207.93 111.27 201.87 109.66 C 204.66 99.27 207.27 88.84 210.09 78.46 C 210.85 77.42 211.67 76.40 212.48 75.39 Z" />
<path fill="#ed6c0c" opacity="1.00" d=" M 245.67 103.61 C 247.36 97.21 248.72 90.71 250.78 84.40 C 254.99 88.12 258.78 92.28 262.79 96.21 C 284.38 117.95 306.00 139.66 327.61 161.37 C 349.70 183.31 371.27 205.76 393.49 227.56 C 391.78 239.43 388.90 251.12 385.10 262.49 C 368.96 247.12 353.50 231.02 337.64 215.35 C 320.83 198.62 304.17 181.75 287.29 165.10 C 286.13 170.85 285.85 176.90 283.13 182.21 C 283.06 181.50 282.94 180.07 282.88 179.35 C 286.30 168.18 287.10 155.02 280.10 145.01 C 271.24 132.11 255.99 125.85 241.68 121.04 C 242.36 115.09 244.24 109.40 245.67 103.61 Z" />
<path fill="#ed6c0c" opacity="1.00" d=" M 187.35 178.89 C 205.61 175.27 224.07 172.70 242.44 169.74 C 240.96 176.73 235.14 182.28 228.15 183.63 C 214.43 186.56 200.54 182.47 187.35 178.89 Z" />
<path fill="#ed6c0c" opacity="1.00" d=" M 181.11 246.31 C 199.29 244.32 217.38 241.61 235.58 239.89 C 233.45 247.83 225.90 252.99 218.03 254.07 C 202.22 256.43 186.47 252.04 171.26 248.21 C 174.51 247.45 177.77 246.63 181.11 246.31 Z" />
<path fill="#ed6c0c" opacity="1.00" d=" M 161.42 273.67 C 163.12 274.04 164.82 274.42 166.53 274.78 C 165.87 274.87 164.57 275.07 163.92 275.16 C 167.90 279.93 172.77 283.85 176.75 288.62 C 174.73 296.99 172.20 305.24 170.57 313.69 C 170.96 313.79 171.75 313.99 172.14 314.09 C 173.61 317.93 176.89 320.50 179.73 323.29 C 196.72 340.30 213.73 357.28 230.72 374.29 C 235.71 379.44 241.07 384.23 245.73 389.70 C 240.79 390.85 235.83 391.95 230.81 392.69 C 227.38 392.18 223.93 392.53 220.49 392.37 C 217.66 390.69 215.64 388.00 213.29 385.75 C 189.01 361.36 164.62 337.08 140.31 312.72 C 137.25 309.69 133.90 306.88 131.66 303.14 C 138.72 304.77 145.66 306.88 152.69 308.67 C 155.35 296.94 158.76 285.39 161.42 273.67 Z" />
</g>
<g id="#e05a00ff">
<path fill="#e05a00" opacity="1.00" d=" M 197.17 134.86 C 208.46 137.65 220.13 139.91 230.36 145.71 C 235.05 148.47 239.61 152.09 241.80 157.23 C 243.71 161.10 243.11 165.54 242.78 169.69 L 242.44 169.74 C 224.07 172.70 205.61 175.27 187.35 178.89 L 186.35 179.10 C 189.73 164.31 193.36 149.56 197.17 134.86 Z" />
<path fill="#e05a00" opacity="1.00" d=" M 180.52 200.20 C 194.13 203.16 208.04 206.05 220.54 212.47 C 227.50 216.12 234.51 221.65 236.27 229.73 C 237.23 233.08 236.69 236.58 235.81 239.88 L 235.58 239.89 C 217.38 241.61 199.29 244.32 181.11 246.31 C 177.77 246.63 174.51 247.45 171.26 248.21 C 170.67 248.12 169.51 247.93 168.93 247.84 C 172.93 232.00 176.78 216.11 180.52 200.20 Z" />
<path fill="#e05a00" opacity="1.00" d=" M 200.53 283.02 C 201.19 283.36 201.85 283.70 202.52 284.05 C 203.23 284.52 203.94 285.00 204.65 285.49 C 206.16 287.29 207.61 289.15 209.24 290.85 C 231.31 312.74 253.18 334.84 275.23 356.76 C 280.51 361.95 285.47 367.47 291.11 372.28 C 276.75 379.88 261.52 385.87 245.73 389.70 C 241.07 384.23 235.71 379.44 230.72 374.29 C 213.73 357.28 196.72 340.30 179.73 323.29 C 176.89 320.50 173.61 317.93 172.14 314.09 C 178.47 315.72 184.76 317.51 191.07 319.21 C 194.63 307.26 197.06 295.00 200.53 283.02 Z" />
</g>
<g id="#d85107ff">
<path fill="#d85107" opacity="1.00" d=" M 287.29 165.10 C 304.17 181.75 320.83 198.62 337.64 215.35 C 353.50 231.02 368.96 247.12 385.10 262.49 C 369.10 309.21 334.76 349.21 291.11 372.28 C 285.47 367.47 280.51 361.95 275.23 356.76 C 253.18 334.84 231.31 312.74 209.24 290.85 C 207.61 289.15 206.16 287.29 204.65 285.49 C 221.93 287.99 240.80 290.18 256.94 281.91 C 270.71 274.77 277.61 259.55 280.70 245.05 C 281.89 238.13 282.70 230.35 279.07 224.00 C 277.22 219.75 275.01 215.59 271.72 212.28 C 267.87 208.17 262.90 205.45 258.22 202.44 C 269.26 200.43 278.97 192.67 283.13 182.21 C 285.85 176.90 286.13 170.85 287.29 165.10 Z" />
<path fill="#d85107" opacity="1.00" d=" M 163.92 275.16 C 164.57 275.07 165.87 274.87 166.53 274.78 C 170.85 275.56 175.07 276.83 179.25 278.15 C 178.53 281.66 177.61 285.13 176.75 288.62 C 172.77 283.85 167.90 279.93 163.92 275.16 Z" />
</g>
<g id="#6d470770">
<path fill="#6d4707" opacity="0.44" d=" M 148.24 174.21 C 148.81 174.75 148.81 174.75 148.24 174.21 Z" />
</g>
<g id="#e26600ff">
<path fill="#e26600" opacity="1.00" d=" M 96.91 255.94 C 111.48 259.67 126.03 263.48 140.59 267.25 C 138.66 276.22 136.28 285.09 134.01 293.98 C 122.99 283.32 112.36 272.29 101.39 261.58 C 99.66 259.91 98.13 258.02 96.91 255.94 Z" />
</g>
</svg>
