<?xml version="1.0" encoding="UTF-8" ?>
<!DOCTYPE svg PUBLIC "-//W3C//DTD SVG 1.1//EN" "http://www.w3.org/Graphics/SVG/1.1/DTD/svg11.dtd">
<svg width="512pt" height="512pt" viewBox="0 0 512 512" version="1.1" xmlns="http://www.w3.org/2000/svg">
<g id="#87ced9ff">
<path fill="#87ced9" opacity="1.00" d=" M 248.78 3.86 C 251.34 0.28 256.70 -0.95 260.48 1.42 C 262.95 3.01 264.46 5.59 266.22 7.86 C 273.63 17.68 280.96 27.56 288.41 37.35 C 283.97 40.92 279.32 44.22 274.78 47.68 C 271.35 43.15 267.98 38.57 264.53 34.05 C 264.53 56.80 264.54 79.56 264.52 102.31 C 258.84 102.31 253.16 102.31 247.48 102.31 C 247.46 79.56 247.47 56.81 247.48 34.05 C 244.02 38.57 240.65 43.15 237.22 47.68 C 232.67 44.25 228.08 40.88 223.57 37.40 C 232.00 26.24 240.36 15.03 248.78 3.86 Z" />
<path fill="#87ced9" opacity="1.00" d=" M 72.56 81.93 C 71.80 76.69 76.75 71.74 82.00 72.48 C 96.17 74.34 110.30 76.51 124.46 78.50 C 123.67 84.12 122.84 89.73 122.03 95.34 C 116.40 94.63 110.80 93.72 105.17 93.00 C 121.26 109.06 137.31 125.16 153.39 141.23 C 149.36 145.26 145.41 149.38 141.26 153.27 C 125.25 137.15 109.15 121.12 93.10 105.05 C 93.88 110.68 94.72 116.31 95.49 121.94 C 89.84 122.74 84.21 123.58 78.57 124.36 C 76.57 110.22 74.46 96.08 72.56 81.93 Z" />
<path fill="#87ced9" opacity="1.00" d=" M 387.54 78.50 C 401.39 76.53 415.23 74.52 429.08 72.59 C 433.43 71.80 438.15 74.49 439.14 78.88 C 439.75 81.98 438.98 85.08 438.58 88.14 C 436.85 100.20 435.13 112.27 433.40 124.33 C 427.77 123.56 422.14 122.73 416.51 121.94 C 417.28 116.31 418.12 110.70 418.90 105.07 C 402.77 121.12 386.79 137.32 370.58 153.29 C 366.65 149.20 362.53 145.30 358.62 141.20 C 374.71 125.16 390.75 109.05 406.83 93.00 C 401.18 93.65 395.58 94.78 389.91 95.22 C 389.19 89.64 388.30 84.08 387.54 78.50 Z" />
<path fill="#87ced9" opacity="1.00" d=" M 247.47 119.38 C 253.16 119.37 258.84 119.37 264.53 119.38 C 264.52 125.07 264.55 130.75 264.52 136.44 C 258.84 136.44 253.16 136.44 247.48 136.44 C 247.45 130.75 247.47 125.07 247.47 119.38 Z" />
<path fill="#87ced9" opacity="1.00" d=" M 153.38 165.40 C 157.40 161.38 161.44 157.38 165.44 153.35 C 169.46 157.41 173.66 161.31 177.48 165.56 C 173.36 169.42 169.50 173.55 165.43 177.46 C 161.44 173.41 157.38 169.43 153.38 165.40 Z" />
<path fill="#87ced9" opacity="1.00" d=" M 334.45 165.38 C 338.55 161.41 342.41 157.20 346.62 153.35 C 350.53 157.44 354.61 161.38 358.59 165.40 C 354.58 169.43 350.53 173.41 346.54 177.46 C 342.46 173.47 338.45 169.43 334.45 165.38 Z" />
<path fill="#87ced9" opacity="1.00" d=" M 3.28 249.26 C 14.56 240.53 26.13 232.17 37.44 223.48 C 41.00 227.94 44.32 232.58 47.77 237.12 C 43.24 240.55 38.68 243.94 34.14 247.37 C 56.90 247.40 79.66 247.33 102.42 247.40 C 102.39 253.08 102.42 258.75 102.40 264.43 C 79.69 264.45 56.97 264.43 34.25 264.44 C 38.67 267.98 43.29 271.24 47.77 274.69 C 44.37 279.24 40.95 283.78 37.54 288.33 C 26.16 279.79 14.75 271.29 3.43 262.69 C -0.86 259.54 -0.99 252.48 3.28 249.26 Z" />
<path fill="#87ced9" opacity="1.00" d=" M 474.41 223.48 C 484.36 230.86 494.25 238.34 504.18 245.75 C 506.87 247.90 510.32 249.65 511.44 253.17 C 512.79 256.77 511.13 260.89 508.09 263.07 C 496.90 271.52 485.68 279.92 474.46 288.33 C 471.05 283.78 467.63 279.24 464.23 274.69 C 468.72 271.25 473.33 267.96 477.77 264.44 C 455.04 264.43 432.32 264.45 409.60 264.43 C 409.58 258.75 409.60 253.07 409.59 247.39 C 432.34 247.35 455.09 247.39 477.84 247.37 C 473.33 243.93 468.76 240.55 464.23 237.12 C 467.61 232.57 471.04 228.05 474.41 223.48 Z" />
<path fill="#87ced9" opacity="1.00" d=" M 119.47 247.38 C 125.16 247.37 130.84 247.37 136.53 247.38 C 136.53 253.07 136.55 258.75 136.52 264.44 C 130.84 264.44 125.16 264.44 119.48 264.44 C 119.45 258.75 119.47 253.07 119.47 247.38 Z" />
<path fill="#87ced9" opacity="1.00" d=" M 375.47 247.38 C 381.16 247.37 386.84 247.37 392.53 247.38 C 392.53 253.06 392.55 258.75 392.52 264.44 C 386.84 264.44 381.16 264.44 375.48 264.44 C 375.45 258.75 375.47 253.07 375.47 247.38 Z" />
<path fill="#87ced9" opacity="1.00" d=" M 153.48 346.35 C 157.50 342.39 161.51 338.43 165.42 334.37 C 169.62 338.25 173.53 342.41 177.62 346.40 C 173.62 350.43 169.56 354.41 165.56 358.46 C 161.51 354.45 157.45 350.45 153.48 346.35 Z" />
<path fill="#87ced9" opacity="1.00" d=" M 334.46 346.49 C 338.32 342.34 342.52 338.53 346.38 334.39 C 350.63 338.19 354.48 342.43 358.59 346.39 C 354.63 350.43 350.55 354.36 346.62 358.44 C 342.45 354.58 338.59 350.40 334.46 346.49 Z" />
<path fill="#87ced9" opacity="1.00" d=" M 93.10 406.74 C 109.16 390.65 125.26 374.62 141.28 358.50 C 145.37 362.46 149.40 366.51 153.35 370.63 C 137.24 386.65 121.21 402.75 105.14 418.81 C 110.76 418.02 116.37 417.19 122.00 416.42 C 122.81 422.05 123.63 427.68 124.43 433.31 C 110.25 435.32 96.08 437.40 81.89 439.35 C 76.77 439.96 71.88 435.15 72.58 429.99 C 74.41 415.79 76.62 401.63 78.59 387.45 C 84.23 388.24 89.86 389.06 95.49 389.88 C 94.71 395.50 93.88 401.12 93.10 406.74 Z" />
<path fill="#87ced9" opacity="1.00" d=" M 370.57 358.53 C 386.79 374.49 402.77 390.69 418.90 406.74 C 418.12 401.12 417.29 395.50 416.51 389.88 C 422.14 389.06 427.77 388.24 433.40 387.45 C 435.41 401.65 437.51 415.84 439.45 430.05 C 440.04 435.27 435.14 439.98 429.96 439.34 C 415.83 437.38 401.71 435.31 387.58 433.31 C 388.35 427.68 389.17 422.05 389.97 416.42 C 395.59 417.20 401.21 418.04 406.83 418.84 C 390.77 402.70 374.57 386.70 358.59 370.49 C 362.62 366.54 366.62 362.56 370.57 358.53 Z" />
<path fill="#87ced9" opacity="1.00" d=" M 247.47 375.38 C 253.16 375.37 258.84 375.37 264.53 375.38 C 264.53 381.06 264.55 386.75 264.52 392.44 C 258.84 392.44 253.16 392.44 247.48 392.44 C 247.45 386.75 247.47 381.06 247.47 375.38 Z" />
<path fill="#87ced9" opacity="1.00" d=" M 247.47 409.50 C 253.16 409.50 258.84 409.49 264.53 409.51 C 264.55 432.10 264.50 454.69 264.55 477.28 C 268.39 473.28 271.29 468.45 274.78 464.13 C 279.34 467.52 283.87 470.94 288.42 474.33 C 281.04 484.24 273.59 494.11 266.19 504.00 C 264.02 506.69 262.31 510.17 258.80 511.32 C 255.20 512.70 251.03 511.09 248.85 508.01 C 240.39 496.81 231.99 485.57 223.57 474.34 C 228.12 470.94 232.66 467.53 237.22 464.13 C 240.71 468.42 243.58 473.29 247.45 477.24 C 247.50 454.66 247.45 432.08 247.47 409.50 Z" />
</g>
<g id="#f9b44dff">
<path fill="#f9b44d" opacity="1.00" d=" M 175.41 210.37 C 202.30 194.30 229.13 178.13 256.00 162.04 C 267.29 168.73 278.45 175.66 289.82 182.21 C 272.65 193.06 254.93 203.02 237.55 213.54 C 226.36 220.09 215.32 226.91 204.03 233.30 C 199.68 229.66 194.49 227.23 189.73 224.20 C 184.00 220.99 178.66 217.07 172.60 214.46 C 172.52 214.37 172.36 214.19 172.28 214.10 L 171.94 213.49 C 172.04 211.67 174.17 211.24 175.41 210.37 Z" />
<path fill="#f9b44d" opacity="1.00" d=" M 306.49 192.27 C 318.03 199.42 329.83 206.16 341.34 213.35 C 338.43 214.62 335.72 216.28 333.04 217.96 C 308.47 232.73 283.86 247.43 259.30 262.23 C 257.90 262.95 256.52 264.17 254.80 263.72 L 254.62 263.59 C 254.57 263.54 254.45 263.45 254.39 263.41 C 250.02 260.03 245.09 257.51 240.42 254.59 C 234.01 250.89 227.82 246.80 221.29 243.31 C 227.27 239.16 233.74 235.78 239.93 231.97 C 262.08 218.69 284.48 205.79 306.49 192.27 Z" />
</g>
<g id="#f77219ff">
<path fill="#f77219" opacity="1.00" d=" M 289.82 182.21 C 295.44 185.45 301.04 188.75 306.49 192.27 C 284.48 205.79 262.08 218.69 239.93 231.97 C 233.74 235.78 227.27 239.16 221.29 243.31 C 215.14 240.75 209.56 236.97 204.03 233.30 C 215.32 226.91 226.36 220.09 237.55 213.54 C 254.93 203.02 272.65 193.06 289.82 182.21 Z" />
<path fill="#f77219" opacity="1.00" d=" M 172.28 214.10 C 172.36 214.19 172.52 214.37 172.60 214.46 C 172.52 214.37 172.36 214.19 172.28 214.10 Z" />
<path fill="#f77219" opacity="1.00" d=" M 333.04 217.96 C 335.72 216.28 338.43 214.62 341.34 213.35 C 341.39 241.71 341.26 270.06 341.40 298.41 C 313.04 315.70 284.45 332.63 256.00 349.78 C 256.02 322.84 255.97 295.91 256.03 268.98 C 255.92 267.18 256.12 265.16 254.80 263.72 C 256.52 264.17 257.90 262.95 259.30 262.23 C 283.86 247.43 308.47 232.73 333.04 217.96 Z" />
<path fill="#f77219" opacity="1.00" d=" M 254.39 263.41 C 254.45 263.45 254.57 263.54 254.62 263.59 C 254.57 263.54 254.45 263.45 254.39 263.41 Z" />
</g>
<g id="#fa982fff">
<path fill="#fa982f" opacity="1.00" d=" M 170.73 212.68 C 171.04 212.88 171.64 213.29 171.94 213.49 L 172.28 214.10 C 172.36 214.19 172.52 214.37 172.60 214.46 C 178.66 217.07 184.00 220.99 189.73 224.20 C 194.49 227.23 199.68 229.66 204.03 233.30 C 209.56 236.97 215.14 240.75 221.29 243.31 C 227.82 246.80 234.01 250.89 240.42 254.59 C 245.09 257.51 250.02 260.03 254.39 263.41 C 254.45 263.45 254.57 263.54 254.62 263.59 L 254.80 263.72 C 256.12 265.16 255.92 267.18 256.03 268.98 C 255.97 295.91 256.02 322.84 256.00 349.78 C 227.58 332.79 199.27 315.61 170.78 298.73 C 170.54 270.05 170.64 241.36 170.73 212.68 Z" />
</g>
</svg>
