<?xml version="1.0" encoding="UTF-8" ?>
<!DOCTYPE svg PUBLIC "-//W3C//DTD SVG 1.1//EN" "http://www.w3.org/Graphics/SVG/1.1/DTD/svg11.dtd">
<svg width="512pt" height="512pt" viewBox="0 0 512 512" version="1.1" xmlns="http://www.w3.org/2000/svg">
<g id="#ff782eff">
<path fill="#ff782e" opacity="1.00" d=" M 0.00 41.25 C 0.74 33.78 7.45 27.52 15.01 27.63 C 34.33 27.60 53.66 27.54 72.99 27.66 C 88.14 27.86 102.34 38.67 106.59 53.20 C 112.75 75.57 118.68 98.01 124.77 120.40 C 243.49 120.88 362.21 121.42 480.93 121.81 C 488.43 121.70 495.99 124.30 501.61 129.32 C 507.97 134.84 511.79 143.07 512.00 151.48 L 512.00 152.57 C 511.89 155.09 511.50 157.60 510.95 160.07 C 500.00 207.48 489.06 254.89 478.11 302.30 C 476.45 308.83 475.44 315.56 473.15 321.92 C 468.97 332.93 459.25 341.61 447.83 344.48 C 442.01 346.09 435.93 345.69 429.97 345.73 C 336.31 345.75 242.65 345.74 148.99 345.61 C 144.16 345.58 139.17 347.27 135.86 350.90 C 130.16 356.98 129.92 367.29 135.37 373.60 C 138.71 377.51 143.94 379.34 149.00 379.33 C 249.02 379.34 349.05 379.33 449.07 379.33 C 455.11 379.20 460.97 383.08 463.16 388.72 C 466.58 396.42 461.96 405.90 454.13 408.60 C 459.62 419.78 461.00 432.90 457.83 444.96 C 454.00 460.08 443.02 473.15 428.83 479.59 C 416.70 485.20 402.39 485.84 389.79 481.40 C 375.21 476.42 363.17 464.64 357.83 450.19 C 352.87 437.07 353.51 422.01 359.51 409.33 C 327.95 409.33 296.39 409.34 264.83 409.33 C 270.52 421.42 271.42 435.66 267.17 448.34 C 262.70 461.95 252.40 473.50 239.39 479.49 C 228.03 484.79 214.71 485.79 202.69 482.22 C 187.21 477.83 174.17 465.85 168.40 450.84 C 163.18 437.57 163.74 422.21 169.84 409.33 C 158.67 408.92 147.27 410.47 136.29 407.79 C 122.29 404.19 110.30 393.73 104.77 380.38 C 98.90 366.60 100.30 349.99 108.43 337.40 C 116.48 324.49 131.11 316.15 146.31 315.63 C 123.58 231.42 100.91 147.19 78.19 62.97 C 77.66 60.06 75.10 57.55 72.03 57.69 C 53.04 57.61 34.05 57.72 15.06 57.64 C 7.54 57.76 0.91 51.61 0.00 44.23 L 0.00 41.25 M 132.88 150.47 C 138.99 173.20 145.12 195.93 151.25 218.66 C 170.69 218.67 190.13 218.67 209.57 218.66 C 206.54 196.02 203.56 173.38 200.52 150.75 C 177.97 150.60 155.43 150.52 132.88 150.47 M 230.84 150.87 C 233.82 173.47 236.84 196.07 239.85 218.66 C 258.95 218.71 278.05 218.57 297.15 218.74 C 297.17 196.19 297.17 173.64 297.15 151.09 C 275.05 151.06 252.94 150.87 230.84 150.87 M 327.20 151.18 C 327.17 173.68 327.18 196.17 327.19 218.67 C 346.25 218.66 365.31 218.67 384.38 218.66 C 387.33 196.27 390.29 173.87 393.24 151.48 C 371.22 151.39 349.21 151.36 327.20 151.18 M 414.65 218.66 C 431.97 218.68 449.30 218.67 466.63 218.66 C 471.74 196.40 476.92 174.16 482.02 151.90 C 462.52 151.67 443.01 151.76 423.51 151.59 C 420.54 173.94 417.60 196.30 414.65 218.66 M 159.34 248.67 C 164.76 268.83 170.20 288.98 175.64 309.14 C 176.37 312.96 180.01 315.84 183.89 315.71 C 196.75 315.76 209.62 315.73 222.49 315.72 C 219.50 293.37 216.55 271.01 213.54 248.66 C 195.48 248.67 177.41 248.66 159.34 248.67 M 243.85 248.67 C 246.80 271.03 249.79 293.38 252.77 315.73 C 267.56 315.73 282.36 315.74 297.16 315.73 C 297.18 293.38 297.17 271.02 297.16 248.67 C 279.39 248.66 261.62 248.66 243.85 248.67 M 327.19 248.67 C 327.18 271.02 327.18 293.38 327.19 315.73 C 341.98 315.73 356.77 315.74 371.57 315.73 C 374.51 293.38 377.47 271.02 380.41 248.67 C 362.67 248.66 344.93 248.66 327.19 248.67 M 401.84 315.73 C 413.88 315.71 425.93 315.77 437.98 315.71 C 441.47 315.87 444.82 313.34 445.53 309.90 C 450.28 289.50 454.97 269.08 459.68 248.67 C 443.35 248.67 427.03 248.65 410.70 248.68 C 407.72 271.03 404.79 293.38 401.84 315.73 M 213.46 409.67 C 204.36 411.14 196.69 418.78 195.19 427.87 C 193.55 436.37 197.42 445.53 204.57 450.36 C 211.24 455.07 220.52 455.64 227.72 451.79 C 234.35 448.40 239.03 441.51 239.72 434.09 C 240.47 427.18 237.74 420.03 232.61 415.34 C 227.57 410.60 220.27 408.44 213.46 409.67 M 399.37 410.67 C 389.58 414.03 383.06 424.75 384.73 435.00 C 386.13 446.84 398.16 456.03 409.97 454.14 C 422.59 452.80 432.08 439.39 428.99 427.04 C 426.57 414.16 411.59 405.81 399.37 410.67 Z" />
</g>
</svg>
