<?xml version="1.0" encoding="UTF-8" ?>
<!DOCTYPE svg PUBLIC "-//W3C//DTD SVG 1.1//EN" "http://www.w3.org/Graphics/SVG/1.1/DTD/svg11.dtd">
<svg width="521pt" height="522pt" viewBox="0 0 521 522" version="1.1" xmlns="http://www.w3.org/2000/svg">
<g id="#86390fff">
<path fill="#86390f" opacity="1.00" d=" M 4.01 0.00 L 89.97 0.00 C 94.88 4.71 95.12 11.85 96.83 18.03 C 99.66 29.29 101.69 40.77 105.07 51.88 C 230.04 52.16 355.02 51.92 480.00 52.00 C 489.34 52.14 499.28 50.82 507.94 55.18 C 513.86 57.96 516.96 64.61 516.98 70.93 C 517.12 78.47 517.22 86.04 516.52 93.55 C 511.32 158.71 506.37 223.88 501.10 289.02 C 500.55 294.12 500.41 299.83 496.93 303.94 C 493.94 307.48 489.06 308.09 484.74 308.62 C 463.79 310.40 443.04 313.77 422.16 316.15 C 359.47 324.14 296.78 332.15 234.07 340.04 C 218.41 342.34 202.64 343.80 187.00 346.22 C 188.82 354.39 192.51 361.95 194.92 369.93 C 195.95 373.24 197.12 376.51 198.28 379.78 C 205.18 380.26 212.09 379.95 219.00 379.99 C 308.33 380.01 397.67 379.99 487.00 380.00 C 492.59 380.12 498.24 379.51 503.79 380.37 C 506.94 380.61 507.60 384.13 508.33 386.58 C 510.67 396.54 513.33 406.43 515.53 416.43 C 517.24 423.56 518.73 430.77 521.00 437.76 L 521.00 446.13 C 518.68 447.81 516.06 449.24 513.10 449.03 C 499.07 449.06 485.03 448.89 471.00 449.07 C 468.14 449.04 465.22 449.18 462.43 448.44 C 460.41 447.99 459.68 445.83 459.05 444.12 C 457.76 439.90 456.86 435.58 455.58 431.36 C 448.74 430.63 441.86 431.06 435.00 431.01 C 360.67 430.96 286.34 431.06 212.01 430.96 C 204.97 430.76 198.01 431.99 190.98 432.01 C 182.45 431.99 173.86 434.20 165.39 432.43 C 160.62 431.44 156.36 428.32 154.17 423.95 C 149.66 415.23 147.79 405.50 144.93 396.18 C 117.79 297.36 90.54 198.57 63.38 99.75 C 58.10 81.24 53.44 62.56 47.90 44.13 C 37.61 43.77 27.30 44.09 17.00 44.02 C 11.27 43.85 4.71 45.29 0.00 41.13 L 0.00 4.02 C 1.22 2.57 2.56 1.23 4.01 0.00 M 5.10 5.10 C 4.91 16.36 4.91 27.64 5.10 38.90 C 20.66 39.28 36.23 38.69 51.78 39.14 C 54.20 45.17 55.23 51.62 57.23 57.79 C 84.37 156.61 111.64 255.39 138.77 354.21 C 144.31 373.74 149.26 393.44 155.19 412.86 C 156.85 417.19 158.07 422.13 161.77 425.22 C 166.69 428.75 173.17 428.31 178.89 427.75 C 186.56 426.53 194.36 427.44 202.03 426.18 C 212.34 425.69 222.68 426.16 233.00 426.00 C 291.00 426.00 349.00 426.00 407.00 426.00 C 424.54 426.14 442.09 425.72 459.61 426.19 C 461.31 432.03 462.59 437.99 464.29 443.83 C 481.56 444.16 498.85 444.06 516.13 443.88 C 515.25 435.49 512.65 427.42 510.83 419.21 C 508.41 407.79 505.23 396.56 502.66 385.18 C 480.79 384.74 458.89 385.13 437.00 385.00 C 374.33 385.00 311.66 385.00 249.00 385.00 C 230.79 384.85 212.56 385.28 194.36 384.81 C 190.04 370.39 184.20 356.48 179.98 342.04 C 195.50 339.33 211.28 338.17 226.86 335.81 C 289.24 327.88 351.63 320.00 414.00 312.00 C 437.78 309.26 461.44 305.53 485.28 303.39 C 488.51 302.98 492.51 302.41 494.01 299.05 C 496.09 294.13 495.79 288.62 496.48 283.41 C 501.70 217.62 506.79 151.81 511.99 86.03 C 511.79 79.39 512.89 72.51 510.98 66.05 C 508.54 58.71 499.71 57.37 493.03 56.98 C 366.69 57.02 240.34 56.99 114.00 57.00 C 109.77 56.95 105.52 57.34 101.31 56.78 C 100.31 55.88 100.14 54.46 99.72 53.25 C 96.06 37.90 92.73 22.47 88.80 7.19 C 88.44 4.25 85.09 5.13 83.03 4.93 C 57.05 5.17 31.07 4.81 5.10 5.10 Z" />
<path fill="#86390f" opacity="1.00" d=" M 273.22 118.22 C 283.30 108.57 292.73 98.24 303.01 88.80 C 315.26 99.92 326.00 112.67 338.74 123.26 C 348.81 133.19 358.67 143.33 368.78 153.21 C 378.27 161.01 386.44 170.22 395.25 178.75 C 398.29 181.73 401.36 184.68 404.14 187.92 C 387.43 188.12 370.71 187.93 354.00 188.00 C 349.44 188.08 344.85 187.61 340.32 188.23 C 340.05 188.50 339.51 189.05 339.24 189.32 C 338.59 194.18 339.11 199.11 339.00 204.00 C 338.91 223.63 339.16 243.27 338.91 262.90 C 314.64 263.07 290.36 263.08 266.10 262.90 C 265.77 237.97 266.22 213.02 265.90 188.09 C 244.56 187.79 223.20 188.19 201.86 187.92 C 209.84 179.23 218.53 171.21 226.74 162.73 C 232.20 156.84 238.88 152.24 244.25 146.25 C 253.91 136.91 262.85 126.80 273.22 118.22 M 269.94 127.94 C 260.32 137.31 250.99 146.99 241.38 156.38 C 231.61 164.51 223.02 173.92 214.04 182.89 C 230.38 183.16 246.73 182.93 263.07 182.97 C 265.59 183.07 268.93 183.07 270.20 185.72 C 271.52 189.31 270.90 193.26 271.03 197.01 C 271.02 217.31 270.90 237.62 271.07 257.93 C 292.02 258.05 312.98 258.05 333.93 257.93 C 334.11 235.93 333.96 213.93 333.97 191.93 C 334.04 189.53 334.14 186.79 336.05 185.05 C 337.79 183.14 340.53 183.04 342.93 182.97 C 359.27 182.93 375.62 183.16 391.96 182.89 C 383.33 174.24 375.04 165.19 365.61 157.38 C 355.34 147.32 345.34 136.98 335.05 126.94 C 323.58 117.49 313.97 106.05 303.00 96.05 C 291.69 106.38 281.76 118.17 269.94 127.94 Z" />
<path fill="#86390f" opacity="1.00" d=" M 213.91 435.04 C 219.67 432.84 225.92 432.83 232.00 432.89 C 243.31 432.51 254.28 437.94 261.98 446.02 C 272.46 456.47 277.14 472.43 273.84 486.87 C 271.97 496.38 266.68 505.05 259.44 511.44 C 254.10 516.58 247.06 519.25 240.32 522.00 L 219.66 522.00 C 214.01 520.10 208.30 518.03 203.39 514.58 C 195.71 508.80 189.37 500.85 186.53 491.58 C 184.80 486.23 184.84 480.54 184.91 474.98 C 184.63 457.27 197.48 440.83 213.91 435.04 M 221.38 438.40 C 208.61 440.55 197.84 449.99 192.68 461.68 C 189.48 468.91 189.52 477.05 190.28 484.78 C 192.37 498.23 202.38 510.14 215.10 514.87 C 222.01 517.60 229.63 517.31 236.91 516.83 C 253.12 514.16 266.63 500.22 269.13 484.03 C 273.25 463.39 257.65 441.43 236.92 438.17 C 231.76 437.73 226.52 437.72 221.38 438.40 Z" />
<path fill="#86390f" opacity="1.00" d=" M 350.30 461.17 C 355.65 446.89 368.88 435.48 384.10 433.29 C 390.01 432.74 396.00 432.66 401.90 433.31 C 413.54 435.43 423.80 442.86 430.37 452.58 C 441.83 469.84 439.63 495.10 424.48 509.49 C 418.83 515.69 410.97 519.00 403.33 522.00 L 382.66 522.00 C 377.45 520.25 372.22 518.36 367.58 515.37 C 356.85 508.12 348.73 496.23 348.02 483.06 C 347.75 475.73 347.53 468.11 350.30 461.17 M 384.37 438.40 C 366.10 441.54 351.55 459.35 352.88 478.00 C 351.94 497.19 367.97 515.23 387.01 516.91 C 393.66 517.21 400.65 517.67 406.90 514.90 C 419.38 510.22 429.10 498.87 431.69 485.78 C 433.27 477.51 432.57 468.67 429.01 460.98 C 423.94 449.51 413.09 440.76 400.79 438.30 C 395.35 437.67 389.80 437.71 384.37 438.40 Z" />
</g>
<g id="#ff782eff">
<path fill="#ff782e" opacity="1.00" d=" M 5.10 5.10 C 31.07 4.81 57.05 5.17 83.03 4.93 C 85.09 5.13 88.44 4.25 88.80 7.19 C 92.73 22.47 96.06 37.90 99.72 53.25 C 100.14 54.46 100.31 55.88 101.31 56.78 C 105.52 57.34 109.77 56.95 114.00 57.00 C 240.34 56.99 366.69 57.02 493.03 56.98 C 499.71 57.37 508.54 58.71 510.98 66.05 C 512.89 72.51 511.79 79.39 511.99 86.03 C 506.79 151.81 501.70 217.62 496.48 283.41 C 495.79 288.62 496.09 294.13 494.01 299.05 C 492.51 302.41 488.51 302.98 485.28 303.39 C 461.44 305.53 437.78 309.26 414.00 312.00 C 351.63 320.00 289.24 327.88 226.86 335.81 C 211.28 338.17 195.50 339.33 179.98 342.04 C 184.20 356.48 190.04 370.39 194.36 384.81 C 212.56 385.28 230.79 384.85 249.00 385.00 C 311.66 385.00 374.33 385.00 437.00 385.00 C 458.89 385.13 480.79 384.74 502.66 385.18 C 505.23 396.56 508.41 407.79 510.83 419.21 C 512.65 427.42 515.25 435.49 516.13 443.88 C 498.85 444.06 481.56 444.16 464.29 443.83 C 462.59 437.99 461.31 432.03 459.61 426.19 C 442.09 425.72 424.54 426.14 407.00 426.00 C 349.00 426.00 291.00 426.00 233.00 426.00 C 222.68 426.16 212.34 425.69 202.03 426.18 C 194.36 427.44 186.56 426.53 178.89 427.75 C 173.17 428.31 166.69 428.75 161.77 425.22 C 158.07 422.13 156.85 417.19 155.19 412.86 C 149.26 393.44 144.31 373.74 138.77 354.21 C 111.64 255.39 84.37 156.61 57.23 57.79 C 55.23 51.62 54.20 45.17 51.78 39.14 C 36.23 38.69 20.66 39.28 5.10 38.90 C 4.91 27.64 4.91 16.36 5.10 5.10 M 273.22 118.22 C 262.85 126.80 253.91 136.91 244.25 146.25 C 238.88 152.24 232.20 156.84 226.74 162.73 C 218.53 171.21 209.84 179.23 201.86 187.92 C 223.20 188.19 244.56 187.79 265.90 188.09 C 266.22 213.02 265.77 237.97 266.10 262.90 C 290.36 263.08 314.64 263.07 338.91 262.90 C 339.16 243.27 338.91 223.63 339.00 204.00 C 339.11 199.11 338.59 194.18 339.24 189.32 C 339.51 189.05 340.05 188.50 340.32 188.23 C 344.85 187.61 349.44 188.08 354.00 188.00 C 370.71 187.93 387.43 188.12 404.14 187.92 C 401.36 184.68 398.29 181.73 395.25 178.75 C 386.44 170.22 378.27 161.01 368.78 153.21 C 358.67 143.33 348.81 133.19 338.74 123.26 C 326.00 112.67 315.26 99.92 303.01 88.80 C 292.73 98.24 283.30 108.57 273.22 118.22 Z" />
<path fill="#ff782e" opacity="1.00" d=" M 221.38 438.40 C 226.52 437.72 231.76 437.73 236.92 438.17 C 257.65 441.43 273.25 463.39 269.13 484.03 C 266.63 500.22 253.12 514.16 236.91 516.83 C 229.63 517.31 222.01 517.60 215.10 514.87 C 202.38 510.14 192.37 498.23 190.28 484.78 C 189.52 477.05 189.48 468.91 192.68 461.68 C 197.84 449.99 208.61 440.55 221.38 438.40 Z" />
<path fill="#ff782e" opacity="1.00" d=" M 384.37 438.40 C 389.80 437.71 395.35 437.67 400.79 438.30 C 413.09 440.76 423.94 449.51 429.01 460.98 C 432.57 468.67 433.27 477.51 431.69 485.78 C 429.10 498.87 419.38 510.22 406.90 514.90 C 400.65 517.67 393.66 517.21 387.01 516.91 C 367.97 515.23 351.94 497.19 352.88 478.00 C 351.55 459.35 366.10 441.54 384.37 438.40 Z" />
</g>
</svg>
