<?xml version="1.0" encoding="UTF-8" ?>
<!DOCTYPE svg PUBLIC "-//W3C//DTD SVG 1.1//EN" "http://www.w3.org/Graphics/SVG/1.1/DTD/svg11.dtd">
<svg width="512pt" height="512pt" viewBox="0 0 512 512" version="1.1" xmlns="http://www.w3.org/2000/svg">
<g id="#8892a0ff">
<path fill="#8892a0" opacity="1.00" d=" M 16.01 40.02 C 15.66 27.19 27.18 15.68 40.00 16.01 C 182.99 15.98 325.99 16.01 468.99 15.99 C 473.37 15.86 477.88 16.23 481.89 18.15 C 490.32 21.83 496.06 30.76 495.99 39.96 C 496.02 140.97 495.99 241.98 496.00 342.99 C 496.56 353.89 488.85 364.51 478.24 367.16 C 474.58 368.20 470.75 367.99 467.00 368.00 C 415.33 368.00 363.66 368.01 311.99 368.00 C 274.66 368.00 237.34 368.00 200.01 368.00 C 146.34 367.97 92.67 368.06 39.00 367.95 C 26.55 367.75 15.70 356.45 16.01 344.00 C 15.99 242.67 15.99 141.35 16.01 40.02 M 48.01 48.01 C 48.00 121.63 47.98 195.25 48.02 268.86 C 47.98 280.57 47.99 292.28 48.01 303.99 C 186.67 304.01 325.33 304.01 463.99 303.99 C 464.01 218.66 464.01 133.34 463.99 48.01 C 441.83 47.99 419.67 48.00 397.51 48.01 C 281.01 48.00 164.51 47.99 48.01 48.01 M 424.01 328.01 C 423.99 333.33 423.99 338.66 424.01 343.99 C 429.33 344.01 434.66 344.01 439.99 343.99 C 440.01 338.66 440.01 333.33 439.99 328.01 C 434.66 327.99 429.33 327.99 424.01 328.01 M 456.01 328.01 C 455.99 333.34 455.99 338.66 456.01 343.99 C 461.33 344.01 466.66 344.01 471.99 343.99 C 472.01 338.66 472.01 333.33 471.99 328.01 C 466.66 327.99 461.33 327.99 456.01 328.01 Z" />
<path fill="#8892a0" opacity="1.00" d=" M 152.11 469.87 C 152.87 458.58 162.69 448.82 173.98 448.10 C 182.65 447.86 191.33 448.06 200.01 448.00 C 237.34 448.00 274.66 448.00 311.99 448.00 C 320.68 448.06 329.37 447.86 338.05 448.11 C 349.34 448.82 359.11 458.59 359.88 469.87 C 360.15 478.57 359.93 487.29 360.00 496.00 C 290.67 496.00 221.33 496.00 152.00 496.00 C 152.07 487.29 151.85 478.57 152.11 469.87 Z" />
</g>
<g id="#e3f4fdff">
<path fill="#e3f4fd" opacity="1.00" d=" M 48.01 48.01 C 164.51 47.99 281.01 48.00 397.51 48.01 C 395.40 62.46 391.75 76.68 386.85 90.44 C 385.89 90.15 384.93 89.86 383.98 89.57 C 384.02 86.39 384.02 83.21 383.98 80.03 C 373.71 80.01 363.44 79.90 353.18 80.10 C 352.89 80.09 352.32 80.07 352.03 80.06 C 336.03 79.94 320.03 80.00 304.03 80.02 C 303.96 90.68 304.02 101.34 304.00 112.00 C 304.12 127.95 303.77 143.91 304.16 159.86 C 318.47 160.25 332.81 159.87 347.14 160.02 C 337.99 171.57 327.62 182.09 316.73 192.00 C 312.49 192.02 308.26 191.95 304.02 192.03 C 303.97 195.59 304.00 199.15 303.99 202.72 C 293.67 210.27 283.61 218.48 272.06 224.09 C 271.90 213.40 272.09 202.71 271.97 192.02 C 245.32 191.99 218.67 191.98 192.03 192.03 C 191.96 202.68 192.02 213.34 192.00 224.00 C 191.97 235.63 192.02 247.26 191.99 258.90 C 181.48 261.84 170.85 264.45 160.06 266.15 C 159.92 252.10 160.06 238.05 160.00 224.00 C 159.98 213.34 160.04 202.68 159.98 192.03 C 133.33 191.98 106.67 191.98 80.02 192.03 C 79.96 202.68 80.02 213.34 80.00 224.00 C 79.99 239.94 80.02 255.87 80.00 271.81 C 69.33 270.97 58.65 270.14 48.02 268.86 C 47.98 195.25 48.00 121.63 48.01 48.01 M 80.02 80.02 C 79.99 90.68 79.97 101.34 80.04 112.00 C 80.02 127.97 79.85 143.94 80.12 159.91 C 106.71 160.04 133.31 160.11 159.90 159.87 C 160.15 143.92 159.96 127.95 159.96 112.00 C 160.03 101.34 160.01 90.68 159.98 80.02 C 133.33 79.99 106.67 79.99 80.02 80.02 M 192.02 80.02 C 191.99 90.68 191.97 101.34 192.03 112.00 C 192.01 127.95 191.87 143.91 192.11 159.86 C 218.69 160.12 245.29 160.05 271.87 159.89 C 272.15 143.94 271.97 127.96 271.97 112.00 C 272.03 101.34 272.00 90.68 271.98 80.02 C 245.33 79.99 218.67 79.99 192.02 80.02 Z" />
</g>
<g id="#b9e4f9ff">
<path fill="#b9e4f9" opacity="1.00" d=" M 397.51 48.01 C 419.67 48.00 441.83 47.99 463.99 48.01 C 464.01 133.34 464.01 218.66 463.99 303.99 C 325.33 304.01 186.67 304.01 48.01 303.99 C 47.99 292.28 47.98 280.57 48.02 268.86 C 58.65 270.14 69.33 270.97 80.00 271.81 C 106.63 272.23 133.29 271.92 159.92 271.97 C 159.99 270.03 160.06 268.09 160.06 266.15 C 170.85 264.45 181.48 261.84 191.99 258.90 C 192.02 263.25 191.93 267.60 192.04 271.96 C 218.68 272.03 245.32 272.02 271.95 271.96 C 272.11 256.00 271.89 240.04 272.06 224.09 C 283.61 218.48 293.67 210.27 303.99 202.72 C 304.01 209.81 303.99 216.91 304.00 224.00 C 304.03 239.98 303.94 255.97 304.04 271.96 C 330.68 272.03 357.32 272.03 383.96 271.96 C 384.07 255.97 383.97 239.99 384.00 224.00 C 383.97 213.34 384.06 202.69 383.96 192.03 C 361.55 191.95 339.14 192.03 316.73 192.00 C 327.62 182.09 337.99 171.57 347.14 160.02 C 359.41 159.93 371.68 160.08 383.95 159.96 C 384.06 153.44 384.05 146.91 383.88 140.38 C 386.55 133.58 389.23 126.79 392.03 120.05 C 404.11 115.10 416.26 110.29 428.40 105.48 C 429.35 105.02 430.66 104.82 431.09 103.70 C 416.34 99.29 401.60 94.86 386.85 90.44 C 391.75 76.68 395.40 62.46 397.51 48.01 Z" />
</g>
<g id="#b8b9b3ff">
<path fill="#b8b9b3" opacity="1.00" d=" M 80.02 80.02 C 106.67 79.99 133.33 79.99 159.98 80.02 C 160.01 90.68 160.03 101.34 159.96 112.00 C 133.32 112.00 106.68 112.00 80.04 112.00 C 79.97 101.34 79.99 90.68 80.02 80.02 Z" />
<path fill="#b8b9b3" opacity="1.00" d=" M 192.02 80.02 C 218.67 79.99 245.33 79.99 271.98 80.02 C 272.00 90.68 272.03 101.34 271.97 112.00 C 245.32 112.00 218.68 112.00 192.03 112.00 C 191.97 101.34 191.99 90.68 192.02 80.02 Z" />
<path fill="#b8b9b3" opacity="1.00" d=" M 304.03 80.02 C 320.03 80.00 336.03 79.94 352.03 80.06 C 355.20 90.70 358.41 101.34 361.59 111.99 C 342.40 112.02 323.20 111.99 304.00 112.00 C 304.02 101.34 303.96 90.68 304.03 80.02 Z" />
<path fill="#b8b9b3" opacity="1.00" d=" M 353.18 80.10 C 363.44 79.90 373.71 80.01 383.98 80.03 C 384.02 83.21 384.02 86.39 383.98 89.57 C 373.73 86.37 363.31 83.66 353.18 80.10 Z" />
<path fill="#b8b9b3" opacity="1.00" d=" M 80.02 192.03 C 106.67 191.98 133.33 191.98 159.98 192.03 C 160.04 202.68 159.98 213.34 160.00 224.00 C 133.33 224.00 106.67 224.00 80.00 224.00 C 80.02 213.34 79.96 202.68 80.02 192.03 Z" />
<path fill="#b8b9b3" opacity="1.00" d=" M 192.03 192.03 C 218.67 191.98 245.32 191.99 271.97 192.02 C 272.09 202.71 271.90 213.40 272.06 224.09 C 245.37 223.89 218.69 224.06 192.00 224.00 C 192.02 213.34 191.96 202.68 192.03 192.03 Z" />
<path fill="#b8b9b3" opacity="1.00" d=" M 304.02 192.03 C 308.26 191.95 312.49 192.02 316.73 192.00 C 339.14 192.03 361.55 191.95 383.96 192.03 C 384.06 202.69 383.97 213.34 384.00 224.00 C 357.33 224.00 330.67 224.00 304.00 224.00 C 303.99 216.91 304.01 209.81 303.99 202.72 C 304.00 199.15 303.97 195.59 304.02 192.03 Z" />
</g>
<g id="#f7d881ff">
<path fill="#f7d881" opacity="1.00" d=" M 352.03 80.06 C 352.32 80.07 352.89 80.09 353.18 80.10 C 363.31 83.66 373.73 86.37 383.98 89.57 C 384.93 89.86 385.89 90.15 386.85 90.44 C 401.60 94.86 416.34 99.29 431.09 103.70 C 430.66 104.82 429.35 105.02 428.40 105.48 C 416.26 110.29 404.11 115.10 392.03 120.05 C 389.23 126.79 386.55 133.58 383.88 140.38 C 381.18 146.80 378.82 153.35 375.99 159.72 C 371.05 143.85 366.43 127.89 361.59 111.99 C 358.41 101.34 355.20 90.70 352.03 80.06 Z" />
</g>
<g id="#ffffffff">
<path fill="#ffffff" opacity="1.00" d=" M 80.04 112.00 C 106.68 112.00 133.32 112.00 159.96 112.00 C 159.96 127.95 160.15 143.92 159.90 159.87 C 133.31 160.11 106.71 160.04 80.12 159.91 C 79.85 143.94 80.02 127.97 80.04 112.00 Z" />
<path fill="#ffffff" opacity="1.00" d=" M 192.03 112.00 C 218.68 112.00 245.32 112.00 271.97 112.00 C 271.97 127.96 272.15 143.94 271.87 159.89 C 245.29 160.05 218.69 160.12 192.11 159.86 C 191.87 143.91 192.01 127.95 192.03 112.00 Z" />
<path fill="#ffffff" opacity="1.00" d=" M 304.00 112.00 C 323.20 111.99 342.40 112.02 361.59 111.99 C 366.43 127.89 371.05 143.85 375.99 159.72 C 378.82 153.35 381.18 146.80 383.88 140.38 C 384.05 146.91 384.06 153.44 383.95 159.96 C 371.68 160.08 359.41 159.93 347.14 160.02 C 332.81 159.87 318.47 160.25 304.16 159.86 C 303.77 143.91 304.12 127.95 304.00 112.00 Z" />
<path fill="#ffffff" opacity="1.00" d=" M 80.00 224.00 C 106.67 224.00 133.33 224.00 160.00 224.00 C 160.06 238.05 159.92 252.10 160.06 266.15 C 160.06 268.09 159.99 270.03 159.92 271.97 C 133.29 271.92 106.63 272.23 80.00 271.81 C 80.02 255.87 79.99 239.94 80.00 224.00 Z" />
<path fill="#ffffff" opacity="1.00" d=" M 192.00 224.00 C 218.69 224.06 245.37 223.89 272.06 224.09 C 271.89 240.04 272.11 256.00 271.95 271.96 C 245.32 272.02 218.68 272.03 192.04 271.96 C 191.93 267.60 192.02 263.25 191.99 258.90 C 192.02 247.26 191.97 235.63 192.00 224.00 Z" />
<path fill="#ffffff" opacity="1.00" d=" M 304.00 224.00 C 330.67 224.00 357.33 224.00 384.00 224.00 C 383.97 239.99 384.07 255.97 383.96 271.96 C 357.32 272.03 330.68 272.03 304.04 271.96 C 303.94 255.97 304.03 239.98 304.00 224.00 Z" />
<path fill="#ffffff" opacity="1.00" d=" M 424.01 328.01 C 429.33 327.99 434.66 327.99 439.99 328.01 C 440.01 333.33 440.01 338.66 439.99 343.99 C 434.66 344.01 429.33 344.01 424.01 343.99 C 423.99 338.66 423.99 333.33 424.01 328.01 Z" />
<path fill="#ffffff" opacity="1.00" d=" M 456.01 328.01 C 461.33 327.99 466.66 327.99 471.99 328.01 C 472.01 333.33 472.01 338.66 471.99 343.99 C 466.66 344.01 461.33 344.01 456.01 343.99 C 455.99 338.66 455.99 333.34 456.01 328.01 Z" />
</g>
<g id="#666e78ff">
<path fill="#666e78" opacity="1.00" d=" M 200.01 368.00 C 237.34 368.00 274.66 368.00 311.99 368.00 C 312.00 394.66 312.00 421.33 311.99 448.00 C 274.66 448.00 237.34 448.00 200.01 448.00 C 200.00 421.33 200.00 394.67 200.01 368.00 Z" />
</g>
</svg>
