<?xml version="1.0" encoding="UTF-8" ?>
<!DOCTYPE svg PUBLIC "-//W3C//DTD SVG 1.1//EN" "http://www.w3.org/Graphics/SVG/1.1/DTD/svg11.dtd">
<svg width="512pt" height="512pt" viewBox="0 0 512 512" version="1.1" xmlns="http://www.w3.org/2000/svg">
<g id="#0172fbff">
<path fill="#0172fb" opacity="1.00" d=" M 60.03 0.00 L 109.37 0.00 C 105.76 1.96 101.62 3.81 99.79 7.75 C 97.50 11.54 97.93 16.09 98.16 20.31 C 94.02 23.21 94.04 29.85 98.20 32.71 C 97.86 40.47 98.01 48.24 98.00 56.00 C 81.33 56.00 64.67 56.00 48.00 56.00 C 48.01 41.64 47.98 27.28 48.02 12.91 C 48.72 6.58 53.94 1.47 60.03 0.00 M 77.48 19.64 C 74.28 21.00 72.33 24.76 73.20 28.15 C 73.98 32.06 78.28 34.82 82.16 33.78 C 86.38 32.97 89.13 28.05 87.56 24.02 C 86.27 20.01 81.30 17.82 77.48 19.64 Z" />
<path fill="#0172fb" opacity="1.00" d=" M 195.10 382.20 C 207.17 382.20 219.25 382.03 231.32 382.29 C 221.98 384.42 213.80 391.18 210.80 400.39 C 208.71 400.40 206.62 400.40 204.53 400.38 C 203.11 393.61 199.85 387.23 195.10 382.20 Z" />
<path fill="#0172fb" opacity="1.00" d=" M 195.04 433.62 C 199.68 428.67 202.95 422.49 204.42 415.87 C 206.50 415.97 208.61 415.98 210.66 416.43 C 212.74 418.76 213.69 421.87 215.74 424.25 C 220.01 429.52 226.58 432.21 233.10 433.47 C 220.42 433.84 207.73 433.54 195.04 433.62 Z" />
</g>
<g id="#0182fcff">
<path fill="#0182fc" opacity="1.00" d=" M 109.37 0.00 L 450.32 0.00 C 457.78 0.70 464.07 7.39 463.99 14.93 C 464.01 28.62 464.00 42.31 464.00 56.00 C 342.00 56.00 220.00 56.00 98.00 56.00 C 98.01 48.24 97.86 40.47 98.20 32.71 C 103.08 36.26 110.64 32.03 109.97 25.99 C 109.81 20.34 102.69 17.01 98.16 20.31 C 97.93 16.09 97.50 11.54 99.79 7.75 C 101.62 3.81 105.76 1.96 109.37 0.00 M 121.51 19.63 C 116.49 21.55 115.44 29.06 119.75 32.27 C 123.70 35.85 130.81 33.44 131.77 28.20 C 133.45 22.51 126.82 17.00 121.51 19.63 M 427.47 19.65 C 422.49 21.60 421.46 29.05 425.74 32.26 C 429.69 35.87 436.82 33.44 437.78 28.19 C 439.44 22.49 432.77 16.96 427.47 19.65 Z" />
<path fill="#0182fc" opacity="1.00" d=" M 231.32 382.29 C 273.52 382.58 315.73 382.26 357.93 382.45 C 371.31 383.01 382.60 395.60 381.66 408.97 C 381.42 421.90 369.94 433.24 357.01 433.34 C 315.70 433.52 274.40 433.28 233.10 433.47 C 226.58 432.21 220.01 429.52 215.74 424.25 C 213.69 421.87 212.74 418.76 210.66 416.43 C 208.61 415.98 206.50 415.97 204.42 415.87 L 204.52 415.40 C 250.02 415.40 295.51 415.41 341.01 415.40 C 345.17 415.76 349.23 412.30 349.21 408.06 C 349.43 404.12 345.99 400.42 342.03 400.42 C 298.29 400.37 254.54 400.43 210.80 400.39 C 213.80 391.18 221.98 384.42 231.32 382.29 Z" />
</g>
<g id="#fd4755ff">
<path fill="#fd4755" opacity="1.00" d=" M 77.48 19.64 C 81.30 17.82 86.27 20.01 87.56 24.02 C 89.13 28.05 86.38 32.97 82.16 33.78 C 78.28 34.82 73.98 32.06 73.20 28.15 C 72.33 24.76 74.28 21.00 77.48 19.64 Z" />
<path fill="#fd4755" opacity="1.00" d=" M 299.17 134.46 C 306.74 134.41 314.33 134.24 321.90 134.54 C 319.73 135.54 317.70 137.29 318.03 139.94 C 317.89 153.44 318.03 166.95 317.99 180.46 C 311.72 180.47 305.45 180.47 299.18 180.46 C 299.21 165.12 299.22 149.79 299.17 134.46 Z" />
</g>
<g id="#fee45aff">
<path fill="#fee45a" opacity="1.00" d=" M 98.16 20.31 C 102.69 17.01 109.81 20.34 109.97 25.99 C 110.64 32.03 103.08 36.26 98.20 32.71 C 94.04 29.85 94.02 23.21 98.16 20.31 Z" />
</g>
<g id="#4fc123ff">
<path fill="#4fc123" opacity="1.00" d=" M 121.51 19.63 C 126.82 17.00 133.45 22.51 131.77 28.20 C 130.81 33.44 123.70 35.85 119.75 32.27 C 115.44 29.06 116.49 21.55 121.51 19.63 Z" />
<path fill="#4fc123" opacity="1.00" d=" M 363.95 187.94 C 364.02 185.77 366.78 184.25 368.65 185.37 C 370.47 186.50 372.07 187.94 373.81 189.20 C 393.62 204.36 413.41 219.56 433.21 234.73 C 435.31 235.88 435.66 239.16 433.56 240.50 C 416.18 253.89 398.76 267.24 381.32 280.55 C 380.32 270.42 381.42 260.21 380.70 250.08 C 380.52 247.14 377.15 247.25 374.99 247.22 C 342.66 247.32 310.32 247.20 277.98 247.31 C 276.06 247.27 274.10 247.22 272.26 246.64 C 270.93 244.70 271.23 242.23 271.13 240.02 C 271.28 231.18 271.07 222.34 271.33 213.50 C 300.91 213.73 330.50 213.54 360.08 213.59 C 362.07 213.80 364.04 212.12 363.87 210.07 C 363.98 202.69 363.81 195.32 363.95 187.94 Z" />
<path fill="#4fc123" opacity="1.00" d=" M 182.40 373.27 C 187.14 375.43 191.55 378.37 195.10 382.20 C 199.85 387.23 203.11 393.61 204.53 400.38 C 205.47 405.33 205.49 410.45 204.52 415.40 L 204.42 415.87 C 202.95 422.49 199.68 428.67 195.04 433.62 C 191.34 437.57 186.70 440.50 181.84 442.80 C 176.59 438.32 170.34 434.81 166.70 428.71 C 168.42 428.33 170.05 427.55 171.27 426.25 C 178.60 418.91 185.98 411.61 193.27 404.22 C 195.83 401.64 196.04 397.16 193.68 394.38 C 191.14 391.00 185.66 390.62 182.70 393.66 C 176.99 399.25 171.41 404.97 165.72 410.58 C 163.74 408.70 161.85 406.74 159.92 404.82 C 161.47 398.84 162.81 392.63 166.37 387.44 C 170.04 381.09 176.32 377.03 182.40 373.27 Z" />
</g>
<g id="#ffffffff">
<path fill="#ffffff" opacity="1.00" d=" M 427.47 19.65 C 432.77 16.96 439.44 22.49 437.78 28.19 C 436.82 33.44 429.69 35.87 425.74 32.26 C 421.46 29.05 422.49 21.60 427.47 19.65 Z" />
<path fill="#ffffff" opacity="1.00" d=" M 182.70 393.66 C 185.66 390.62 191.14 391.00 193.68 394.38 C 196.04 397.16 195.83 401.64 193.27 404.22 C 185.98 411.61 178.60 418.91 171.27 426.25 C 170.05 427.55 168.42 428.33 166.70 428.71 C 164.42 428.85 162.04 428.19 160.42 426.52 C 155.10 421.19 149.77 415.87 144.45 410.54 C 142.15 408.20 141.75 404.29 143.50 401.52 C 145.41 398.26 149.94 396.91 153.28 398.74 C 155.89 400.27 157.69 402.82 159.92 404.82 C 161.85 406.74 163.74 408.70 165.72 410.58 C 171.41 404.97 176.99 399.25 182.70 393.66 Z" />
<path fill="#ffffff" opacity="1.00" d=" M 204.53 400.38 C 206.62 400.40 208.71 400.40 210.80 400.39 C 254.54 400.43 298.29 400.37 342.03 400.42 C 345.99 400.42 349.43 404.12 349.21 408.06 C 349.23 412.30 345.17 415.76 341.01 415.40 C 295.51 415.41 250.02 415.40 204.52 415.40 C 205.49 410.45 205.47 405.33 204.53 400.38 Z" />
</g>
<g id="#e2deffff">
<path fill="#e2deff" opacity="1.00" d=" M 48.00 56.00 C 64.67 56.00 81.33 56.00 98.00 56.00 C 98.26 69.74 97.52 83.50 98.39 97.22 C 96.39 100.55 96.40 104.41 98.40 107.75 C 97.81 112.22 97.82 116.75 98.38 121.23 C 96.36 124.55 96.41 128.41 98.37 131.75 C 97.89 140.30 97.56 148.93 98.53 157.45 C 96.11 160.39 96.11 164.69 98.53 167.62 C 97.54 174.35 98.13 181.15 98.01 187.91 C 97.99 239.95 98.00 291.99 98.01 344.03 C 97.86 380.74 98.21 417.45 97.85 454.15 C 78.30 437.80 61.31 418.25 47.96 396.54 C 48.04 310.22 47.98 223.90 47.99 137.57 C 48.01 110.38 47.99 83.19 48.00 56.00 Z" />
</g>
<g id="#f3f0ffff">
<path fill="#f3f0ff" opacity="1.00" d=" M 98.00 56.00 C 220.00 56.00 342.00 56.00 464.00 56.00 C 464.01 83.20 463.98 110.39 464.01 137.59 C 463.99 223.88 463.99 310.16 464.02 396.45 C 445.23 426.59 419.83 452.55 390.14 472.03 C 300.73 471.98 211.33 471.98 121.92 472.03 C 113.52 466.59 105.59 460.47 97.85 454.15 C 98.21 417.45 97.86 380.74 98.01 344.03 C 98.00 291.99 97.99 239.95 98.01 187.91 C 98.13 181.15 97.54 174.35 98.53 167.62 C 100.06 168.90 101.84 170.05 103.92 170.01 C 114.65 170.15 125.39 169.99 136.12 170.09 C 137.97 169.95 139.36 171.50 139.79 173.16 C 154.11 214.49 168.46 255.81 182.76 297.14 C 184.06 301.38 186.05 305.60 189.65 308.35 C 193.57 311.68 198.84 312.79 203.88 312.53 C 195.15 321.69 195.69 337.56 204.56 346.46 C 210.81 353.14 220.80 355.93 229.60 353.41 C 238.37 351.10 245.46 343.67 247.48 334.85 C 249.39 327.09 247.23 318.62 242.10 312.54 C 256.99 312.53 271.88 312.55 286.76 312.53 C 280.77 319.32 278.98 329.43 282.22 337.88 C 285.71 347.59 295.65 354.49 305.99 354.32 C 316.29 354.43 326.17 347.53 329.62 337.82 C 332.85 329.38 330.99 319.38 325.12 312.53 C 330.48 311.88 337.56 314.48 341.43 309.45 C 344.96 305.10 341.65 297.74 336.02 297.59 C 291.33 297.46 246.63 297.58 201.93 297.53 C 200.18 297.68 198.34 296.70 197.91 294.92 C 183.11 252.49 168.48 210.01 153.70 167.58 C 151.25 160.21 143.83 154.93 136.06 155.07 C 125.35 155.07 114.65 155.03 103.94 155.09 C 101.86 155.00 100.07 156.19 98.53 157.45 C 97.56 148.93 97.89 140.30 98.37 131.75 C 100.40 132.94 102.55 134.14 104.99 133.99 C 119.35 134.02 133.72 134.00 148.08 134.00 C 150.93 134.14 153.99 133.07 155.47 130.49 C 157.62 127.28 156.65 122.62 153.54 120.41 C 151.39 118.78 148.54 119.05 146.00 118.97 C 132.32 119.04 118.63 118.96 104.95 119.01 C 102.53 118.87 100.39 120.05 98.38 121.23 C 97.82 116.75 97.81 112.22 98.40 107.75 C 100.39 108.94 102.53 110.14 104.94 109.99 C 119.64 109.99 134.33 110.06 149.03 109.95 C 152.98 110.15 156.50 106.76 156.63 102.85 C 156.90 98.73 153.31 94.86 149.13 95.05 C 134.41 94.93 119.69 95.02 104.97 95.01 C 102.55 94.86 100.40 96.04 98.39 97.22 C 97.52 83.50 98.26 69.74 98.00 56.00 M 204.57 115.03 C 204.58 136.78 204.49 158.52 204.62 180.26 C 197.78 180.43 190.93 180.17 184.10 180.39 C 179.88 180.67 176.78 185.43 178.50 189.38 C 188.63 218.62 198.77 247.86 208.92 277.10 C 209.65 279.73 212.10 281.96 214.91 281.92 C 228.01 282.00 241.11 281.84 254.21 282.00 C 281.83 281.69 309.46 282.00 337.08 281.83 C 339.88 281.84 342.40 279.75 343.12 277.07 C 344.79 272.06 346.81 267.14 348.12 262.01 C 352.42 262.00 356.72 261.96 361.03 262.02 C 362.44 262.52 363.49 263.59 363.78 265.10 C 363.87 272.41 363.75 279.71 363.84 287.02 C 363.43 289.70 366.94 291.83 369.09 290.12 C 373.16 286.93 377.51 284.02 381.32 280.55 C 398.76 267.24 416.18 253.89 433.56 240.50 C 435.66 239.16 435.31 235.88 433.21 234.73 C 413.41 219.56 393.62 204.36 373.81 189.20 C 374.72 185.52 372.59 181.12 368.61 180.61 C 362.27 180.23 355.91 180.55 349.56 180.45 C 349.57 166.96 349.57 153.47 349.56 139.98 C 349.79 137.34 347.65 134.69 344.95 134.63 C 337.26 134.52 329.58 134.69 321.90 134.54 C 314.33 134.24 306.74 134.41 299.17 134.46 C 299.11 127.95 299.20 121.45 299.13 114.95 C 299.20 112.30 296.78 109.90 294.13 110.02 C 275.73 109.98 257.32 110.00 238.92 110.01 C 228.60 110.04 218.28 109.91 207.96 110.07 C 205.97 110.93 204.59 112.84 204.57 115.03 M 156.98 371.84 C 144.07 375.53 133.63 386.78 131.02 399.96 C 129.23 407.26 130.11 415.07 132.91 422.00 C 137.53 433.77 148.55 442.68 160.95 444.90 C 167.95 446.18 175.25 445.43 181.84 442.80 C 186.70 440.50 191.34 437.57 195.04 433.62 C 207.73 433.54 220.42 433.84 233.10 433.47 C 274.40 433.28 315.70 433.52 357.01 433.34 C 369.94 433.24 381.42 421.90 381.66 408.97 C 382.60 395.60 371.31 383.01 357.93 382.45 C 315.73 382.26 273.52 382.58 231.32 382.29 C 219.25 382.03 207.17 382.20 195.10 382.20 C 191.55 378.37 187.14 375.43 182.40 373.27 C 174.46 369.76 165.26 369.24 156.98 371.84 Z" />
</g>
<g id="#cfcae4ff">
<path fill="#cfcae4" opacity="1.00" d=" M 98.39 97.22 C 100.40 96.04 102.55 94.86 104.97 95.01 C 119.69 95.02 134.41 94.93 149.13 95.05 C 153.31 94.86 156.90 98.73 156.63 102.85 C 156.50 106.76 152.98 110.15 149.03 109.95 C 134.33 110.06 119.64 109.99 104.94 109.99 C 102.53 110.14 100.39 108.94 98.40 107.75 C 96.40 104.41 96.39 100.55 98.39 97.22 Z" />
<path fill="#cfcae4" opacity="1.00" d=" M 98.38 121.23 C 100.39 120.05 102.53 118.87 104.95 119.01 C 118.63 118.96 132.32 119.04 146.00 118.97 C 148.54 119.05 151.39 118.78 153.54 120.41 C 156.65 122.62 157.62 127.28 155.47 130.49 C 153.99 133.07 150.93 134.14 148.08 134.00 C 133.72 134.00 119.35 134.02 104.99 133.99 C 102.55 134.14 100.40 132.94 98.37 131.75 C 96.41 128.41 96.36 124.55 98.38 121.23 Z" />
</g>
<g id="#d88a55ff">
<path fill="#d88a55" opacity="1.00" d=" M 204.57 115.03 C 204.59 112.84 205.97 110.93 207.96 110.07 C 218.28 109.91 228.60 110.04 238.92 110.01 C 236.87 111.75 235.65 114.20 235.94 116.93 C 236.04 138.11 235.97 159.28 235.98 180.46 C 232.31 180.44 228.64 180.56 224.98 180.35 C 218.19 180.10 211.40 180.27 204.62 180.26 C 204.49 158.52 204.58 136.78 204.57 115.03 Z" />
</g>
<g id="#ea9b58ff">
<path fill="#ea9b58" opacity="1.00" d=" M 238.92 110.01 C 257.32 110.00 275.73 109.98 294.13 110.02 C 296.78 109.90 299.20 112.30 299.13 114.95 C 299.20 121.45 299.11 127.95 299.17 134.46 C 299.22 149.79 299.21 165.12 299.18 180.46 C 278.11 180.48 257.05 180.47 235.98 180.46 C 235.97 159.28 236.04 138.11 235.94 116.93 C 235.65 114.20 236.87 111.75 238.92 110.01 Z" />
</g>
<g id="#fe646fff">
<path fill="#fe646f" opacity="1.00" d=" M 318.03 139.94 C 317.70 137.29 319.73 135.54 321.90 134.54 C 329.58 134.69 337.26 134.52 344.95 134.63 C 347.65 134.69 349.79 137.34 349.56 139.98 C 349.57 153.47 349.57 166.96 349.56 180.45 C 339.04 180.48 328.51 180.47 317.99 180.46 C 318.03 166.95 317.89 153.44 318.03 139.94 Z" />
</g>
<g id="#fac600ff">
<path fill="#fac600" opacity="1.00" d=" M 11.38 280.06 C 8.59 230.30 21.48 179.78 47.99 137.57 C 47.98 223.90 48.04 310.22 47.96 396.54 C 26.30 361.57 13.38 321.18 11.38 280.06 Z" />
<path fill="#fac600" opacity="1.00" d=" M 464.01 137.59 C 490.51 179.80 503.39 230.31 500.61 280.05 C 498.57 321.12 485.77 361.56 464.02 396.45 C 463.99 310.16 463.99 223.88 464.01 137.59 Z" />
<path fill="#fac600" opacity="1.00" d=" M 121.92 472.03 C 211.33 471.98 300.73 471.98 390.14 472.03 C 351.05 497.75 304.47 511.75 257.68 512.00 L 254.35 512.00 C 207.58 511.72 161.01 497.74 121.92 472.03 Z" />
</g>
<g id="#9182b0ff">
<path fill="#9182b0" opacity="1.00" d=" M 98.53 157.45 C 100.07 156.19 101.86 155.00 103.94 155.09 C 114.65 155.03 125.35 155.07 136.06 155.07 C 143.83 154.93 151.25 160.21 153.70 167.58 C 168.48 210.01 183.11 252.49 197.91 294.92 C 198.34 296.70 200.18 297.68 201.93 297.53 C 246.63 297.58 291.33 297.46 336.02 297.59 C 341.65 297.74 344.96 305.10 341.43 309.45 C 337.56 314.48 330.48 311.88 325.12 312.53 C 312.34 312.59 299.55 312.62 286.76 312.53 C 271.88 312.55 256.99 312.53 242.10 312.54 C 229.36 312.60 216.62 312.60 203.88 312.53 C 198.84 312.79 193.57 311.68 189.65 308.35 C 186.05 305.60 184.06 301.38 182.76 297.14 C 168.46 255.81 154.11 214.49 139.79 173.16 C 139.36 171.50 137.97 169.95 136.12 170.09 C 125.39 169.99 114.65 170.15 103.92 170.01 C 101.84 170.05 100.06 168.90 98.53 167.62 C 96.11 164.69 96.11 160.39 98.53 157.45 Z" />
</g>
<g id="#8ac9feff">
<path fill="#8ac9fe" opacity="1.00" d=" M 178.50 189.38 C 176.78 185.43 179.88 180.67 184.10 180.39 C 190.93 180.17 197.78 180.43 204.62 180.26 C 211.40 180.27 218.19 180.10 224.98 180.35 C 221.75 181.81 218.86 185.11 220.32 188.87 C 230.17 217.84 240.36 246.70 250.31 275.64 C 251.05 278.06 252.55 280.12 254.21 282.00 C 241.11 281.84 228.01 282.00 214.91 281.92 C 212.10 281.96 209.65 279.73 208.92 277.10 C 198.77 247.86 188.63 218.62 178.50 189.38 Z" />
</g>
<g id="#b3dafeff">
<path fill="#b3dafe" opacity="1.00" d=" M 224.98 180.35 C 228.64 180.56 232.31 180.44 235.98 180.46 C 257.05 180.47 278.11 180.48 299.18 180.46 C 305.45 180.47 311.72 180.47 317.99 180.46 C 328.51 180.47 339.04 180.48 349.56 180.45 C 355.91 180.55 362.27 180.23 368.61 180.61 C 372.59 181.12 374.72 185.52 373.81 189.20 C 372.07 187.94 370.47 186.50 368.65 185.37 C 366.78 184.25 364.02 185.77 363.95 187.94 C 363.81 195.32 363.98 202.69 363.87 210.07 C 364.04 212.12 362.07 213.80 360.08 213.59 C 330.50 213.54 300.91 213.73 271.33 213.50 C 266.93 213.21 262.51 213.43 258.11 213.37 C 256.09 213.27 254.00 214.87 254.12 217.01 C 254.07 230.69 254.11 244.38 254.10 258.06 C 253.83 259.68 255.01 260.94 256.17 261.87 C 286.81 262.17 317.47 261.89 348.12 262.01 C 346.81 267.14 344.79 272.06 343.12 277.07 C 342.40 279.75 339.88 281.84 337.08 281.83 C 309.46 282.00 281.83 281.69 254.21 282.00 C 252.55 280.12 251.05 278.06 250.31 275.64 C 240.36 246.70 230.17 217.84 220.32 188.87 C 218.86 185.11 221.75 181.81 224.98 180.35 Z" />
</g>
<g id="#47a920ff">
<path fill="#47a920" opacity="1.00" d=" M 254.12 217.01 C 254.00 214.87 256.09 213.27 258.11 213.37 C 262.51 213.43 266.93 213.21 271.33 213.50 C 271.07 222.34 271.28 231.18 271.13 240.02 C 271.23 242.23 270.93 244.70 272.26 246.64 C 274.10 247.22 276.06 247.27 277.98 247.31 C 310.32 247.20 342.66 247.32 374.99 247.22 C 377.15 247.25 380.52 247.14 380.70 250.08 C 381.42 260.21 380.32 270.42 381.32 280.55 C 377.51 284.02 373.16 286.93 369.09 290.12 C 366.94 291.83 363.43 289.70 363.84 287.02 C 363.75 279.71 363.87 272.41 363.78 265.10 C 363.49 263.59 362.44 262.52 361.03 262.02 C 356.72 261.96 352.42 262.00 348.12 262.01 C 317.47 261.89 286.81 262.17 256.17 261.87 C 255.01 260.94 253.83 259.68 254.10 258.06 C 254.11 244.38 254.07 230.69 254.12 217.01 Z" />
<path fill="#47a920" opacity="1.00" d=" M 156.98 371.84 C 165.26 369.24 174.46 369.76 182.40 373.27 C 176.32 377.03 170.04 381.09 166.37 387.44 C 162.81 392.63 161.47 398.84 159.92 404.82 C 157.69 402.82 155.89 400.27 153.28 398.74 C 149.94 396.91 145.41 398.26 143.50 401.52 C 141.75 404.29 142.15 408.20 144.45 410.54 C 149.77 415.87 155.10 421.19 160.42 426.52 C 162.04 428.19 164.42 428.85 166.70 428.71 C 170.34 434.81 176.59 438.32 181.84 442.80 C 175.25 445.43 167.95 446.18 160.95 444.90 C 148.55 442.68 137.53 433.77 132.91 422.00 C 130.11 415.07 129.23 407.26 131.02 399.96 C 133.63 386.78 144.07 375.53 156.98 371.84 Z" />
</g>
<g id="#7a6d98ff">
<path fill="#7a6d98" opacity="1.00" d=" M 204.56 346.46 C 195.69 337.56 195.15 321.69 203.88 312.53 C 216.62 312.60 229.36 312.60 242.10 312.54 C 247.23 318.62 249.39 327.09 247.48 334.85 C 245.46 343.67 238.37 351.10 229.60 353.41 C 220.80 355.93 210.81 353.14 204.56 346.46 M 219.22 321.13 C 213.25 323.58 212.44 332.69 217.88 336.15 C 222.90 340.03 231.07 336.35 231.52 330.02 C 232.55 323.58 225.02 318.12 219.22 321.13 Z" />
<path fill="#7a6d98" opacity="1.00" d=" M 286.76 312.53 C 299.55 312.62 312.34 312.59 325.12 312.53 C 330.99 319.38 332.85 329.38 329.62 337.82 C 326.17 347.53 316.29 354.43 305.99 354.32 C 295.65 354.49 285.71 347.59 282.22 337.88 C 278.98 329.43 280.77 319.32 286.76 312.53 M 302.15 321.18 C 296.32 323.69 295.51 332.59 300.82 336.08 C 305.85 340.09 314.16 336.35 314.56 329.95 C 315.57 323.46 307.92 318.08 302.15 321.18 Z" />
</g>
<g id="#b5add5ff">
<path fill="#b5add5" opacity="1.00" d=" M 219.22 321.13 C 225.02 318.12 232.55 323.58 231.52 330.02 C 231.07 336.35 222.90 340.03 217.88 336.15 C 212.44 332.69 213.25 323.58 219.22 321.13 Z" />
<path fill="#b5add5" opacity="1.00" d=" M 302.15 321.18 C 307.92 318.08 315.57 323.46 314.56 329.95 C 314.16 336.35 305.85 340.09 300.82 336.08 C 295.51 332.59 296.32 323.69 302.15 321.18 Z" />
</g>
</svg>
