<?xml version="1.0" encoding="UTF-8" ?>
<!DOCTYPE svg PUBLIC "-//W3C//DTD SVG 1.1//EN" "http://www.w3.org/Graphics/SVG/1.1/DTD/svg11.dtd">
<svg width="375pt" height="375pt" viewBox="0 0 375 375" version="1.1" xmlns="http://www.w3.org/2000/svg">
<g id="#ff782eff">
<path fill="#ff782e" opacity="1.00" d=" M 73.67 0.00 L 73.73 0.00 C 75.63 1.31 77.67 2.42 79.91 3.01 C 85.73 4.70 91.48 6.61 97.18 8.68 C 100.39 9.85 102.77 12.42 104.85 15.01 C 109.36 20.77 112.55 27.39 116.37 33.59 C 119.33 38.68 122.73 43.53 125.24 48.86 C 127.29 53.09 127.38 58.22 125.39 62.49 C 121.25 71.84 115.40 80.29 109.78 88.79 C 108.48 90.98 106.50 92.59 104.36 93.92 C 102.31 92.62 100.26 91.34 98.20 90.06 C 98.37 87.74 97.99 85.25 99.13 83.13 C 103.50 74.85 106.42 65.92 109.49 57.11 C 110.41 55.15 108.99 53.35 108.07 51.72 C 104.50 46.03 100.78 40.29 95.59 35.93 C 94.28 44.91 93.20 53.94 92.66 63.00 C 93.20 75.51 97.45 87.59 97.85 100.11 C 98.23 103.48 95.86 106.18 93.12 107.74 C 93.19 108.41 93.32 109.74 93.39 110.41 C 83.97 114.94 73.20 114.26 63.03 114.36 C 53.36 114.29 43.11 114.74 34.21 110.34 C 34.35 109.70 34.64 108.44 34.78 107.80 C 32.94 106.57 30.69 105.33 30.25 102.94 C 29.14 99.56 30.59 96.06 30.26 92.66 C 30.24 90.81 28.17 91.02 26.90 91.13 C 25.18 93.82 20.89 93.51 19.37 90.81 C 13.04 81.46 6.45 72.12 2.00 61.69 C -0.21 57.01 0.87 51.62 3.25 47.24 C 6.93 40.36 11.35 33.91 15.14 27.09 C 18.92 20.81 22.34 13.75 28.63 9.59 C 36.86 5.91 45.73 3.89 54.20 0.83 C 55.58 4.03 57.52 6.93 59.21 9.97 C 61.66 15.09 59.59 20.71 59.15 26.02 C 57.66 38.99 56.70 52.04 56.35 65.09 C 58.27 68.44 61.17 71.11 63.70 74.00 C 65.95 71.05 68.63 68.38 70.41 65.11 C 70.35 48.70 69.16 32.24 66.59 16.03 C 65.85 9.59 71.45 5.46 73.67 0.00 M 17.57 55.20 C 21.02 65.12 24.26 75.18 29.20 84.48 C 30.19 86.03 28.13 89.67 30.75 89.74 C 32.55 81.66 34.12 73.35 34.88 65.04 C 34.84 55.32 33.41 45.66 32.26 36.02 C 25.76 41.02 21.83 48.39 17.57 55.20 Z" />
<path fill="#ff782e" opacity="1.00" d=" M 305.31 0.00 L 306.63 0.00 C 309.15 0.26 311.58 1.03 313.90 2.04 C 321.51 5.62 330.07 2.11 338.03 3.62 C 341.49 5.16 343.28 8.83 344.79 12.09 C 346.84 17.23 348.59 22.63 348.82 28.19 C 349.13 29.81 347.33 30.25 346.29 30.96 C 331.47 39.11 313.98 43.89 297.12 40.41 C 292.20 39.48 286.67 36.93 285.79 31.41 C 282.83 35.51 280.77 41.51 284.04 46.01 C 288.20 51.44 295.70 52.06 302.00 52.41 C 318.41 52.07 336.19 48.35 347.97 36.02 C 352.21 31.09 359.32 29.75 365.50 30.73 C 369.78 31.47 373.87 34.63 374.66 39.06 C 375.24 42.29 372.20 44.57 369.49 45.45 C 361.56 48.15 352.91 45.13 344.99 47.94 C 335.13 51.44 326.31 57.19 317.23 62.29 C 307.19 67.89 295.48 71.03 283.96 69.52 C 276.62 68.48 269.30 65.04 265.03 58.78 C 259.35 50.31 260.30 37.83 267.54 30.55 C 272.83 25.24 280.43 23.34 287.63 22.36 C 289.44 16.81 290.58 10.85 294.04 6.02 C 296.66 2.42 300.89 0.27 305.31 0.00 Z" />
<path fill="#ff782e" opacity="1.00" d=" M 168.16 7.08 C 168.91 5.14 169.52 2.53 171.98 2.19 C 174.57 1.34 176.21 3.77 177.54 5.52 C 186.95 5.02 196.79 6.25 204.90 11.37 C 214.56 17.08 220.38 27.60 222.55 38.36 C 217.38 37.15 212.03 37.77 207.03 39.41 C 187.29 45.50 169.84 57.09 150.47 64.07 C 147.77 64.69 143.42 66.63 141.77 63.41 C 140.22 50.65 138.92 36.78 144.78 24.85 C 149.33 15.65 158.68 10.08 168.16 7.08 Z" />
<path fill="#ff782e" opacity="1.00" d=" M 205.15 44.10 C 210.47 42.12 216.08 40.36 221.81 40.48 C 229.57 42.45 236.74 46.22 244.34 48.74 C 247.41 49.72 245.50 53.62 244.79 55.75 C 242.11 63.16 231.13 64.55 226.45 58.38 C 231.60 54.80 237.23 51.83 243.46 50.66 C 243.55 50.55 243.75 50.32 243.85 50.20 C 239.67 48.59 235.09 50.84 231.18 52.39 C 220.87 56.96 215.67 68.46 205.02 72.42 C 198.96 74.87 192.05 74.17 186.08 71.78 C 180.01 69.46 174.53 65.90 168.94 62.64 C 180.68 55.86 192.61 49.31 205.15 44.10 Z" />
<path fill="#ff782e" opacity="1.00" d=" M 341.81 83.98 C 342.79 82.33 344.75 82.36 346.44 82.23 C 348.41 88.76 347.05 95.78 349.02 102.36 C 350.23 96.48 350.13 90.07 353.97 85.07 C 355.05 85.28 356.11 85.55 357.17 85.88 C 358.89 93.00 354.74 99.94 355.75 107.08 C 358.05 102.93 358.75 98.12 361.01 93.97 C 362.45 92.02 366.23 93.42 365.64 95.92 C 364.88 101.83 361.84 107.13 360.57 112.90 C 360.16 118.95 359.63 124.99 358.72 130.99 C 358.02 134.26 360.04 137.27 359.65 140.53 C 359.24 143.88 361.63 146.80 361.39 150.12 C 359.33 153.28 355.26 152.61 352.05 152.59 C 348.14 152.32 344.11 152.71 340.33 151.48 C 340.70 146.43 339.50 141.42 338.26 136.56 C 334.60 130.10 329.66 124.45 326.03 117.97 C 324.35 114.81 321.66 112.40 319.29 109.79 C 320.69 108.99 322.19 107.64 323.93 108.45 C 328.11 110.35 331.04 114.22 335.32 116.00 C 335.84 107.27 334.05 98.63 333.62 89.93 C 334.05 88.81 334.47 87.69 334.89 86.56 C 336.51 86.42 338.69 85.69 339.28 87.87 C 339.73 91.64 340.33 95.40 341.04 99.14 C 341.62 94.10 341.25 89.01 341.81 83.98 Z" />
<path fill="#ff782e" opacity="1.00" d=" M 289.39 85.20 C 291.36 85.29 294.05 85.23 294.26 87.84 C 294.56 92.83 294.56 97.85 294.82 102.85 C 295.58 98.55 296.05 94.19 296.87 89.91 C 298.26 88.86 301.23 88.85 301.57 90.97 C 302.73 100.31 299.80 109.58 300.64 118.92 C 304.67 117.12 307.60 113.69 311.43 111.59 C 313.27 110.49 315.13 111.70 316.65 112.75 C 314.20 115.29 311.58 117.74 309.90 120.88 C 306.27 127.35 301.36 133.00 297.69 139.44 C 296.18 144.33 295.33 149.47 295.55 154.60 C 290.12 155.43 284.59 155.73 279.11 155.58 C 277.11 155.45 274.34 154.24 274.46 151.87 C 274.89 148.89 276.70 146.13 276.23 143.03 C 275.84 141.22 276.55 139.52 277.37 137.95 C 277.17 131.96 275.87 126.06 275.67 120.07 C 275.97 112.28 270.59 105.70 270.26 98.01 C 270.70 96.68 272.14 96.07 273.04 95.10 C 276.85 98.48 277.54 103.86 278.98 108.48 C 279.39 108.55 280.20 108.67 280.61 108.74 C 280.06 101.94 277.63 95.32 278.56 88.43 C 279.70 88.37 280.84 88.36 281.99 88.40 C 286.05 93.11 285.73 99.65 286.75 105.43 C 288.85 98.85 287.63 91.80 289.39 85.20 Z" />
<path fill="#ff782e" opacity="1.00" d=" M 152.57 92.62 C 154.36 91.41 156.70 89.84 158.92 90.98 C 165.15 94.15 171.00 98.01 177.16 101.31 C 175.52 103.36 173.06 104.46 171.07 106.10 C 164.07 111.77 159.12 120.10 158.07 129.10 C 152.44 124.72 147.00 120.09 141.87 115.13 C 139.82 113.37 140.44 110.33 141.22 108.08 C 143.53 102.05 147.47 96.60 152.57 92.62 Z" />
<path fill="#ff782e" opacity="1.00" d=" M 174.77 98.02 C 175.55 97.63 177.11 96.84 177.89 96.44 C 184.11 98.57 190.32 101.55 197.05 101.28 C 201.38 101.11 205.51 102.65 209.33 104.57 C 209.69 104.07 210.42 103.05 210.78 102.54 C 211.24 102.51 212.15 102.45 212.61 102.42 C 214.95 104.12 217.27 105.84 219.45 107.73 C 219.02 108.74 218.65 109.78 218.35 110.83 C 221.34 114.52 224.37 118.31 225.84 122.90 C 227.41 128.70 232.35 132.55 235.36 137.54 C 235.46 138.74 235.48 139.94 235.42 141.15 C 232.79 139.81 230.38 138.10 227.76 136.76 C 227.62 138.53 227.47 140.30 227.32 142.07 C 225.37 147.97 222.71 153.82 218.07 158.10 C 215.06 161.40 211.05 163.39 207.26 165.59 C 209.48 167.35 211.87 168.89 213.93 170.84 C 213.18 171.22 211.69 171.99 210.95 172.37 C 204.97 170.75 199.30 167.35 192.96 167.67 C 189.55 167.74 186.23 166.95 183.01 165.94 C 173.52 162.40 165.49 154.65 162.44 144.89 C 160.92 140.13 156.98 136.77 154.23 132.73 C 152.68 131.30 153.40 129.19 153.46 127.39 C 155.82 128.98 158.12 130.64 160.44 132.27 C 161.70 120.11 169.23 108.26 180.92 103.83 C 179.76 101.14 176.68 100.09 174.77 98.02 M 167.16 138.00 C 168.40 147.61 175.22 156.15 184.23 159.67 C 190.14 162.24 196.86 162.03 202.98 160.36 C 213.92 156.63 222.09 145.73 221.67 134.03 C 221.85 119.17 207.82 106.07 192.99 107.27 C 177.58 107.36 164.57 122.79 167.16 138.00 Z" />
<path fill="#ff782e" opacity="1.00" d=" M 195.41 109.23 C 199.22 109.23 197.64 113.43 197.71 115.80 C 196.90 115.75 195.30 115.66 194.50 115.61 C 194.71 113.47 195.03 111.34 195.41 109.23 Z" />
<path fill="#ff782e" opacity="1.00" d=" M 182.57 112.52 C 183.52 112.08 184.46 111.64 185.42 111.21 C 186.29 113.21 187.15 115.21 187.87 117.27 C 186.88 117.38 185.89 117.48 184.90 117.59 C 184.15 115.88 183.37 114.20 182.57 112.52 Z" />
<path fill="#ff782e" opacity="1.00" d=" M 192.57 132.63 C 195.95 125.45 198.57 117.90 201.79 110.64 C 200.65 119.26 198.05 127.66 196.05 136.11 C 190.71 137.12 185.26 138.38 179.81 138.28 C 184.01 136.28 188.53 134.93 192.57 132.63 Z" />
<path fill="#ff782e" opacity="1.00" d=" M 204.43 117.59 C 205.61 116.12 206.77 114.63 207.97 113.17 C 208.57 113.86 209.15 114.58 209.72 115.31 C 208.93 116.93 207.79 118.35 206.80 119.85 C 206.27 119.72 205.21 119.46 204.69 119.33 C 204.62 118.90 204.49 118.03 204.43 117.59 Z" />
<path fill="#ff782e" opacity="1.00" d=" M 173.31 121.07 C 173.83 120.25 174.37 119.45 174.94 118.67 C 176.58 119.85 178.26 120.99 179.75 122.36 C 179.28 123.23 178.73 124.05 178.19 124.88 C 176.55 123.62 174.83 122.46 173.31 121.07 Z" />
<path fill="#ff782e" opacity="1.00" d=" M 211.12 125.12 C 212.73 124.43 214.32 123.67 215.99 123.12 C 216.69 123.80 217.32 124.56 217.96 125.30 C 215.94 126.35 213.85 127.28 211.69 127.98 C 211.55 127.26 211.26 125.83 211.12 125.12 Z" />
<path fill="#ff782e" opacity="1.00" d=" M 169.65 130.45 C 171.67 130.59 173.70 130.75 175.72 130.96 C 175.59 131.96 175.46 132.96 175.34 133.96 C 173.37 133.76 171.40 133.62 169.42 133.50 C 169.50 132.48 169.57 131.47 169.65 130.45 Z" />
<path fill="#ff782e" opacity="1.00" d=" M 54.45 133.53 C 57.75 133.66 61.04 133.62 64.34 133.68 C 64.38 144.56 64.38 155.44 64.34 166.31 C 61.32 166.40 58.30 166.40 55.28 166.48 L 55.63 165.38 C 50.10 165.59 44.70 164.16 39.18 164.27 C 32.97 163.06 26.59 163.75 20.40 162.44 C 19.53 161.36 18.67 160.28 17.82 159.19 C 15.94 156.77 13.72 154.65 11.77 152.29 C 10.52 150.37 8.96 148.68 7.31 147.11 C 7.45 146.62 7.72 145.64 7.85 145.15 C 11.76 142.77 15.53 139.97 18.21 136.20 C 19.07 135.46 19.66 133.95 21.06 134.23 C 26.03 134.85 30.87 136.43 35.91 136.56 C 42.14 136.57 48.33 137.51 54.58 137.28 C 54.54 136.03 54.50 134.78 54.45 133.53 M 30.42 152.49 C 32.59 152.86 35.09 152.99 36.67 151.16 C 36.64 149.89 36.62 148.61 36.60 147.34 C 35.95 146.68 35.31 146.03 34.67 145.37 C 33.39 145.36 32.11 145.34 30.83 145.32 C 29.08 147.12 28.45 150.73 30.42 152.49 M 44.17 147.65 C 44.31 148.14 44.58 149.11 44.72 149.59 L 43.16 149.64 C 43.96 152.29 45.81 154.07 48.41 154.99 L 48.38 153.25 C 48.87 153.39 49.84 153.67 50.32 153.82 C 51.02 152.17 51.56 150.47 51.92 148.71 L 50.67 148.73 L 50.60 147.39 L 49.25 147.37 L 49.39 146.17 C 47.61 146.51 45.86 147.00 44.17 147.65 Z" />
<path fill="#ff782e" opacity="1.00" d=" M 66.51 134.24 C 68.60 134.33 70.68 134.49 72.77 134.56 L 72.36 135.94 C 72.92 135.76 74.04 135.39 74.60 135.21 L 74.35 136.19 C 76.07 137.31 77.68 138.58 79.30 139.84 C 79.08 142.46 81.93 143.86 81.99 146.40 C 82.77 149.97 82.00 153.56 81.29 157.06 C 80.94 158.36 80.21 159.23 79.09 159.66 L 79.67 160.47 C 77.14 162.80 74.30 164.75 71.31 166.45 C 69.73 166.63 68.14 166.81 66.56 166.98 C 66.58 156.06 66.67 145.15 66.51 134.24 Z" />
<path fill="#ff782e" opacity="1.00" d=" M 78.63 134.09 C 89.09 134.80 99.60 134.84 110.07 134.29 C 111.06 135.82 112.13 137.31 113.19 138.80 C 115.79 142.51 118.54 146.13 120.82 150.06 C 120.41 150.38 119.60 151.00 119.20 151.32 C 117.36 153.51 115.74 155.88 114.18 158.27 C 112.98 159.81 111.86 161.42 111.09 163.22 C 110.61 163.48 109.64 164.00 109.16 164.26 C 99.08 166.16 88.84 166.71 78.63 167.41 C 79.90 163.97 81.44 160.62 82.41 157.07 C 82.52 150.74 83.34 143.53 79.53 138.07 C 79.62 137.65 79.80 136.80 79.88 136.38 L 78.52 136.66 L 78.63 134.09 M 96.52 146.47 C 95.77 147.11 95.01 147.76 94.26 148.41 C 94.39 150.06 94.52 151.71 94.77 153.34 C 95.58 153.63 97.18 154.19 97.98 154.47 C 98.78 154.18 100.37 153.58 101.17 153.28 C 101.43 151.71 101.60 150.11 101.74 148.53 C 101.01 147.85 100.27 147.17 99.54 146.49 C 98.54 146.48 97.53 146.47 96.52 146.47 Z" />
<path fill="#ff782e" opacity="1.00" d=" M 171.14 142.94 C 173.00 142.28 174.81 141.36 176.80 141.14 C 177.16 141.95 177.49 142.77 177.79 143.60 C 175.85 144.23 174.00 145.83 171.88 145.43 C 171.61 144.60 171.36 143.77 171.14 142.94 Z" />
<path fill="#ff782e" opacity="1.00" d=" M 230.79 139.80 C 235.63 143.71 240.36 147.78 245.01 151.93 C 246.40 153.31 248.34 154.80 248.18 156.97 C 247.40 163.02 243.83 168.27 239.90 172.75 C 237.56 175.53 234.36 177.34 231.00 178.57 C 224.29 174.86 217.55 171.18 211.12 166.99 C 221.43 161.58 228.97 151.34 230.79 139.80 Z" />
<path fill="#ff782e" opacity="1.00" d=" M 209.84 144.08 C 211.70 144.99 213.43 146.14 215.17 147.28 C 214.62 148.18 214.74 150.15 213.17 149.60 C 211.69 148.85 210.41 147.78 209.05 146.84 C 209.25 146.15 209.64 144.77 209.84 144.08 Z" />
<path fill="#ff782e" opacity="1.00" d=" M 179.03 153.19 C 179.84 151.63 180.96 150.25 181.99 148.83 C 182.54 149.09 183.65 149.62 184.21 149.88 C 184.25 150.16 184.33 150.73 184.37 151.01 C 183.34 152.32 182.35 153.65 181.37 154.99 C 180.40 154.62 179.01 154.58 179.03 153.19 Z" />
<path fill="#ff782e" opacity="1.00" d=" M 200.91 151.61 C 201.63 151.50 203.06 151.28 203.78 151.17 C 204.40 152.73 205.19 154.24 205.62 155.88 C 205.60 157.00 204.08 157.15 203.41 157.82 C 202.41 155.82 201.52 153.76 200.91 151.61 Z" />
<path fill="#ff782e" opacity="1.00" d=" M 191.25 152.78 C 191.86 152.78 193.08 152.76 193.70 152.75 C 193.73 154.99 193.57 157.23 193.39 159.47 C 192.34 159.17 191.30 158.87 190.25 158.58 C 190.53 156.64 190.84 154.70 191.25 152.78 Z" />
<path fill="#ff782e" opacity="1.00" d=" M 305.94 173.92 C 309.14 171.39 311.31 167.77 314.69 165.43 C 317.44 165.47 320.19 165.49 322.94 165.59 C 324.46 166.35 326.02 167.03 327.58 167.73 C 332.05 170.99 336.11 174.85 339.03 179.58 C 340.51 179.65 341.98 179.65 343.46 179.62 C 344.22 180.27 344.98 180.91 345.74 181.56 C 345.51 182.58 345.29 183.60 345.04 184.62 C 343.97 185.44 342.92 186.28 341.90 187.15 C 340.97 187.32 340.06 187.48 339.14 187.64 C 339.56 185.92 340.72 184.66 342.27 183.86 C 342.43 183.51 342.76 182.81 342.92 182.46 C 341.49 182.44 340.06 182.43 338.64 182.43 C 336.61 180.81 334.65 179.10 332.82 177.26 C 331.95 176.15 331.05 175.06 330.14 174.00 C 331.65 177.22 333.10 180.47 334.04 183.92 C 335.72 185.61 337.65 187.37 337.46 190.02 C 336.90 190.98 336.35 191.96 335.81 192.94 C 335.59 194.38 335.40 195.81 335.23 197.25 C 334.50 198.82 333.79 200.40 333.10 201.99 C 332.90 202.44 332.49 203.34 332.29 203.78 C 325.86 203.74 319.44 203.78 313.01 203.75 C 309.46 203.65 305.90 204.51 302.38 203.74 C 302.40 203.01 302.44 201.56 302.46 200.83 C 301.48 198.97 300.61 197.05 299.77 195.13 C 299.29 192.63 298.67 190.15 298.62 187.59 C 294.95 188.60 292.15 185.02 292.03 181.69 C 294.54 182.14 295.79 184.45 297.45 186.10 C 298.90 182.76 294.47 180.20 296.13 177.02 C 297.51 172.79 303.05 176.10 305.94 173.92 M 313.53 172.00 C 314.12 175.50 315.51 178.84 317.26 181.91 C 317.41 182.46 317.71 183.56 317.86 184.11 C 318.16 184.23 318.75 184.46 319.05 184.58 C 319.37 184.01 320.01 182.86 320.33 182.29 C 322.76 178.74 324.95 174.95 325.83 170.69 C 324.27 170.15 322.74 169.39 321.06 169.33 C 318.25 169.25 314.32 168.30 313.53 172.00 M 298.01 177.54 C 299.12 179.62 300.20 181.73 300.84 184.01 C 301.99 182.86 303.14 181.72 304.29 180.57 C 304.82 179.52 305.37 178.48 305.92 177.43 C 303.28 177.48 300.64 177.49 298.01 177.54 Z" />
<path fill="#ff782e" opacity="1.00" d=" M 62.29 168.57 C 65.61 168.45 68.94 168.34 72.27 168.57 C 74.14 169.76 76.00 170.97 77.81 172.25 C 78.93 173.83 80.08 175.39 81.31 176.89 C 81.75 180.38 82.22 183.98 81.22 187.42 C 79.62 191.16 76.60 194.32 72.79 195.85 L 72.59 196.42 C 71.57 196.44 69.54 196.48 68.53 196.50 C 68.58 193.96 68.58 191.43 68.61 188.90 C 71.73 187.35 72.05 183.63 70.35 180.87 C 68.01 180.26 65.49 180.03 63.35 181.39 C 63.33 181.74 63.27 182.44 63.25 182.80 C 61.67 184.03 62.97 185.79 63.49 187.14 C 67.22 188.65 65.29 193.34 65.71 196.42 C 64.85 196.43 63.12 196.45 62.25 196.46 L 62.64 195.08 C 62.09 195.23 60.98 195.54 60.43 195.70 L 60.45 194.88 C 58.43 193.42 56.61 191.66 55.30 189.53 C 54.76 188.40 54.22 187.27 53.65 186.16 C 53.63 183.73 53.63 181.29 53.64 178.86 C 54.23 177.70 54.76 176.51 55.30 175.33 C 56.67 173.26 58.48 171.55 60.52 170.16 L 60.41 169.31 C 60.95 169.44 62.01 169.70 62.54 169.83 L 62.29 168.57 Z" />
<path fill="#ff782e" opacity="1.00" d=" M 183.50 188.66 C 193.88 186.30 206.41 186.64 214.54 194.42 C 219.01 198.49 220.42 204.53 221.75 210.16 C 224.00 214.58 229.99 210.71 233.11 213.85 C 235.79 216.05 235.67 219.83 236.58 222.90 C 239.62 234.60 242.57 246.33 245.60 258.04 C 245.95 259.97 246.60 261.97 246.10 263.94 C 245.66 266.73 242.84 268.73 240.09 268.61 C 209.05 268.70 178.00 268.63 146.96 268.65 C 144.48 268.87 141.96 267.72 140.71 265.54 C 139.71 263.30 140.17 260.75 140.63 258.45 C 143.75 246.36 146.85 234.27 149.91 222.18 C 150.73 219.22 150.75 215.49 153.52 213.55 C 156.66 211.05 161.85 214.20 164.32 210.53 C 165.52 207.25 165.81 203.66 167.50 200.56 C 170.59 194.33 176.90 190.32 183.50 188.66 M 183.90 194.77 C 177.85 196.52 172.25 201.37 171.30 207.83 C 171.05 209.45 170.95 211.97 172.94 212.53 C 175.80 211.94 178.33 210.41 181.07 209.47 C 187.66 207.23 194.82 206.96 201.65 208.07 C 206.23 208.74 210.16 211.33 214.52 212.72 C 216.14 205.78 211.48 198.81 205.42 195.76 C 198.74 192.64 190.87 192.72 183.90 194.77 M 158.81 220.82 C 158.49 224.72 157.70 229.69 161.94 231.76 C 166.00 229.24 166.12 224.03 167.35 219.90 C 165.09 217.97 160.27 217.88 158.81 220.82 M 219.46 221.05 C 220.50 224.90 220.71 229.82 224.86 231.67 C 226.16 230.39 227.87 229.13 227.60 227.06 C 227.39 224.30 228.83 219.41 224.95 218.76 C 223.05 218.82 218.82 217.81 219.46 221.05 M 178.15 219.15 C 174.46 219.94 172.33 223.59 171.54 227.02 C 170.68 229.62 173.68 231.44 175.94 231.28 C 187.32 231.32 198.70 231.29 210.08 231.29 C 211.86 231.42 214.01 230.79 214.71 228.97 C 214.96 223.73 210.57 218.23 204.99 218.73 C 196.06 218.99 187.03 218.20 178.15 219.15 Z" />
<path fill="#ff782e" opacity="1.00" d=" M 301.00 210.50 C 311.73 210.40 322.46 210.77 333.20 210.58 C 334.84 213.18 336.06 216.01 337.23 218.85 C 339.20 223.39 340.81 228.13 343.78 232.15 C 344.46 233.45 345.13 234.76 345.80 236.08 C 346.26 237.02 346.73 237.97 347.21 238.91 C 347.46 239.40 347.95 240.38 348.20 240.87 C 351.57 248.02 354.92 255.19 358.26 262.35 C 359.82 265.68 361.19 269.14 363.42 272.10 C 363.47 273.39 363.52 274.69 363.55 276.00 C 360.04 277.32 356.55 278.69 353.07 280.07 C 348.75 281.37 344.22 281.58 339.86 282.65 C 338.58 283.29 337.29 283.90 336.02 284.55 C 332.92 284.70 329.71 282.54 326.80 284.30 C 324.17 284.56 321.31 283.95 318.92 285.36 C 316.29 285.72 313.63 285.56 311.00 285.38 C 310.45 284.49 309.85 283.64 309.21 282.83 C 305.10 282.54 300.91 283.01 296.88 281.96 C 293.83 281.11 290.57 282.32 287.56 281.31 C 285.10 280.11 282.68 278.80 280.11 277.83 C 276.94 277.75 273.94 276.70 271.07 275.44 C 271.24 274.57 271.60 272.84 271.78 271.97 C 272.17 270.86 272.53 269.75 272.86 268.63 L 273.31 268.47 C 273.78 266.98 274.29 265.51 274.78 264.03 C 279.19 254.72 283.75 245.47 288.35 236.25 C 289.16 234.49 289.97 232.73 290.76 230.96 C 293.10 226.30 295.36 221.58 298.08 217.12 C 299.36 215.07 300.40 212.85 301.00 210.50 M 309.13 220.00 C 308.22 226.97 309.44 234.06 308.14 240.99 C 307.61 242.81 308.72 244.48 309.26 246.16 C 309.41 237.44 309.35 228.72 309.13 220.00 M 301.46 226.87 C 300.94 228.47 300.33 230.05 299.72 231.62 C 299.23 233.12 298.71 234.61 298.21 236.11 C 297.98 236.63 297.51 237.67 297.27 238.19 C 298.43 236.80 299.29 235.18 299.76 233.43 L 300.09 233.33 C 300.37 229.99 302.42 227.24 303.55 224.24 C 301.66 222.27 300.97 225.32 301.46 226.87 M 319.39 233.08 C 319.24 237.52 319.68 242.36 322.46 246.01 C 320.93 242.32 321.45 238.28 321.47 234.45 C 318.60 232.14 319.54 228.30 319.16 225.08 C 318.76 227.74 318.60 230.47 319.39 233.08 M 330.29 225.87 C 331.17 229.64 332.65 233.23 334.11 236.81 C 334.72 239.00 335.70 241.08 337.19 242.81 C 337.60 243.07 338.40 243.59 338.80 243.85 C 335.90 237.89 332.87 231.98 330.29 225.87 Z" />
<path fill="#ff782e" opacity="1.00" d=" M 17.62 291.83 C 20.82 264.96 23.85 237.99 29.43 211.48 C 51.72 220.95 77.12 219.77 100.10 213.44 C 103.00 228.28 105.53 243.20 107.54 258.19 C 109.00 269.11 110.75 280.07 110.61 291.13 C 97.33 291.63 84.26 294.14 71.13 295.97 C 71.33 285.13 71.61 274.15 69.28 263.49 C 68.52 260.86 67.73 257.66 65.03 256.35 C 62.97 256.22 61.49 257.99 60.77 259.71 C 59.12 263.56 58.68 267.77 58.18 271.89 C 57.19 279.98 56.83 288.13 56.25 296.26 C 43.29 295.59 30.47 293.50 17.62 291.83 Z" />
<path fill="#ff782e" opacity="1.00" d=" M 203.45 283.81 C 209.53 281.79 216.21 280.37 222.30 283.26 C 223.33 283.75 224.37 284.23 225.41 284.71 C 228.78 287.24 231.84 291.16 229.93 295.59 C 227.24 299.19 223.19 301.30 219.48 303.66 C 217.38 304.81 215.27 305.94 213.26 307.24 C 212.25 307.70 211.24 308.15 210.22 308.60 L 210.70 309.29 C 209.41 309.54 208.13 309.80 206.85 310.09 C 207.25 308.77 207.64 307.45 208.02 306.13 C 205.69 306.26 202.91 306.40 203.12 309.50 L 202.54 309.37 C 202.09 311.26 201.57 313.14 201.12 315.04 C 198.88 316.94 196.76 319.00 194.97 321.35 C 194.59 321.34 193.84 321.33 193.46 321.32 L 193.62 322.21 C 192.17 322.43 190.74 322.72 189.34 323.11 C 181.21 324.57 172.60 325.49 164.51 323.48 C 164.10 319.30 164.48 315.13 164.72 310.96 C 165.27 309.71 165.79 308.44 166.33 307.19 C 168.25 304.47 170.95 302.51 173.62 300.60 C 175.63 300.35 177.64 300.10 179.63 299.75 C 182.30 299.52 184.91 298.87 187.54 298.39 L 187.40 297.74 C 189.34 298.06 189.96 297.10 189.58 295.42 C 188.68 295.52 186.87 295.74 185.97 295.85 C 186.09 295.36 186.32 294.38 186.43 293.89 C 188.53 292.84 190.55 291.66 192.53 290.40 C 194.17 289.34 195.83 288.33 197.52 287.37 C 199.02 286.48 200.51 285.57 201.97 284.60 C 202.37 284.63 203.17 284.71 203.57 284.74 L 203.45 283.81 Z" />
<path fill="#ff782e" opacity="1.00" d=" M 282.43 291.57 C 283.44 291.57 285.44 291.58 286.45 291.59 C 288.09 293.22 289.71 294.88 291.23 296.64 C 293.22 299.31 294.97 302.23 297.45 304.49 C 304.00 309.36 310.02 315.19 314.04 322.36 C 316.77 327.00 320.20 331.52 325.07 334.08 C 327.79 334.69 330.47 335.49 333.25 335.85 C 340.36 336.73 345.69 342.70 353.01 342.61 C 356.50 342.69 359.89 343.61 363.38 343.76 L 363.37 344.22 C 363.70 344.67 364.37 345.59 364.70 346.05 C 352.63 355.10 336.89 357.55 322.19 355.92 C 318.69 355.46 315.21 354.93 311.73 354.41 C 308.40 349.13 304.88 343.95 300.82 339.21 C 298.28 335.63 294.73 333.01 291.01 330.77 C 287.23 330.22 283.38 330.30 279.57 330.43 C 281.81 330.67 284.06 330.67 286.30 330.76 C 285.97 343.19 285.21 355.64 286.14 368.08 C 286.30 370.10 286.35 372.14 286.12 374.17 C 283.86 374.39 280.20 375.03 279.57 372.08 C 279.73 359.92 280.04 347.69 278.25 335.62 C 277.60 333.20 276.51 330.94 275.43 328.70 C 275.82 328.49 276.61 328.08 277.00 327.87 C 276.24 327.07 275.49 326.26 274.74 325.46 C 271.12 320.20 270.58 313.73 271.71 307.58 C 272.08 306.64 272.45 305.70 272.79 304.75 C 273.32 303.68 273.84 302.61 274.38 301.56 C 275.16 300.30 275.97 299.05 276.74 297.78 C 278.40 295.65 280.30 293.67 282.60 292.21 L 282.43 291.57 M 314.09 330.82 C 317.88 336.91 323.34 342.84 331.00 343.22 C 332.88 342.72 334.76 342.20 336.58 341.48 C 337.34 341.00 338.11 340.54 338.89 340.09 C 337.18 339.78 335.49 339.45 333.79 339.13 C 332.21 338.65 330.58 338.36 328.96 338.10 C 324.76 337.16 320.87 335.22 317.83 332.14 C 316.51 330.50 315.14 328.91 313.83 327.27 C 310.26 321.07 305.90 315.31 300.96 310.14 C 305.37 317.01 309.89 323.82 314.09 330.82 M 278.32 329.24 C 278.83 329.79 278.83 329.79 278.32 329.24 Z" />
<path fill="#ff782e" opacity="1.00" d=" M 161.87 304.86 C 163.31 304.54 164.74 304.20 166.18 303.87 C 166.00 304.41 165.64 305.49 165.45 306.02 C 164.62 306.68 163.79 307.35 162.97 308.02 C 159.35 313.86 160.05 320.91 160.48 327.44 C 163.88 325.97 167.45 327.24 170.95 327.31 C 177.54 327.07 184.06 326.12 190.53 324.90 C 189.15 327.02 187.21 328.67 185.27 330.24 C 181.07 332.83 176.78 335.28 172.19 337.11 C 171.20 337.43 170.22 337.78 169.24 338.15 C 163.60 339.56 157.75 339.76 151.97 339.32 C 147.40 338.77 143.78 335.39 141.85 331.35 C 141.54 330.17 141.17 329.01 140.74 327.87 C 140.41 324.80 141.08 321.79 141.83 318.83 C 142.33 318.03 142.83 317.23 143.32 316.43 C 147.73 310.39 155.20 307.66 161.87 304.86 Z" />
<path fill="#ff782e" opacity="1.00" d=" M 221.39 313.80 C 222.55 313.49 223.70 313.13 224.85 312.73 C 229.51 312.11 234.19 312.61 238.74 313.73 L 238.46 314.93 C 238.98 314.77 240.03 314.46 240.56 314.30 L 240.54 315.12 C 242.97 316.83 245.32 318.91 246.36 321.79 C 246.78 323.96 245.53 325.92 244.81 327.88 C 241.51 331.52 238.03 335.02 234.32 338.25 C 232.45 339.57 230.73 341.10 228.90 342.48 C 229.16 340.87 229.47 339.28 229.71 337.68 C 229.17 337.64 228.07 337.56 227.52 337.52 C 226.84 338.10 226.16 338.69 225.49 339.28 C 224.82 342.37 224.32 345.51 224.45 348.69 L 223.29 348.19 L 223.52 349.26 C 221.81 351.07 220.06 352.84 218.26 354.56 C 217.82 354.49 216.94 354.36 216.50 354.30 L 216.64 355.22 C 215.49 355.48 214.35 355.78 213.23 356.12 C 211.83 356.43 210.44 356.73 209.07 357.14 C 203.37 357.81 197.69 359.04 191.91 358.47 C 190.40 358.77 189.63 357.59 189.15 356.36 L 188.70 356.67 C 188.31 352.34 187.30 348.09 187.58 343.72 C 188.79 341.32 190.08 338.94 191.91 336.95 C 193.27 336.31 194.62 335.62 195.96 334.93 C 196.88 334.55 197.81 334.17 198.73 333.79 C 200.07 333.53 201.42 333.27 202.77 332.98 C 203.93 332.66 205.02 332.19 206.06 331.58 C 206.48 331.69 207.33 331.91 207.75 332.02 L 207.20 330.61 C 209.10 330.78 210.67 330.59 209.12 328.67 C 207.81 328.70 206.51 328.78 205.21 328.92 C 205.31 328.26 205.50 326.96 205.60 326.31 L 207.11 327.10 L 206.31 325.86 C 209.74 324.37 211.74 320.88 214.78 318.76 C 216.31 317.63 217.78 316.41 219.27 315.23 C 219.83 315.00 220.96 314.54 221.52 314.31 L 221.39 313.80 Z" />
<path fill="#ff782e" opacity="1.00" d=" M 52.23 320.13 C 52.92 316.42 57.50 314.23 60.85 316.00 C 64.73 317.98 67.56 321.46 70.32 324.74 C 73.56 328.29 72.19 333.63 74.30 337.66 C 77.30 340.06 77.26 334.84 77.17 332.97 C 77.90 333.00 79.37 333.07 80.11 333.10 C 80.73 335.78 81.03 338.55 81.98 341.14 C 84.26 342.99 85.08 339.65 85.45 337.96 C 86.40 338.01 87.36 338.07 88.32 338.13 C 89.05 340.59 88.41 344.08 91.03 345.50 C 93.85 344.23 92.05 340.59 92.61 338.24 C 97.28 339.61 96.09 344.97 97.70 348.52 C 98.79 348.63 100.41 348.70 100.52 347.19 C 100.45 344.91 99.94 342.69 99.58 340.46 C 107.67 341.69 115.87 342.01 123.94 343.41 C 126.16 343.74 127.03 346.17 127.64 348.03 C 128.98 351.98 128.98 356.75 126.18 360.08 C 123.84 362.71 121.81 366.27 117.98 366.74 C 116.43 369.16 113.76 370.54 111.04 369.04 C 109.94 371.84 107.42 372.35 104.67 372.00 C 102.25 374.02 99.20 374.85 96.21 373.58 C 95.41 374.06 94.60 374.53 93.79 375.00 L 89.15 375.00 C 89.04 373.20 86.41 373.20 86.30 375.00 L 81.78 375.00 C 82.59 372.67 78.62 372.69 79.28 375.00 L 75.92 375.00 C 73.94 374.37 71.88 374.37 69.84 374.53 C 69.48 374.27 68.74 373.76 68.37 373.50 C 63.85 374.65 59.28 372.80 54.71 372.71 C 52.62 373.88 50.29 373.97 48.02 373.34 C 45.81 374.33 43.45 374.24 41.16 373.56 C 39.06 374.38 37.02 374.00 35.19 372.74 C 33.22 374.30 31.10 374.56 29.16 372.81 C 28.21 373.36 27.25 373.90 26.29 374.44 C 20.59 371.90 13.13 373.29 8.43 368.62 C 6.53 363.70 7.41 357.93 8.62 352.88 C 10.34 348.12 9.80 342.94 11.21 338.12 C 11.68 338.09 12.60 338.04 13.07 338.01 C 14.76 340.36 15.94 343.05 17.77 345.31 C 21.83 350.49 27.60 354.03 33.55 356.67 C 44.09 361.22 55.55 363.05 66.88 364.36 C 80.33 365.33 93.92 364.87 107.22 362.61 C 89.97 361.55 72.63 360.21 55.76 356.23 C 45.91 353.88 35.81 350.71 28.04 343.92 C 22.50 339.23 18.70 332.63 17.34 325.50 C 19.65 325.58 22.39 324.97 24.29 326.67 C 27.54 329.50 28.48 333.91 30.58 337.50 C 32.01 339.40 34.77 339.50 36.94 339.26 C 43.96 338.17 50.19 334.17 55.33 329.42 C 53.75 326.56 51.76 323.56 52.23 320.13 Z" />
<path fill="#ff782e" opacity="1.00" d=" M 176.61 345.74 C 179.71 343.86 182.69 341.67 186.21 340.61 C 182.62 347.26 184.53 354.79 185.69 361.76 C 194.80 361.17 204.29 361.33 212.89 357.78 C 214.37 357.43 215.85 357.10 217.35 356.82 C 216.73 358.38 216.01 359.91 215.32 361.44 C 212.80 364.21 210.14 366.85 207.33 369.34 C 205.65 370.11 203.98 370.89 202.29 371.63 L 202.60 372.17 C 201.18 372.40 199.78 372.71 198.40 373.11 C 189.28 375.11 179.48 375.55 170.47 372.79 C 168.70 371.55 167.14 370.04 165.69 368.45 C 164.09 364.80 164.92 361.02 165.81 357.33 L 166.98 357.50 C 166.79 356.96 166.41 355.87 166.22 355.33 L 167.19 355.69 C 169.74 351.86 173.23 348.82 176.61 345.74 Z" />
<path fill="#ff782e" opacity="1.00" d=" M 337.98 356.26 C 347.30 355.55 356.24 352.27 363.95 347.03 C 364.01 352.03 363.96 357.09 363.08 362.02 C 359.58 366.90 353.26 368.50 348.09 371.06 C 347.06 371.35 346.03 371.65 345.00 371.96 C 343.73 372.31 342.47 372.65 341.22 373.03 C 339.83 373.35 338.45 373.70 337.09 374.13 C 332.16 374.60 327.18 374.96 322.26 374.25 C 320.70 372.97 319.16 371.68 317.68 370.33 C 315.71 367.09 314.25 363.58 312.83 360.07 C 312.61 358.40 312.41 356.73 312.22 355.06 C 320.77 355.86 329.38 357.73 337.98 356.26 Z" />
</g>
<g id="#612d1161">
<path fill="#612d11" opacity="0.38" d=" M 212.40 134.57 C 214.86 134.67 217.32 134.81 219.77 135.09 C 219.72 136.10 219.69 137.12 219.67 138.13 C 218.89 135.28 215.90 135.27 213.56 134.66 C 213.42 135.53 213.14 137.26 213.00 138.13 C 212.79 136.94 212.58 135.75 212.40 134.57 Z" />
</g>
<g id="#ed6f2aed">
<path fill="#ed6f2a" opacity="0.93" d=" M 213.56 134.66 C 215.90 135.27 218.89 135.28 219.67 138.13 C 217.44 138.27 215.21 138.22 213.00 138.13 C 213.14 137.26 213.42 135.53 213.56 134.66 Z" />
</g>
<g id="#8f43198f">
<path fill="#8f4319" opacity="0.56" d=" M 278.32 329.24 C 278.83 329.79 278.83 329.79 278.32 329.24 Z" />
</g>
<g id="#96461a96">
<path fill="#96461a" opacity="0.59" d=" M 86.30 375.00 C 86.41 373.20 89.04 373.20 89.15 375.00 L 86.30 375.00 Z" />
</g>
</svg>
