<svg version="1.0" xmlns="http://www.w3.org/2000/svg" xmlns:xlink="http://www.w3.org/1999/xlink" x="0px" y="0px" viewBox="160 80 360 360" style="enable-background:new 0 0 718 524;">
    <path d="M445,328.2c0,25.2-8.1,45.7-24.2,61.6c-16.2,15.9-37.3,25.4-63.3,28.7V458h-28.9v-39.1c-24.6-1.5-45.6-8.1-63.1-20
                    c-17.5-11.8-30.1-28-37.8-48.4l44-25.3c10.4,26.1,29.3,40.6,56.9,43.6v-92.4c-13.3-5-24.2-9.6-32.4-13.6c-8.3-4-17.1-9.6-26.4-16.7
                    c-9.3-7.1-16.3-15.8-20.9-26c-4.6-10.2-6.9-22.1-6.9-35.8c0-24.9,8.3-45,24.9-60.4c16.6-15.4,37.2-24.3,61.8-26.7V58h28.9v39.6
                    c39.7,5.3,67.3,25.6,82.7,60.9L397,183.3c-7.7-19.3-20.9-31-39.6-35.1v88c9.5,3.6,16.7,6.4,21.6,8.4c4.9,2.1,11.4,5.2,19.6,9.3
                    c8.1,4.2,14.4,8.3,18.9,12.4c4.4,4.2,9.1,9.2,14,15.1c4.9,5.9,8.4,12.8,10.4,20.7C444,310.1,445,318.7,445,328.2z M293,184.2
                    c0,9.2,2.7,16.7,8.2,22.7c5.5,5.9,14.6,11.9,27.3,17.8v-77.3c-11,1.8-19.6,5.9-26,12.4C296.2,166.3,293,174.4,293,184.2z
                    M357.4,368.2c11.8-2.4,20.9-7.1,27.1-14.2c6.2-7.1,9.3-15.6,9.3-25.3c0-9.8-3-17.7-8.9-23.8c-5.9-6.1-15.1-11.9-27.6-17.6V368.2z" fill="#539b29" />
</svg>