<?xml version="1.0" encoding="UTF-8" ?>
<!DOCTYPE svg PUBLIC "-//W3C//DTD SVG 1.1//EN" "http://www.w3.org/Graphics/SVG/1.1/DTD/svg11.dtd">
<svg width="512pt" height="512pt" viewBox="0 0 512 512" version="1.1" xmlns="http://www.w3.org/2000/svg">
<g id="#000000ff">
<path fill="#000000" opacity="1.00" d=" M 25.01 103.90 C 25.80 99.90 30.10 97.44 34.00 98.26 C 52.71 100.50 71.40 102.81 90.09 105.15 C 98.53 106.01 106.47 110.83 110.86 118.12 C 115.16 124.74 115.46 132.93 114.25 140.50 C 122.42 140.99 130.57 141.75 138.75 142.05 C 141.76 135.99 144.80 129.93 148.00 123.97 C 151.96 116.63 159.29 111.25 167.48 109.70 C 173.34 108.46 179.32 109.66 184.94 111.38 C 189.47 112.81 194.21 113.60 198.58 115.48 C 201.81 116.94 203.00 120.75 202.43 124.06 C 201.15 127.39 197.76 130.06 194.06 129.31 C 187.65 128.14 181.56 125.61 175.15 124.46 C 169.65 123.38 163.82 126.28 161.19 131.18 C 157.09 138.52 153.58 146.18 149.53 153.55 C 148.14 156.26 145.04 157.73 142.05 157.39 C 132.16 156.78 122.27 156.04 112.38 155.41 C 106.76 200.97 101.14 246.53 95.54 292.09 C 104.67 292.70 113.81 293.30 122.94 293.90 C 128.52 288.72 136.21 285.79 143.85 286.69 C 153.90 287.55 162.84 294.79 166.09 304.30 C 173.54 301.71 182.14 301.82 189.01 305.99 C 194.95 309.09 199.07 314.85 201.21 321.10 C 208.30 318.99 216.27 319.42 222.70 323.28 C 229.52 327.03 234.02 334.04 235.55 341.56 C 241.88 340.66 248.58 341.64 254.01 345.14 C 262.62 350.26 267.52 360.67 266.19 370.58 C 265.61 375.36 263.54 379.84 260.69 383.69 C 256.35 389.54 251.88 395.28 247.54 401.13 C 243.72 406.46 238.56 411.14 232.07 412.83 C 222.78 415.69 212.10 412.68 205.61 405.47 C 201.87 401.56 199.85 396.41 198.81 391.18 C 191.15 392.05 183.05 389.86 177.43 384.45 C 172.82 380.41 170.16 374.62 169.09 368.66 C 161.54 369.51 153.57 367.41 147.94 362.18 C 143.25 358.10 140.40 352.29 139.37 346.21 C 131.38 346.96 122.94 344.65 117.27 338.78 C 109.16 331.06 107.20 318.15 112.21 308.21 C 105.40 307.77 98.59 307.33 91.79 306.86 C 86.19 316.25 75.21 322.39 64.19 320.84 C 45.11 318.48 26.01 316.20 6.95 313.74 C 2.90 313.43 -0.09 309.76 0.00 305.77 L 0.00 305.16 C 0.91 301.45 4.22 298.61 8.13 298.86 C 27.39 301.16 46.64 303.62 65.91 305.91 C 70.43 306.58 75.11 304.41 77.76 300.75 C 80.62 297.10 80.24 292.18 80.95 287.84 C 87.08 238.39 93.11 188.93 99.25 139.48 C 99.81 135.02 100.64 130.02 98.01 126.02 C 95.81 122.16 91.42 120.31 87.17 119.89 C 68.54 117.59 49.91 115.30 31.29 113.00 C 27.12 112.32 23.87 108.12 25.01 103.90 M 138.07 302.11 C 132.83 303.71 130.25 309.00 127.04 312.99 C 123.55 317.38 123.67 324.32 127.93 328.15 C 132.52 332.87 140.89 331.85 144.64 326.58 C 147.84 322.19 152.57 317.93 152.27 312.03 C 152.13 305.16 144.58 299.83 138.07 302.11 M 171.31 318.44 C 167.00 320.65 164.83 325.27 161.82 328.84 C 158.80 333.22 154.06 337.28 154.29 343.06 C 154.21 349.93 161.66 355.42 168.21 353.35 C 173.58 351.88 176.18 346.48 179.46 342.49 C 182.73 337.78 187.98 333.23 186.97 326.90 C 186.11 319.84 177.72 315.17 171.31 318.44 M 206.34 335.41 C 203.26 336.25 201.10 338.80 199.22 341.22 C 195.10 346.77 190.85 352.21 186.74 357.76 C 184.32 360.94 183.18 365.28 184.73 369.10 C 186.80 375.39 195.09 378.27 200.68 374.74 C 205.03 371.73 207.51 366.86 210.85 362.87 C 214.12 357.94 218.94 353.77 220.57 347.93 C 222.35 340.12 213.89 332.56 206.34 335.41 M 237.49 356.65 C 233.12 357.65 230.57 361.65 228.05 364.99 C 223.97 370.56 219.55 375.90 215.65 381.60 C 212.02 386.75 213.91 394.73 219.63 397.51 C 224.19 400.14 230.34 398.63 233.55 394.56 C 238.18 388.84 242.45 382.82 246.98 377.01 C 249.22 374.12 251.54 370.83 251.31 366.98 C 251.36 360.15 244.05 354.63 237.49 356.65 Z" />
<path fill="#000000" opacity="1.00" d=" M 419.94 105.47 C 439.26 102.87 458.64 100.64 477.99 98.26 C 481.90 97.44 486.21 99.91 487.00 103.91 C 488.12 108.13 484.87 112.32 480.72 113.01 C 461.46 115.44 442.17 117.62 422.94 120.22 C 415.93 120.98 410.98 128.22 412.26 135.06 C 418.43 185.78 424.75 236.47 430.95 287.19 C 431.77 291.95 431.26 297.43 434.67 301.29 C 437.35 304.63 441.79 306.54 446.06 305.91 C 465.34 303.62 484.60 301.16 503.88 298.86 C 507.70 298.61 510.84 301.34 512.00 304.83 L 512.00 305.76 C 512.09 309.69 509.18 313.38 505.17 313.72 C 486.08 316.21 466.95 318.47 447.85 320.83 C 438.41 322.03 428.48 318.04 422.70 310.45 C 419.94 307.07 418.40 302.93 417.26 298.78 C 409.81 298.80 402.37 298.75 394.92 298.81 C 398.47 302.02 402.45 304.88 405.16 308.90 C 409.10 314.69 410.21 322.31 408.11 328.99 C 406.25 335.12 401.67 339.90 397.26 344.33 C 389.04 352.08 376.21 353.73 366.03 349.08 C 359.93 355.60 354.98 363.77 346.66 367.73 C 339.07 371.42 329.96 371.35 322.28 367.95 C 318.46 372.23 314.95 376.79 310.93 380.89 C 304.85 387.15 295.73 390.43 287.07 389.19 C 282.56 388.60 280.04 383.78 281.01 379.57 C 282.27 377.20 284.26 374.80 287.15 374.63 C 291.12 374.35 295.52 374.52 298.72 371.73 C 303.05 367.93 306.38 363.14 310.25 358.89 C 306.01 355.18 301.73 351.52 297.48 347.84 C 295.02 345.58 292.04 343.70 290.38 340.73 C 288.28 336.52 291.28 330.96 295.90 330.33 C 298.86 329.68 301.53 331.43 303.63 333.29 C 309.92 338.76 316.24 344.18 322.54 349.63 C 326.40 353.37 331.60 356.71 337.22 355.29 C 345.00 353.37 348.62 345.32 353.95 340.09 C 349.85 336.53 345.71 333.02 341.63 329.43 C 338.02 325.74 332.49 323.26 330.93 318.01 C 329.34 311.82 337.41 306.51 342.42 310.52 C 350.43 316.95 358.01 323.91 365.85 330.54 C 369.27 333.59 373.15 336.78 378.03 336.59 C 384.66 336.92 389.42 331.65 392.76 326.61 C 394.87 323.46 394.45 318.87 391.77 316.19 C 389.63 313.87 387.08 311.98 384.73 309.89 C 354.74 284.00 324.70 258.18 294.73 232.28 C 292.99 230.51 290.34 230.79 288.10 230.35 C 274.22 228.49 261.72 221.27 251.00 212.57 C 241.33 224.23 233.71 238.40 220.09 246.03 C 204.84 255.17 185.19 255.43 169.27 247.85 C 161.84 244.04 157.54 235.15 159.03 226.95 C 159.71 222.68 162.11 218.98 164.24 215.30 C 179.34 189.35 194.41 163.38 209.50 137.42 C 211.45 134.08 213.29 130.67 215.48 127.48 C 221.39 118.66 231.42 112.91 241.97 111.98 C 252.34 111.02 262.70 109.91 273.09 109.18 C 277.06 108.81 280.30 112.01 281.16 115.69 C 280.89 117.86 280.54 120.24 278.84 121.80 C 276.83 123.95 273.72 124.04 271.00 124.36 C 262.97 125.05 254.95 125.84 246.92 126.54 C 242.94 126.90 238.85 127.42 235.28 129.36 C 231.22 131.43 228.21 135.04 225.96 138.93 C 209.05 168.03 192.16 197.14 175.23 226.22 C 173.96 228.31 172.93 231.20 174.75 233.31 C 176.71 235.37 179.65 235.92 182.26 236.75 C 193.35 240.01 205.83 237.97 215.28 231.29 C 219.39 228.47 222.73 224.71 225.75 220.78 C 231.56 213.22 237.37 205.66 243.18 198.09 C 244.97 195.62 247.79 193.49 251.02 194.01 C 254.33 194.33 256.43 197.22 258.75 199.26 C 270.50 210.31 286.72 217.92 303.12 215.70 C 318.93 213.45 332.12 203.05 342.41 191.41 C 344.91 188.76 347.06 185.01 351.03 184.55 C 355.33 183.92 359.54 187.71 359.33 192.06 C 359.29 195.83 356.09 198.33 353.83 200.94 C 343.03 213.31 329.66 224.13 313.69 228.86 C 331.32 244.08 348.97 259.27 366.61 274.47 C 371.50 278.70 376.42 282.91 381.30 287.15 C 383.64 285.56 386.05 283.66 389.07 283.84 C 397.88 283.65 406.70 284.00 415.51 283.65 C 414.37 275.86 413.53 268.04 412.53 260.23 C 407.91 222.85 403.32 185.46 398.73 148.07 C 393.15 148.68 387.61 149.56 382.03 150.07 C 379.76 150.38 377.62 149.48 375.70 148.39 C 361.20 140.19 346.68 132.05 332.18 123.86 C 328.72 122.03 325.05 120.24 321.06 120.16 C 315.01 119.73 309.03 121.29 302.99 121.17 C 299.19 121.17 296.45 117.79 295.84 114.28 C 295.99 110.56 298.52 106.89 302.42 106.48 C 308.59 105.74 314.80 105.02 321.02 105.04 C 327.52 105.15 333.75 107.45 339.32 110.68 C 352.96 118.39 366.65 126.01 380.27 133.76 C 381.40 134.39 382.62 135.05 383.98 134.73 C 388.32 134.30 392.64 133.65 396.98 133.15 C 396.64 119.94 406.77 107.38 419.94 105.47 Z" />
<path fill="#000000" opacity="1.00" d=" M 32.77 256.73 C 39.49 250.65 50.11 249.58 57.93 254.13 C 64.96 257.99 69.49 265.95 69.11 273.98 C 69.01 279.76 66.33 285.29 62.21 289.28 C 57.58 293.43 51.30 295.79 45.07 295.08 C 38.44 294.53 32.40 290.59 28.71 285.13 C 22.88 276.30 24.66 263.55 32.77 256.73 M 43.39 267.40 C 39.36 269.80 39.14 276.24 43.07 278.87 C 47.34 282.43 54.72 278.57 54.12 273.01 C 54.31 267.80 47.60 264.33 43.39 267.40 Z" />
<path fill="#000000" opacity="1.00" d=" M 450.81 255.73 C 456.19 251.59 463.55 250.26 470.06 252.16 C 477.13 254.13 482.97 259.92 485.03 266.97 C 486.91 273.17 485.82 280.13 482.23 285.52 C 478.13 291.39 471.20 295.29 463.99 295.19 C 458.79 295.27 453.79 293.18 449.77 289.99 C 445.48 286.19 442.51 280.82 442.14 275.06 C 441.44 267.69 444.86 260.13 450.81 255.73 M 460.33 267.32 C 455.84 269.80 456.00 276.98 460.57 279.31 C 465.40 282.45 472.30 277.39 470.86 271.86 C 470.07 267.28 464.22 264.66 460.33 267.32 Z" />
</g>
<g id="#ed5575ff">
<path fill="#ed5575" opacity="1.00" d=" M 31.29 113.00 C 49.91 115.30 68.54 117.59 87.17 119.89 C 91.42 120.31 95.81 122.16 98.01 126.02 C 100.64 130.02 99.81 135.02 99.25 139.48 C 93.11 188.93 87.08 238.39 80.95 287.84 C 74.94 289.84 68.41 291.60 62.21 289.28 C 66.33 285.29 69.01 279.76 69.11 273.98 C 69.49 265.95 64.96 257.99 57.93 254.13 C 50.11 249.58 39.49 250.65 32.77 256.73 C 24.66 263.55 22.88 276.30 28.71 285.13 C 22.52 285.10 16.37 284.22 10.30 283.03 C 17.42 226.37 24.31 169.68 31.29 113.00 Z" />
</g>
<g id="#5c9ceeff">
<path fill="#5c9cee" opacity="1.00" d=" M 422.94 120.22 C 442.17 117.62 461.46 115.44 480.72 113.01 C 487.71 169.91 494.65 226.82 501.77 283.70 C 495.29 284.49 488.77 286.29 482.23 285.52 C 485.82 280.13 486.91 273.17 485.03 266.97 C 482.97 259.92 477.13 254.13 470.06 252.16 C 463.55 250.26 456.19 251.59 450.81 255.73 C 444.86 260.13 441.44 267.69 442.14 275.06 C 442.51 280.82 445.48 286.19 449.77 289.99 C 443.45 291.73 436.40 290.96 430.95 287.19 C 424.75 236.47 418.43 185.78 412.26 135.06 C 410.98 128.22 415.93 120.98 422.94 120.22 Z" />
</g>
<g id="#f19f5dff">
<path fill="#f19f5d" opacity="1.00" d=" M 281.16 115.69 C 286.04 115.10 290.97 115.01 295.84 114.28 C 296.45 117.79 299.19 121.17 302.99 121.17 C 309.03 121.29 315.01 119.73 321.06 120.16 C 325.05 120.24 328.72 122.03 332.18 123.86 C 346.68 132.05 361.20 140.19 375.70 148.39 C 377.62 149.48 379.76 150.38 382.03 150.07 C 387.61 149.56 393.15 148.68 398.73 148.07 C 403.32 185.46 407.91 222.85 412.53 260.23 C 403.00 261.41 393.47 262.46 383.94 263.55 C 381.99 263.84 379.88 263.96 378.26 265.22 C 374.26 268.15 370.41 271.29 366.61 274.47 C 348.97 259.27 331.32 244.08 313.69 228.86 C 329.66 224.13 343.03 213.31 353.83 200.94 C 356.09 198.33 359.29 195.83 359.33 192.06 C 359.54 187.71 355.33 183.92 351.03 184.55 C 347.06 185.01 344.91 188.76 342.41 191.41 C 332.12 203.05 318.93 213.45 303.12 215.70 C 286.72 217.92 270.50 210.31 258.75 199.26 C 256.43 197.22 254.33 194.33 251.02 194.01 C 247.79 193.49 244.97 195.62 243.18 198.09 C 237.37 205.66 231.56 213.22 225.75 220.78 C 222.73 224.71 219.39 228.47 215.28 231.29 C 205.83 237.97 193.35 240.01 182.26 236.75 C 179.65 235.92 176.71 235.37 174.75 233.31 C 172.93 231.20 173.96 228.31 175.23 226.22 C 192.16 197.14 209.05 168.03 225.96 138.93 C 228.21 135.04 231.22 131.43 235.28 129.36 C 238.85 127.42 242.94 126.90 246.92 126.54 C 254.95 125.84 262.97 125.05 271.00 124.36 C 273.72 124.04 276.83 123.95 278.84 121.80 C 280.54 120.24 280.89 117.86 281.16 115.69 Z" />
<path fill="#f19f5d" opacity="1.00" d=" M 138.07 302.11 C 144.58 299.83 152.13 305.16 152.27 312.03 C 152.57 317.93 147.84 322.19 144.64 326.58 C 140.89 331.85 132.52 332.87 127.93 328.15 C 123.67 324.32 123.55 317.38 127.04 312.99 C 130.25 309.00 132.83 303.71 138.07 302.11 Z" />
<path fill="#f19f5d" opacity="1.00" d=" M 384.73 309.89 C 387.08 311.98 389.63 313.87 391.77 316.19 C 394.45 318.87 394.87 323.46 392.76 326.61 C 389.42 331.65 384.66 336.92 378.03 336.59 C 373.15 336.78 369.27 333.59 365.85 330.54 C 372.70 328.16 377.89 322.84 382.02 317.07 C 383.56 314.96 384.07 312.35 384.73 309.89 Z" />
<path fill="#f19f5d" opacity="1.00" d=" M 171.31 318.44 C 177.72 315.17 186.11 319.84 186.97 326.90 C 187.98 333.23 182.73 337.78 179.46 342.49 C 176.18 346.48 173.58 351.88 168.21 353.35 C 161.66 355.42 154.21 349.93 154.29 343.06 C 154.06 337.28 158.80 333.22 161.82 328.84 C 164.83 325.27 167.00 320.65 171.31 318.44 Z" />
<path fill="#f19f5d" opacity="1.00" d=" M 341.63 329.43 C 345.71 333.02 349.85 336.53 353.95 340.09 C 348.62 345.32 345.00 353.37 337.22 355.29 C 331.60 356.71 326.40 353.37 322.54 349.63 C 326.52 346.98 330.23 343.90 333.18 340.12 C 335.95 336.52 339.66 333.61 341.63 329.43 Z" />
<path fill="#f19f5d" opacity="1.00" d=" M 206.34 335.41 C 213.89 332.56 222.35 340.12 220.57 347.93 C 218.94 353.77 214.12 357.94 210.85 362.87 C 207.51 366.86 205.03 371.73 200.68 374.74 C 195.09 378.27 186.80 375.39 184.73 369.10 C 183.18 365.28 184.32 360.94 186.74 357.76 C 190.85 352.21 195.10 346.77 199.22 341.22 C 201.10 338.80 203.26 336.25 206.34 335.41 Z" />
<path fill="#f19f5d" opacity="1.00" d=" M 297.48 347.84 C 301.73 351.52 306.01 355.18 310.25 358.89 C 306.38 363.14 303.05 367.93 298.72 371.73 C 295.52 374.52 291.12 374.35 287.15 374.63 C 284.26 374.80 282.27 377.20 281.01 379.57 C 279.73 378.77 278.48 377.99 277.21 377.20 C 272.32 382.63 267.72 388.33 262.83 393.75 C 259.00 398.20 253.35 400.74 247.54 401.13 C 251.88 395.28 256.35 389.54 260.69 383.69 C 263.54 379.84 265.61 375.36 266.19 370.58 C 272.19 372.01 278.28 368.64 282.61 364.70 C 287.78 359.27 292.36 353.31 297.48 347.84 Z" />
<path fill="#f19f5d" opacity="1.00" d=" M 237.49 356.65 C 244.05 354.63 251.36 360.15 251.31 366.98 C 251.54 370.83 249.22 374.12 246.98 377.01 C 242.45 382.82 238.18 388.84 233.55 394.56 C 230.34 398.63 224.19 400.14 219.63 397.51 C 213.91 394.73 212.02 386.75 215.65 381.60 C 219.55 375.90 223.97 370.56 228.05 364.99 C 230.57 361.65 233.12 357.65 237.49 356.65 Z" />
</g>
<g id="#f9c295ff">
<path fill="#f9c295" opacity="1.00" d=" M 161.19 131.18 C 163.82 126.28 169.65 123.38 175.15 124.46 C 181.56 125.61 187.65 128.14 194.06 129.31 C 197.76 130.06 201.15 127.39 202.43 124.06 C 206.79 125.16 211.07 126.58 215.48 127.48 C 213.29 130.67 211.45 134.08 209.50 137.42 C 194.41 163.38 179.34 189.35 164.24 215.30 C 162.11 218.98 159.71 222.68 159.03 226.95 C 157.54 235.15 161.84 244.04 169.27 247.85 C 185.19 255.43 204.84 255.17 220.09 246.03 C 233.71 238.40 241.33 224.23 251.00 212.57 C 261.72 221.27 274.22 228.49 288.10 230.35 C 290.34 230.79 292.99 230.51 294.73 232.28 C 324.70 258.18 354.74 284.00 384.73 309.89 C 384.07 312.35 383.56 314.96 382.02 317.07 C 377.89 322.84 372.70 328.16 365.85 330.54 C 358.01 323.91 350.43 316.95 342.42 310.52 C 337.41 306.51 329.34 311.82 330.93 318.01 C 332.49 323.26 338.02 325.74 341.63 329.43 C 339.66 333.61 335.95 336.52 333.18 340.12 C 330.23 343.90 326.52 346.98 322.54 349.63 C 316.24 344.18 309.92 338.76 303.63 333.29 C 301.53 331.43 298.86 329.68 295.90 330.33 C 291.28 330.96 288.28 336.52 290.38 340.73 C 292.04 343.70 295.02 345.58 297.48 347.84 C 292.36 353.31 287.78 359.27 282.61 364.70 C 278.28 368.64 272.19 372.01 266.19 370.58 C 267.52 360.67 262.62 350.26 254.01 345.14 C 248.58 341.64 241.88 340.66 235.55 341.56 C 234.02 334.04 229.52 327.03 222.70 323.28 C 216.27 319.42 208.30 318.99 201.21 321.10 C 199.07 314.85 194.95 309.09 189.01 305.99 C 182.14 301.82 173.54 301.71 166.09 304.30 C 162.84 294.79 153.90 287.55 143.85 286.69 C 136.21 285.79 128.52 288.72 122.94 293.90 C 113.81 293.30 104.67 292.70 95.54 292.09 C 101.14 246.53 106.76 200.97 112.38 155.41 C 122.27 156.04 132.16 156.78 142.05 157.39 C 145.04 157.73 148.14 156.26 149.53 153.55 C 153.58 146.18 157.09 138.52 161.19 131.18 Z" />
<path fill="#f9c295" opacity="1.00" d=" M 43.39 267.40 C 47.60 264.33 54.31 267.80 54.12 273.01 C 54.72 278.57 47.34 282.43 43.07 278.87 C 39.14 276.24 39.36 269.80 43.39 267.40 Z" />
<path fill="#f9c295" opacity="1.00" d=" M 460.33 267.32 C 464.22 264.66 470.07 267.28 470.86 271.86 C 472.30 277.39 465.40 282.45 460.57 279.31 C 456.00 276.98 455.84 269.80 460.33 267.32 Z" />
</g>
<g id="#d37d42ff">
<path fill="#d37d42" opacity="1.00" d=" M 383.94 263.55 C 393.47 262.46 403.00 261.41 412.53 260.23 C 413.53 268.04 414.37 275.86 415.51 283.65 C 406.70 284.00 397.88 283.65 389.07 283.84 C 386.05 283.66 383.64 285.56 381.30 287.15 C 376.42 282.91 371.50 278.70 366.61 274.47 C 370.41 271.29 374.26 268.15 378.26 265.22 C 379.88 263.96 381.99 263.84 383.94 263.55 Z" />
</g>
<g id="#cc3a60ff">
<path fill="#cc3a60" opacity="1.00" d=" M 8.13 298.86 C 9.08 293.62 9.39 288.28 10.30 283.03 C 16.37 284.22 22.52 285.10 28.71 285.13 C 32.40 290.59 38.44 294.53 45.07 295.08 C 51.30 295.79 57.58 293.43 62.21 289.28 C 68.41 291.60 74.94 289.84 80.95 287.84 C 80.24 292.18 80.62 297.10 77.76 300.75 C 75.11 304.41 70.43 306.58 65.91 305.91 C 46.64 303.62 27.39 301.16 8.13 298.86 Z" />
</g>
<g id="#3580d3ff">
<path fill="#3580d3" opacity="1.00" d=" M 482.23 285.52 C 488.77 286.29 495.29 284.49 501.77 283.70 C 502.71 288.72 502.94 293.84 503.88 298.86 C 484.60 301.16 465.34 303.62 446.06 305.91 C 441.79 306.54 437.35 304.63 434.67 301.29 C 431.26 297.43 431.77 291.95 430.95 287.19 C 436.40 290.96 443.45 291.73 449.77 289.99 C 453.79 293.18 458.79 295.27 463.99 295.19 C 471.20 295.29 478.13 291.39 482.23 285.52 Z" />
</g>
</svg>
