<?xml version="1.0" encoding="UTF-8" ?>
<!DOCTYPE svg PUBLIC "-//W3C//DTD SVG 1.1//EN" "http://www.w3.org/Graphics/SVG/1.1/DTD/svg11.dtd">
<svg width="500pt" height="857pt" viewBox="0 0 500 857" version="1.1" xmlns="http://www.w3.org/2000/svg">
<g id="#303030ff">
<path fill="#303030" opacity="1.00" d=" M 54.42 1.75 C 59.22 0.71 64.13 0.22 69.03 0.24 C 189.68 0.25 310.32 0.24 430.97 0.24 C 448.55 0.07 466.06 7.09 478.65 19.36 C 489.64 29.80 496.94 44.02 499.03 59.04 C 499.86 64.33 499.72 69.69 499.72 75.03 C 499.72 312.68 499.73 550.34 499.72 787.99 C 499.86 805.32 493.08 822.58 481.13 835.13 C 470.90 846.12 456.95 853.56 442.12 855.90 C 436.13 856.96 430.02 856.74 423.97 856.76 C 305.67 856.76 187.36 856.75 69.06 856.76 C 51.71 856.91 34.42 850.09 21.86 838.12 C 10.61 827.64 3.10 813.24 0.96 798.00 C 0.09 792.39 0.29 786.69 0.28 781.03 C 0.28 548.68 0.28 316.33 0.28 83.98 C 0.39 72.60 -0.55 60.94 2.91 49.91 C 9.51 26.00 30.13 6.72 54.42 1.75 M 34.49 33.64 C 29.82 38.25 26.12 43.78 23.50 49.79 C 21.89 53.79 20.76 57.98 20.13 62.25 C 19.52 67.26 19.74 72.31 19.72 77.34 C 19.72 82.01 19.70 86.68 19.72 91.34 C 19.73 96.27 19.69 101.20 19.72 106.13 C 173.24 106.14 326.76 106.14 480.28 106.13 C 480.31 101.18 480.27 96.23 480.28 91.28 C 480.30 86.63 480.28 81.98 480.28 77.32 C 480.27 72.23 480.44 67.12 479.89 62.05 L 479.72 62.08 C 479.32 57.85 478.05 53.78 476.52 49.84 C 473.96 43.83 470.17 38.42 465.69 33.69 L 465.40 33.73 C 456.51 24.60 443.67 19.65 430.98 19.67 C 310.32 19.69 189.65 19.68 68.98 19.68 C 56.23 19.58 43.62 24.76 34.49 33.64 M 19.71 125.54 C 19.72 336.13 19.72 546.72 19.71 757.31 C 173.24 757.31 326.76 757.31 480.29 757.31 C 480.28 546.72 480.28 336.13 480.29 125.54 C 326.76 125.54 173.24 125.53 19.71 125.54 M 19.72 776.77 C 19.69 780.46 19.73 784.16 19.69 787.87 C 19.71 791.31 20.11 794.75 20.69 798.15 C 21.67 802.46 23.16 806.64 25.03 810.65 L 25.24 810.66 C 26.59 813.48 28.34 816.09 30.19 818.62 L 30.40 818.61 C 34.02 823.56 38.87 827.46 44.06 830.67 L 44.23 830.64 C 51.66 835.11 60.35 837.35 69.00 837.34 C 189.66 837.33 310.32 837.33 430.97 837.34 C 439.60 837.35 448.29 835.14 455.70 830.68 L 455.88 830.72 C 461.10 827.49 465.99 823.57 469.62 818.59 L 469.84 818.60 C 471.66 816.07 473.40 813.48 474.75 810.67 L 474.96 810.66 C 476.86 806.56 478.40 802.29 479.36 797.87 C 479.89 794.57 480.28 791.25 480.31 787.91 C 480.27 784.19 480.30 780.48 480.28 776.77 C 326.76 776.75 173.24 776.75 19.72 776.77 Z" />
<path fill="#303030" opacity="1.00" d=" M 148.23 147.31 C 152.85 145.11 158.87 147.44 160.94 152.08 C 162.78 155.89 161.76 160.81 158.52 163.55 C 132.04 187.41 105.54 211.24 79.03 235.06 C 75.18 238.95 68.15 238.55 64.80 234.22 C 61.46 230.42 61.92 224.09 65.80 220.84 C 91.17 197.89 116.67 175.10 142.06 152.17 C 144.04 150.47 145.85 148.45 148.23 147.31 Z" />
<path fill="#303030" opacity="1.00" d=" M 162.34 183.53 C 166.65 181.07 172.60 182.75 175.12 186.99 C 177.67 190.83 176.84 196.35 173.39 199.37 C 156.88 214.22 140.37 229.06 123.87 243.91 C 121.08 246.57 116.70 247.44 113.19 245.77 C 108.77 243.90 106.28 238.52 107.82 233.95 C 108.74 230.84 111.46 228.86 113.78 226.80 C 128.18 213.85 142.57 200.90 156.97 187.95 C 158.70 186.41 160.30 184.68 162.34 183.53 Z" />
</g>
<g id="#ca2fa1ff">
<path fill="#ca2fa1" opacity="1.00" d=" M 34.49 33.64 C 43.62 24.76 56.23 19.58 68.98 19.68 C 189.65 19.68 310.32 19.69 430.98 19.67 C 443.67 19.65 456.51 24.60 465.40 33.73 C 458.94 34.45 452.43 34.14 445.95 34.17 C 314.64 34.16 183.33 34.15 52.02 34.17 C 46.17 34.19 40.30 34.41 34.49 33.64 Z" />
</g>
<g id="#d53391ff">
<path fill="#d53391" opacity="1.00" d=" M 23.50 49.79 C 26.12 43.78 29.82 38.25 34.49 33.64 C 40.30 34.41 46.17 34.19 52.02 34.17 C 183.33 34.15 314.64 34.16 445.95 34.17 C 452.43 34.14 458.94 34.45 465.40 33.73 L 465.69 33.69 C 470.17 38.42 473.96 43.83 476.52 49.84 C 325.51 49.81 174.51 49.96 23.50 49.79 Z" />
</g>
<g id="#d94080ff">
<path fill="#d94080" opacity="1.00" d=" M 23.50 49.79 C 174.51 49.96 325.51 49.81 476.52 49.84 C 478.05 53.78 479.32 57.85 479.72 62.08 C 476.86 62.68 473.98 63.27 471.05 63.23 C 431.71 63.14 392.37 63.21 353.03 63.15 C 348.79 63.05 344.54 63.02 340.35 63.75 C 341.36 57.39 335.09 52.05 329.01 52.95 C 324.17 53.35 320.04 57.42 319.83 62.33 C 316.91 62.90 313.96 63.30 310.99 63.25 C 301.31 63.12 291.64 63.18 281.96 63.25 C 278.96 63.28 275.99 62.87 273.05 62.32 C 273.07 56.99 268.53 52.09 263.09 52.35 C 228.70 52.30 194.31 52.32 159.92 52.34 C 154.78 52.03 150.61 56.28 149.76 61.13 C 148.41 62.99 146.14 63.28 144.00 63.21 C 108.33 63.16 72.66 63.21 36.99 63.17 C 31.35 63.28 25.68 63.38 20.13 62.25 C 20.76 57.98 21.89 53.79 23.50 49.79 Z" />
</g>
<g id="#ffffffff">
<path fill="#ffffff" opacity="1.00" d=" M 149.76 61.13 C 150.61 56.28 154.78 52.03 159.92 52.34 C 194.31 52.32 228.70 52.30 263.09 52.35 C 268.53 52.09 273.07 56.99 273.05 62.32 C 272.75 67.47 268.29 72.04 263.00 71.75 C 228.66 71.76 194.31 71.76 159.96 71.75 C 154.18 72.11 149.53 66.74 149.76 61.13 Z" />
<path fill="#ffffff" opacity="1.00" d=" M 319.83 62.33 C 320.04 57.42 324.17 53.35 329.01 52.95 C 335.09 52.05 341.36 57.39 340.35 63.75 C 338.75 69.54 331.85 72.77 326.33 70.50 C 322.78 69.30 320.37 65.97 319.83 62.33 Z" />
<path fill="#ffffff" opacity="1.00" d=" M 145.48 328.72 C 158.62 317.54 175.75 311.09 193.04 311.21 C 231.02 311.20 269.00 311.20 306.98 311.21 C 324.26 311.08 341.37 317.53 354.50 328.70 C 361.88 335.05 368.03 342.82 372.42 351.51 C 374.24 355.10 375.74 358.85 376.97 362.69 C 379.38 370.43 380.42 378.57 380.28 386.67 C 380.28 390.36 380.29 394.05 380.29 397.75 C 380.28 404.40 380.30 411.06 380.29 417.71 C 380.28 421.17 380.28 424.63 380.29 428.10 C 380.29 434.17 380.29 440.26 380.28 446.34 C 380.26 454.45 380.26 462.56 380.34 470.67 C 380.05 481.48 380.56 492.29 380.17 503.09 C 379.74 507.54 379.16 511.99 378.04 516.32 C 376.15 523.63 373.20 530.68 369.20 537.09 C 367.15 540.31 364.87 543.39 362.41 546.30 C 358.52 550.74 354.14 554.73 349.34 558.15 C 337.04 566.81 322.10 571.71 307.04 571.64 C 276.02 571.66 245.00 571.64 213.98 571.65 C 199.44 571.46 184.53 572.85 170.48 568.18 C 159.20 564.39 148.84 557.96 140.50 549.48 C 136.84 545.68 133.60 541.49 130.77 537.04 C 128.28 533.00 126.17 528.73 124.48 524.30 C 123.48 521.57 122.57 518.80 121.88 515.98 C 120.83 511.90 120.27 507.72 119.83 503.54 C 119.39 492.60 119.88 481.65 119.67 470.70 C 119.72 464.50 119.72 458.29 119.72 452.09 C 119.71 448.38 119.71 444.66 119.71 440.95 C 119.71 437.26 119.71 433.57 119.71 429.88 C 119.71 423.83 119.71 417.78 119.71 411.74 C 119.71 408.05 119.71 404.37 119.71 400.69 C 119.72 394.67 119.67 388.65 119.75 382.63 C 119.97 375.26 121.23 367.91 123.61 360.92 C 124.56 358.16 125.67 355.47 126.92 352.84 C 131.36 343.63 137.72 335.37 145.48 328.72 M 161.37 340.96 C 154.82 345.76 149.37 352.02 145.51 359.16 C 141.94 365.91 139.83 373.37 139.24 380.98 C 139.23 384.88 139.20 388.77 139.22 392.67 C 139.20 399.34 139.22 406.01 139.22 412.69 C 139.21 418.50 139.20 424.32 139.22 430.13 C 139.23 440.16 139.17 450.19 139.25 460.22 C 139.11 462.77 139.25 465.34 139.23 467.90 C 139.28 479.66 139.06 491.43 139.49 503.18 C 139.56 503.97 139.71 505.56 139.78 506.35 C 140.33 510.40 141.59 514.31 142.92 518.16 C 145.77 525.19 150.07 531.61 155.52 536.89 C 165.35 546.69 179.17 552.17 193.02 552.22 C 231.01 552.21 268.99 552.21 306.98 552.22 C 320.85 552.17 334.68 546.68 344.53 536.86 C 349.97 531.55 354.29 525.10 357.12 518.04 C 358.43 514.23 359.68 510.38 360.21 506.38 C 360.29 505.56 360.45 503.92 360.52 503.10 C 360.83 493.22 360.85 483.31 360.66 473.44 C 360.86 462.32 360.76 451.21 360.78 440.09 C 360.79 433.68 360.79 427.27 360.78 420.86 C 360.80 413.81 360.77 406.75 360.80 399.70 C 360.72 393.37 360.88 387.04 360.70 380.72 C 360.14 372.92 357.82 365.31 354.12 358.44 C 350.26 351.65 345.02 345.65 338.71 341.03 C 329.59 334.29 318.28 330.61 306.94 330.66 C 268.94 330.66 230.95 330.66 192.95 330.66 C 181.68 330.63 170.47 334.31 161.37 340.96 Z" />
<path fill="#ffffff" opacity="1.00" d=" M 317.48 369.01 C 316.89 364.63 320.35 360.98 324.34 359.87 C 326.47 360.00 328.54 360.55 330.53 361.33 C 334.93 364.70 335.10 372.17 330.15 375.11 C 325.31 378.62 317.83 374.90 317.48 369.01 Z" />
<path fill="#ffffff" opacity="1.00" d=" M 224.65 379.36 C 242.09 372.23 262.48 372.88 279.40 381.17 C 287.96 385.38 295.56 391.44 301.69 398.75 C 307.06 405.30 311.21 412.84 313.82 420.90 C 315.84 427.11 316.81 433.62 317.05 440.13 C 317.08 449.04 315.64 458.01 312.25 466.28 C 308.97 474.40 304.15 481.90 298.04 488.19 C 293.36 492.86 288.10 496.96 282.32 500.17 C 262.57 511.16 237.37 511.13 217.63 500.13 C 212.10 497.07 207.08 493.17 202.55 488.78 C 196.12 482.34 191.07 474.57 187.69 466.13 C 186.53 463.17 185.55 460.13 184.80 457.04 C 182.66 448.01 182.42 438.57 184.03 429.44 C 185.10 423.70 186.89 418.10 189.37 412.82 C 193.05 404.99 198.32 397.97 204.65 392.09 C 210.50 386.71 217.32 382.42 224.65 379.36 M 245.09 394.14 C 232.78 395.31 221.14 401.64 213.29 411.16 C 208.99 416.42 205.84 422.56 204.02 429.09 C 202.26 435.91 201.97 443.08 203.18 450.02 C 204.38 456.42 206.93 462.52 210.51 467.96 C 219.14 480.87 234.42 489.17 250.01 488.85 C 265.58 489.18 280.85 480.88 289.47 467.99 C 293.32 462.16 295.94 455.56 297.06 448.66 C 297.97 442.07 297.61 435.33 295.93 428.89 C 294.09 422.43 290.97 416.37 286.71 411.18 C 276.83 399.03 260.67 392.35 245.09 394.14 Z" />
<path fill="#ffffff" opacity="1.00" d=" M 244.45 788.59 C 248.12 787.66 251.90 787.68 255.58 788.58 C 260.25 790.41 264.25 793.83 266.43 798.39 C 268.06 802.26 268.23 806.58 267.36 810.66 C 266.34 813.59 264.80 816.37 262.60 818.61 C 255.88 825.35 244.11 825.34 237.39 818.60 C 235.20 816.36 233.65 813.59 232.63 810.66 C 231.77 806.58 231.94 802.27 233.56 798.41 C 235.75 793.84 239.75 790.39 244.45 788.59 Z" />
</g>
<g id="#de4e6dff">
<path fill="#de4e6d" opacity="1.00" d=" M 144.00 63.21 C 146.14 63.28 148.41 62.99 149.76 61.13 C 149.53 66.74 154.18 72.11 159.96 71.75 C 194.31 71.76 228.66 71.76 263.00 71.75 C 268.29 72.04 272.75 67.47 273.05 62.32 C 275.99 62.87 278.96 63.28 281.96 63.25 C 291.64 63.18 301.31 63.12 310.99 63.25 C 313.96 63.30 316.91 62.90 319.83 62.33 C 320.37 65.97 322.78 69.30 326.33 70.50 C 331.85 72.77 338.75 69.54 340.35 63.75 C 344.54 63.02 348.79 63.05 353.03 63.15 C 392.37 63.21 431.71 63.14 471.05 63.23 C 473.98 63.27 476.86 62.68 479.72 62.08 L 479.89 62.05 C 480.44 67.12 480.27 72.23 480.28 77.32 C 473.27 78.68 466.13 77.80 459.05 77.98 C 415.36 77.95 371.65 77.95 327.95 77.95 C 309.30 78.38 290.65 77.74 271.99 78.10 C 256.66 78.15 241.32 77.79 225.99 78.12 C 188.31 77.64 150.63 78.36 112.95 77.88 C 91.64 78.18 70.32 77.93 49.00 78.08 C 39.24 77.41 29.42 78.93 19.72 77.34 C 19.74 72.31 19.52 67.26 20.13 62.25 C 25.68 63.38 31.35 63.28 36.99 63.17 C 72.66 63.21 108.33 63.16 144.00 63.21 Z" />
</g>
<g id="#e35b5eff">
<path fill="#e35b5e" opacity="1.00" d=" M 19.72 77.34 C 29.42 78.93 39.24 77.41 49.00 78.08 C 70.32 77.93 91.64 78.18 112.95 77.88 C 150.63 78.36 188.31 77.64 225.99 78.12 C 241.32 77.79 256.66 78.15 271.99 78.10 C 290.65 77.74 309.30 78.38 327.95 77.95 C 371.65 77.95 415.36 77.95 459.05 77.98 C 466.13 77.80 473.27 78.68 480.28 77.32 C 480.28 81.98 480.30 86.63 480.28 91.28 C 477.86 91.70 475.43 92.11 472.98 92.20 C 327.98 92.18 182.98 92.17 37.99 92.19 C 31.89 92.20 25.74 92.54 19.72 91.34 C 19.70 86.68 19.72 82.01 19.72 77.34 Z" />
</g>
<g id="#e8715dff">
<path fill="#e8715d" opacity="1.00" d=" M 19.72 91.34 C 25.74 92.54 31.89 92.20 37.99 92.19 C 182.98 92.17 327.98 92.18 472.98 92.20 C 475.43 92.11 477.86 91.70 480.28 91.28 C 480.27 96.23 480.31 101.18 480.28 106.13 C 326.76 106.14 173.24 106.14 19.72 106.13 C 19.69 101.20 19.73 96.27 19.72 91.34 Z" />
</g>
<g id="#f4f4f4ff">
<path fill="#f4f4f4" opacity="1.00" d=" M 19.71 125.54 C 173.24 125.53 326.76 125.54 480.29 125.54 C 480.28 336.13 480.28 546.72 480.29 757.31 C 326.76 757.31 173.24 757.31 19.71 757.31 C 19.72 546.72 19.72 336.13 19.71 125.54 M 148.23 147.31 C 145.85 148.45 144.04 150.47 142.06 152.17 C 116.67 175.10 91.17 197.89 65.80 220.84 C 61.92 224.09 61.46 230.42 64.80 234.22 C 68.15 238.55 75.18 238.95 79.03 235.06 C 105.54 211.24 132.04 187.41 158.52 163.55 C 161.76 160.81 162.78 155.89 160.94 152.08 C 158.87 147.44 152.85 145.11 148.23 147.31 M 162.34 183.53 C 160.30 184.68 158.70 186.41 156.97 187.95 C 142.57 200.90 128.18 213.85 113.78 226.80 C 111.46 228.86 108.74 230.84 107.82 233.95 C 106.28 238.52 108.77 243.90 113.19 245.77 C 116.70 247.44 121.08 246.57 123.87 243.91 C 140.37 229.06 156.88 214.22 173.39 199.37 C 176.84 196.35 177.67 190.83 175.12 186.99 C 172.60 182.75 166.65 181.07 162.34 183.53 M 127.35 307.92 C 120.79 313.41 114.99 319.84 110.46 327.11 C 105.98 334.17 102.69 341.94 100.56 350.02 C 99.78 353.44 99.13 356.88 98.63 360.36 C 97.84 369.90 98.30 379.47 98.19 389.03 C 98.05 392.28 98.63 395.63 97.67 398.80 C 97.96 399.18 98.54 399.93 98.83 400.31 L 98.83 400.76 L 98.78 401.51 C 97.86 404.82 98.24 408.28 98.20 411.68 C 98.17 417.75 98.18 423.81 98.19 429.88 C 98.18 433.60 98.18 437.31 98.19 441.03 C 98.18 444.72 98.19 448.42 98.18 452.12 C 98.25 457.80 98.00 463.50 98.36 469.18 L 98.22 468.62 C 98.20 478.28 98.07 487.95 98.41 497.60 C 97.86 504.77 98.23 512.05 98.42 519.25 C 98.52 522.67 99.25 526.02 99.78 529.39 C 100.57 532.99 101.60 536.54 102.78 540.03 C 103.90 543.02 105.16 545.97 106.56 548.85 C 110.42 556.57 115.56 563.68 121.70 569.76 C 136.37 584.63 157.12 593.22 178.00 593.25 C 226.36 593.24 274.71 593.27 323.06 593.24 C 348.34 592.93 373.29 579.84 387.38 558.77 L 387.63 558.75 C 389.70 555.54 391.70 552.29 393.43 548.89 C 395.32 544.93 397.02 540.87 398.32 536.67 C 399.82 531.40 401.13 526.01 401.46 520.52 C 401.99 512.58 401.92 504.60 401.69 496.64 C 401.87 487.34 401.98 478.01 401.71 468.71 C 401.78 457.73 402.14 446.59 401.56 435.69 C 402.04 424.22 401.79 412.70 401.72 401.22 C 401.70 387.58 402.25 373.90 401.36 360.28 C 400.85 356.89 400.24 353.53 399.47 350.19 C 397.36 342.04 394.03 334.20 389.52 327.08 C 384.66 319.30 378.37 312.48 371.24 306.75 C 357.32 295.81 339.73 289.59 322.01 289.63 C 274.01 289.62 226.00 289.62 178.00 289.63 C 159.67 289.60 141.46 296.23 127.35 307.92 Z" />
</g>
<g id="#8e52c7ff">
<path fill="#8e52c7" opacity="1.00" d=" M 127.35 307.92 C 141.46 296.23 159.67 289.60 178.00 289.63 C 226.00 289.62 274.01 289.62 322.01 289.63 C 339.73 289.59 357.32 295.81 371.24 306.75 C 370.85 307.41 370.46 308.07 370.08 308.73 C 367.72 308.94 365.36 309.13 363.00 309.06 C 351.66 308.55 340.32 309.34 328.98 309.10 C 311.33 308.55 293.68 309.33 276.03 309.08 C 232.71 308.78 189.38 309.03 146.05 308.92 C 139.81 308.80 133.42 309.88 127.35 307.92 Z" />
</g>
<g id="#9d49beff">
<path fill="#9d49be" opacity="1.00" d=" M 370.08 308.73 C 370.46 308.07 370.85 307.41 371.24 306.75 C 378.37 312.48 384.66 319.30 389.52 327.08 C 378.00 329.75 366.08 326.84 354.50 328.70 C 341.37 317.53 324.26 311.08 306.98 311.21 C 269.00 311.20 231.02 311.20 193.04 311.21 C 175.75 311.09 158.62 317.54 145.48 328.72 C 133.91 326.71 121.98 329.82 110.46 327.11 C 114.99 319.84 120.79 313.41 127.35 307.92 C 133.42 309.88 139.81 308.80 146.05 308.92 C 189.38 309.03 232.71 308.78 276.03 309.08 C 293.68 309.33 311.33 308.55 328.98 309.10 C 340.32 309.34 351.66 308.55 363.00 309.06 C 365.36 309.13 367.72 308.94 370.08 308.73 Z" />
</g>
<g id="#b23db1ff">
<path fill="#b23db1" opacity="1.00" d=" M 100.56 350.02 C 102.69 341.94 105.98 334.17 110.46 327.11 C 121.98 329.82 133.91 326.71 145.48 328.72 C 137.72 335.37 131.36 343.63 126.92 352.84 C 119.50 350.46 111.65 352.46 104.05 351.60 C 102.78 351.34 101.70 350.57 100.56 350.02 Z" />
<path fill="#b23db1" opacity="1.00" d=" M 354.50 328.70 C 366.08 326.84 378.00 329.75 389.52 327.08 C 394.03 334.20 397.36 342.04 399.47 350.19 C 395.99 352.24 391.88 351.73 388.03 351.75 C 382.82 351.74 377.62 351.81 372.42 351.51 C 368.03 342.82 361.88 335.05 354.50 328.70 Z" />
</g>
<g id="#af3fb2ff">
<path fill="#af3fb2" opacity="1.00" d=" M 161.37 340.96 C 170.47 334.31 181.68 330.63 192.95 330.66 C 230.95 330.66 268.94 330.66 306.94 330.66 C 318.28 330.61 329.59 334.29 338.71 341.03 C 334.28 342.36 329.64 342.32 325.07 342.19 C 276.39 342.13 227.72 342.17 179.04 342.16 C 173.14 342.10 167.09 342.83 161.37 340.96 Z" />
</g>
<g id="#bd37aaff">
<path fill="#bd37aa" opacity="1.00" d=" M 145.51 359.16 C 149.37 352.02 154.82 345.76 161.37 340.96 C 167.09 342.83 173.14 342.10 179.04 342.16 C 227.72 342.17 276.39 342.13 325.07 342.19 C 329.64 342.32 334.28 342.36 338.71 341.03 C 345.02 345.65 350.26 351.65 354.12 358.44 C 353.81 359.54 353.52 360.66 353.22 361.77 C 345.66 361.87 338.06 362.14 330.53 361.33 C 328.54 360.55 326.47 360.00 324.34 359.87 C 320.56 359.37 316.79 359.98 313.02 360.10 C 301.70 359.82 290.38 360.32 279.06 360.15 C 269.05 360.37 259.04 359.58 249.03 360.14 C 219.35 360.17 189.67 360.12 159.99 360.16 C 155.14 360.32 150.25 360.28 145.51 359.16 Z" />
</g>
<g id="#c234a7ff">
<path fill="#c234a7" opacity="1.00" d=" M 98.63 360.36 C 99.13 356.88 99.78 353.44 100.56 350.02 C 101.70 350.57 102.78 351.34 104.05 351.60 C 111.65 352.46 119.50 350.46 126.92 352.84 C 125.67 355.47 124.56 358.16 123.61 360.92 C 117.22 362.74 110.52 362.19 103.96 362.14 C 102.01 362.20 100.32 361.18 98.63 360.36 Z" />
</g>
<g id="#c233a7ff">
<path fill="#c233a7" opacity="1.00" d=" M 388.03 351.75 C 391.88 351.73 395.99 352.24 399.47 350.19 C 400.24 353.53 400.85 356.89 401.36 360.28 C 398.13 362.89 393.87 362.29 390.02 362.25 C 385.66 362.08 381.30 362.24 376.97 362.69 C 375.74 358.85 374.24 355.10 372.42 351.51 C 377.62 351.81 382.82 351.74 388.03 351.75 Z" />
</g>
<g id="#ce2d9fff">
<path fill="#ce2d9f" opacity="1.00" d=" M 145.51 359.16 C 150.25 360.28 155.14 360.32 159.99 360.16 C 189.67 360.12 219.35 360.17 249.03 360.14 C 259.04 359.58 269.05 360.37 279.06 360.15 C 290.38 360.32 301.70 359.82 313.02 360.10 C 316.79 359.98 320.56 359.37 324.34 359.87 C 320.35 360.98 316.89 364.63 317.48 369.01 C 317.83 374.90 325.31 378.62 330.15 375.11 C 335.10 372.17 334.93 364.70 330.53 361.33 C 338.06 362.14 345.66 361.87 353.22 361.77 C 353.52 360.66 353.81 359.54 354.12 358.44 C 357.82 365.31 360.14 372.92 360.70 380.72 C 350.53 379.10 340.22 380.34 329.98 380.09 C 318.32 379.84 306.66 380.29 295.00 379.96 C 289.79 380.02 284.43 379.44 279.40 381.17 C 262.48 372.88 242.09 372.23 224.65 379.36 C 220.36 377.50 215.64 377.86 211.09 377.96 C 189.05 377.94 167.02 377.97 144.99 377.94 C 142.50 377.56 140.81 379.37 139.24 380.98 C 139.83 373.37 141.94 365.91 145.51 359.16 Z" />
</g>
<g id="#cf2d9eff">
<path fill="#cf2d9e" opacity="1.00" d=" M 98.63 360.36 C 100.32 361.18 102.01 362.20 103.96 362.14 C 110.52 362.19 117.22 362.74 123.61 360.92 C 121.23 367.91 119.97 375.26 119.75 382.63 C 113.38 379.92 106.21 380.82 99.51 381.47 C 98.51 387.72 98.55 394.06 98.87 400.37 L 98.83 400.31 C 98.54 399.93 97.96 399.18 97.67 398.80 C 98.63 395.63 98.05 392.28 98.19 389.03 C 98.30 379.47 97.84 369.90 98.63 360.36 Z" />
</g>
<g id="#d12d9dff">
<path fill="#d12d9d" opacity="1.00" d=" M 390.02 362.25 C 393.87 362.29 398.13 362.89 401.36 360.28 C 402.25 373.90 401.70 387.58 401.72 401.22 C 401.53 400.04 401.33 398.85 401.14 397.68 C 400.33 393.65 402.21 388.66 399.74 385.24 C 393.33 384.80 386.24 383.58 380.28 386.67 C 380.42 378.57 379.38 370.43 376.97 362.69 C 381.30 362.24 385.66 362.08 390.02 362.25 Z" />
</g>
<g id="#d43093ff">
<path fill="#d43093" opacity="1.00" d=" M 139.24 380.98 C 140.81 379.37 142.50 377.56 144.99 377.94 C 167.02 377.97 189.05 377.94 211.09 377.96 C 215.64 377.86 220.36 377.50 224.65 379.36 C 217.32 382.42 210.50 386.71 204.65 392.09 C 199.76 391.59 194.86 392.23 189.96 392.17 C 176.63 392.10 163.29 392.21 149.96 392.08 C 146.37 392.03 142.78 392.28 139.22 392.67 C 139.20 388.77 139.23 384.88 139.24 380.98 Z" />
</g>
<g id="#d53390ff">
<path fill="#d53390" opacity="1.00" d=" M 279.40 381.17 C 284.43 379.44 289.79 380.02 295.00 379.96 C 306.66 380.29 318.32 379.84 329.98 380.09 C 340.22 380.34 350.53 379.10 360.70 380.72 C 360.88 387.04 360.72 393.37 360.80 399.70 C 357.51 397.79 353.69 397.70 350.00 397.98 C 333.91 398.77 317.73 396.97 301.69 398.75 C 295.56 391.44 287.96 385.38 279.40 381.17 Z" />
</g>
<g id="#d6348fff">
<path fill="#d6348f" opacity="1.00" d=" M 99.51 381.47 C 106.21 380.82 113.38 379.92 119.75 382.63 C 119.67 388.65 119.72 394.67 119.71 400.69 C 112.81 399.39 105.71 399.44 98.83 400.77 L 98.83 400.76 L 98.83 400.31 L 98.87 400.37 C 98.55 394.06 98.51 387.72 99.51 381.47 Z" />
</g>
<g id="#d6358eff">
<path fill="#d6358e" opacity="1.00" d=" M 380.28 386.67 C 386.24 383.58 393.33 384.80 399.74 385.24 C 402.21 388.66 400.33 393.65 401.14 397.68 C 394.22 396.79 387.20 396.92 380.29 397.75 C 380.29 394.05 380.28 390.36 380.28 386.67 Z" />
</g>
<g id="#d83c85ff">
<path fill="#d83c85" opacity="1.00" d=" M 189.96 392.17 C 194.86 392.23 199.76 391.59 204.65 392.09 C 198.32 397.97 193.05 404.99 189.37 412.82 C 183.36 411.36 177.15 411.93 171.04 411.90 C 160.43 412.16 149.75 411.10 139.22 412.69 C 139.22 406.01 139.20 399.34 139.22 392.67 C 142.78 392.28 146.37 392.03 149.96 392.08 C 163.29 392.21 176.63 392.10 189.96 392.17 Z" />
</g>
<g id="#d93e83ff">
<path fill="#d93e83" opacity="1.00" d=" M 245.09 394.14 C 260.67 392.35 276.83 399.03 286.71 411.18 C 262.24 411.05 237.76 411.13 213.29 411.16 C 221.14 401.64 232.78 395.31 245.09 394.14 Z" />
</g>
<g id="#d93f80ff">
<path fill="#d93f80" opacity="1.00" d=" M 380.29 397.75 C 387.20 396.92 394.22 396.79 401.14 397.68 C 401.33 398.85 401.53 400.04 401.72 401.22 C 401.79 412.70 402.04 424.22 401.56 435.69 L 401.11 434.51 C 401.03 432.36 401.02 430.22 401.02 428.08 C 400.96 424.80 401.18 421.49 400.63 418.24 C 399.94 416.91 398.29 417.09 397.06 416.91 C 391.46 416.52 385.81 416.66 380.29 417.71 C 380.30 411.06 380.28 404.40 380.29 397.75 Z" />
</g>
<g id="#da4080ff">
<path fill="#da4080" opacity="1.00" d=" M 301.69 398.75 C 317.73 396.97 333.91 398.77 350.00 397.98 C 353.69 397.70 357.51 397.79 360.80 399.70 C 360.77 406.75 360.80 413.81 360.78 420.86 C 345.13 420.85 329.47 420.71 313.82 420.90 C 311.21 412.84 307.06 405.30 301.69 398.75 Z" />
</g>
<g id="#d93e82ff">
<path fill="#d93e82" opacity="1.00" d=" M 98.83 400.77 C 105.71 399.44 112.81 399.39 119.71 400.69 C 119.71 404.37 119.71 408.05 119.71 411.74 C 112.58 410.75 105.34 410.88 98.20 411.68 C 98.24 408.28 97.86 404.82 98.78 401.51 L 98.83 400.76 L 98.83 400.77 Z" />
</g>
<g id="#dc4876ff">
<path fill="#dc4876" opacity="1.00" d=" M 98.20 411.68 C 105.34 410.88 112.58 410.75 119.71 411.74 C 119.71 417.78 119.71 423.83 119.71 429.88 C 112.54 429.78 105.36 429.89 98.19 429.88 C 98.18 423.81 98.17 417.75 98.20 411.68 Z" />
<path fill="#dc4876" opacity="1.00" d=" M 204.02 429.09 C 205.84 422.56 208.99 416.42 213.29 411.16 C 237.76 411.13 262.24 411.05 286.71 411.18 C 290.97 416.37 294.09 422.43 295.93 428.89 C 265.29 429.11 234.66 428.97 204.02 429.09 Z" />
<path fill="#dc4876" opacity="1.00" d=" M 139.22 412.69 C 149.75 411.10 160.43 412.16 171.04 411.90 C 177.15 411.93 183.36 411.36 189.37 412.82 C 186.89 418.10 185.10 423.70 184.03 429.44 C 180.71 429.91 177.37 430.27 174.01 430.24 C 162.42 430.12 150.82 430.31 139.22 430.13 C 139.20 424.32 139.21 418.50 139.22 412.69 Z" />
</g>
<g id="#dd4974ff">
<path fill="#dd4974" opacity="1.00" d=" M 380.29 417.71 C 385.81 416.66 391.46 416.52 397.06 416.91 C 398.29 417.09 399.94 416.91 400.63 418.24 C 401.18 421.49 400.96 424.80 401.02 428.08 C 394.11 428.17 387.20 428.15 380.29 428.10 C 380.28 424.63 380.28 421.17 380.29 417.71 Z" />
</g>
<g id="#de4f6dff">
<path fill="#de4f6d" opacity="1.00" d=" M 313.82 420.90 C 329.47 420.71 345.13 420.85 360.78 420.86 C 360.79 427.27 360.79 433.68 360.78 440.09 C 346.21 440.32 331.63 440.19 317.05 440.13 C 316.81 433.62 315.84 427.11 313.82 420.90 Z" />
</g>
<g id="#e05367ff">
<path fill="#e05367" opacity="1.00" d=" M 380.29 428.10 C 387.20 428.15 394.11 428.17 401.02 428.08 C 401.02 430.22 401.03 432.36 401.11 434.51 C 400.90 438.26 401.20 442.06 400.67 445.80 C 400.42 446.02 399.92 446.47 399.68 446.70 C 393.29 447.88 386.68 447.14 380.28 446.34 C 380.29 440.26 380.29 434.17 380.29 428.10 Z" />
</g>
<g id="#e15662ff">
<path fill="#e15662" opacity="1.00" d=" M 174.01 430.24 C 177.37 430.27 180.71 429.91 184.03 429.44 C 182.42 438.57 182.66 448.01 184.80 457.04 C 178.40 454.96 171.62 455.92 165.02 455.77 C 157.38 455.88 149.73 455.55 142.10 455.91 C 141.12 457.32 140.15 458.75 139.25 460.22 C 139.17 450.19 139.23 440.16 139.22 430.13 C 150.82 430.31 162.42 430.12 174.01 430.24 Z" />
</g>
<g id="#e05467ff">
<path fill="#e05467" opacity="1.00" d=" M 204.02 429.09 C 234.66 428.97 265.29 429.11 295.93 428.89 C 297.61 435.33 297.97 442.07 297.06 448.66 C 294.72 448.28 292.36 447.91 289.98 447.85 C 261.44 447.77 232.90 448.16 204.36 447.66 C 204.07 448.25 203.47 449.43 203.18 450.02 C 201.97 443.08 202.26 435.91 204.02 429.09 Z" />
</g>
<g id="#e05269ff">
<path fill="#e05269" opacity="1.00" d=" M 98.19 429.88 C 105.36 429.89 112.54 429.78 119.71 429.88 C 119.71 433.57 119.71 437.26 119.71 440.95 C 112.54 440.98 105.36 441.09 98.19 441.03 C 98.18 437.31 98.18 433.60 98.19 429.88 Z" />
</g>
<g id="#e5655bff">
<path fill="#e5655b" opacity="1.00" d=" M 401.11 434.51 L 401.56 435.69 C 402.14 446.59 401.78 457.73 401.71 468.71 C 401.32 471.78 400.89 474.84 400.63 477.92 C 400.23 476.69 399.82 475.46 399.42 474.25 C 393.80 473.59 388.11 473.62 382.48 474.18 C 382.11 476.49 381.76 478.81 381.44 481.13 C 381.27 477.62 380.82 474.14 380.34 470.67 C 380.26 462.56 380.26 454.45 380.28 446.34 C 386.68 447.14 393.29 447.88 399.68 446.70 C 399.92 446.47 400.42 446.02 400.67 445.80 C 401.20 442.06 400.90 438.26 401.11 434.51 Z" />
</g>
<g id="#e35d5bff">
<path fill="#e35d5b" opacity="1.00" d=" M 317.05 440.13 C 331.63 440.19 346.21 440.32 360.78 440.09 C 360.76 451.21 360.86 462.32 360.66 473.44 C 359.84 470.41 359.02 467.38 358.42 464.31 C 345.60 464.01 332.77 464.41 319.95 464.14 C 317.18 463.93 314.64 465.05 312.25 466.28 C 315.64 458.01 317.08 449.04 317.05 440.13 Z" />
</g>
<g id="#e25960ff">
<path fill="#e25960" opacity="1.00" d=" M 98.19 441.03 C 105.36 441.09 112.54 440.98 119.71 440.95 C 119.71 444.66 119.71 448.38 119.72 452.09 C 112.54 452.09 105.36 452.01 98.18 452.12 C 98.19 448.42 98.18 444.72 98.19 441.03 Z" />
</g>
<g id="#e4605aff">
<path fill="#e4605a" opacity="1.00" d=" M 204.36 447.66 C 232.90 448.16 261.44 447.77 289.98 447.85 C 292.36 447.91 294.72 448.28 297.06 448.66 C 295.94 455.56 293.32 462.16 289.47 467.99 C 285.87 465.22 281.19 465.83 276.95 465.80 C 259.63 466.14 242.31 465.74 224.99 465.85 C 220.14 466.05 214.68 464.78 210.51 467.96 C 206.93 462.52 204.38 456.42 203.18 450.02 C 203.47 449.43 204.07 448.25 204.36 447.66 Z" />
</g>
<g id="#e5655aff">
<path fill="#e5655a" opacity="1.00" d=" M 98.18 452.12 C 105.36 452.01 112.54 452.09 119.72 452.09 C 119.72 458.29 119.72 464.50 119.67 470.70 C 119.31 472.47 118.89 474.23 118.47 476.00 C 118.18 473.75 117.89 471.51 117.59 469.27 C 111.94 469.15 106.28 468.67 100.64 469.25 C 100.19 470.43 99.76 471.64 99.31 472.83 C 98.97 471.61 98.66 470.40 98.36 469.18 C 98.00 463.50 98.25 457.80 98.18 452.12 Z" />
<path fill="#e5655a" opacity="1.00" d=" M 139.25 460.22 C 140.15 458.75 141.12 457.32 142.10 455.91 C 149.73 455.55 157.38 455.88 165.02 455.77 C 171.62 455.92 178.40 454.96 184.80 457.04 C 185.55 460.13 186.53 463.17 187.69 466.13 C 183.51 465.29 179.23 465.09 174.97 465.22 C 163.84 465.45 152.71 465.00 141.59 465.38 C 141.29 466.91 141.03 468.45 140.73 469.99 C 140.36 469.47 139.61 468.42 139.23 467.90 C 139.25 465.34 139.11 462.77 139.25 460.22 Z" />
</g>
<g id="#e9775eff">
<path fill="#e9775e" opacity="1.00" d=" M 312.25 466.28 C 314.64 465.05 317.18 463.93 319.95 464.14 C 332.77 464.41 345.60 464.01 358.42 464.31 C 359.02 467.38 359.84 470.41 360.66 473.44 C 360.85 483.31 360.83 493.22 360.52 503.10 C 360.13 497.46 359.72 491.81 358.69 486.25 C 354.81 485.80 350.91 485.69 347.02 485.80 C 334.02 485.91 321.02 485.85 308.02 485.77 C 304.50 485.57 301.36 487.33 298.04 488.19 C 304.15 481.90 308.97 474.40 312.25 466.28 Z" />
</g>
<g id="#ea785eff">
<path fill="#ea785e" opacity="1.00" d=" M 141.59 465.38 C 152.71 465.00 163.84 465.45 174.97 465.22 C 179.23 465.09 183.51 465.29 187.69 466.13 C 191.07 474.57 196.12 482.34 202.55 488.78 C 198.91 487.07 195.06 485.42 190.95 485.80 C 174.38 486.15 157.78 485.42 141.24 486.19 C 139.73 491.72 140.05 497.51 139.49 503.18 C 139.06 491.43 139.28 479.66 139.23 467.90 C 139.61 468.42 140.36 469.47 140.73 469.99 C 141.03 468.45 141.29 466.91 141.59 465.38 Z" />
</g>
<g id="#e9765eff">
<path fill="#e9765e" opacity="1.00" d=" M 210.51 467.96 C 214.68 464.78 220.14 466.05 224.99 465.85 C 242.31 465.74 259.63 466.14 276.95 465.80 C 281.19 465.83 285.87 465.22 289.47 467.99 C 280.85 480.88 265.58 489.18 250.01 488.85 C 234.42 489.17 219.14 480.87 210.51 467.96 Z" />
</g>
<g id="#ea7a5fff">
<path fill="#ea7a5f" opacity="1.00" d=" M 98.22 468.62 L 98.36 469.18 C 98.66 470.40 98.97 471.61 99.31 472.83 C 99.76 471.64 100.19 470.43 100.64 469.25 C 106.28 468.67 111.94 469.15 117.59 469.27 C 117.89 471.51 118.18 473.75 118.47 476.00 C 118.89 474.23 119.31 472.47 119.67 470.70 C 119.88 481.65 119.39 492.60 119.83 503.54 L 119.29 503.15 C 118.79 498.13 118.52 493.10 117.67 488.13 C 111.88 487.59 106.05 487.65 100.27 488.20 C 99.77 490.93 99.32 493.67 98.88 496.42 L 98.41 497.60 C 98.07 487.95 98.20 478.28 98.22 468.62 Z" />
</g>
<g id="#ed8562ff">
<path fill="#ed8562" opacity="1.00" d=" M 400.63 477.92 C 400.89 474.84 401.32 471.78 401.71 468.71 C 401.98 478.01 401.87 487.34 401.69 496.64 C 401.13 500.05 400.63 503.46 400.56 506.92 C 400.24 505.63 399.92 504.35 399.61 503.07 C 393.57 502.65 387.13 501.66 381.39 504.09 C 380.96 503.77 380.55 503.44 380.17 503.09 C 380.56 492.29 380.05 481.48 380.34 470.67 C 380.82 474.14 381.27 477.62 381.44 481.13 C 381.76 478.81 382.11 476.49 382.48 474.18 C 388.11 473.62 393.80 473.59 399.42 474.25 C 399.82 475.46 400.23 476.69 400.63 477.92 Z" />
</g>
<g id="#ee8a64ff">
<path fill="#ee8a64" opacity="1.00" d=" M 141.24 486.19 C 157.78 485.42 174.38 486.15 190.95 485.80 C 195.06 485.42 198.91 487.07 202.55 488.78 C 207.08 493.17 212.10 497.07 217.63 500.13 C 210.87 501.89 203.88 500.56 197.01 501.01 C 186.34 500.93 175.68 501.05 165.02 500.99 C 157.23 501.20 149.42 500.45 141.65 501.29 C 141.01 502.97 140.35 504.64 139.78 506.35 C 139.71 505.56 139.56 503.97 139.49 503.18 C 140.05 497.51 139.73 491.72 141.24 486.19 Z" />
<path fill="#ee8a64" opacity="1.00" d=" M 298.04 488.19 C 301.36 487.33 304.50 485.57 308.02 485.77 C 321.02 485.85 334.02 485.91 347.02 485.80 C 350.91 485.69 354.81 485.80 358.69 486.25 C 359.72 491.81 360.13 497.46 360.52 503.10 C 360.45 503.92 360.29 505.56 360.21 506.38 C 359.61 504.66 358.93 502.97 358.28 501.29 C 354.53 500.88 350.75 500.93 346.99 501.06 C 327.64 501.24 308.29 500.76 288.94 501.15 C 286.69 501.16 284.49 500.66 282.32 500.17 C 288.10 496.96 293.36 492.86 298.04 488.19 Z" />
</g>
<g id="#ee8b64ff">
<path fill="#ee8b64" opacity="1.00" d=" M 100.27 488.20 C 106.05 487.65 111.88 487.59 117.67 488.13 C 118.52 493.10 118.79 498.13 119.29 503.15 C 113.87 499.30 106.76 501.18 100.58 501.27 C 100.17 502.48 99.75 503.70 99.34 504.92 C 99.21 502.08 99.03 499.25 98.88 496.42 C 99.32 493.67 99.77 490.93 100.27 488.20 Z" />
</g>
<g id="#f19968ff">
<path fill="#f19968" opacity="1.00" d=" M 98.41 497.60 L 98.88 496.42 C 99.03 499.25 99.21 502.08 99.34 504.92 C 99.75 503.70 100.17 502.48 100.58 501.27 C 106.76 501.18 113.87 499.30 119.29 503.15 L 119.83 503.54 C 120.27 507.72 120.83 511.90 121.88 515.98 C 117.79 513.16 112.68 513.99 108.01 513.86 C 105.58 513.99 102.98 513.58 100.68 514.50 C 99.72 515.97 99.06 517.61 98.42 519.25 C 98.23 512.05 97.86 504.77 98.41 497.60 Z" />
</g>
<g id="#f29b68ff">
<path fill="#f29b68" opacity="1.00" d=" M 400.56 506.92 C 400.63 503.46 401.13 500.05 401.69 496.64 C 401.92 504.60 401.99 512.58 401.46 520.52 C 400.77 518.77 400.02 517.06 399.28 515.34 C 392.20 515.10 384.97 514.52 378.04 516.32 C 379.16 511.99 379.74 507.54 380.17 503.09 C 380.55 503.44 380.96 503.77 381.39 504.09 C 387.13 501.66 393.57 502.65 399.61 503.07 C 399.92 504.35 400.24 505.63 400.56 506.92 Z" />
</g>
<g id="#f19a68ff">
<path fill="#f19a68" opacity="1.00" d=" M 217.63 500.13 C 237.37 511.13 262.57 511.16 282.32 500.17 C 284.49 500.66 286.69 501.16 288.94 501.15 C 308.29 500.76 327.64 501.24 346.99 501.06 C 350.75 500.93 354.53 500.88 358.28 501.29 C 358.93 502.97 359.61 504.66 360.21 506.38 C 359.68 510.38 358.43 514.23 357.12 518.04 C 356.51 517.17 355.92 516.30 355.32 515.45 C 350.90 514.91 346.44 515.12 342.00 515.17 C 287.34 515.16 232.69 515.15 178.03 515.17 C 166.90 515.33 155.76 514.86 144.64 515.40 C 144.07 516.32 143.50 517.23 142.92 518.16 C 141.59 514.31 140.33 510.40 139.78 506.35 C 140.35 504.64 141.01 502.97 141.65 501.29 C 149.42 500.45 157.23 501.20 165.02 500.99 C 175.68 501.05 186.34 500.93 197.01 501.01 C 203.88 500.56 210.87 501.89 217.63 500.13 Z" />
</g>
<g id="#f4a66bff">
<path fill="#f4a66b" opacity="1.00" d=" M 100.68 514.50 C 102.98 513.58 105.58 513.99 108.01 513.86 C 112.68 513.99 117.79 513.16 121.88 515.98 C 122.57 518.80 123.48 521.57 124.48 524.30 C 123.77 524.98 122.89 525.44 121.88 525.27 C 115.10 524.98 108.31 524.69 101.54 525.29 C 100.95 526.65 100.37 528.02 99.78 529.39 C 99.25 526.02 98.52 522.67 98.42 519.25 C 99.06 517.61 99.72 515.97 100.68 514.50 Z" />
</g>
<g id="#f5ac6dff">
<path fill="#f5ac6d" opacity="1.00" d=" M 144.64 515.40 C 155.76 514.86 166.90 515.33 178.03 515.17 C 232.69 515.15 287.34 515.16 342.00 515.17 C 346.44 515.12 350.90 514.91 355.32 515.45 C 355.92 516.30 356.51 517.17 357.12 518.04 C 354.29 525.10 349.97 531.55 344.53 536.86 C 342.02 536.38 339.49 535.95 336.94 535.86 C 282.97 535.86 228.99 535.92 175.01 535.87 C 168.51 535.96 161.90 535.28 155.52 536.89 C 150.07 531.61 145.77 525.19 142.92 518.16 C 143.50 517.23 144.07 516.32 144.64 515.40 Z" />
</g>
<g id="#f6ad6dff">
<path fill="#f6ad6d" opacity="1.00" d=" M 378.04 516.32 C 384.97 514.52 392.20 515.10 399.28 515.34 C 400.02 517.06 400.77 518.77 401.46 520.52 C 401.13 526.01 399.82 531.40 398.32 536.67 C 388.69 535.45 378.75 535.19 369.20 537.09 C 373.20 530.68 376.15 523.63 378.04 516.32 Z" />
</g>
<g id="#f7b16eff">
<path fill="#f7b16e" opacity="1.00" d=" M 124.48 524.30 C 126.17 528.73 128.28 533.00 130.77 537.04 C 122.23 537.20 113.69 536.59 105.17 537.14 C 104.37 538.10 103.58 539.06 102.78 540.03 C 101.60 536.54 100.57 532.99 99.78 529.39 C 100.37 528.02 100.95 526.65 101.54 525.29 C 108.31 524.69 115.10 524.98 121.88 525.27 C 122.89 525.44 123.77 524.98 124.48 524.30 Z" />
</g>
<g id="#f9bc71ff">
<path fill="#f9bc71" opacity="1.00" d=" M 155.52 536.89 C 161.90 535.28 168.51 535.96 175.01 535.87 C 228.99 535.92 282.97 535.86 336.94 535.86 C 339.49 535.95 342.02 536.38 344.53 536.86 C 334.68 546.68 320.85 552.17 306.98 552.22 C 268.99 552.21 231.01 552.21 193.02 552.22 C 179.17 552.17 165.35 546.69 155.52 536.89 Z" />
</g>
<g id="#f8ba71ff">
<path fill="#f8ba71" opacity="1.00" d=" M 369.20 537.09 C 378.75 535.19 388.69 535.45 398.32 536.67 C 397.02 540.87 395.32 544.93 393.43 548.89 C 390.18 546.29 385.89 546.99 382.04 546.95 C 375.49 546.92 368.88 547.58 362.41 546.30 C 364.87 543.39 367.15 540.31 369.20 537.09 Z" />
</g>
<g id="#f9bb71ff">
<path fill="#f9bb71" opacity="1.00" d=" M 102.78 540.03 C 103.58 539.06 104.37 538.10 105.17 537.14 C 113.69 536.59 122.23 537.20 130.77 537.04 C 133.60 541.49 136.84 545.68 140.50 549.48 C 136.38 548.62 132.20 547.82 127.97 548.07 C 120.83 548.39 113.63 547.50 106.56 548.85 C 105.16 545.97 103.90 543.02 102.78 540.03 Z" />
</g>
<g id="#fbc574ff">
<path fill="#fbc574" opacity="1.00" d=" M 349.34 558.15 C 354.14 554.73 358.52 550.74 362.41 546.30 C 368.88 547.58 375.49 546.92 382.04 546.95 C 385.89 546.99 390.18 546.29 393.43 548.89 C 391.70 552.29 389.70 555.54 387.63 558.75 L 387.38 558.77 C 381.92 559.21 376.45 559.34 370.98 559.26 C 363.76 559.13 356.43 559.85 349.34 558.15 Z" />
</g>
<g id="#fcca76ff">
<path fill="#fcca76" opacity="1.00" d=" M 106.56 548.85 C 113.63 547.50 120.83 548.39 127.97 548.07 C 132.20 547.82 136.38 548.62 140.50 549.48 C 148.84 557.96 159.20 564.39 170.48 568.18 C 162.44 569.91 154.17 568.71 146.02 569.07 C 137.92 569.43 129.72 568.19 121.70 569.76 C 115.56 563.68 110.42 556.57 106.56 548.85 Z" />
</g>
<g id="#ffd779ff">
<path fill="#ffd779" opacity="1.00" d=" M 307.04 571.64 C 322.10 571.71 337.04 566.81 349.34 558.15 C 356.43 559.85 363.76 559.13 370.98 559.26 C 376.45 559.34 381.92 559.21 387.38 558.77 C 373.29 579.84 348.34 592.93 323.06 593.24 C 274.71 593.27 226.36 593.24 178.00 593.25 C 157.12 593.22 136.37 584.63 121.70 569.76 C 129.72 568.19 137.92 569.43 146.02 569.07 C 154.17 568.71 162.44 569.91 170.48 568.18 C 184.53 572.85 199.44 571.46 213.98 571.65 C 245.00 571.64 276.02 571.66 307.04 571.64 Z" />
</g>
<g id="#d83d84ff">
<path fill="#d83d84" opacity="1.00" d=" M 19.72 776.77 C 173.24 776.75 326.76 776.75 480.28 776.77 C 480.30 780.48 480.27 784.19 480.31 787.91 C 407.88 787.72 335.45 787.92 263.02 787.81 C 260.52 787.90 258.05 788.31 255.58 788.58 C 251.90 787.68 248.12 787.66 244.45 788.59 C 241.28 788.27 238.12 787.78 234.93 787.80 C 163.19 787.95 91.44 787.73 19.69 787.87 C 19.73 784.16 19.69 780.46 19.72 776.77 Z" />
</g>
<g id="#dd4b72ff">
<path fill="#dd4b72" opacity="1.00" d=" M 19.69 787.87 C 91.44 787.73 163.19 787.95 234.93 787.80 C 238.12 787.78 241.28 788.27 244.45 788.59 C 239.75 790.39 235.75 793.84 233.56 798.41 C 220.40 797.54 207.19 798.63 194.02 798.07 C 136.25 798.31 78.47 798.13 20.69 798.15 C 20.11 794.75 19.71 791.31 19.69 787.87 Z" />
<path fill="#dd4b72" opacity="1.00" d=" M 255.58 788.58 C 258.05 788.31 260.52 787.90 263.02 787.81 C 335.45 787.92 407.88 787.72 480.31 787.91 C 480.28 791.25 479.89 794.57 479.36 797.87 C 455.94 798.60 432.49 797.97 409.05 798.18 C 371.70 798.30 334.35 798.04 297.00 798.16 C 286.81 797.91 276.61 798.04 266.43 798.39 C 264.25 793.83 260.25 790.41 255.58 788.58 Z" />
</g>
<g id="#e35b5dff">
<path fill="#e35b5d" opacity="1.00" d=" M 20.69 798.15 C 78.47 798.13 136.25 798.31 194.02 798.07 C 207.19 798.63 220.40 797.54 233.56 798.41 C 231.94 802.27 231.77 806.58 232.63 810.66 C 179.43 810.95 126.22 810.65 73.01 810.79 C 57.08 810.66 41.16 810.93 25.24 810.66 L 25.03 810.65 C 23.16 806.64 21.67 802.46 20.69 798.15 Z" />
<path fill="#e35b5d" opacity="1.00" d=" M 266.43 798.39 C 276.61 798.04 286.81 797.91 297.00 798.16 C 334.35 798.04 371.70 798.30 409.05 798.18 C 432.49 797.97 455.94 798.60 479.36 797.87 C 478.40 802.29 476.86 806.56 474.96 810.66 L 474.75 810.67 C 423.83 810.89 372.90 810.70 321.97 810.77 C 303.77 810.71 285.57 810.90 267.36 810.66 C 268.23 806.58 268.06 802.26 266.43 798.39 Z" />
</g>
<g id="#e8725dff">
<path fill="#e8725d" opacity="1.00" d=" M 25.24 810.66 C 41.16 810.93 57.08 810.66 73.01 810.79 C 126.22 810.65 179.43 810.95 232.63 810.66 C 233.65 813.59 235.20 816.36 237.39 818.60 C 213.30 817.80 189.17 818.42 165.06 818.25 C 132.39 818.23 99.72 818.26 67.05 818.25 C 54.83 818.42 42.60 817.83 30.40 818.61 L 30.19 818.62 C 28.34 816.09 26.59 813.48 25.24 810.66 Z" />
<path fill="#e8725d" opacity="1.00" d=" M 321.97 810.77 C 372.90 810.70 423.83 810.89 474.75 810.67 C 473.40 813.48 471.66 816.07 469.84 818.60 L 469.62 818.59 C 463.43 817.99 457.20 818.24 450.99 818.26 C 396.66 818.21 342.34 818.28 288.01 818.25 C 279.54 818.29 271.06 817.97 262.60 818.61 C 264.80 816.37 266.34 813.59 267.36 810.66 C 285.57 810.90 303.77 810.71 321.97 810.77 Z" />
</g>
<g id="#ee8963ff">
<path fill="#ee8963" opacity="1.00" d=" M 30.40 818.61 C 42.60 817.83 54.83 818.42 67.05 818.25 C 99.72 818.26 132.39 818.23 165.06 818.25 C 189.17 818.42 213.30 817.80 237.39 818.60 C 244.11 825.34 255.88 825.35 262.60 818.61 C 271.06 817.97 279.54 818.29 288.01 818.25 C 342.34 818.28 396.66 818.21 450.99 818.26 C 457.20 818.24 463.43 817.99 469.62 818.59 C 465.99 823.57 461.10 827.49 455.88 830.72 L 455.70 830.68 C 453.48 830.20 451.23 829.79 448.95 829.77 C 315.98 829.80 182.99 829.82 50.01 829.77 C 48.06 829.86 46.14 830.24 44.23 830.64 L 44.06 830.67 C 38.87 827.46 34.02 823.56 30.40 818.61 Z" />
</g>
<g id="#f29e69ff">
<path fill="#f29e69" opacity="1.00" d=" M 44.23 830.64 C 46.14 830.24 48.06 829.86 50.01 829.77 C 182.99 829.82 315.98 829.80 448.95 829.77 C 451.23 829.79 453.48 830.20 455.70 830.68 C 448.29 835.14 439.60 837.35 430.97 837.34 C 310.32 837.33 189.66 837.33 69.00 837.34 C 60.35 837.35 51.66 835.11 44.23 830.64 Z" />
</g>
</svg>
