<?xml version="1.0" encoding="UTF-8" ?>
<!DOCTYPE svg PUBLIC "-//W3C//DTD SVG 1.1//EN" "http://www.w3.org/Graphics/SVG/1.1/DTD/svg11.dtd">
<svg width="535pt" height="535pt" viewBox="0 0 535 535" version="1.1" xmlns="http://www.w3.org/2000/svg">
<g id="#212938ff">
<path fill="#212938" opacity="1.00" d=" M 237.95 13.23 C 243.86 9.62 251.64 10.38 257.24 14.25 C 250.57 15.07 245.24 19.36 239.55 22.52 C 169.31 62.95 99.20 103.60 28.95 144.01 C 16.39 150.18 8.14 164.01 8.87 178.02 C 9.05 248.96 8.70 319.90 9.03 390.84 C 8.82 391.07 8.41 391.53 8.21 391.75 C 3.60 388.18 0.07 382.92 0.15 376.91 C 0.12 308.60 0.16 240.29 0.13 171.98 C 0.06 161.84 4.28 151.70 11.79 144.82 C 14.80 142.00 18.42 139.97 21.99 137.95 C 93.98 96.38 165.96 54.81 237.95 13.23 Z" />
<path fill="#212938" opacity="1.00" d=" M 112.23 332.15 C 145.98 312.64 179.90 293.40 213.57 273.74 C 221.08 278.01 228.55 282.33 236.06 286.59 C 185.07 316.41 133.78 345.70 82.70 375.37 C 75.23 371.04 67.74 366.72 60.35 362.26 C 77.43 351.87 94.97 342.26 112.23 332.15 Z" />
<path fill="#212938" opacity="1.00" d=" M 257.06 305.37 C 268.09 300.01 278.06 292.54 289.29 287.56 C 289.09 288.03 288.69 288.97 288.49 289.44 C 278.00 295.55 267.44 301.54 256.90 307.57 C 252.83 305.02 248.22 303.10 244.55 300.05 L 244.52 298.69 C 248.84 300.64 252.59 303.74 257.06 305.37 Z" />
<path fill="#212938" opacity="1.00" d=" M 278.00 317.61 C 288.87 311.82 299.06 304.78 310.20 299.55 C 310.03 300.03 309.68 300.98 309.51 301.46 C 298.99 307.58 288.39 313.57 277.85 319.66 C 272.69 316.70 267.56 313.69 262.41 310.71 C 261.35 310.41 259.95 308.71 261.22 307.89 C 266.77 311.21 272.21 314.73 278.00 317.61 Z" />
<path fill="#212938" opacity="1.00" d=" M 252.66 307.83 L 253.09 307.56 C 253.04 308.11 252.93 309.22 252.88 309.77 C 242.39 316.15 231.61 322.07 220.97 328.20 C 216.98 325.76 212.70 323.75 208.92 321.02 L 208.32 319.62 C 212.94 321.02 216.69 324.15 221.04 326.14 C 231.72 320.29 242.22 314.11 252.66 307.83 Z" />
<path fill="#212938" opacity="1.00" d=" M 293.99 312.61 L 294.58 312.93 C 300.99 317.16 308.12 320.30 314.25 324.91 C 313.96 325.16 313.36 325.65 313.06 325.90 C 306.83 322.10 300.43 318.55 294.25 314.67 C 294.19 314.15 294.05 313.12 293.99 312.61 Z" />
<path fill="#212938" opacity="1.00" d=" M 273.71 319.97 L 274.04 319.78 C 274.00 320.29 273.91 321.32 273.86 321.83 C 263.37 328.20 252.59 334.15 241.93 340.27 C 236.34 337.10 230.80 333.82 225.23 330.61 C 225.15 330.11 225.00 329.11 224.93 328.61 C 230.75 331.55 236.09 335.34 241.98 338.14 C 252.79 332.52 263.12 326.00 273.71 319.97 Z" />
<path fill="#212938" opacity="1.00" d=" M 301.95 352.11 C 318.62 342.71 334.89 332.58 351.76 323.57 C 352.16 325.49 350.23 326.12 348.99 326.93 C 332.83 336.14 316.73 345.44 300.58 354.68 C 294.99 351.37 289.30 348.23 283.78 344.83 C 283.71 344.31 283.58 343.25 283.52 342.72 L 283.97 342.98 C 288.85 345.84 293.63 348.86 298.57 351.62 C 299.62 352.13 300.83 353.04 301.95 352.11 Z" />
<path fill="#212938" opacity="1.00" d=" M 278.66 341.65 C 288.26 336.12 297.72 330.34 307.46 325.06 L 307.98 324.80 C 307.89 325.29 307.73 326.26 307.64 326.75 C 297.19 333.11 286.37 338.86 275.89 345.19 C 270.21 342.23 264.76 338.84 259.22 335.63 C 259.05 335.11 258.72 334.09 258.55 333.57 C 264.08 336.23 269.10 339.82 274.61 342.50 C 276.01 343.38 277.40 342.23 278.66 341.65 Z" />
<path fill="#212938" opacity="1.00" d=" M 187.71 345.72 C 197.55 339.86 207.49 334.14 217.47 328.52 C 218.07 330.38 216.32 331.15 215.07 331.87 C 205.10 337.50 195.23 343.31 185.24 348.91 C 181.29 346.39 177.06 344.34 173.18 341.72 C 173.10 341.27 172.96 340.35 172.89 339.89 L 173.27 340.08 C 177.19 341.95 180.71 344.53 184.65 346.36 C 185.71 347.03 186.75 346.16 187.71 345.72 Z" />
<path fill="#212938" opacity="1.00" d=" M 340.28 353.84 C 351.11 347.92 361.54 341.29 372.43 335.51 C 372.93 337.38 371.12 338.10 369.90 338.85 C 360.04 344.48 350.15 350.09 340.35 355.83 C 334.63 352.51 328.79 349.39 323.28 345.74 C 324.51 345.22 325.83 345.34 326.93 346.13 C 331.40 348.66 335.77 351.37 340.28 353.84 Z" />
<path fill="#212938" opacity="1.00" d=" M 213.09 355.17 C 221.12 350.21 229.58 345.95 237.44 340.73 L 238.04 340.33 C 238.00 340.94 237.91 342.14 237.87 342.74 C 227.32 349.01 216.58 354.97 205.97 361.13 C 200.44 357.90 194.89 354.68 189.35 351.48 C 189.22 350.99 188.96 350.01 188.83 349.52 C 194.78 352.18 200.01 356.23 205.95 358.85 C 208.58 358.19 210.76 356.47 213.09 355.17 Z" />
<path fill="#212938" opacity="1.00" d=" M 239.76 363.71 C 250.49 357.73 260.81 350.97 271.78 345.45 L 271.57 347.10 C 261.06 353.61 250.16 359.52 239.44 365.70 C 233.99 362.36 228.33 359.36 222.92 355.94 C 222.06 355.59 222.01 354.18 222.98 353.94 C 228.38 357.52 234.08 360.61 239.76 363.71 Z" />
<path fill="#212938" opacity="1.00" d=" M 158.42 362.58 C 166.25 358.33 173.61 353.22 181.70 349.47 C 182.12 351.43 180.06 351.94 178.87 352.81 C 169.02 358.40 159.22 364.09 149.37 369.68 C 145.37 367.30 141.27 365.06 137.29 362.65 C 137.20 362.08 137.02 360.95 136.92 360.38 L 137.65 360.82 C 141.49 363.09 145.23 365.57 149.23 367.56 C 152.60 366.62 155.34 364.17 158.42 362.58 Z" />
<path fill="#212938" opacity="1.00" d=" M 296.79 354.90 L 297.10 354.73 C 297.32 356.12 296.84 357.11 295.66 357.68 C 285.41 363.52 275.23 369.48 264.95 375.24 C 259.39 372.04 253.85 368.81 248.30 365.59 C 248.20 365.10 248.00 364.11 247.90 363.62 C 253.76 366.48 259.16 370.20 264.97 373.16 C 275.79 367.47 286.19 360.99 296.79 354.90 Z" />
<path fill="#212938" opacity="1.00" d=" M 335.75 355.86 L 336.17 355.59 C 336.14 356.18 336.10 357.37 336.07 357.97 C 301.71 378.12 267.08 397.86 232.65 417.91 C 227.85 415.21 223.15 412.35 218.35 409.65 C 217.09 408.87 215.54 408.22 215.12 406.63 C 221.59 408.39 226.56 413.34 232.76 415.66 C 235.73 414.62 238.30 412.72 241.02 411.16 C 258.07 401.17 275.22 391.34 292.31 381.40 C 306.73 372.80 321.55 364.83 335.75 355.86 Z" />
<path fill="#212938" opacity="1.00" d=" M 176.39 376.46 C 184.97 371.53 193.43 366.40 202.11 361.64 C 202.03 362.15 201.89 363.19 201.82 363.71 C 191.26 369.89 180.59 375.89 170.00 382.01 C 164.58 378.71 159.00 375.67 153.59 372.38 C 153.38 371.91 152.97 370.98 152.77 370.52 C 158.85 372.98 164.08 377.09 170.05 379.77 C 172.36 379.11 174.31 377.61 176.39 376.46 Z" />
<path fill="#212938" opacity="1.00" d=" M 223.88 372.94 C 227.82 370.71 231.57 368.11 235.85 366.52 C 236.01 368.44 234.06 368.97 232.84 369.83 C 223.01 375.40 213.26 381.09 203.42 386.65 C 198.75 383.93 194.10 381.19 189.40 378.51 C 188.03 377.62 186.06 376.98 186.03 375.03 L 186.75 375.18 C 192.53 378.11 197.95 381.70 203.68 384.71 C 210.39 380.74 217.13 376.83 223.88 372.94 Z" />
<path fill="#212938" opacity="1.00" d=" M 144.96 369.92 C 146.36 370.73 145.26 372.58 144.01 372.90 C 133.71 378.71 123.57 384.82 113.16 390.43 C 109.28 388.03 105.26 385.86 101.33 383.54 C 101.22 382.98 100.99 381.85 100.88 381.29 L 101.41 381.59 C 105.35 383.71 108.99 386.39 113.12 388.16 C 116.07 387.56 118.50 385.61 121.08 384.17 C 128.94 379.25 137.35 375.23 144.96 369.92 Z" />
<path fill="#212938" opacity="1.00" d=" M 228.95 394.03 C 239.47 387.90 250.08 381.91 260.54 375.67 C 260.60 376.17 260.71 377.18 260.77 377.69 C 250.12 383.83 239.39 389.84 228.81 396.10 C 222.99 392.96 217.17 389.68 211.64 386.06 L 211.43 384.52 C 217.56 387.14 222.80 391.43 228.95 394.03 Z" />
<path fill="#212938" opacity="1.00" d=" M 165.99 381.96 C 167.31 382.89 166.21 384.58 164.98 384.94 C 154.67 390.72 144.56 396.87 134.15 402.46 C 128.55 399.09 122.88 395.83 117.21 392.59 C 117.28 392.11 117.43 391.16 117.50 390.69 C 122.49 393.68 127.52 396.63 132.58 399.51 C 134.53 401.03 136.62 399.23 138.39 398.35 C 147.48 392.70 157.10 387.93 165.99 381.96 Z" />
<path fill="#212938" opacity="1.00" d=" M 170.06 404.08 C 179.44 398.87 188.44 392.94 198.03 388.13 C 198.46 388.27 199.31 388.55 199.73 388.70 C 189.32 395.14 178.56 401.04 167.93 407.12 C 162.02 404.58 156.63 400.72 150.97 397.61 C 150.86 397.13 150.65 396.15 150.55 395.66 C 155.97 398.37 161.01 401.79 166.38 404.59 C 167.58 405.45 168.94 404.61 170.06 404.08 Z" />
<path fill="#212938" opacity="1.00" d=" M 109.30 390.64 L 109.62 390.43 C 109.66 391.00 109.75 392.12 109.80 392.69 C 99.13 398.85 88.39 404.88 77.76 411.11 C 73.60 408.72 69.26 406.54 65.34 403.77 C 65.28 403.33 65.14 402.45 65.07 402.02 L 65.65 402.32 C 69.44 404.15 72.78 406.79 76.64 408.45 C 78.27 409.37 79.84 407.95 81.25 407.27 C 90.50 401.56 100.12 396.47 109.30 390.64 Z" />
<path fill="#212938" opacity="1.00" d=" M 206.69 406.85 C 212.97 403.57 218.69 399.25 225.27 396.54 C 225.10 397.02 224.77 397.99 224.61 398.48 C 214.07 404.58 203.50 410.66 192.90 416.65 C 187.35 413.27 181.55 410.27 176.11 406.72 C 176.06 406.21 175.95 405.17 175.90 404.66 L 176.36 404.94 C 181.85 408.20 187.20 411.78 193.01 414.46 C 197.83 412.45 202.05 409.25 206.69 406.85 Z" />
<path fill="#212938" opacity="1.00" d=" M 98.89 421.00 C 109.43 414.91 119.99 408.86 130.46 402.65 C 130.53 403.13 130.65 404.10 130.72 404.58 C 119.88 410.75 109.20 417.21 98.19 423.07 C 92.80 419.49 86.91 416.70 81.57 413.07 L 81.23 411.57 C 87.45 414.06 92.70 418.43 98.89 421.00 Z" />
<path fill="#212938" opacity="1.00" d=" M 126.35 429.21 C 138.68 422.02 151.14 415.04 163.39 407.72 L 164.04 407.35 C 163.94 407.92 163.75 409.07 163.66 409.64 C 148.86 418.25 134.01 426.79 119.07 435.16 C 113.60 431.80 107.96 428.73 102.47 425.40 C 102.31 424.88 101.99 423.85 101.83 423.33 L 102.47 423.65 C 108.18 426.40 113.34 430.18 119.03 432.95 C 121.69 432.20 123.97 430.56 126.35 429.21 Z" />
<path fill="#212938" opacity="1.00" d=" M 175.85 424.91 C 180.39 422.45 184.64 419.42 189.45 417.46 C 189.62 419.28 187.92 419.96 186.68 420.70 C 171.14 429.54 155.72 438.59 140.14 447.38 C 134.94 444.40 129.80 441.32 124.58 438.37 C 123.16 437.99 122.87 436.73 123.43 435.50 C 128.37 438.69 133.47 441.63 138.59 444.51 C 140.23 445.85 142.09 444.44 143.63 443.67 C 154.24 437.20 165.16 431.25 175.85 424.91 Z" />
<path fill="#212938" opacity="1.00" d=" M 197.87 436.07 C 208.44 430.45 218.37 423.59 229.22 418.51 C 229.04 418.99 228.67 419.93 228.49 420.41 C 217.99 426.45 207.53 432.61 196.91 438.45 C 191.17 435.48 185.59 432.11 180.08 428.71 C 180.01 428.21 179.88 427.21 179.81 426.70 L 180.13 426.90 C 184.70 429.68 189.36 432.31 193.97 435.03 C 195.20 435.45 196.53 437.01 197.87 436.07 Z" />
<path fill="#212938" opacity="1.00" d=" M 192.77 438.90 L 193.09 438.71 C 193.04 439.24 192.94 440.29 192.89 440.82 C 182.44 447.25 171.63 453.13 160.99 459.27 C 155.40 456.07 149.84 452.80 144.26 449.59 C 144.18 448.99 144.00 447.80 143.92 447.21 L 144.54 447.60 C 149.47 450.68 154.49 453.64 159.58 456.45 C 161.45 457.60 163.37 455.90 165.05 455.16 C 174.20 449.59 183.61 444.47 192.77 438.90 Z" />
</g>
<g id="#284363ff">
<path fill="#284363" opacity="1.00" d=" M 239.55 22.52 C 245.24 19.36 250.57 15.07 257.24 14.25 C 260.44 16.19 264.10 18.60 264.43 22.73 C 264.74 28.26 264.45 33.81 264.56 39.35 C 262.13 34.93 259.69 30.52 257.42 26.01 C 241.10 34.91 225.27 44.71 209.06 53.84 C 193.01 63.08 176.99 72.39 161.00 81.75 C 145.02 91.21 128.95 100.52 112.85 109.75 C 96.75 118.96 80.73 128.32 64.73 137.71 C 49.04 147.12 33.10 156.12 17.33 165.39 C 17.12 182.60 17.03 199.83 17.39 217.03 C 17.31 232.80 17.33 248.56 17.38 264.33 C 17.20 300.20 17.39 336.08 17.29 371.95 C 35.68 361.57 53.90 350.91 72.19 340.35 C 88.84 330.75 105.50 321.14 122.14 311.53 C 161.46 288.91 200.76 266.26 240.01 243.52 C 245.38 240.41 250.81 237.39 256.12 234.16 C 256.08 222.31 256.17 210.46 256.06 198.61 C 256.25 187.64 256.03 176.67 256.17 165.70 C 258.66 167.62 261.50 169.07 264.55 169.89 C 264.50 194.71 264.67 219.56 264.46 244.35 L 263.99 244.76 C 247.08 254.24 230.39 264.11 213.57 273.74 C 179.90 293.40 145.98 312.64 112.23 332.15 C 94.97 342.26 77.43 351.87 60.35 362.26 C 43.29 371.78 26.62 381.99 9.47 391.31 L 9.03 390.84 C 8.70 319.90 9.05 248.96 8.87 178.02 C 8.14 164.01 16.39 150.18 28.95 144.01 C 99.20 103.60 169.31 62.95 239.55 22.52 Z" />
<path fill="#284363" opacity="1.00" d=" M 244.52 298.69 C 255.36 292.72 265.90 286.21 276.71 280.20 C 280.87 282.72 285.19 284.95 289.29 287.56 C 278.06 292.54 268.09 300.01 257.06 305.37 C 252.59 303.74 248.84 300.64 244.52 298.69 Z" />
<path fill="#284363" opacity="1.00" d=" M 261.22 307.89 C 271.71 301.66 282.32 295.64 292.85 289.48 C 298.62 292.86 304.44 296.16 310.20 299.55 C 299.06 304.78 288.87 311.82 278.00 317.61 C 272.21 314.73 266.77 311.21 261.22 307.89 Z" />
<path fill="#284363" opacity="1.00" d=" M 208.32 319.62 C 219.14 313.35 229.91 307.00 240.78 300.82 C 244.71 303.21 248.81 305.31 252.66 307.83 C 242.22 314.11 231.72 320.29 221.04 326.14 C 216.69 324.15 212.94 321.02 208.32 319.62 Z" />
<path fill="#284363" opacity="1.00" d=" M 294.58 312.93 C 300.82 308.83 307.39 305.24 313.85 301.49 C 326.45 308.91 339.10 316.26 351.76 323.57 C 334.89 332.58 318.62 342.71 301.95 352.11 C 300.83 353.04 299.62 352.13 298.57 351.62 C 293.63 348.86 288.85 345.84 283.97 342.98 C 293.49 337.01 303.49 331.78 313.06 325.90 C 313.36 325.65 313.96 325.16 314.25 324.91 C 308.12 320.30 300.99 317.16 294.58 312.93 Z" />
<path fill="#284363" opacity="1.00" d=" M 224.93 328.61 C 235.69 322.59 246.25 316.24 256.97 310.15 C 262.53 313.45 268.26 316.48 273.71 319.97 C 263.12 326.00 252.79 332.52 241.98 338.14 C 236.09 335.34 230.75 331.55 224.93 328.61 Z" />
<path fill="#284363" opacity="1.00" d=" M 290.42 315.07 C 296.19 318.22 302.06 321.30 307.46 325.06 C 297.72 330.34 288.26 336.12 278.66 341.65 C 277.40 342.23 276.01 343.38 274.61 342.50 C 269.10 339.82 264.08 336.23 258.55 333.57 C 269.25 327.53 279.90 321.40 290.42 315.07 Z" />
<path fill="#284363" opacity="1.00" d=" M 173.27 340.08 C 183.71 333.66 194.46 327.75 205.01 321.49 C 209.20 323.78 213.24 326.31 217.47 328.52 C 207.49 334.14 197.55 339.86 187.71 345.72 C 186.75 346.16 185.71 347.03 184.65 346.36 C 180.71 344.53 177.19 341.95 173.27 340.08 Z" />
<path fill="#284363" opacity="1.00" d=" M 323.29 344.31 C 333.80 337.91 344.60 331.97 355.17 325.67 C 360.99 328.83 366.62 332.33 372.43 335.51 C 361.54 341.29 351.11 347.92 340.28 353.84 C 335.77 351.37 331.40 348.66 326.93 346.13 C 325.83 345.34 324.51 345.22 323.28 345.74 L 322.77 345.86 C 322.90 345.47 323.16 344.70 323.29 344.31 Z" />
<path fill="#284363" opacity="1.00" d=" M 188.83 349.52 C 199.62 343.45 210.25 337.11 220.98 330.96 C 226.47 334.21 232.18 337.12 237.44 340.73 C 229.58 345.95 221.12 350.21 213.09 355.17 C 210.76 356.47 208.58 358.19 205.95 358.85 C 200.01 356.23 194.78 352.18 188.83 349.52 Z" />
<path fill="#284363" opacity="1.00" d=" M 222.98 353.94 C 233.51 347.68 244.08 341.44 254.81 335.55 C 260.36 339.02 266.11 342.18 271.78 345.45 C 260.81 350.97 250.49 357.73 239.76 363.71 C 234.08 360.61 228.38 357.52 222.98 353.94 Z" />
<path fill="#284363" opacity="1.00" d=" M 137.65 360.82 C 147.84 354.23 158.64 348.58 169.03 342.29 C 173.31 344.57 177.43 347.14 181.70 349.47 C 173.61 353.22 166.25 358.33 158.42 362.58 C 155.34 364.17 152.60 366.62 149.23 367.56 C 145.23 365.57 141.49 363.09 137.65 360.82 Z" />
<path fill="#284363" opacity="1.00" d=" M 247.90 363.62 C 258.67 357.60 269.27 351.26 279.97 345.11 C 285.59 348.35 291.27 351.50 296.79 354.90 C 286.19 360.99 275.79 367.47 264.97 373.16 C 259.16 370.20 253.76 366.48 247.90 363.62 Z" />
<path fill="#284363" opacity="1.00" d=" M 215.12 406.63 C 249.71 386.49 284.33 366.37 318.99 346.37 C 324.76 349.04 330.22 352.64 335.75 355.86 C 321.55 364.83 306.73 372.80 292.31 381.40 C 275.22 391.34 258.07 401.17 241.02 411.16 C 238.30 412.72 235.73 414.62 232.76 415.66 C 226.56 413.34 221.59 408.39 215.12 406.63 Z" />
<path fill="#284363" opacity="1.00" d=" M 152.77 370.52 C 163.53 364.30 174.28 358.06 185.02 351.81 C 190.75 355.04 196.40 358.39 202.11 361.64 C 193.43 366.40 184.97 371.53 176.39 376.46 C 174.31 377.61 172.36 379.11 170.05 379.77 C 164.08 377.09 158.85 372.98 152.77 370.52 Z" />
<path fill="#284363" opacity="1.00" d=" M 191.20 372.28 C 200.41 367.08 209.41 361.50 218.73 356.50 C 224.33 360.01 230.15 363.16 235.85 366.52 C 231.57 368.11 227.82 370.71 223.88 372.94 C 217.13 376.83 210.39 380.74 203.68 384.71 C 197.95 381.70 192.53 378.11 186.75 375.18 C 188.12 374.05 189.64 373.13 191.20 372.28 Z" />
<path fill="#284363" opacity="1.00" d=" M 101.41 381.59 C 111.81 375.18 122.52 369.29 133.04 363.07 C 137.04 365.31 141.00 367.61 144.96 369.92 C 137.35 375.23 128.94 379.25 121.08 384.17 C 118.50 385.61 116.07 387.56 113.12 388.16 C 108.99 386.39 105.35 383.71 101.41 381.59 Z" />
<path fill="#284363" opacity="1.00" d=" M 243.42 365.99 C 249.25 368.98 254.75 372.58 260.54 375.67 C 250.08 381.91 239.47 387.90 228.95 394.03 C 222.80 391.43 217.56 387.14 211.43 384.52 C 222.17 378.49 232.81 372.27 243.42 365.99 Z" />
<path fill="#284363" opacity="1.00" d=" M 117.50 390.69 C 128.11 384.74 138.64 378.61 149.08 372.37 C 154.89 375.26 160.33 378.81 165.99 381.96 C 157.10 387.93 147.48 392.70 138.39 398.35 C 136.62 399.23 134.53 401.03 132.58 399.51 C 127.52 396.63 122.49 393.68 117.50 390.69 Z" />
<path fill="#284363" opacity="1.00" d=" M 150.55 395.66 C 161.43 389.73 171.93 383.12 182.82 377.20 C 188.37 380.69 194.31 383.57 199.73 387.24 C 199.84 387.64 200.06 388.44 200.17 388.84 L 199.73 388.70 C 199.31 388.55 198.46 388.27 198.03 388.13 C 188.44 392.94 179.44 398.87 170.06 404.08 C 168.94 404.61 167.58 405.45 166.38 404.59 C 161.01 401.79 155.97 398.37 150.55 395.66 Z" />
<path fill="#284363" opacity="1.00" d=" M 65.65 402.32 C 75.98 395.80 86.79 390.06 97.23 383.73 C 101.32 385.91 105.34 388.23 109.30 390.64 C 100.12 396.47 90.50 401.56 81.25 407.27 C 79.84 407.95 78.27 409.37 76.64 408.45 C 72.78 406.79 69.44 404.15 65.65 402.32 Z" />
<path fill="#284363" opacity="1.00" d=" M 176.36 404.94 C 186.79 398.63 197.44 392.68 207.95 386.50 C 213.74 389.81 219.54 393.10 225.27 396.54 C 218.69 399.25 212.97 403.57 206.69 406.85 C 202.05 409.25 197.83 412.45 193.01 414.46 C 187.20 411.78 181.85 408.20 176.36 404.94 Z" />
<path fill="#284363" opacity="1.00" d=" M 81.23 411.57 C 92.13 405.51 102.75 398.94 113.68 392.95 C 119.22 396.28 124.82 399.50 130.46 402.65 C 119.99 408.86 109.43 414.91 98.89 421.00 C 92.70 418.43 87.45 414.06 81.23 411.57 Z" />
<path fill="#284363" opacity="1.00" d=" M 102.47 423.65 C 117.07 414.75 132.02 406.40 146.84 397.86 C 152.32 401.21 158.12 404.05 163.39 407.72 C 151.14 415.04 138.68 422.02 126.35 429.21 C 123.97 430.56 121.69 432.20 119.03 432.95 C 113.34 430.18 108.18 426.40 102.47 423.65 Z" />
<path fill="#284363" opacity="1.00" d=" M 123.43 435.50 C 139.80 426.42 155.89 416.81 172.11 407.46 C 177.94 410.72 183.70 414.09 189.45 417.46 C 184.64 419.42 180.39 422.45 175.85 424.91 C 165.16 431.25 154.24 437.20 143.63 443.67 C 142.09 444.44 140.23 445.85 138.59 444.51 C 133.47 441.63 128.37 438.69 123.43 435.50 Z" />
<path fill="#284363" opacity="1.00" d=" M 180.13 426.90 C 190.66 420.66 201.30 414.58 211.89 408.43 C 217.66 411.80 223.50 415.06 229.22 418.51 C 218.37 423.59 208.44 430.45 197.87 436.07 C 196.53 437.01 195.20 435.45 193.97 435.03 C 189.36 432.31 184.70 429.68 180.13 426.90 Z" />
<path fill="#284363" opacity="1.00" d=" M 144.54 447.60 C 154.83 441.14 165.54 435.36 175.97 429.14 C 181.59 432.35 187.24 435.52 192.77 438.90 C 183.61 444.47 174.20 449.59 165.05 455.16 C 163.37 455.90 161.45 457.60 159.58 456.45 C 154.49 453.64 149.47 450.68 144.54 447.60 Z" />
</g>
<g id="#f43834ff">
<path fill="#f43834" opacity="1.00" d=" M 209.06 53.84 C 225.27 44.71 241.10 34.91 257.42 26.01 C 259.69 30.52 262.13 34.93 264.56 39.35 C 275.43 59.68 286.49 79.90 297.38 100.22 C 281.50 109.24 265.89 118.73 249.91 127.57 C 236.41 102.93 222.66 78.43 209.06 53.84 Z" />
<path fill="#f43834" opacity="1.00" d=" M 112.85 109.75 C 128.95 100.52 145.02 91.21 161.00 81.75 C 174.57 106.35 188.31 130.87 201.80 155.52 L 201.84 155.83 C 185.63 164.78 169.86 174.50 153.71 183.56 L 153.56 183.21 C 139.96 158.74 126.41 134.24 112.85 109.75 Z" />
<path fill="#f43834" opacity="1.00" d=" M 17.33 165.39 C 33.10 156.12 49.04 147.12 64.73 137.71 C 78.27 162.24 92.04 186.65 105.44 211.26 C 103.68 212.56 101.89 213.84 99.97 214.91 C 85.65 222.91 71.71 231.60 57.29 239.43 C 57.00 239.26 56.41 238.94 56.12 238.77 C 55.69 237.25 55.44 235.67 54.71 234.26 C 42.49 211.84 30.37 189.35 18.20 166.90 C 17.03 170.84 17.72 174.98 17.59 179.02 C 17.45 191.45 17.85 203.89 17.43 216.31 L 17.39 217.03 C 17.03 199.83 17.12 182.60 17.33 165.39 Z" />
</g>
<g id="#e3e3e3ff">
<path fill="#e3e3e3" opacity="1.00" d=" M 161.00 81.75 C 176.99 72.39 193.01 63.08 209.06 53.84 C 222.66 78.43 236.41 102.93 249.91 127.57 L 249.96 128.03 C 244.36 130.51 239.36 134.06 234.00 136.99 C 223.25 143.14 212.66 149.58 201.80 155.52 C 188.31 130.87 174.57 106.35 161.00 81.75 Z" />
<path fill="#e3e3e3" opacity="1.00" d=" M 64.73 137.71 C 80.73 128.32 96.75 118.96 112.85 109.75 C 126.41 134.24 139.96 158.74 153.56 183.21 C 151.58 184.72 149.53 186.16 147.34 187.37 C 133.31 195.26 119.63 203.78 105.47 211.46 L 105.44 211.26 C 92.04 186.65 78.27 162.24 64.73 137.71 Z" />
</g>
<g id="#f26376ff">
<path fill="#f26376" opacity="1.00" d=" M 416.24 66.43 C 440.10 65.03 464.34 71.51 484.24 84.76 C 508.01 100.31 525.44 125.23 531.82 152.91 C 537.59 177.52 534.75 204.06 523.79 226.84 C 509.52 257.23 480.86 280.30 448.14 287.78 C 424.03 293.47 398.05 290.89 375.58 280.45 C 350.62 269.10 330.22 248.18 319.44 222.97 C 309.38 199.81 307.51 173.23 314.22 148.89 C 321.16 123.29 337.51 100.38 359.53 85.59 C 376.24 74.23 396.06 67.52 416.24 66.43 M 406.09 83.13 C 383.46 86.93 362.38 99.15 347.85 116.91 C 333.67 133.91 325.80 155.94 325.72 178.06 C 325.63 199.53 332.88 221.00 346.19 237.87 C 347.58 239.77 350.56 239.83 352.05 238.00 C 364.02 226.10 375.94 214.14 387.87 202.19 C 392.35 197.75 396.80 193.27 401.26 188.81 C 411.80 178.29 422.32 167.75 432.85 157.22 C 437.43 152.60 442.10 148.05 446.65 143.42 L 446.89 143.57 C 458.31 131.20 470.72 119.73 482.39 107.59 C 483.96 106.11 483.53 103.39 481.85 102.18 C 460.79 85.51 432.53 78.47 406.09 83.13 M 493.47 118.56 C 481.29 130.24 469.83 142.70 457.42 154.10 L 457.58 154.34 C 452.96 158.91 448.40 163.57 443.78 168.15 C 433.22 178.71 422.67 189.26 412.12 199.82 C 407.61 204.27 403.20 208.82 398.65 213.22 C 386.83 225.21 374.83 237.02 362.98 248.98 C 361.14 250.45 361.20 253.48 363.17 254.83 C 385.85 272.82 416.90 279.51 445.01 272.61 C 467.41 267.34 487.72 253.72 501.08 234.98 C 514.15 216.91 520.63 194.18 519.03 171.94 C 517.74 152.84 510.64 134.14 498.78 119.10 C 497.56 117.49 494.93 117.03 493.47 118.56 Z" />
</g>
<g id="#c40041ff">
<path fill="#c40041" opacity="1.00" d=" M 297.38 100.22 L 297.65 100.07 C 297.70 109.73 297.65 119.39 297.68 129.05 C 297.77 135.43 297.19 141.94 294.85 147.93 C 291.51 156.71 284.88 164.27 276.44 168.47 C 272.80 170.42 268.53 170.26 264.55 169.89 C 261.50 169.07 258.66 167.62 256.17 165.70 C 253.45 163.12 251.54 159.83 250.31 156.32 C 249.67 146.90 250.25 137.46 249.96 128.03 L 249.91 127.57 C 265.89 118.73 281.50 109.24 297.38 100.22 Z" />
<path fill="#c40041" opacity="1.00" d=" M 153.71 183.56 C 169.86 174.50 185.63 164.78 201.84 155.83 C 201.99 165.38 201.73 174.94 202.01 184.49 C 202.88 196.89 198.30 209.65 189.11 218.14 C 184.41 222.38 178.65 226.51 171.99 226.07 C 163.80 226.33 156.53 220.15 154.12 212.54 C 153.37 202.90 153.99 193.22 153.71 183.56 Z" />
<path fill="#c40041" opacity="1.00" d=" M 17.59 179.02 C 17.72 174.98 17.03 170.84 18.20 166.90 C 30.37 189.35 42.49 211.84 54.71 234.26 C 55.44 235.67 55.69 237.25 56.12 238.77 C 48.01 234.22 40.03 229.44 31.97 224.81 C 27.12 221.98 22.25 219.18 17.43 216.31 C 17.85 203.89 17.45 191.45 17.59 179.02 Z" />
<path fill="#c40041" opacity="1.00" d=" M 105.44 211.26 L 105.47 211.46 C 105.71 221.23 105.14 231.03 105.86 240.79 C 106.40 251.47 103.11 262.36 96.20 270.59 C 90.90 276.25 84.25 282.20 75.99 282.04 C 66.61 282.30 58.02 274.31 57.42 264.96 C 57.08 256.46 57.36 247.94 57.29 239.43 C 71.71 231.60 85.65 222.91 99.97 214.91 C 101.89 213.84 103.68 212.56 105.44 211.26 Z" />
</g>
<g id="#5fc77dff">
<path fill="#5fc77d" opacity="1.00" d=" M 399.28 102.05 C 400.97 100.34 403.81 100.96 405.23 102.70 C 410.16 107.60 415.09 112.50 419.95 117.48 C 414.44 122.16 407.32 125.23 399.98 124.09 C 394.07 123.71 389.51 119.67 384.98 116.32 C 389.72 111.53 394.41 106.69 399.28 102.05 Z" />
<path fill="#5fc77d" opacity="1.00" d=" M 387.25 138.32 C 392.84 136.06 399.07 142.27 396.96 147.88 C 395.80 153.50 387.62 155.11 384.08 150.82 C 379.84 147.33 382.17 139.65 387.25 138.32 Z" />
<path fill="#5fc77d" opacity="1.00" d=" M 347.59 153.61 C 351.86 149.44 356.01 145.15 360.30 141.00 C 364.11 145.63 367.94 150.75 368.21 157.00 C 369.04 164.02 365.81 170.64 361.50 175.95 C 356.84 171.45 352.33 166.79 347.69 162.26 C 346.59 161.03 345.03 159.86 345.02 158.04 C 344.84 156.14 346.43 154.86 347.59 153.61 Z" />
<path fill="#5fc77d" opacity="1.00" d=" M 401.49 168.67 C 405.21 160.47 414.02 155.11 422.98 155.27 C 426.35 155.43 429.59 156.44 432.85 157.22 C 422.32 167.75 411.80 178.29 401.26 188.81 C 398.97 182.34 398.29 174.97 401.49 168.67 Z" />
<path fill="#5fc77d" opacity="1.00" d=" M 412.12 199.82 C 422.67 189.26 433.22 178.71 443.78 168.15 C 444.87 172.46 446.22 176.88 445.51 181.37 C 444.39 191.02 436.60 199.48 427.02 201.24 C 422.02 202.45 416.97 201.00 412.12 199.82 Z" />
<path fill="#5fc77d" opacity="1.00" d=" M 483.48 181.01 C 488.61 186.06 493.75 191.12 498.76 196.29 C 500.32 197.71 500.39 200.38 498.85 201.84 C 494.24 206.68 489.43 211.33 484.68 216.04 C 480.82 211.41 477.03 206.23 476.81 199.95 C 475.97 192.93 479.19 186.34 483.48 181.01 Z" />
<path fill="#5fc77d" opacity="1.00" d=" M 454.29 206.33 C 459.89 203.45 467.10 209.78 464.63 215.69 C 463.26 221.15 454.99 223.07 451.67 218.38 C 448.00 214.93 449.59 207.99 454.29 206.33 Z" />
<path fill="#5fc77d" opacity="1.00" d=" M 425.06 239.52 C 430.16 235.47 436.26 232.10 443.01 232.75 C 449.66 232.65 455.08 236.79 460.02 240.70 C 455.51 245.30 450.95 249.86 446.37 254.39 C 444.89 256.20 441.94 256.57 440.31 254.76 C 435.15 249.77 430.11 244.63 425.06 239.52 Z" />
</g>
<g id="#6de08eff">
<path fill="#6de08e" opacity="1.00" d=" M 360.30 141.00 C 368.58 132.82 376.80 124.59 384.98 116.32 C 389.51 119.67 394.07 123.71 399.98 124.09 C 407.32 125.23 414.44 122.16 419.95 117.48 C 427.46 125.19 435.19 132.68 442.72 140.37 C 443.86 141.58 445.23 142.54 446.65 143.42 C 442.10 148.05 437.43 152.60 432.85 157.22 C 429.59 156.44 426.35 155.43 422.98 155.27 C 414.02 155.11 405.21 160.47 401.49 168.67 C 398.29 174.97 398.97 182.34 401.26 188.81 C 396.80 193.27 392.35 197.75 387.87 202.19 C 379.01 193.52 370.37 184.62 361.50 175.95 C 365.81 170.64 369.04 164.02 368.21 157.00 C 367.94 150.75 364.11 145.63 360.30 141.00 M 387.25 138.32 C 382.17 139.65 379.84 147.33 384.08 150.82 C 387.62 155.11 395.80 153.50 396.96 147.88 C 399.07 142.27 392.84 136.06 387.25 138.32 Z" />
<path fill="#6de08e" opacity="1.00" d=" M 443.78 168.15 C 448.40 163.57 452.96 158.91 457.58 154.34 C 458.45 155.77 459.43 157.15 460.65 158.31 C 468.32 165.82 475.80 173.52 483.48 181.01 C 479.19 186.34 475.97 192.93 476.81 199.95 C 477.03 206.23 480.82 211.41 484.68 216.04 C 476.42 224.21 468.19 232.43 460.02 240.70 C 455.08 236.79 449.66 232.65 443.01 232.75 C 436.26 232.10 430.16 235.47 425.06 239.52 C 416.30 230.71 407.62 221.80 398.65 213.22 C 403.20 208.82 407.61 204.27 412.12 199.82 C 416.97 201.00 422.02 202.45 427.02 201.24 C 436.60 199.48 444.39 191.02 445.51 181.37 C 446.22 176.88 444.87 172.46 443.78 168.15 M 454.29 206.33 C 449.59 207.99 448.00 214.93 451.67 218.38 C 454.99 223.07 463.26 221.15 464.63 215.69 C 467.10 209.78 459.89 203.45 454.29 206.33 Z" />
</g>
<g id="#c8ced6ff">
<path fill="#c8ced6" opacity="1.00" d=" M 234.00 136.99 C 239.36 134.06 244.36 130.51 249.96 128.03 C 250.25 137.46 249.67 146.90 250.31 156.32 C 250.64 166.93 248.05 177.86 241.09 186.12 C 235.62 192.55 228.01 198.96 218.99 198.08 C 211.04 197.88 204.67 191.63 202.01 184.49 C 201.73 174.94 201.99 165.38 201.84 155.83 L 201.80 155.52 C 212.66 149.58 223.25 143.14 234.00 136.99 Z" />
<path fill="#c8ced6" opacity="1.00" d=" M 153.56 183.21 L 153.71 183.56 C 153.99 193.22 153.37 202.90 154.12 212.54 C 154.35 222.01 152.17 231.55 146.84 239.46 C 140.97 247.19 132.40 255.27 121.90 253.96 C 114.45 253.27 108.61 247.45 105.86 240.79 C 105.14 231.03 105.71 221.23 105.47 211.46 C 119.63 203.78 133.31 195.26 147.34 187.37 C 149.53 186.16 151.58 184.72 153.56 183.21 Z" />
<path fill="#c8ced6" opacity="1.00" d=" M 458.30 367.65 C 458.65 367.63 459.34 367.60 459.69 367.58 C 458.76 379.91 451.37 391.44 440.59 397.48 C 371.09 437.65 301.56 477.78 232.03 517.91 C 221.13 524.60 206.61 524.88 195.55 518.41 C 141.24 487.05 86.93 455.71 32.63 424.34 C 28.30 421.75 23.68 419.56 19.86 416.21 C 13.98 411.11 10.13 403.80 9.04 396.11 C 8.94 394.60 8.63 392.93 9.50 391.59 L 9.57 391.46 C 12.90 394.33 16.89 396.18 20.62 398.43 C 78.75 431.93 136.80 465.55 194.95 499.00 C 202.44 503.64 211.70 505.25 220.32 503.46 C 229.09 501.77 236.30 496.19 243.98 492.00 C 304.22 457.24 364.45 422.46 424.67 387.68 C 435.81 380.88 447.63 375.18 458.30 367.65 Z" />
<path fill="#c8ced6" opacity="1.00" d=" M 325.60 376.60 C 327.80 374.78 330.20 376.71 332.22 377.82 C 344.48 385.07 357.06 391.79 369.19 399.26 C 368.27 400.35 367.07 401.16 365.83 401.85 C 339.65 416.95 313.54 432.18 287.34 447.24 C 284.15 449.05 281.16 451.25 277.75 452.64 C 276.60 452.59 275.66 451.77 274.67 451.30 C 264.58 445.36 254.41 439.55 244.27 433.69 C 241.47 431.90 238.35 430.58 235.86 428.34 C 265.72 411.01 295.74 393.95 325.60 376.60 Z" />
</g>
<g id="#5cbeffff">
<path fill="#5cbeff" opacity="1.00" d=" M 250.31 156.32 C 251.54 159.83 253.45 163.12 256.17 165.70 C 256.03 176.67 256.25 187.64 256.06 198.61 C 252.51 206.22 250.12 214.28 247.14 222.11 C 244.94 229.31 241.56 236.13 240.01 243.52 C 200.76 266.26 161.46 288.91 122.14 311.53 C 123.10 307.00 124.93 302.73 126.42 298.36 C 132.99 280.53 139.18 262.57 145.77 244.74 C 146.43 243.06 146.59 241.24 146.84 239.46 C 152.17 231.55 154.35 222.01 154.12 212.54 C 156.53 220.15 163.80 226.33 171.99 226.07 C 178.65 226.51 184.41 222.38 189.11 218.14 C 198.30 209.65 202.88 196.89 202.01 184.49 C 204.67 191.63 211.04 197.88 218.99 198.08 C 228.01 198.96 235.62 192.55 241.09 186.12 C 248.05 177.86 250.64 166.93 250.31 156.32 Z" />
<path fill="#5cbeff" opacity="1.00" d=" M 31.97 224.81 C 40.03 229.44 48.01 234.22 56.12 238.77 C 56.41 238.94 57.00 239.26 57.29 239.43 C 57.36 247.94 57.08 256.46 57.42 264.96 C 58.02 274.31 66.61 282.30 75.99 282.04 C 84.25 282.20 90.90 276.25 96.20 270.59 C 95.96 275.13 93.79 279.17 92.38 283.39 C 85.80 302.43 78.46 321.22 72.19 340.35 C 53.90 350.91 35.68 361.57 17.29 371.95 C 17.39 336.08 17.20 300.20 17.38 264.33 C 22.65 251.31 26.74 237.84 31.97 224.81 Z" />
</g>
<g id="#33aeffff">
<path fill="#33aeff" opacity="1.00" d=" M 247.14 222.11 C 250.12 214.28 252.51 206.22 256.06 198.61 C 256.17 210.46 256.08 222.31 256.12 234.16 C 250.81 237.39 245.38 240.41 240.01 243.52 C 241.56 236.13 244.94 229.31 247.14 222.11 Z" />
<path fill="#33aeff" opacity="1.00" d=" M 17.39 217.03 L 17.43 216.31 C 22.25 219.18 27.12 221.98 31.97 224.81 C 26.74 237.84 22.65 251.31 17.38 264.33 C 17.33 248.56 17.31 232.80 17.39 217.03 Z" />
<path fill="#33aeff" opacity="1.00" d=" M 121.90 253.96 C 132.40 255.27 140.97 247.19 146.84 239.46 C 146.59 241.24 146.43 243.06 145.77 244.74 C 139.18 262.57 132.99 280.53 126.42 298.36 C 124.93 302.73 123.10 307.00 122.14 311.53 C 105.50 321.14 88.84 330.75 72.19 340.35 C 78.46 321.22 85.80 302.43 92.38 283.39 C 93.79 279.17 95.96 275.13 96.20 270.59 C 103.11 262.36 106.40 251.47 105.86 240.79 C 108.61 247.45 114.45 253.27 121.90 253.96 Z" />
</g>
<g id="#e8edefff">
<path fill="#e8edef" opacity="1.00" d=" M 213.57 273.74 C 230.39 264.11 247.08 254.24 263.99 244.76 L 264.83 244.62 C 266.87 245.23 268.59 246.58 270.45 247.58 C 330.86 282.46 391.26 317.34 451.68 352.21 C 454.09 353.66 456.92 354.89 458.33 357.48 C 460.05 360.55 459.58 364.20 459.80 367.58 L 459.69 367.58 C 459.34 367.60 458.65 367.63 458.30 367.65 C 447.63 375.18 435.81 380.88 424.67 387.68 C 364.45 422.46 304.22 457.24 243.98 492.00 C 236.30 496.19 229.09 501.77 220.32 503.46 C 211.70 505.25 202.44 503.64 194.95 499.00 C 136.80 465.55 78.75 431.93 20.62 398.43 C 16.89 396.18 12.90 394.33 9.57 391.46 L 9.50 391.59 L 9.47 391.31 C 26.62 381.99 43.29 371.78 60.35 362.26 C 67.74 366.72 75.23 371.04 82.70 375.37 C 133.78 345.70 185.07 316.41 236.06 286.59 C 228.55 282.33 221.08 278.01 213.57 273.74 M 244.52 298.69 L 244.55 300.05 C 248.22 303.10 252.83 305.02 256.90 307.57 C 267.44 301.54 278.00 295.55 288.49 289.44 C 288.69 288.97 289.09 288.03 289.29 287.56 C 285.19 284.95 280.87 282.72 276.71 280.20 C 265.90 286.21 255.36 292.72 244.52 298.69 M 261.22 307.89 C 259.95 308.71 261.35 310.41 262.41 310.71 C 267.56 313.69 272.69 316.70 277.85 319.66 C 288.39 313.57 298.99 307.58 309.51 301.46 C 309.68 300.98 310.03 300.03 310.20 299.55 C 304.44 296.16 298.62 292.86 292.85 289.48 C 282.32 295.64 271.71 301.66 261.22 307.89 M 208.32 319.62 L 208.92 321.02 C 212.70 323.75 216.98 325.76 220.97 328.20 C 231.61 322.07 242.39 316.15 252.88 309.77 C 252.93 309.22 253.04 308.11 253.09 307.56 L 252.66 307.83 C 248.81 305.31 244.71 303.21 240.78 300.82 C 229.91 307.00 219.14 313.35 208.32 319.62 M 294.58 312.93 L 293.99 312.61 C 294.05 313.12 294.19 314.15 294.25 314.67 C 300.43 318.55 306.83 322.10 313.06 325.90 C 303.49 331.78 293.49 337.01 283.97 342.98 L 283.52 342.72 C 283.58 343.25 283.71 344.31 283.78 344.83 C 289.30 348.23 294.99 351.37 300.58 354.68 C 316.73 345.44 332.83 336.14 348.99 326.93 C 350.23 326.12 352.16 325.49 351.76 323.57 C 339.10 316.26 326.45 308.91 313.85 301.49 C 307.39 305.24 300.82 308.83 294.58 312.93 M 224.93 328.61 C 225.00 329.11 225.15 330.11 225.23 330.61 C 230.80 333.82 236.34 337.10 241.93 340.27 C 252.59 334.15 263.37 328.20 273.86 321.83 C 273.91 321.32 274.00 320.29 274.04 319.78 L 273.71 319.97 C 268.26 316.48 262.53 313.45 256.97 310.15 C 246.25 316.24 235.69 322.59 224.93 328.61 M 290.42 315.07 C 279.90 321.40 269.25 327.53 258.55 333.57 C 258.72 334.09 259.05 335.11 259.22 335.63 C 264.76 338.84 270.21 342.23 275.89 345.19 C 286.37 338.86 297.19 333.11 307.64 326.75 C 307.73 326.26 307.89 325.29 307.98 324.80 L 307.46 325.06 C 302.06 321.30 296.19 318.22 290.42 315.07 M 173.27 340.08 L 172.89 339.89 C 172.96 340.35 173.10 341.27 173.18 341.72 C 177.06 344.34 181.29 346.39 185.24 348.91 C 195.23 343.31 205.10 337.50 215.07 331.87 C 216.32 331.15 218.07 330.38 217.47 328.52 C 213.24 326.31 209.20 323.78 205.01 321.49 C 194.46 327.75 183.71 333.66 173.27 340.08 M 323.29 344.31 C 323.16 344.70 322.90 345.47 322.77 345.86 L 323.28 345.74 C 328.79 349.39 334.63 352.51 340.35 355.83 C 350.15 350.09 360.04 344.48 369.90 338.85 C 371.12 338.10 372.93 337.38 372.43 335.51 C 366.62 332.33 360.99 328.83 355.17 325.67 C 344.60 331.97 333.80 337.91 323.29 344.31 M 188.83 349.52 C 188.96 350.01 189.22 350.99 189.35 351.48 C 194.89 354.68 200.44 357.90 205.97 361.13 C 216.58 354.97 227.32 349.01 237.87 342.74 C 237.91 342.14 238.00 340.94 238.04 340.33 L 237.44 340.73 C 232.18 337.12 226.47 334.21 220.98 330.96 C 210.25 337.11 199.62 343.45 188.83 349.52 M 222.98 353.94 C 222.01 354.18 222.06 355.59 222.92 355.94 C 228.33 359.36 233.99 362.36 239.44 365.70 C 250.16 359.52 261.06 353.61 271.57 347.10 L 271.78 345.45 C 266.11 342.18 260.36 339.02 254.81 335.55 C 244.08 341.44 233.51 347.68 222.98 353.94 M 137.65 360.82 L 136.92 360.38 C 137.02 360.95 137.20 362.08 137.29 362.65 C 141.27 365.06 145.37 367.30 149.37 369.68 C 159.22 364.09 169.02 358.40 178.87 352.81 C 180.06 351.94 182.12 351.43 181.70 349.47 C 177.43 347.14 173.31 344.57 169.03 342.29 C 158.64 348.58 147.84 354.23 137.65 360.82 M 247.90 363.62 C 248.00 364.11 248.20 365.10 248.30 365.59 C 253.85 368.81 259.39 372.04 264.95 375.24 C 275.23 369.48 285.41 363.52 295.66 357.68 C 296.84 357.11 297.32 356.12 297.10 354.73 L 296.79 354.90 C 291.27 351.50 285.59 348.35 279.97 345.11 C 269.27 351.26 258.67 357.60 247.90 363.62 M 215.12 406.63 C 215.54 408.22 217.09 408.87 218.35 409.65 C 223.15 412.35 227.85 415.21 232.65 417.91 C 267.08 397.86 301.71 378.12 336.07 357.97 C 336.10 357.37 336.14 356.18 336.17 355.59 L 335.75 355.86 C 330.22 352.64 324.76 349.04 318.99 346.37 C 284.33 366.37 249.71 386.49 215.12 406.63 M 152.77 370.52 C 152.97 370.98 153.38 371.91 153.59 372.38 C 159.00 375.67 164.58 378.71 170.00 382.01 C 180.59 375.89 191.26 369.89 201.82 363.71 C 201.89 363.19 202.03 362.15 202.11 361.64 C 196.40 358.39 190.75 355.04 185.02 351.81 C 174.28 358.06 163.53 364.30 152.77 370.52 M 191.20 372.28 C 189.64 373.13 188.12 374.05 186.75 375.18 L 186.03 375.03 C 186.06 376.98 188.03 377.62 189.40 378.51 C 194.10 381.19 198.75 383.93 203.42 386.65 C 213.26 381.09 223.01 375.40 232.84 369.83 C 234.06 368.97 236.01 368.44 235.85 366.52 C 230.15 363.16 224.33 360.01 218.73 356.50 C 209.41 361.50 200.41 367.08 191.20 372.28 M 101.41 381.59 L 100.88 381.29 C 100.99 381.85 101.22 382.98 101.33 383.54 C 105.26 385.86 109.28 388.03 113.16 390.43 C 123.57 384.82 133.71 378.71 144.01 372.90 C 145.26 372.58 146.36 370.73 144.96 369.92 C 141.00 367.61 137.04 365.31 133.04 363.07 C 122.52 369.29 111.81 375.18 101.41 381.59 M 243.42 365.99 C 232.81 372.27 222.17 378.49 211.43 384.52 L 211.64 386.06 C 217.17 389.68 222.99 392.96 228.81 396.10 C 239.39 389.84 250.12 383.83 260.77 377.69 C 260.71 377.18 260.60 376.17 260.54 375.67 C 254.75 372.58 249.25 368.98 243.42 365.99 M 117.50 390.69 C 117.43 391.16 117.28 392.11 117.21 392.59 C 122.88 395.83 128.55 399.09 134.15 402.46 C 144.56 396.87 154.67 390.72 164.98 384.94 C 166.21 384.58 167.31 382.89 165.99 381.96 C 160.33 378.81 154.89 375.26 149.08 372.37 C 138.64 378.61 128.11 384.74 117.50 390.69 M 325.60 376.60 C 295.74 393.95 265.72 411.01 235.86 428.34 C 238.35 430.58 241.47 431.90 244.27 433.69 C 254.41 439.55 264.58 445.36 274.67 451.30 C 275.66 451.77 276.60 452.59 277.75 452.64 C 281.16 451.25 284.15 449.05 287.34 447.24 C 313.54 432.18 339.65 416.95 365.83 401.85 C 367.07 401.16 368.27 400.35 369.19 399.26 C 357.06 391.79 344.48 385.07 332.22 377.82 C 330.20 376.71 327.80 374.78 325.60 376.60 M 150.55 395.66 C 150.65 396.15 150.86 397.13 150.97 397.61 C 156.63 400.72 162.02 404.58 167.93 407.12 C 178.56 401.04 189.32 395.14 199.73 388.70 L 200.17 388.84 C 200.06 388.44 199.84 387.64 199.73 387.24 C 194.31 383.57 188.37 380.69 182.82 377.20 C 171.93 383.12 161.43 389.73 150.55 395.66 M 65.65 402.32 L 65.07 402.02 C 65.14 402.45 65.28 403.33 65.34 403.77 C 69.26 406.54 73.60 408.72 77.76 411.11 C 88.39 404.88 99.13 398.85 109.80 392.69 C 109.75 392.12 109.66 391.00 109.62 390.43 L 109.30 390.64 C 105.34 388.23 101.32 385.91 97.23 383.73 C 86.79 390.06 75.98 395.80 65.65 402.32 M 176.36 404.94 L 175.90 404.66 C 175.95 405.17 176.06 406.21 176.11 406.72 C 181.55 410.27 187.35 413.27 192.90 416.65 C 203.50 410.66 214.07 404.58 224.61 398.48 C 224.77 397.99 225.10 397.02 225.27 396.54 C 219.54 393.10 213.74 389.81 207.95 386.50 C 197.44 392.68 186.79 398.63 176.36 404.94 M 81.23 411.57 L 81.57 413.07 C 86.91 416.70 92.80 419.49 98.19 423.07 C 109.20 417.21 119.88 410.75 130.72 404.58 C 130.65 404.10 130.53 403.13 130.46 402.65 C 124.82 399.50 119.22 396.28 113.68 392.95 C 102.75 398.94 92.13 405.51 81.23 411.57 M 102.47 423.65 L 101.83 423.33 C 101.99 423.85 102.31 424.88 102.47 425.40 C 107.96 428.73 113.60 431.80 119.07 435.16 C 134.01 426.79 148.86 418.25 163.66 409.64 C 163.75 409.07 163.94 407.92 164.04 407.35 L 163.39 407.72 C 158.12 404.05 152.32 401.21 146.84 397.86 C 132.02 406.40 117.07 414.75 102.47 423.65 M 123.43 435.50 C 122.87 436.73 123.16 437.99 124.58 438.37 C 129.80 441.32 134.94 444.40 140.14 447.38 C 155.72 438.59 171.14 429.54 186.68 420.70 C 187.92 419.96 189.62 419.28 189.45 417.46 C 183.70 414.09 177.94 410.72 172.11 407.46 C 155.89 416.81 139.80 426.42 123.43 435.50 M 180.13 426.90 L 179.81 426.70 C 179.88 427.21 180.01 428.21 180.08 428.71 C 185.59 432.11 191.17 435.48 196.91 438.45 C 207.53 432.61 217.99 426.45 228.49 420.41 C 228.67 419.93 229.04 418.99 229.22 418.51 C 223.50 415.06 217.66 411.80 211.89 408.43 C 201.30 414.58 190.66 420.66 180.13 426.90 M 144.54 447.60 L 143.92 447.21 C 144.00 447.80 144.18 448.99 144.26 449.59 C 149.84 452.80 155.40 456.07 160.99 459.27 C 171.63 453.13 182.44 447.25 192.89 440.82 C 192.94 440.29 193.04 439.24 193.09 438.71 L 192.77 438.90 C 187.24 435.52 181.59 432.35 175.97 429.14 C 165.54 435.36 154.83 441.14 144.54 447.60 Z" />
</g>
</svg>
