<?xml version="1.0" encoding="UTF-8" ?>
<!DOCTYPE svg PUBLIC "-//W3C//DTD SVG 1.1//EN" "http://www.w3.org/Graphics/SVG/1.1/DTD/svg11.dtd">
<svg width="512pt" height="512pt" viewBox="0 0 512 512" version="1.1" xmlns="http://www.w3.org/2000/svg">
<g id="#ffac96ff">
<path fill="#ffac96" opacity="1.00" d=" M 96.01 24.01 C 101.11 24.18 106.58 23.22 111.28 25.75 C 116.48 28.44 120.06 34.09 119.99 39.99 C 120.02 45.32 119.98 50.66 120.01 55.99 C 127.04 56.07 134.08 55.88 141.11 56.09 C 150.10 56.74 157.11 66.03 155.23 74.86 C 152.58 85.90 149.77 96.91 147.00 107.92 C 145.30 115.03 138.31 120.27 131.02 120.00 C 106.01 120.00 81.01 120.01 56.00 119.99 C 56.00 101.33 56.00 82.67 56.00 64.01 C 61.35 63.90 66.82 64.41 72.04 62.94 C 83.05 60.20 92.18 51.10 94.93 40.09 C 96.41 34.85 95.90 29.37 96.01 24.01 Z" />
<path fill="#ffac96" opacity="1.00" d=" M 176.04 170.13 C 178.45 168.81 181.15 167.97 183.92 168.01 C 189.28 167.97 194.64 168.01 200.00 168.00 C 199.97 181.33 200.04 194.66 200.01 207.99 C 194.31 207.98 188.61 208.06 182.91 207.95 C 174.82 207.55 167.89 200.12 168.01 192.03 C 168.20 187.39 167.32 182.51 169.15 178.10 C 170.51 174.78 173.00 172.02 176.04 170.13 Z" />
<path fill="#ffac96" opacity="1.00" d=" M 312.01 168.00 C 317.37 168.01 322.74 167.98 328.10 168.01 C 330.86 167.99 333.56 168.81 335.96 170.16 C 340.77 172.98 344.04 178.32 343.99 183.94 C 343.81 188.60 344.66 193.49 342.83 197.93 C 340.47 203.82 334.42 208.05 328.03 207.99 C 322.68 208.01 317.34 208.01 311.99 207.99 C 311.99 194.66 312.00 181.33 312.01 168.00 Z" />
</g>
<g id="#ed1c24ff">
<path fill="#ed1c24" opacity="1.00" d=" M 377.82 55.83 C 380.25 47.60 387.43 41.04 395.84 39.36 C 402.03 38.04 408.71 39.32 413.97 42.83 C 417.81 45.30 420.51 49.14 424.01 51.98 C 426.59 49.94 428.59 47.20 431.22 45.18 C 438.05 39.67 448.00 38.49 455.94 42.19 C 463.05 45.35 468.38 52.20 469.65 59.88 C 471.06 67.46 468.45 75.61 462.97 81.03 C 449.98 94.01 437.00 107.01 424.00 119.99 C 410.55 106.48 397.04 93.03 383.57 79.53 C 377.51 73.47 375.24 63.99 377.82 55.83 Z" />
<path fill="#ed1c24" opacity="1.00" d=" M 106.61 333.90 C 111.14 318.33 121.91 304.70 136.00 296.67 C 136.00 320.45 136.00 344.22 136.00 368.00 C 129.72 368.06 123.43 367.85 117.16 368.15 C 115.76 367.48 114.67 367.75 113.89 368.96 L 113.06 368.94 C 112.50 369.19 111.39 369.69 110.83 369.95 L 109.93 370.27 C 109.42 370.52 108.39 371.01 107.87 371.26 L 107.67 371.38 C 107.60 371.44 107.46 371.57 107.39 371.63 C 106.75 372.08 105.46 372.97 104.81 373.42 L 104.00 373.61 C 104.39 360.37 102.63 346.77 106.61 333.90 Z" />
<path fill="#ed1c24" opacity="1.00" d=" M 376.00 296.68 C 390.76 305.02 401.79 319.60 405.96 336.02 C 409.19 348.30 407.63 361.10 408.00 373.64 L 407.13 373.36 C 406.51 372.94 405.28 372.10 404.66 371.68 C 404.56 371.62 404.35 371.49 404.24 371.42 L 403.03 370.71 C 402.79 370.60 402.31 370.38 402.06 370.27 L 401.15 369.96 C 400.61 369.71 399.53 369.19 398.99 368.94 L 398.12 368.96 C 397.32 367.76 396.22 367.49 394.82 368.15 C 388.55 367.85 382.27 368.06 376.00 368.00 C 376.00 344.23 376.00 320.45 376.00 296.68 Z" />
</g>
<g id="#006df0ff">
<path fill="#006df0" opacity="1.00" d=" M 24.01 56.01 C 34.67 55.99 45.33 56.00 55.99 56.01 C 56.01 58.67 55.99 61.34 56.00 64.01 C 56.00 82.67 56.00 101.33 56.00 119.99 C 55.99 122.66 56.01 125.32 55.99 127.99 C 45.33 128.01 34.67 128.00 24.01 127.99 C 23.99 104.00 23.99 80.00 24.01 56.01 Z" />
<path fill="#006df0" opacity="1.00" d=" M 136.05 270.93 C 136.46 262.86 143.84 255.88 151.95 256.01 C 177.00 255.98 202.05 256.01 227.10 255.99 C 246.39 256.01 265.68 256.00 284.97 255.99 C 310.01 256.01 335.05 255.98 360.09 256.01 C 368.19 255.92 375.60 262.88 375.95 270.98 C 376.06 279.55 375.96 288.11 376.00 296.68 C 376.00 320.45 376.00 344.23 376.00 368.00 C 376.00 384.00 376.00 400.00 376.00 416.00 C 296.00 416.00 216.00 416.00 136.00 416.00 C 136.00 400.00 136.00 384.00 136.00 368.00 C 136.00 344.22 136.00 320.45 136.00 296.67 C 136.03 288.09 135.94 279.51 136.05 270.93 M 250.39 304.47 C 243.55 305.74 237.11 309.24 232.39 314.37 C 222.41 324.95 221.18 342.49 229.77 354.27 C 238.74 367.85 258.69 372.10 272.45 363.42 C 285.86 355.79 291.81 337.63 285.37 323.60 C 282.55 318.13 273.61 318.70 271.30 324.32 C 269.17 328.89 272.95 333.47 271.81 338.16 C 271.05 345.56 264.38 351.52 257.04 351.93 C 248.94 352.68 241.07 346.13 240.19 338.08 C 239.09 331.03 243.51 323.73 250.11 321.16 C 253.62 319.47 258.10 320.86 261.16 318.10 C 264.95 315.13 264.86 308.78 261.11 305.81 C 258.11 303.32 253.95 304.01 250.39 304.47 Z" />
</g>
<g id="#58595bff">
<path fill="#58595b" opacity="1.00" d=" M 252.97 57.98 C 260.01 55.20 267.67 56.18 275.04 56.00 C 283.38 56.17 291.92 55.33 300.07 57.58 C 316.66 61.71 330.37 75.46 334.45 92.07 C 336.43 99.21 335.94 106.69 336.00 114.02 C 335.98 132.73 336.05 151.45 335.96 170.16 C 333.56 168.81 330.86 167.99 328.10 168.01 C 322.74 167.98 317.37 168.01 312.01 168.00 C 311.94 162.33 312.09 156.65 311.94 150.98 C 311.60 142.83 304.12 135.86 295.98 136.01 C 269.30 136.00 242.62 135.99 215.94 136.01 C 207.85 135.87 200.47 142.84 200.06 150.90 C 199.92 156.60 200.04 162.30 200.00 168.00 C 194.64 168.01 189.28 167.97 183.92 168.01 C 181.15 167.97 178.45 168.81 176.04 170.13 C 175.98 147.76 175.97 125.38 176.04 103.00 C 176.24 90.24 184.98 78.21 197.00 73.97 C 203.38 71.45 210.35 72.02 217.07 72.04 C 224.81 72.38 231.32 79.10 232.03 86.71 C 232.39 74.05 241.05 62.21 252.97 57.98 Z" />
<path fill="#58595b" opacity="1.00" d=" M 229.37 168.47 C 233.33 166.94 238.20 169.29 239.51 173.32 C 240.44 176.45 239.82 179.78 240.00 183.00 C 240.38 186.85 237.84 190.81 234.02 191.71 C 229.59 193.05 224.58 189.66 224.09 185.08 C 223.91 182.04 224.01 178.99 224.02 175.94 C 223.99 172.65 226.23 169.49 229.37 168.47 Z" />
<path fill="#58595b" opacity="1.00" d=" M 277.39 168.46 C 281.92 166.69 287.37 170.08 287.90 174.88 C 288.09 177.94 287.99 181.02 287.98 184.08 C 288.00 187.95 284.87 191.46 281.04 191.92 C 276.84 192.56 272.58 189.32 272.09 185.10 C 271.91 182.07 272.01 179.02 272.02 175.98 C 271.97 172.67 274.23 169.48 277.39 168.46 Z" />
<path fill="#58595b" opacity="1.00" d=" M 230.39 216.47 C 233.47 215.63 236.58 217.07 238.72 219.24 C 248.35 227.94 264.38 227.72 273.80 218.81 C 276.35 216.05 280.74 215.08 284.02 217.12 C 288.18 219.38 289.31 225.53 286.16 229.09 C 278.94 236.79 268.62 241.36 258.10 241.86 C 246.19 242.50 234.05 237.73 225.88 229.03 C 222.40 224.74 224.98 217.56 230.39 216.47 Z" />
</g>
<g id="#ffbcabff">
<path fill="#ffbcab" opacity="1.00" d=" M 200.06 150.90 C 200.47 142.84 207.85 135.87 215.94 136.01 C 242.62 135.99 269.30 136.00 295.98 136.01 C 304.12 135.86 311.60 142.83 311.94 150.98 C 312.09 156.65 311.94 162.33 312.01 168.00 C 312.00 181.33 311.99 194.66 311.99 207.99 C 312.19 227.31 301.45 246.02 284.97 255.99 C 265.68 256.00 246.39 256.01 227.10 255.99 C 210.58 246.07 199.78 227.33 200.01 207.99 C 200.04 194.66 199.97 181.33 200.00 168.00 C 200.04 162.30 199.92 156.60 200.06 150.90 M 229.37 168.47 C 226.23 169.49 223.99 172.65 224.02 175.94 C 224.01 178.99 223.91 182.04 224.09 185.08 C 224.58 189.66 229.59 193.05 234.02 191.71 C 237.84 190.81 240.38 186.85 240.00 183.00 C 239.82 179.78 240.44 176.45 239.51 173.32 C 238.20 169.29 233.33 166.94 229.37 168.47 M 277.39 168.46 C 274.23 169.48 271.97 172.67 272.02 175.98 C 272.01 179.02 271.91 182.07 272.09 185.10 C 272.58 189.32 276.84 192.56 281.04 191.92 C 284.87 191.46 288.00 187.95 287.98 184.08 C 287.99 181.02 288.09 177.94 287.90 174.88 C 287.37 170.08 281.92 166.69 277.39 168.46 M 230.39 216.47 C 224.98 217.56 222.40 224.74 225.88 229.03 C 234.05 237.73 246.19 242.50 258.10 241.86 C 268.62 241.36 278.94 236.79 286.16 229.09 C 289.31 225.53 288.18 219.38 284.02 217.12 C 280.74 215.08 276.35 216.05 273.80 218.81 C 264.38 227.72 248.35 227.94 238.72 219.24 C 236.58 217.07 233.47 215.63 230.39 216.47 Z" />
<path fill="#ffbcab" opacity="1.00" d=" M 117.16 368.15 C 123.43 367.85 129.72 368.06 136.00 368.00 C 136.00 384.00 136.00 400.00 136.00 416.00 C 129.76 415.88 123.50 416.28 117.28 415.74 C 107.64 414.94 99.14 407.42 96.80 398.09 C 94.34 389.22 97.65 379.18 104.81 373.42 C 105.46 372.97 106.75 372.08 107.39 371.63 C 107.46 371.57 107.60 371.44 107.67 371.38 L 107.87 371.26 C 108.39 371.01 109.42 370.52 109.93 370.27 L 110.83 369.95 C 111.39 369.69 112.50 369.19 113.06 368.94 L 113.89 368.96 C 115.20 369.42 116.29 369.15 117.16 368.15 Z" />
<path fill="#ffbcab" opacity="1.00" d=" M 376.00 368.00 C 382.27 368.06 388.55 367.85 394.82 368.15 C 395.69 369.14 396.79 369.41 398.12 368.96 L 398.99 368.94 C 399.53 369.19 400.61 369.71 401.15 369.96 L 402.06 370.27 C 402.31 370.38 402.79 370.60 403.03 370.71 L 404.24 371.42 C 404.35 371.49 404.56 371.62 404.66 371.68 C 405.28 372.10 406.51 372.94 407.13 373.36 C 414.33 379.12 417.66 389.22 415.19 398.12 C 412.83 407.43 404.38 414.95 394.73 415.74 C 388.50 416.27 382.24 415.88 376.00 416.00 C 376.00 400.00 376.00 384.00 376.00 368.00 Z" />
</g>
<g id="#7ed63eff">
<path fill="#7ed63e" opacity="1.00" d=" M 461.10 160.27 C 469.77 158.39 478.86 165.15 479.85 173.89 C 481.14 181.96 475.14 190.21 467.15 191.67 C 462.65 192.72 458.06 191.28 454.28 188.86 C 449.98 185.40 447.78 180.07 447.77 174.61 C 448.89 167.75 453.98 161.38 461.10 160.27 Z" />
<path fill="#7ed63e" opacity="1.00" d=" M 379.75 197.72 C 384.93 191.20 395.11 190.24 401.71 195.16 C 405.21 198.09 407.79 202.31 407.96 206.97 C 408.42 212.30 405.78 217.50 401.71 220.84 C 396.07 224.90 387.83 225.16 382.36 220.67 C 375.11 215.60 373.90 204.30 379.75 197.72 Z" />
<path fill="#7ed63e" opacity="1.00" d=" M 454.31 227.13 C 458.42 224.32 463.72 223.14 468.54 224.66 C 476.23 226.82 481.47 235.33 479.67 243.18 C 478.14 251.51 469.23 257.57 460.92 255.69 C 453.97 254.42 448.87 248.22 447.80 241.42 C 447.86 235.99 449.88 230.48 454.31 227.13 Z" />
</g>
<g id="#ff9811ff">
<path fill="#ff9811" opacity="1.00" d=" M 71.60 165.19 C 71.80 165.20 72.20 165.22 72.40 165.23 C 75.95 176.76 79.89 188.17 83.48 199.69 C 95.86 200.52 108.67 199.57 121.18 200.17 C 110.97 207.37 100.91 214.80 90.82 222.17 C 94.72 234.04 98.49 245.96 102.46 257.82 C 92.25 250.57 82.21 243.08 72.02 235.80 C 61.85 243.13 51.75 250.56 41.57 257.87 C 45.45 245.94 49.33 234.02 53.19 222.09 C 43.09 214.92 33.31 207.29 23.02 200.43 C 23.24 200.33 23.69 200.13 23.91 200.03 C 35.96 199.95 48.02 200.03 60.08 199.99 L 60.53 199.67 C 64.11 188.14 68.07 176.73 71.60 165.19 Z" />
</g>
<g id="#5eac24ff">
<path fill="#5eac24" opacity="1.00" d=" M 401.71 195.16 C 416.92 188.07 432.34 181.24 447.77 174.61 C 447.78 180.07 449.98 185.40 454.28 188.86 C 440.57 195.55 426.32 201.37 412.37 207.66 C 412.35 207.82 412.31 208.14 412.29 208.29 C 426.28 214.59 440.49 220.51 454.31 227.13 C 449.88 230.48 447.86 235.99 447.80 241.42 C 432.37 234.75 416.93 227.94 401.71 220.84 C 405.78 217.50 408.42 212.30 407.96 206.97 C 407.79 202.31 405.21 198.09 401.71 195.16 Z" />
</g>
<g id="#004facff">
<path fill="#004fac" opacity="1.00" d=" M 250.39 304.47 C 253.95 304.01 258.11 303.32 261.11 305.81 C 264.86 308.78 264.95 315.13 261.16 318.10 C 258.10 320.86 253.62 319.47 250.11 321.16 C 243.51 323.73 239.09 331.03 240.19 338.08 C 241.07 346.13 248.94 352.68 257.04 351.93 C 264.38 351.52 271.05 345.56 271.81 338.16 C 272.95 333.47 269.17 328.89 271.30 324.32 C 273.61 318.70 282.55 318.13 285.37 323.60 C 291.81 337.63 285.86 355.79 272.45 363.42 C 258.69 372.10 238.74 367.85 229.77 354.27 C 221.18 342.49 222.41 324.95 232.39 314.37 C 237.11 309.24 243.55 305.74 250.39 304.47 Z" />
</g>
<g id="#c26d66c6">
<path fill="#c26d66" opacity="0.78" d=" M 113.89 368.96 C 114.67 367.75 115.76 367.48 117.16 368.15 C 116.29 369.15 115.20 369.42 113.89 368.96 Z" />
<path fill="#c26d66" opacity="0.78" d=" M 394.82 368.15 C 396.22 367.49 397.32 367.76 398.12 368.96 C 396.79 369.41 395.69 369.14 394.82 368.15 Z" />
</g>
<g id="#c87870cc">
<path fill="#c87870" opacity="0.80" d=" M 110.83 369.95 C 111.39 369.69 112.50 369.19 113.06 368.94 C 112.50 369.19 111.39 369.69 110.83 369.95 Z" />
</g>
<g id="#c7776ecb">
<path fill="#c7776e" opacity="0.80" d=" M 398.99 368.94 C 399.53 369.19 400.61 369.71 401.15 369.96 C 400.61 369.71 399.53 369.19 398.99 368.94 Z" />
</g>
<g id="#bc6e67c0">
<path fill="#bc6e67" opacity="0.75" d=" M 107.87 371.26 C 108.39 371.01 109.42 370.52 109.93 370.27 C 109.42 370.52 108.39 371.01 107.87 371.26 Z" />
</g>
<g id="#bc6d67c0">
<path fill="#bc6d67" opacity="0.75" d=" M 402.06 370.27 C 402.31 370.38 402.79 370.60 403.03 370.71 C 402.79 370.60 402.31 370.38 402.06 370.27 Z" />
</g>
<g id="#b75955bd">
<path fill="#b75955" opacity="0.74" d=" M 107.39 371.63 C 107.46 371.57 107.60 371.44 107.67 371.38 C 107.60 371.44 107.46 371.57 107.39 371.63 Z" />
</g>
<g id="#c0655fc5">
<path fill="#c0655f" opacity="0.77" d=" M 404.24 371.42 C 404.35 371.49 404.56 371.62 404.66 371.68 C 404.56 371.62 404.35 371.49 404.24 371.42 Z" />
</g>
<g id="#6d6e71ff">
<path fill="#6d6e71" opacity="1.00" d=" M 24.01 416.01 C 53.68 415.99 83.36 416.01 113.04 416.00 C 114.45 416.00 115.87 415.91 117.28 415.74 C 123.50 416.28 129.76 415.88 136.00 416.00 C 216.00 416.00 296.00 416.00 376.00 416.00 C 382.24 415.88 388.50 416.27 394.73 415.74 C 425.80 416.35 456.91 415.81 487.99 416.01 C 488.01 426.67 488.00 437.33 487.99 447.99 C 333.33 448.01 178.67 448.01 24.01 447.99 C 23.99 437.33 23.99 426.67 24.01 416.01 Z" />
</g>
<g id="#a7a9acff">
<path fill="#a7a9ac" opacity="1.00" d=" M 40.01 456.01 C 184.00 456.00 328.00 455.99 471.99 456.01 C 472.00 458.64 472.01 461.28 471.99 463.93 C 328.00 464.07 184.00 464.01 40.01 463.96 C 39.99 461.31 39.99 458.65 40.01 456.01 Z" />
</g>
<g id="#bcbec0ff">
<path fill="#bcbec0" opacity="1.00" d=" M 40.01 463.96 C 184.00 464.01 328.00 464.07 471.99 463.93 C 472.01 471.95 472.00 479.97 471.99 487.99 C 328.00 488.00 184.00 488.00 40.01 487.99 C 40.00 479.98 39.99 471.97 40.01 463.96 Z" />
</g>
</svg>
