<?xml version="1.0" encoding="UTF-8" ?>
<!DOCTYPE svg PUBLIC "-//W3C//DTD SVG 1.1//EN" "http://www.w3.org/Graphics/SVG/1.1/DTD/svg11.dtd">
<svg width="626pt" height="626pt" viewBox="0 0 626 626" version="1.1" xmlns="http://www.w3.org/2000/svg">
<g id="#000000ff">
<path fill="#000000" opacity="1.00" d=" M 214.25 0.00 L 254.42 0.00 C 260.74 1.79 267.37 2.19 273.80 3.52 C 284.29 4.70 294.39 7.80 304.54 10.55 C 311.33 12.55 317.80 15.45 324.52 17.66 C 332.26 21.15 339.83 25.00 347.48 28.68 C 353.84 32.56 360.29 36.31 366.54 40.39 C 375.11 46.82 384.16 52.76 391.69 60.46 C 394.87 63.57 398.52 66.15 401.60 69.38 C 405.02 72.69 407.61 76.74 411.10 79.99 C 417.61 85.89 421.69 93.81 427.33 100.46 C 438.88 117.47 448.76 135.72 455.52 155.18 C 456.92 160.02 459.25 164.55 460.34 169.49 C 461.31 173.84 462.24 178.20 463.45 182.50 C 466.32 191.58 466.58 201.19 468.27 210.51 C 469.75 226.70 469.87 243.04 468.22 259.22 C 466.52 269.51 465.96 280.04 462.69 290.01 C 460.22 302.72 455.43 314.79 450.77 326.83 C 445.69 337.26 441.09 347.97 434.66 357.67 C 429.41 366.90 422.69 375.12 416.34 383.59 C 408.16 392.93 399.90 402.27 390.37 410.27 C 383.74 416.80 375.97 421.96 368.64 427.64 C 358.24 434.44 347.81 441.35 336.31 446.17 C 327.10 451.25 317.08 454.55 307.19 458.01 C 300.89 460.69 294.03 461.45 287.50 463.37 C 278.31 466.16 268.64 466.62 259.21 468.22 C 242.77 469.88 226.15 469.83 209.71 468.16 C 200.65 466.49 191.30 466.29 182.47 463.45 C 177.08 461.84 171.50 461.01 166.12 459.41 C 154.88 455.30 143.36 451.76 132.79 446.04 C 125.13 442.79 118.00 438.47 110.99 434.03 C 102.69 429.63 95.68 423.33 87.96 418.07 C 82.74 414.65 79.04 409.49 74.05 405.78 C 68.01 401.18 63.73 394.82 58.36 389.54 C 53.08 384.14 48.88 377.84 44.27 371.90 C 38.38 364.20 33.77 355.66 28.67 347.44 C 24.94 339.55 20.85 331.82 17.39 323.82 C 15.23 316.80 12.01 310.16 10.12 303.05 C 8.08 294.73 5.25 286.58 4.16 278.05 C 3.38 271.67 1.83 265.41 1.18 259.01 C 0.99 257.53 0.60 256.10 -0.00 254.73 L 0.00 215.29 C 1.32 212.47 1.25 209.32 1.68 206.30 C 3.70 195.53 4.72 184.54 8.13 174.06 C 10.00 166.32 12.30 158.71 15.47 151.39 C 17.84 143.05 22.28 135.58 25.89 127.75 C 29.37 119.89 34.52 112.97 38.68 105.48 C 50.06 89.01 62.88 73.38 77.98 60.17 C 89.55 49.78 102.02 40.31 115.59 32.65 C 124.47 26.82 134.41 22.91 143.85 18.09 C 151.08 15.89 157.90 12.54 165.17 10.47 C 173.12 8.59 180.87 5.88 188.93 4.52 C 194.51 3.74 200.05 2.75 205.59 1.79 C 208.49 1.26 211.60 1.49 214.25 0.00 M 226.12 59.52 C 217.14 59.37 208.29 60.87 199.46 62.27 C 195.33 63.26 191.35 64.76 187.18 65.57 C 180.29 66.85 174.06 70.21 167.38 72.21 C 159.12 76.22 150.60 79.86 142.96 85.01 C 130.90 91.78 120.62 101.20 110.36 110.35 C 100.97 120.74 91.55 131.35 84.59 143.59 C 79.98 150.37 76.89 158.01 73.12 165.26 C 71.54 168.53 70.77 172.11 69.36 175.44 C 65.86 183.10 64.86 191.54 62.28 199.50 C 61.07 207.64 59.40 215.79 59.63 224.06 C 59.30 229.34 58.15 234.64 59.12 239.94 C 60.04 245.21 59.27 250.60 60.18 255.87 C 60.78 259.56 61.26 263.27 61.76 266.98 C 62.43 272.80 64.96 278.18 65.90 283.95 C 66.82 289.43 69.93 294.18 71.34 299.52 C 72.40 303.42 74.68 306.79 76.28 310.46 C 79.33 318.30 84.44 325.06 88.46 332.38 C 93.57 338.94 98.06 346.10 104.03 351.97 C 108.45 358.15 114.60 362.67 120.04 367.87 C 142.51 387.27 169.96 400.86 199.02 406.94 C 208.02 408.07 216.87 410.69 226.01 410.31 C 234.65 410.82 243.31 410.36 251.95 410.03 C 262.03 408.21 272.26 407.02 282.12 404.13 C 291.47 401.26 300.79 398.11 309.57 393.76 C 314.33 391.03 319.67 389.37 324.04 385.96 C 345.08 373.96 363.06 356.98 377.35 337.52 C 381.64 332.23 384.42 325.95 388.36 320.42 C 396.91 304.25 403.97 287.08 407.18 268.98 C 408.03 262.97 409.34 257.03 410.13 251.02 C 410.56 239.65 410.76 228.26 409.93 216.91 C 407.76 204.85 406.36 192.56 402.14 180.98 C 394.14 156.45 380.86 133.60 363.11 114.84 C 359.64 110.38 355.33 106.71 350.98 103.14 C 346.16 97.79 339.64 94.50 334.32 89.71 C 321.60 81.76 308.48 74.11 294.14 69.47 C 286.95 65.80 278.80 65.15 271.24 62.57 C 262.22 60.95 253.11 59.44 243.92 59.55 C 238.00 58.71 232.03 58.44 226.12 59.52 Z" />
<path fill="#000000" opacity="1.00" d=" M 160.10 119.95 C 182.09 105.53 208.41 97.55 234.74 98.03 C 234.70 110.98 234.72 123.93 234.73 136.88 C 226.38 137.54 217.88 137.80 209.84 140.39 C 199.72 143.11 190.02 147.39 181.28 153.18 C 175.52 156.63 170.90 161.55 165.60 165.60 C 163.27 168.91 160.24 171.63 157.86 174.90 C 151.88 181.78 147.90 190.09 144.14 198.32 C 141.13 206.62 138.42 215.15 137.72 224.01 C 137.50 227.59 137.02 231.15 136.87 234.74 C 123.92 234.71 110.96 234.72 98.01 234.73 C 98.10 223.38 98.76 211.86 102.18 200.96 C 110.07 167.80 131.72 138.54 160.10 119.95 Z" />
<path fill="#000000" opacity="1.00" d=" M 459.42 390.46 C 461.35 387.65 463.02 384.62 465.42 382.15 C 513.03 430.03 560.91 477.65 608.60 525.46 C 613.17 530.32 617.07 535.81 620.14 541.75 C 622.86 546.95 623.70 552.87 626.00 558.25 L 626.00 576.73 C 624.96 579.29 624.04 581.91 623.27 584.57 C 618.49 600.88 606.01 614.70 590.34 621.23 C 585.93 623.13 581.17 624.06 576.78 626.00 L 558.34 626.00 C 552.44 623.61 546.01 622.60 540.42 619.46 C 535.03 616.45 529.91 612.89 525.45 608.60 C 477.66 560.86 429.93 513.05 382.14 465.32 C 385.60 462.32 389.66 460.15 393.32 457.41 C 418.95 439.07 441.42 416.33 459.42 390.46 Z" />
</g>
</svg>
