<?xml version="1.0" encoding="UTF-8" ?>
<!DOCTYPE svg PUBLIC "-//W3C//DTD SVG 1.1//EN" "http://www.w3.org/Graphics/SVG/1.1/DTD/svg11.dtd">
<svg width="1000pt" height="600pt" viewBox="0 0 1000 600" version="1.1" xmlns="http://www.w3.org/2000/svg">
<g id="#c70003ff">
<path fill="#c70003" opacity="1.00" d=" M 146.54 42.54 C 194.90 13.57 251.65 -1.03 307.97 0.75 C 359.82 2.07 411.25 17.33 455.41 44.53 C 471.41 54.15 486.14 65.68 500.24 77.86 C 500.33 79.84 498.33 80.83 497.14 82.08 C 487.76 90.23 479.34 99.38 470.99 108.55 C 490.00 109.10 509.05 108.56 528.08 108.81 C 529.19 108.82 530.08 109.28 530.76 110.19 C 538.83 119.84 545.93 130.24 552.92 140.69 C 549.65 141.25 546.33 141.14 543.04 141.09 C 514.02 141.07 485.00 141.10 455.98 141.08 C 453.08 141.11 450.15 140.84 447.28 141.33 C 440.90 151.16 435.08 161.48 430.49 172.28 C 476.00 172.43 521.51 172.36 567.02 172.31 C 568.14 172.51 570.02 171.90 570.55 173.33 C 575.34 183.38 579.46 193.75 582.98 204.31 C 527.80 204.66 472.61 204.36 417.42 204.45 C 414.14 214.76 410.96 225.16 409.06 235.83 C 466.03 236.06 523.01 235.86 579.98 235.93 C 583.90 236.02 587.88 235.57 591.77 236.31 C 593.19 241.93 594.02 247.71 594.90 253.45 C 589.04 252.18 582.64 253.13 577.74 256.71 C 572.32 260.21 568.71 265.63 564.61 270.46 C 565.20 265.17 566.22 259.95 566.92 254.69 C 556.92 254.56 546.92 254.56 536.92 254.69 C 530.54 295.96 523.49 337.13 517.21 378.42 C 528.16 378.35 539.11 378.42 550.06 378.31 C 554.56 355.08 556.51 331.35 562.74 308.47 C 564.97 302.16 567.16 295.00 573.03 291.10 C 576.12 289.03 579.96 289.52 583.34 290.50 C 585.64 277.74 589.08 265.03 595.23 253.54 C 596.65 253.74 598.53 255.39 599.50 253.54 C 605.82 246.34 613.27 239.76 622.22 236.07 C 609.67 245.97 600.45 259.73 595.40 274.84 C 590.04 290.26 588.62 306.83 589.51 323.05 C 590.59 337.96 594.96 353.36 605.32 364.55 C 613.21 373.33 624.54 378.55 636.14 380.07 C 646.77 381.58 657.56 380.29 667.99 378.01 C 667.44 380.74 667.28 383.61 666.21 386.21 C 652.45 389.78 637.87 392.09 623.76 389.18 C 610.61 386.50 598.71 378.70 590.91 367.81 C 588.49 376.87 586.69 386.22 582.94 394.84 C 579.66 395.42 576.32 395.07 573.02 395.14 C 521.31 395.16 469.59 395.10 417.88 395.16 C 420.49 404.57 424.63 413.46 428.29 422.49 C 429.14 424.06 429.48 426.79 431.90 426.31 C 478.21 426.41 524.54 426.30 570.86 426.36 C 565.70 437.40 559.68 448.00 553.51 458.50 C 518.39 458.62 483.27 458.42 448.16 458.59 C 453.18 468.24 460.14 476.75 466.70 485.40 C 468.18 487.01 469.36 489.71 471.97 489.36 C 491.66 489.44 511.36 489.30 531.06 489.40 C 521.71 501.23 511.09 512.02 500.00 522.21 C 471.79 547.75 438.69 567.91 402.98 581.05 C 360.09 597.04 313.48 602.59 267.99 597.89 C 226.90 593.69 186.74 580.70 150.91 560.15 C 113.95 539.02 81.62 509.87 56.68 475.37 C 27.06 434.55 8.07 386.09 2.17 336.00 C 0.94 325.62 0.40 315.18 0.00 304.74 L 0.00 295.26 C 0.62 272.34 3.28 249.42 8.98 227.18 C 18.37 189.49 35.26 153.69 58.37 122.47 C 82.03 90.29 112.21 62.95 146.54 42.54 M 41.06 302.05 C 36.91 327.47 32.40 352.84 28.42 378.28 C 37.27 378.14 46.14 378.30 55.00 378.16 C 56.39 377.91 58.35 378.65 59.39 377.50 C 61.42 367.00 62.81 356.39 64.83 345.89 C 69.19 318.91 74.27 292.05 78.42 265.04 C 78.78 270.05 78.40 275.10 78.97 280.09 C 78.43 283.08 79.03 286.05 79.24 289.04 C 79.35 300.36 79.61 311.69 79.79 323.01 C 80.72 341.41 80.46 359.86 81.48 378.26 C 88.47 378.16 95.45 378.31 102.43 378.11 C 103.86 378.29 104.00 376.58 104.44 375.64 C 111.31 356.22 118.28 336.83 125.24 317.43 C 131.20 300.23 137.90 283.27 143.47 265.93 C 143.44 267.25 143.44 268.57 143.25 269.89 C 137.84 302.95 132.72 336.06 127.44 369.14 C 126.93 372.17 126.25 375.18 126.30 378.27 C 137.20 378.02 148.12 378.58 159.01 377.88 C 167.26 327.29 175.80 276.74 184.04 226.14 C 167.14 226.25 150.20 225.90 133.33 226.28 C 122.97 256.88 112.61 287.48 102.35 318.10 C 101.96 299.43 101.35 280.75 101.26 262.07 C 101.24 250.11 100.37 238.17 100.69 226.21 C 85.12 226.09 69.50 225.95 53.92 226.27 C 49.41 251.47 45.44 276.80 41.06 302.05 M 376.21 236.06 C 369.25 272.90 362.98 309.88 357.93 347.04 C 356.84 354.73 357.38 362.99 361.27 369.88 C 364.68 375.86 371.21 379.60 377.96 380.33 C 387.86 381.17 397.88 379.57 407.20 376.17 C 408.17 367.11 409.88 358.15 410.96 349.10 C 405.38 349.68 399.22 351.16 394.11 348.01 C 390.34 345.65 391.01 340.80 391.61 337.06 C 394.31 321.90 396.34 306.63 399.20 291.50 C 399.59 289.16 399.48 286.68 400.60 284.52 C 406.04 284.49 411.91 285.18 417.10 284.17 C 418.24 274.33 419.97 264.57 420.99 254.71 C 415.72 254.49 410.45 254.66 405.18 254.62 C 406.33 248.46 407.28 242.27 408.55 236.15 C 397.78 235.74 386.99 235.90 376.21 236.06 M 466.86 251.37 C 453.77 252.98 442.20 261.01 434.21 271.24 C 422.15 286.32 416.92 305.92 416.70 325.00 C 416.93 339.18 419.98 354.35 429.99 365.03 C 439.59 375.54 454.12 379.91 467.99 380.45 C 480.68 380.72 493.71 380.11 505.65 375.40 C 507.73 365.10 509.47 354.72 511.47 344.41 C 504.97 346.55 498.61 349.19 491.83 350.39 C 480.57 352.91 467.82 353.52 457.56 347.44 C 450.57 343.29 448.16 334.64 449.26 326.98 C 470.93 326.45 492.63 327.14 514.31 326.63 C 515.76 315.47 518.98 304.40 518.19 293.07 C 517.41 284.49 515.15 275.82 510.29 268.62 C 501.18 254.45 482.86 249.22 466.86 251.37 M 193.47 258.37 C 190.92 267.27 190.14 276.80 188.30 285.95 C 202.54 281.88 217.48 279.34 232.30 281.06 C 236.70 281.49 241.77 283.40 243.16 288.04 C 243.94 291.75 243.86 295.85 242.33 299.36 C 236.27 298.31 230.07 298.54 223.95 298.60 C 209.80 299.47 194.96 303.41 184.58 313.60 C 175.99 321.95 171.97 334.16 172.40 345.99 C 172.09 355.67 174.90 366.05 182.29 372.72 C 189.85 379.87 201.07 381.46 211.01 379.83 C 220.56 378.41 229.43 373.40 235.75 366.13 C 235.48 370.05 235.08 373.97 234.70 377.89 C 244.22 377.84 253.73 377.87 263.25 377.85 C 267.03 349.24 271.13 320.66 275.42 292.12 C 276.21 281.48 273.45 269.94 265.67 262.27 C 258.83 255.58 249.23 252.73 239.93 251.74 C 224.23 250.64 208.20 252.77 193.47 258.37 M 298.98 258.92 C 290.64 263.86 284.65 272.51 282.89 282.03 C 280.88 291.64 281.07 302.24 285.88 311.02 C 290.50 319.48 299.14 324.53 307.55 328.57 C 311.94 330.96 316.88 332.87 320.05 336.92 C 322.64 340.16 322.03 345.23 319.19 348.13 C 316.80 350.63 313.29 351.58 309.99 352.17 C 298.87 353.50 287.64 351.65 276.95 348.58 C 275.84 348.16 274.67 348.08 273.50 348.12 C 272.36 357.47 270.38 366.73 269.53 376.11 C 284.01 380.11 299.16 379.81 314.04 379.54 C 325.21 378.86 336.95 375.18 344.55 366.55 C 351.03 359.38 353.70 349.51 353.55 340.00 C 353.90 330.52 351.56 320.26 344.57 313.44 C 338.93 307.47 331.06 304.61 323.82 301.15 C 320.99 299.67 317.98 297.94 316.46 294.99 C 315.03 292.44 315.47 289.28 316.68 286.74 C 318.47 283.42 322.37 282.13 325.86 281.56 C 335.57 280.77 345.29 281.82 354.98 282.45 C 356.22 273.02 357.57 263.61 358.86 254.19 C 347.42 251.95 335.72 251.39 324.09 251.76 C 315.38 252.45 306.51 254.30 298.98 258.92 Z" />
<path fill="#c70003" opacity="1.00" d=" M 928.83 235.52 C 931.48 235.32 934.15 235.41 936.80 235.74 C 934.86 246.52 933.31 257.37 931.54 268.18 C 929.41 266.18 927.40 264.06 925.25 262.08 C 926.16 253.19 927.72 244.38 928.83 235.52 Z" />
<path fill="#c70003" opacity="1.00" d=" M 656.77 256.02 C 666.90 254.08 677.29 256.77 686.47 261.07 C 685.86 265.43 685.26 269.80 684.67 274.17 C 674.38 268.57 662.79 263.95 650.85 265.38 C 644.20 266.15 638.28 269.44 632.89 273.22 C 638.33 264.79 646.82 258.08 656.77 256.02 Z" />
<path fill="#c70003" opacity="1.00" d=" M 694.56 268.08 C 698.94 266.05 703.70 264.79 708.43 263.79 C 707.06 271.19 706.08 278.67 704.69 286.07 C 715.83 282.72 727.37 280.46 739.04 280.57 C 744.66 280.61 750.68 280.54 755.76 283.25 C 761.27 286.43 759.98 293.84 759.08 299.07 C 754.36 299.00 749.64 298.28 744.91 298.47 C 743.31 294.62 740.11 291.70 735.86 291.23 C 720.41 288.72 704.60 291.49 689.68 295.70 C 691.07 286.47 692.32 277.11 694.56 268.08 Z" />
<path fill="#c70003" opacity="1.00" d=" M 795.68 264.20 C 798.08 263.94 800.50 263.85 802.93 263.94 C 796.77 302.09 790.73 340.26 784.48 378.40 C 793.13 378.35 801.79 378.43 810.45 378.35 C 810.08 381.61 809.67 384.86 809.23 388.12 C 798.25 388.32 787.26 388.16 776.28 388.21 C 776.32 384.70 776.93 381.23 777.84 377.85 C 778.26 377.82 779.11 377.76 779.53 377.73 C 783.81 348.06 787.81 318.35 792.36 288.72 C 792.66 280.47 794.96 272.43 795.68 264.20 Z" />
<path fill="#c70003" opacity="1.00" d=" M 851.90 285.06 C 855.92 279.05 860.62 273.08 867.03 269.52 C 851.02 288.93 844.81 315.29 848.01 340.02 C 849.73 350.78 853.84 361.55 861.53 369.49 C 868.06 376.33 877.53 380.31 887.03 379.80 C 898.17 380.31 908.60 374.75 916.45 367.20 C 915.60 370.69 915.33 374.28 915.02 377.85 C 923.15 377.88 931.28 377.87 939.42 377.85 C 939.03 381.18 938.49 384.49 937.87 387.78 C 927.40 387.63 916.89 388.26 906.46 387.47 C 907.02 384.00 907.44 380.51 907.86 377.03 C 895.77 390.06 874.07 394.17 858.96 384.06 C 848.47 377.10 842.82 365.03 840.18 353.07 C 837.14 335.97 838.92 318.26 844.07 301.74 C 837.90 301.38 833.48 306.09 829.80 310.36 C 831.68 303.83 833.79 296.81 838.99 292.11 C 842.29 289.14 846.93 289.33 850.96 290.42 C 851.23 288.62 851.52 286.83 851.90 285.06 Z" />
<path fill="#c70003" opacity="1.00" d=" M 464.52 281.64 C 470.62 278.79 479.08 278.82 483.81 284.21 C 487.74 288.98 487.94 295.55 487.41 301.43 C 475.69 301.45 463.97 301.46 452.25 301.49 C 453.26 293.61 457.24 285.44 464.52 281.64 Z" />
<path fill="#c70003" opacity="1.00" d=" M 900.89 284.12 C 907.55 281.90 916.17 283.75 919.68 290.31 C 923.78 298.10 923.99 307.36 923.11 315.94 C 921.55 326.67 918.05 338.41 908.82 345.01 C 914.51 334.06 916.18 321.26 914.38 309.13 C 913.27 303.51 911.10 297.13 905.51 294.55 C 899.94 291.60 893.13 292.87 887.94 296.02 C 890.50 290.61 895.18 286.05 900.89 284.12 Z" />
<path fill="#c70003" opacity="1.00" d=" M 674.62 343.89 C 676.71 329.07 688.08 316.62 702.25 312.24 C 690.65 322.55 687.03 339.21 689.32 354.08 C 690.47 363.07 695.46 371.86 703.54 376.31 C 712.66 381.59 723.92 381.20 733.77 378.36 C 731.69 381.83 727.90 383.65 724.55 385.65 C 715.33 390.11 704.43 391.55 694.52 388.72 C 685.71 386.14 678.07 379.01 675.82 369.99 C 677.46 360.41 678.86 350.79 680.55 341.22 C 678.56 342.10 676.60 343.02 674.62 343.89 Z" />
<path fill="#c70003" opacity="1.00" d=" M 213.03 325.99 C 220.82 322.27 229.81 322.15 238.27 322.86 C 238.44 332.35 235.17 342.50 228.00 349.01 C 222.14 354.24 211.36 355.71 206.07 348.97 C 200.52 341.34 204.81 329.78 213.03 325.99 Z" />
<path fill="#c70003" opacity="1.00" d=" M 722.02 333.20 C 725.78 325.44 735.22 323.25 743.09 322.64 C 746.88 322.69 751.08 321.89 754.63 323.33 C 754.96 330.25 752.77 337.13 749.35 343.08 C 745.95 348.79 740.03 353.12 733.25 353.49 C 736.26 346.90 737.98 339.77 737.69 332.49 C 732.45 332.11 727.19 332.32 722.02 333.20 Z" />
<path fill="#c70003" opacity="1.00" d=" M 736.39 377.30 C 742.44 375.03 747.75 371.09 751.91 366.17 C 751.75 370.07 751.43 373.95 751.10 377.84 C 756.05 377.87 761.01 377.87 765.97 377.86 C 765.39 381.00 765.18 384.21 764.42 387.33 C 763.13 388.16 761.42 387.67 759.98 387.85 C 751.98 387.76 743.98 387.88 735.99 387.79 C 735.99 384.29 736.06 380.79 736.39 377.30 Z" />
</g>
<g id="#ff9900ff">
<path fill="#ff9900" opacity="1.00" d=" M 600.05 17.87 C 642.10 2.74 687.57 -2.38 731.99 2.16 C 775.04 6.58 817.08 20.58 854.19 42.86 C 912.69 77.74 958.71 133.15 981.86 197.24 C 993.46 228.59 999.25 261.93 1000.00 295.30 L 1000.00 304.74 C 999.27 338.12 993.48 371.46 981.90 402.81 C 963.93 452.46 932.33 497.02 891.69 530.70 C 864.90 552.99 834.16 570.54 801.33 582.24 C 758.82 597.51 712.83 602.67 667.96 597.82 C 605.88 591.22 546.03 564.43 500.00 522.21 C 511.09 512.02 521.71 501.23 531.06 489.40 C 511.36 489.30 491.66 489.44 471.97 489.36 C 469.36 489.71 468.18 487.01 466.70 485.40 C 460.14 476.75 453.18 468.24 448.16 458.59 C 483.27 458.42 518.39 458.62 553.51 458.50 C 559.68 448.00 565.70 437.40 570.86 426.36 C 524.54 426.30 478.21 426.41 431.90 426.31 C 429.48 426.79 429.14 424.06 428.29 422.49 C 424.63 413.46 420.49 404.57 417.88 395.16 C 469.59 395.10 521.31 395.16 573.02 395.14 C 576.32 395.07 579.66 395.42 582.94 394.84 C 586.69 386.22 588.49 376.87 590.91 367.81 C 598.71 378.70 610.61 386.50 623.76 389.18 C 637.87 392.09 652.45 389.78 666.21 386.21 C 667.28 383.61 667.44 380.74 667.99 378.01 C 670.13 377.47 672.28 376.97 674.44 376.48 C 674.95 374.33 675.43 372.16 675.82 369.99 C 678.07 379.01 685.71 386.14 694.52 388.72 C 704.43 391.55 715.33 390.11 724.55 385.65 C 727.90 383.65 731.69 381.83 733.77 378.36 C 734.64 378.02 735.51 377.66 736.39 377.30 C 736.06 380.79 735.99 384.29 735.99 387.79 C 743.98 387.88 751.98 387.76 759.98 387.85 C 761.42 387.67 763.13 388.16 764.42 387.33 C 765.18 384.21 765.39 381.00 765.97 377.86 C 769.92 377.81 773.88 377.90 777.84 377.85 C 776.93 381.23 776.32 384.70 776.28 388.21 C 787.26 388.16 798.25 388.32 809.23 388.12 C 809.67 384.86 810.08 381.61 810.45 378.35 C 812.80 378.32 815.16 378.31 817.52 378.30 C 820.83 360.22 823.07 341.96 826.57 323.91 C 827.42 319.34 828.28 314.76 829.80 310.36 C 833.48 306.09 837.90 301.38 844.07 301.74 C 838.92 318.26 837.14 335.97 840.18 353.07 C 842.82 365.03 848.47 377.10 858.96 384.06 C 874.07 394.17 895.77 390.06 907.86 377.03 C 907.44 380.51 907.02 384.00 906.46 387.47 C 916.89 388.26 927.40 387.63 937.87 387.78 C 938.49 384.49 939.03 381.18 939.42 377.85 C 941.66 377.84 943.91 377.86 946.16 377.89 C 951.09 346.92 956.15 315.97 961.04 284.99 C 964.37 265.51 967.05 245.91 970.64 226.47 C 959.89 225.86 949.09 226.33 938.32 226.24 C 937.81 229.40 937.36 232.58 936.80 235.74 C 934.15 235.41 931.48 235.32 928.83 235.52 C 927.72 244.38 926.16 253.19 925.25 262.08 C 917.76 255.64 907.92 251.44 897.92 252.40 C 885.63 253.23 875.10 260.70 867.03 269.52 C 860.62 273.08 855.92 279.05 851.90 285.06 C 853.73 273.95 857.78 263.40 862.47 253.24 C 856.89 252.55 850.88 252.81 846.08 256.09 C 839.83 259.93 835.57 266.03 831.37 271.87 C 832.75 266.19 833.47 260.38 834.41 254.62 C 824.50 254.57 814.58 254.66 804.67 254.57 C 804.06 257.69 803.49 260.81 802.93 263.94 C 800.50 263.85 798.08 263.94 795.68 264.20 C 794.96 272.43 792.66 280.47 792.36 288.72 C 791.42 280.74 790.11 272.38 785.11 265.80 C 778.47 256.59 766.87 252.78 756.00 251.72 C 740.26 250.61 724.27 252.92 709.49 258.42 C 709.11 260.21 708.76 261.99 708.43 263.79 C 703.70 264.79 698.94 266.05 694.56 268.08 C 692.32 277.11 691.07 286.47 689.68 295.70 C 704.60 291.49 720.41 288.72 735.86 291.23 C 740.11 291.70 743.31 294.62 744.91 298.47 C 729.80 298.64 713.94 302.14 702.25 312.24 C 688.08 316.62 676.71 329.07 674.62 343.89 C 665.93 347.45 656.38 350.71 646.90 348.65 C 638.96 347.27 631.65 342.35 627.69 335.29 C 621.70 324.99 621.65 312.57 623.11 301.08 C 624.55 291.31 627.22 281.44 632.89 273.22 C 638.28 269.44 644.20 266.15 650.85 265.38 C 662.79 263.95 674.38 268.57 684.67 274.17 C 685.26 269.80 685.86 265.43 686.47 261.07 C 688.56 262.16 690.66 263.25 692.83 264.21 C 694.33 252.88 696.41 241.63 697.85 230.30 C 682.59 225.01 666.17 220.47 649.96 223.81 C 639.84 225.51 630.56 230.26 622.22 236.07 C 613.27 239.76 605.82 246.34 599.50 253.54 C 598.53 255.39 596.65 253.74 595.23 253.54 L 594.90 253.45 C 594.02 247.71 593.19 241.93 591.77 236.31 C 587.88 235.57 583.90 236.02 579.98 235.93 C 523.01 235.86 466.03 236.06 409.06 235.83 C 410.96 225.16 414.14 214.76 417.42 204.45 C 472.61 204.36 527.80 204.66 582.98 204.31 C 579.46 193.75 575.34 183.38 570.55 173.33 C 570.02 171.90 568.14 172.51 567.02 172.31 C 521.51 172.36 476.00 172.43 430.49 172.28 C 435.08 161.48 440.90 151.16 447.28 141.33 C 450.15 140.84 453.08 141.11 455.98 141.08 C 485.00 141.10 514.02 141.07 543.04 141.09 C 546.33 141.14 549.65 141.25 552.92 140.69 C 545.93 130.24 538.83 119.84 530.76 110.19 C 530.08 109.28 529.19 108.82 528.08 108.81 C 509.05 108.56 490.00 109.10 470.99 108.55 C 479.34 99.38 487.76 90.23 497.14 82.08 C 498.33 80.83 500.33 79.84 500.24 77.86 C 501.84 75.93 503.80 74.36 505.70 72.74 C 533.44 48.90 565.56 30.12 600.05 17.87 M 966.42 359.52 C 963.49 360.58 961.05 363.04 960.23 366.08 C 958.29 371.75 962.99 378.40 968.97 378.60 C 975.08 379.30 980.69 373.07 979.36 367.06 C 978.53 361.29 971.85 357.32 966.42 359.52 Z" />
<path fill="#ff9900" opacity="1.00" d=" M 887.94 296.02 C 893.13 292.87 899.94 291.60 905.51 294.55 C 911.10 297.13 913.27 303.51 914.38 309.13 C 916.18 321.26 914.51 334.06 908.82 345.01 L 908.59 345.51 C 903.62 348.68 897.11 349.89 891.61 347.43 C 885.97 344.90 883.01 338.75 882.11 332.93 C 880.24 320.59 881.80 307.55 887.37 296.31 L 887.94 296.02 Z" />
<path fill="#ff9900" opacity="1.00" d=" M 722.02 333.20 C 727.19 332.32 732.45 332.11 737.69 332.49 C 737.98 339.77 736.26 346.90 733.25 353.49 C 729.36 353.62 725.17 352.47 722.71 349.29 C 719.06 344.79 719.74 338.36 721.60 333.26 L 722.02 333.20 Z" />
<path fill="#ff9900" opacity="1.00" d=" M 962.49 365.57 C 964.32 360.67 971.33 359.32 975.03 362.90 C 978.95 366.22 978.28 373.35 973.63 375.66 C 971.22 377.23 968.29 376.48 965.65 376.27 C 967.57 374.35 966.81 371.51 967.90 369.30 C 970.77 370.19 970.85 374.81 974.19 374.27 C 973.48 372.68 972.54 371.22 971.49 369.86 C 972.68 368.62 974.43 366.97 973.25 365.12 C 971.50 362.63 968.07 363.88 965.52 363.57 C 964.52 367.22 966.89 371.85 963.84 374.71 C 962.25 371.99 960.79 368.59 962.49 365.57 Z" />
<path fill="#ff9900" opacity="1.00" d=" M 967.32 365.26 C 968.72 365.55 970.86 364.79 971.68 366.36 C 971.90 368.79 968.62 367.91 967.14 367.94 C 967.18 367.27 967.27 365.93 967.32 365.26 Z" />
<path fill="#ff9900" opacity="1.00" d=" M 965.32 457.44 C 971.41 454.07 979.80 459.00 979.62 466.00 C 980.19 473.22 971.38 478.61 965.18 474.89 C 958.30 471.67 958.43 460.57 965.32 457.44 M 967.55 458.65 C 961.04 460.22 959.97 470.17 965.91 473.13 C 970.89 476.37 978.14 471.98 977.69 466.10 C 977.87 461.04 972.29 456.97 967.55 458.65 Z" />
<path fill="#ff9900" opacity="1.00" d=" M 965.49 461.31 C 968.12 461.54 972.04 459.97 973.60 462.91 C 974.24 464.77 972.92 466.04 971.69 467.20 C 972.73 468.67 973.89 470.16 974.01 472.05 C 970.70 471.85 970.98 466.83 967.45 467.10 C 967.43 468.65 967.42 470.21 967.43 471.78 L 965.71 471.66 C 965.28 468.23 965.63 464.75 965.49 461.31 M 967.28 463.17 C 967.33 463.78 967.44 465.01 967.49 465.62 C 968.82 465.26 971.77 466.24 971.66 464.07 C 971.53 461.81 968.63 463.02 967.28 463.17 Z" />
</g>
<g id="#ffffffff">
<path fill="#ffffff" opacity="1.00" d=" M 649.96 223.81 C 666.17 220.47 682.59 225.01 697.85 230.30 C 696.41 241.63 694.33 252.88 692.83 264.21 C 690.66 263.25 688.56 262.16 686.47 261.07 C 677.29 256.77 666.90 254.08 656.77 256.02 C 646.82 258.08 638.33 264.79 632.89 273.22 C 627.22 281.44 624.55 291.31 623.11 301.08 C 621.65 312.57 621.70 324.99 627.69 335.29 C 631.65 342.35 638.96 347.27 646.90 348.65 C 656.38 350.71 665.93 347.45 674.62 343.89 C 676.60 343.02 678.56 342.10 680.55 341.22 C 678.86 350.79 677.46 360.41 675.82 369.99 C 675.43 372.16 674.95 374.33 674.44 376.48 C 672.28 376.97 670.13 377.47 667.99 378.01 C 657.56 380.29 646.77 381.58 636.14 380.07 C 624.54 378.55 613.21 373.33 605.32 364.55 C 594.96 353.36 590.59 337.96 589.51 323.05 C 588.62 306.83 590.04 290.26 595.40 274.84 C 600.45 259.73 609.67 245.97 622.22 236.07 C 630.56 230.26 639.84 225.51 649.96 223.81 Z" />
<path fill="#ffffff" opacity="1.00" d=" M 41.06 302.05 C 45.44 276.80 49.41 251.47 53.92 226.27 C 69.50 225.95 85.12 226.09 100.69 226.21 C 100.37 238.17 101.24 250.11 101.26 262.07 C 101.35 280.75 101.96 299.43 102.35 318.10 C 112.61 287.48 122.97 256.88 133.33 226.28 C 150.20 225.90 167.14 226.25 184.04 226.14 C 175.80 276.74 167.26 327.29 159.01 377.88 C 148.12 378.58 137.20 378.02 126.30 378.27 C 126.25 375.18 126.93 372.17 127.44 369.14 C 132.72 336.06 137.84 302.95 143.25 269.89 C 143.44 268.57 143.44 267.25 143.47 265.93 C 137.90 283.27 131.20 300.23 125.24 317.43 C 118.28 336.83 111.31 356.22 104.44 375.64 C 104.00 376.58 103.86 378.29 102.43 378.11 C 95.45 378.31 88.47 378.16 81.48 378.26 C 80.46 359.86 80.72 341.41 79.79 323.01 C 79.61 311.69 79.35 300.36 79.24 289.04 C 79.03 286.05 78.43 283.08 78.97 280.09 C 78.40 275.10 78.78 270.05 78.42 265.04 C 74.27 292.05 69.19 318.91 64.83 345.89 C 62.81 356.39 61.42 367.00 59.39 377.50 C 58.35 378.65 56.39 377.91 55.00 378.16 C 46.14 378.30 37.27 378.14 28.42 378.28 C 32.40 352.84 36.91 327.47 41.06 302.05 Z" />
<path fill="#ffffff" opacity="1.00" d=" M 938.32 226.24 C 949.09 226.33 959.89 225.86 970.64 226.47 C 967.05 245.91 964.37 265.51 961.04 284.99 C 956.15 315.97 951.09 346.92 946.16 377.89 C 943.91 377.86 941.66 377.84 939.42 377.85 C 931.28 377.87 923.15 377.88 915.02 377.85 C 915.33 374.28 915.60 370.69 916.45 367.20 C 908.60 374.75 898.17 380.31 887.03 379.80 C 877.53 380.31 868.06 376.33 861.53 369.49 C 853.84 361.55 849.73 350.78 848.01 340.02 C 844.81 315.29 851.02 288.93 867.03 269.52 C 875.10 260.70 885.63 253.23 897.92 252.40 C 907.92 251.44 917.76 255.64 925.25 262.08 C 927.40 264.06 929.41 266.18 931.54 268.18 C 933.31 257.37 934.86 246.52 936.80 235.74 C 937.36 232.58 937.81 229.40 938.32 226.24 M 900.89 284.12 C 895.18 286.05 890.50 290.61 887.94 296.02 L 887.37 296.31 C 881.80 307.55 880.24 320.59 882.11 332.93 C 883.01 338.75 885.97 344.90 891.61 347.43 C 897.11 349.89 903.62 348.68 908.59 345.51 L 908.82 345.01 C 918.05 338.41 921.55 326.67 923.11 315.94 C 923.99 307.36 923.78 298.10 919.68 290.31 C 916.17 283.75 907.55 281.90 900.89 284.12 Z" />
<path fill="#ffffff" opacity="1.00" d=" M 376.21 236.06 C 386.99 235.90 397.78 235.74 408.55 236.15 C 407.28 242.27 406.33 248.46 405.18 254.62 C 410.45 254.66 415.72 254.49 420.99 254.71 C 419.97 264.57 418.24 274.33 417.10 284.17 C 411.91 285.18 406.04 284.49 400.60 284.52 C 399.48 286.68 399.59 289.16 399.20 291.50 C 396.34 306.63 394.31 321.90 391.61 337.06 C 391.01 340.80 390.34 345.65 394.11 348.01 C 399.22 351.16 405.38 349.68 410.96 349.10 C 409.88 358.15 408.17 367.11 407.20 376.17 C 397.88 379.57 387.86 381.17 377.96 380.33 C 371.21 379.60 364.68 375.86 361.27 369.88 C 357.38 362.99 356.84 354.73 357.93 347.04 C 362.98 309.88 369.25 272.90 376.21 236.06 Z" />
<path fill="#ffffff" opacity="1.00" d=" M 466.86 251.37 C 482.86 249.22 501.18 254.45 510.29 268.62 C 515.15 275.82 517.41 284.49 518.19 293.07 C 518.98 304.40 515.76 315.47 514.31 326.63 C 492.63 327.14 470.93 326.45 449.26 326.98 C 448.16 334.64 450.57 343.29 457.56 347.44 C 467.82 353.52 480.57 352.91 491.83 350.39 C 498.61 349.19 504.97 346.55 511.47 344.41 C 509.47 354.72 507.73 365.10 505.65 375.40 C 493.71 380.11 480.68 380.72 467.99 380.45 C 454.12 379.91 439.59 375.54 429.99 365.03 C 419.98 354.35 416.93 339.18 416.70 325.00 C 416.92 305.92 422.15 286.32 434.21 271.24 C 442.20 261.01 453.77 252.98 466.86 251.37 M 464.52 281.64 C 457.24 285.44 453.26 293.61 452.25 301.49 C 463.97 301.46 475.69 301.45 487.41 301.43 C 487.94 295.55 487.74 288.98 483.81 284.21 C 479.08 278.82 470.62 278.79 464.52 281.64 Z" />
<path fill="#ffffff" opacity="1.00" d=" M 193.47 258.37 C 208.20 252.77 224.23 250.64 239.93 251.74 C 249.23 252.73 258.83 255.58 265.67 262.27 C 273.45 269.94 276.21 281.48 275.42 292.12 C 271.13 320.66 267.03 349.24 263.25 377.85 C 253.73 377.87 244.22 377.84 234.70 377.89 C 235.08 373.97 235.48 370.05 235.75 366.13 C 229.43 373.40 220.56 378.41 211.01 379.83 C 201.07 381.46 189.85 379.87 182.29 372.72 C 174.90 366.05 172.09 355.67 172.40 345.99 C 171.97 334.16 175.99 321.95 184.58 313.60 C 194.96 303.41 209.80 299.47 223.95 298.60 C 230.07 298.54 236.27 298.31 242.33 299.36 C 243.86 295.85 243.94 291.75 243.16 288.04 C 241.77 283.40 236.70 281.49 232.30 281.06 C 217.48 279.34 202.54 281.88 188.30 285.95 C 190.14 276.80 190.92 267.27 193.47 258.37 M 213.03 325.99 C 204.81 329.78 200.52 341.34 206.07 348.97 C 211.36 355.71 222.14 354.24 228.00 349.01 C 235.17 342.50 238.44 332.35 238.27 322.86 C 229.81 322.15 220.82 322.27 213.03 325.99 Z" />
<path fill="#ffffff" opacity="1.00" d=" M 298.98 258.92 C 306.51 254.30 315.38 252.45 324.09 251.76 C 335.72 251.39 347.42 251.95 358.86 254.19 C 357.57 263.61 356.22 273.02 354.98 282.45 C 345.29 281.82 335.57 280.77 325.86 281.56 C 322.37 282.13 318.47 283.42 316.68 286.74 C 315.47 289.28 315.03 292.44 316.46 294.99 C 317.98 297.94 320.99 299.67 323.82 301.15 C 331.06 304.61 338.93 307.47 344.57 313.44 C 351.56 320.26 353.90 330.52 353.55 340.00 C 353.70 349.51 351.03 359.38 344.55 366.55 C 336.95 375.18 325.21 378.86 314.04 379.54 C 299.16 379.81 284.01 380.11 269.53 376.11 C 270.38 366.73 272.36 357.47 273.50 348.12 C 274.67 348.08 275.84 348.16 276.95 348.58 C 287.64 351.65 298.87 353.50 309.99 352.17 C 313.29 351.58 316.80 350.63 319.19 348.13 C 322.03 345.23 322.64 340.16 320.05 336.92 C 316.88 332.87 311.94 330.96 307.55 328.57 C 299.14 324.53 290.50 319.48 285.88 311.02 C 281.07 302.24 280.88 291.64 282.89 282.03 C 284.65 272.51 290.64 263.86 298.98 258.92 Z" />
<path fill="#ffffff" opacity="1.00" d=" M 709.49 258.42 C 724.27 252.92 740.26 250.61 756.00 251.72 C 766.87 252.78 778.47 256.59 785.11 265.80 C 790.11 272.38 791.42 280.74 792.36 288.72 C 787.81 318.35 783.81 348.06 779.53 377.73 C 779.11 377.76 778.26 377.82 777.84 377.85 C 773.88 377.90 769.92 377.81 765.97 377.86 C 761.01 377.87 756.05 377.87 751.10 377.84 C 751.43 373.95 751.75 370.07 751.91 366.17 C 747.75 371.09 742.44 375.03 736.39 377.30 C 735.51 377.66 734.64 378.02 733.77 378.36 C 723.92 381.20 712.66 381.59 703.54 376.31 C 695.46 371.86 690.47 363.07 689.32 354.08 C 687.03 339.21 690.65 322.55 702.25 312.24 C 713.94 302.14 729.80 298.64 744.91 298.47 C 749.64 298.28 754.36 299.00 759.08 299.07 C 759.98 293.84 761.27 286.43 755.76 283.25 C 750.68 280.54 744.66 280.61 739.04 280.57 C 727.37 280.46 715.83 282.72 704.69 286.07 C 706.08 278.67 707.06 271.19 708.43 263.79 C 708.76 261.99 709.11 260.21 709.49 258.42 M 722.02 333.20 L 721.60 333.26 C 719.74 338.36 719.06 344.79 722.71 349.29 C 725.17 352.47 729.36 353.62 733.25 353.49 C 740.03 353.12 745.95 348.79 749.35 343.08 C 752.77 337.13 754.96 330.25 754.63 323.33 C 751.08 321.89 746.88 322.69 743.09 322.64 C 735.22 323.25 725.78 325.44 722.02 333.20 Z" />
<path fill="#ffffff" opacity="1.00" d=" M 577.74 256.71 C 582.64 253.13 589.04 252.18 594.90 253.45 L 595.23 253.54 C 589.08 265.03 585.64 277.74 583.34 290.50 C 579.96 289.52 576.12 289.03 573.03 291.10 C 567.16 295.00 564.97 302.16 562.74 308.47 C 556.51 331.35 554.56 355.08 550.06 378.31 C 539.11 378.42 528.16 378.35 517.21 378.42 C 523.49 337.13 530.54 295.96 536.92 254.69 C 546.92 254.56 556.92 254.56 566.92 254.69 C 566.22 259.95 565.20 265.17 564.61 270.46 C 568.71 265.63 572.32 260.21 577.74 256.71 Z" />
<path fill="#ffffff" opacity="1.00" d=" M 846.08 256.09 C 850.88 252.81 856.89 252.55 862.47 253.24 C 857.78 263.40 853.73 273.95 851.90 285.06 C 851.52 286.83 851.23 288.62 850.96 290.42 C 846.93 289.33 842.29 289.14 838.99 292.11 C 833.79 296.81 831.68 303.83 829.80 310.36 C 828.28 314.76 827.42 319.34 826.57 323.91 C 823.07 341.96 820.83 360.22 817.52 378.30 C 815.16 378.31 812.80 378.32 810.45 378.35 C 801.79 378.43 793.13 378.35 784.48 378.40 C 790.73 340.26 796.77 302.09 802.93 263.94 C 803.49 260.81 804.06 257.69 804.67 254.57 C 814.58 254.66 824.50 254.57 834.41 254.62 C 833.47 260.38 832.75 266.19 831.37 271.87 C 835.57 266.03 839.83 259.93 846.08 256.09 Z" />
<path fill="#ffffff" opacity="1.00" d=" M 966.42 359.52 C 971.85 357.32 978.53 361.29 979.36 367.06 C 980.69 373.07 975.08 379.30 968.97 378.60 C 962.99 378.40 958.29 371.75 960.23 366.08 C 961.05 363.04 963.49 360.58 966.42 359.52 M 962.49 365.57 C 960.79 368.59 962.25 371.99 963.84 374.71 C 966.89 371.85 964.52 367.22 965.52 363.57 C 968.07 363.88 971.50 362.63 973.25 365.12 C 974.43 366.97 972.68 368.62 971.49 369.86 C 972.54 371.22 973.48 372.68 974.19 374.27 C 970.85 374.81 970.77 370.19 967.90 369.30 C 966.81 371.51 967.57 374.35 965.65 376.27 C 968.29 376.48 971.22 377.23 973.63 375.66 C 978.28 373.35 978.95 366.22 975.03 362.90 C 971.33 359.32 964.32 360.67 962.49 365.57 M 967.32 365.26 C 967.27 365.93 967.18 367.27 967.14 367.94 C 968.62 367.91 971.90 368.79 971.68 366.36 C 970.86 364.79 968.72 365.55 967.32 365.26 Z" />
</g>
</svg>
