<?xml version="1.0" encoding="UTF-8" ?>
<!DOCTYPE svg PUBLIC "-//W3C//DTD SVG 1.1//EN" "http://www.w3.org/Graphics/SVG/1.1/DTD/svg11.dtd">
<svg width="539pt" height="419pt" viewBox="0 0 539 419" version="1.1" xmlns="http://www.w3.org/2000/svg">
<g id="#ff782eff">
<path fill="#ff782e" opacity="1.00" d=" M 62.65 0.00 L 476.19 0.00 C 493.59 0.93 510.53 8.85 522.10 21.92 C 532.21 33.03 538.09 47.69 539.00 62.65 L 539.00 356.29 C 538.08 371.98 531.63 387.33 520.65 398.64 C 509.20 410.77 493.00 418.03 476.39 419.00 L 62.28 419.00 C 45.08 417.89 28.39 410.04 16.93 397.11 C 6.94 386.18 1.16 371.80 0.00 357.10 L 0.00 62.26 C 1.04 47.46 6.85 32.96 16.88 21.95 C 28.41 8.90 45.30 1.00 62.65 0.00 M 35.38 25.28 C 22.68 34.65 14.89 50.24 15.00 66.02 C 15.00 140.69 15.00 215.36 15.00 290.03 C 14.98 293.11 14.84 296.23 15.52 299.26 C 14.98 300.78 14.97 302.41 14.96 304.01 C 15.07 320.68 14.96 337.35 14.99 354.02 C 15.29 369.15 22.56 384.14 34.73 393.22 C 43.58 400.15 54.71 404.07 65.96 404.02 C 135.55 403.92 205.15 404.13 274.74 403.90 C 341.17 404.18 407.60 403.89 474.03 404.01 C 493.65 403.78 512.31 391.11 519.92 373.06 C 525.26 361.41 523.83 348.39 524.00 335.97 C 524.00 250.34 524.00 164.71 524.00 79.08 C 523.88 69.57 524.76 59.79 521.63 50.63 C 515.35 29.92 494.72 14.68 473.04 15.02 C 337.69 14.97 202.33 15.02 66.98 15.00 C 55.68 14.78 44.37 18.42 35.38 25.28 Z" />
<path fill="#ff782e" opacity="1.00" d=" M 344.21 105.36 C 354.43 104.17 365.06 106.49 373.65 112.23 C 385.58 119.93 393.35 133.72 393.58 147.94 C 394.01 159.76 389.36 171.66 381.03 180.05 C 372.59 188.91 360.27 193.79 348.06 193.37 C 335.84 193.04 323.92 187.31 315.98 178.02 C 305.57 166.25 302.45 148.70 307.96 134.01 C 313.39 118.65 328.01 107.09 344.21 105.36 Z" />
</g>
<g id="#e77435ff">
<path fill="#e77435" opacity="1.00" d=" M 160.78 134.84 C 161.84 133.50 163.58 130.85 165.41 132.59 C 223.79 198.44 282.37 264.10 340.74 329.96 C 321.91 351.09 303.11 372.23 284.22 393.31 C 281.02 396.80 278.20 400.64 274.74 403.90 C 205.15 404.13 135.55 403.92 65.96 404.02 C 54.71 404.07 43.58 400.15 34.73 393.22 C 22.56 384.14 15.29 369.15 14.99 354.02 C 14.96 337.35 15.07 320.68 14.96 304.01 C 14.97 302.41 14.98 300.78 15.52 299.26 C 16.58 296.31 19.06 294.28 21.10 292.03 C 67.63 239.61 114.25 187.26 160.78 134.84 Z" />
</g>
<g id="#e37031ff">
<path fill="#e37031" opacity="1.00" d=" M 340.74 329.96 C 364.43 303.73 387.72 277.13 411.29 250.80 C 447.44 291.60 483.72 332.30 519.92 373.06 C 512.31 391.11 493.65 403.78 474.03 404.01 C 407.60 403.89 341.17 404.18 274.74 403.90 C 278.20 400.64 281.02 396.80 284.22 393.31 C 303.11 372.23 321.91 351.09 340.74 329.96 Z" />
</g>
</svg>
