<?xml version="1.0" encoding="UTF-8" ?>
<!DOCTYPE svg PUBLIC "-//W3C//DTD SVG 1.1//EN" "http://www.w3.org/Graphics/SVG/1.1/DTD/svg11.dtd">
<svg width="512pt" height="512pt" viewBox="0 0 512 512" version="1.1" xmlns="http://www.w3.org/2000/svg">
<g id="#0172fbff">
<path fill="#0172fb" opacity="1.00" d=" M 60.03 0.00 L 109.41 0.00 C 105.78 1.96 101.62 3.85 99.76 7.79 C 97.51 11.56 97.98 16.08 98.22 20.26 C 94.02 23.14 94.02 29.87 98.23 32.73 C 97.81 40.48 98.07 48.24 98.01 56.00 C 81.34 56.00 64.67 56.00 48.00 56.00 C 48.01 41.64 47.98 27.28 48.02 12.92 C 48.72 6.58 53.94 1.46 60.03 0.00 M 77.50 19.63 C 72.44 21.59 71.45 29.17 75.84 32.34 C 79.80 35.83 86.80 33.40 87.77 28.22 C 89.46 22.53 82.81 16.97 77.50 19.63 Z" />
</g>
<g id="#0182fcff">
<path fill="#0182fc" opacity="1.00" d=" M 109.41 0.00 L 450.37 0.00 C 458.24 0.74 464.59 8.13 464.00 16.03 C 463.99 29.35 464.01 42.68 464.00 56.00 C 342.00 56.00 220.01 56.00 98.01 56.00 C 98.07 48.24 97.81 40.48 98.23 32.73 C 103.14 36.27 110.71 31.95 109.97 25.90 C 109.73 20.32 102.74 17.07 98.22 20.26 C 97.98 16.08 97.51 11.56 99.76 7.79 C 101.62 3.85 105.78 1.96 109.41 0.00 M 121.52 19.62 C 116.50 21.55 115.44 29.05 119.75 32.27 C 123.71 35.86 130.84 33.43 131.78 28.17 C 133.42 22.49 126.81 17.00 121.52 19.62 M 427.46 19.65 C 422.48 21.61 421.46 29.05 425.74 32.26 C 429.69 35.87 436.85 33.43 437.78 28.16 C 439.43 22.46 432.75 16.96 427.46 19.65 Z" />
</g>
<g id="#fd4755ff">
<path fill="#fd4755" opacity="1.00" d=" M 77.50 19.63 C 82.81 16.97 89.46 22.53 87.77 28.22 C 86.80 33.40 79.80 35.83 75.84 32.34 C 71.45 29.17 72.44 21.59 77.50 19.63 Z" />
</g>
<g id="#fee45aff">
<path fill="#fee45a" opacity="1.00" d=" M 98.22 20.26 C 102.74 17.07 109.73 20.32 109.97 25.90 C 110.71 31.95 103.14 36.27 98.23 32.73 C 94.02 29.87 94.02 23.14 98.22 20.26 Z" />
</g>
<g id="#4fc123ff">
<path fill="#4fc123" opacity="1.00" d=" M 121.52 19.62 C 126.81 17.00 133.42 22.49 131.78 28.17 C 130.84 33.43 123.71 35.86 119.75 32.27 C 115.44 29.05 116.50 21.55 121.52 19.62 Z" />
<path fill="#4fc123" opacity="1.00" d=" M 271.74 88.17 C 282.58 90.97 293.10 95.97 301.55 103.48 C 316.23 116.07 325.12 135.07 325.32 154.42 C 325.39 159.45 324.91 164.49 323.94 169.43 C 322.06 178.46 318.38 187.10 313.14 194.69 C 306.71 203.97 298.02 211.66 287.98 216.83 C 283.32 219.26 278.35 220.99 273.33 222.46 C 259.43 218.11 246.25 210.38 237.29 198.71 C 228.51 187.96 222.98 174.39 222.39 160.49 C 230.76 168.79 239.05 177.19 247.44 185.49 C 250.29 188.39 255.40 188.15 258.11 185.16 C 271.64 171.68 285.15 158.17 298.62 144.63 C 301.63 141.74 301.45 136.37 298.22 133.72 C 295.40 131.14 290.64 131.30 288.02 134.07 C 276.15 145.81 264.46 157.74 252.55 169.43 C 244.71 161.59 236.88 153.74 229.03 145.92 C 227.51 144.24 225.27 143.53 223.06 143.47 C 225.53 129.82 232.02 116.76 242.13 107.15 C 248.40 100.38 256.24 95.09 264.90 91.87 C 267.36 91.00 269.76 89.90 271.74 88.17 Z" />
<path fill="#4fc123" opacity="1.00" d=" M 215.48 383.56 C 257.96 383.98 300.47 383.58 342.96 383.77 C 349.31 383.88 355.59 386.43 360.14 390.88 C 367.40 397.70 369.95 408.98 366.30 418.26 C 362.82 427.81 353.17 434.66 343.00 434.72 C 301.11 434.81 259.22 434.60 217.33 434.82 C 212.62 433.21 207.71 431.51 204.17 427.85 C 200.79 424.87 198.70 420.82 196.95 416.74 C 240.66 416.71 284.36 416.76 328.07 416.72 C 332.50 416.83 336.27 412.35 335.38 408.00 C 334.84 404.06 330.85 401.33 326.99 401.73 C 278.91 401.80 230.82 401.60 182.74 401.83 C 187.37 400.57 192.20 401.70 196.89 400.99 C 199.04 398.06 200.22 394.47 202.82 391.85 C 206.18 387.92 211.21 386.23 215.48 383.56 Z" />
</g>
<g id="#ffffffff">
<path fill="#ffffff" opacity="1.00" d=" M 427.46 19.65 C 432.75 16.96 439.43 22.46 437.78 28.16 C 436.85 33.43 429.69 35.87 425.74 32.26 C 421.46 29.05 422.48 21.61 427.46 19.65 Z" />
<path fill="#ffffff" opacity="1.00" d=" M 288.02 134.07 C 290.64 131.30 295.40 131.14 298.22 133.72 C 301.45 136.37 301.63 141.74 298.62 144.63 C 285.15 158.17 271.64 171.68 258.11 185.16 C 255.40 188.15 250.29 188.39 247.44 185.49 C 239.05 177.19 230.76 168.79 222.39 160.49 C 220.10 157.86 216.60 155.79 216.12 152.05 C 215.41 147.84 218.89 143.82 223.06 143.47 C 225.27 143.53 227.51 144.24 229.03 145.92 C 236.88 153.74 244.71 161.59 252.55 169.43 C 264.46 157.74 276.15 145.81 288.02 134.07 Z" />
<path fill="#ffffff" opacity="1.00" d=" M 176.72 410.99 C 175.59 406.92 178.62 402.48 182.74 401.83 C 230.82 401.60 278.91 401.80 326.99 401.73 C 330.85 401.33 334.84 404.06 335.38 408.00 C 336.27 412.35 332.50 416.83 328.07 416.72 C 284.36 416.76 240.66 416.71 196.95 416.74 C 192.62 416.72 188.29 416.77 183.96 416.73 C 180.60 416.79 177.43 414.27 176.72 410.99 Z" />
</g>
<g id="#e2deffff">
<path fill="#e2deff" opacity="1.00" d=" M 48.00 56.00 C 64.67 56.00 81.34 56.00 98.01 56.00 C 97.99 174.36 98.00 292.72 98.00 411.08 C 97.92 425.43 98.16 439.79 97.84 454.14 C 78.26 437.74 61.17 418.16 47.89 396.35 C 48.14 310.10 47.94 223.85 47.98 137.61 C 48.02 110.40 47.98 83.20 48.00 56.00 Z" />
</g>
<g id="#f3f0ffff">
<path fill="#f3f0ff" opacity="1.00" d=" M 98.01 56.00 C 220.01 56.00 342.00 56.00 464.00 56.00 C 464.02 83.21 463.96 110.42 464.02 137.63 C 464.03 223.86 463.89 310.09 464.10 396.31 C 445.25 426.60 419.72 452.69 389.86 472.21 C 368.25 471.72 346.61 472.14 324.99 472.00 C 265.01 472.00 205.02 472.00 145.03 472.00 C 137.41 472.09 129.78 471.79 122.17 472.18 C 113.66 466.72 105.66 460.52 97.84 454.14 C 98.16 439.79 97.92 425.43 98.00 411.08 C 98.00 292.72 97.99 174.36 98.01 56.00 M 221.77 95.77 C 201.07 107.56 187.54 130.62 187.26 154.40 C 172.84 154.51 158.42 154.41 143.99 154.45 C 138.96 154.03 134.59 159.22 136.19 164.11 C 145.60 206.31 155.01 248.51 164.48 290.70 C 166.15 298.59 173.90 304.49 181.96 304.06 C 228.38 304.08 274.81 304.06 321.24 304.07 C 321.15 309.35 321.28 314.63 321.18 319.91 C 269.78 319.98 218.38 319.90 166.98 319.95 C 163.38 319.81 159.92 322.52 159.35 326.11 C 158.46 330.23 161.74 334.61 165.95 334.89 C 171.40 335.00 176.86 334.90 182.31 334.94 C 175.59 341.66 174.47 353.15 180.28 360.79 C 185.20 367.80 194.92 370.85 202.96 367.85 C 211.10 365.11 216.81 356.64 216.20 348.06 C 216.03 343.14 213.68 338.59 210.49 334.95 C 237.90 334.94 265.31 334.92 292.73 334.95 C 285.48 342.31 284.98 355.17 292.31 362.64 C 297.37 368.22 305.76 370.42 312.92 368.04 C 320.01 365.84 325.54 359.34 326.53 351.97 C 327.46 345.81 325.25 339.33 320.82 334.95 C 327.74 335.91 335.05 331.15 336.01 324.05 C 336.46 316.69 336.11 309.29 336.20 301.92 C 337.51 300.35 337.84 298.20 338.39 296.29 C 349.08 248.12 359.88 199.97 370.60 151.81 C 371.16 149.34 371.55 146.80 372.52 144.45 C 373.91 143.77 375.51 143.97 377.01 143.91 C 388.35 143.95 399.69 143.93 411.03 143.93 C 414.39 144.14 418.06 142.35 419.10 138.97 C 421.04 134.40 417.09 128.67 412.09 128.97 C 399.40 128.90 386.71 128.92 374.01 128.95 C 367.35 128.83 360.89 133.10 358.40 139.29 C 356.56 144.04 356.05 149.16 354.72 154.05 C 353.25 154.73 351.56 154.36 350.01 154.48 C 341.78 154.42 333.55 154.48 325.32 154.42 C 325.12 135.07 316.23 116.07 301.55 103.48 C 293.10 95.97 282.58 90.97 271.74 88.17 C 254.91 84.33 236.69 87.02 221.77 95.77 M 362.37 300.41 C 359.40 302.00 357.88 305.72 358.78 308.96 C 359.54 312.17 362.74 314.53 366.01 314.51 C 380.70 314.60 395.39 314.53 410.08 314.55 C 414.01 314.91 418.03 311.97 418.41 307.94 C 419.13 303.64 415.33 299.33 410.96 299.58 C 396.64 299.49 382.31 299.60 367.98 299.53 C 366.09 299.57 364.08 299.45 362.37 300.41 M 362.35 324.43 C 356.09 327.45 358.12 338.01 365.09 338.43 C 380.08 338.70 395.09 338.48 410.09 338.54 C 413.06 338.72 416.15 337.29 417.57 334.60 C 420.34 329.96 416.54 323.24 411.05 323.58 C 397.03 323.49 383.01 323.60 368.99 323.53 C 366.76 323.59 364.37 323.31 362.35 324.43 M 362.32 348.45 C 359.34 350.04 357.85 353.78 358.80 357.01 C 359.65 360.59 363.42 362.87 367.00 362.55 C 381.68 362.51 396.37 362.62 411.05 362.50 C 415.04 362.60 418.55 358.95 418.47 354.99 C 418.57 351.03 415.06 347.34 411.03 347.58 C 396.70 347.49 382.36 347.60 368.03 347.52 C 366.10 347.56 364.05 347.45 362.32 348.45 M 144.00 409.97 C 143.86 421.44 152.91 432.10 164.10 434.27 C 167.00 435.19 170.07 434.85 173.06 434.92 C 187.82 434.86 202.58 435.05 217.33 434.82 C 259.22 434.60 301.11 434.81 343.00 434.72 C 353.17 434.66 362.82 427.81 366.30 418.26 C 369.95 408.98 367.40 397.70 360.14 390.88 C 355.59 386.43 349.31 383.88 342.96 383.77 C 300.47 383.58 257.96 383.98 215.48 383.56 C 200.33 383.54 185.18 383.55 170.02 383.55 C 155.93 382.99 142.95 395.79 144.00 409.97 Z" />
</g>
<g id="#47a920ff">
<path fill="#47a920" opacity="1.00" d=" M 221.77 95.77 C 236.69 87.02 254.91 84.33 271.74 88.17 C 269.76 89.90 267.36 91.00 264.90 91.87 C 256.24 95.09 248.40 100.38 242.13 107.15 C 232.02 116.76 225.53 129.82 223.06 143.47 C 218.89 143.82 215.41 147.84 216.12 152.05 C 216.60 155.79 220.10 157.86 222.39 160.49 C 222.98 174.39 228.51 187.96 237.29 198.71 C 246.25 210.38 259.43 218.11 273.33 222.46 C 268.87 223.85 264.21 224.08 259.61 224.64 C 254.54 224.99 249.52 224.21 244.50 223.68 C 237.59 222.34 230.86 220.14 224.60 216.91 C 208.10 208.29 195.24 192.87 190.09 174.94 C 188.15 168.28 187.25 161.33 187.26 154.40 C 187.54 130.62 201.07 107.56 221.77 95.77 Z" />
<path fill="#47a920" opacity="1.00" d=" M 144.00 409.97 C 142.95 395.79 155.93 382.99 170.02 383.55 C 185.18 383.55 200.33 383.54 215.48 383.56 C 211.21 386.23 206.18 387.92 202.82 391.85 C 200.22 394.47 199.04 398.06 196.89 400.99 C 192.20 401.70 187.37 400.57 182.74 401.83 C 178.62 402.48 175.59 406.92 176.72 410.99 C 177.43 414.27 180.60 416.79 183.96 416.73 C 188.29 416.77 192.62 416.72 196.95 416.74 C 198.70 420.82 200.79 424.87 204.17 427.85 C 207.71 431.51 212.62 433.21 217.33 434.82 C 202.58 435.05 187.82 434.86 173.06 434.92 C 170.07 434.85 167.00 435.19 164.10 434.27 C 152.91 432.10 143.86 421.44 144.00 409.97 Z" />
</g>
<g id="#cfcae4ff">
<path fill="#cfcae4" opacity="1.00" d=" M 358.40 139.29 C 360.89 133.10 367.35 128.83 374.01 128.95 C 386.71 128.92 399.40 128.90 412.09 128.97 C 417.09 128.67 421.04 134.40 419.10 138.97 C 418.06 142.35 414.39 144.14 411.03 143.93 C 399.69 143.93 388.35 143.95 377.01 143.91 C 375.51 143.97 373.91 143.77 372.52 144.45 C 371.55 146.80 371.16 149.34 370.60 151.81 C 359.88 199.97 349.08 248.12 338.39 296.29 C 337.84 298.20 337.51 300.35 336.20 301.92 C 331.92 305.33 326.24 303.68 321.24 304.07 C 274.81 304.06 228.38 304.08 181.96 304.06 C 173.90 304.49 166.15 298.59 164.48 290.70 C 155.01 248.51 145.60 206.31 136.19 164.11 C 134.59 159.22 138.96 154.03 143.99 154.45 C 158.42 154.41 172.84 154.51 187.26 154.40 C 187.25 161.33 188.15 168.28 190.09 174.94 C 195.24 192.87 208.10 208.29 224.60 216.91 C 219.29 217.13 213.97 216.89 208.66 217.04 C 209.61 225.84 210.57 234.65 211.83 243.41 C 222.71 243.49 233.59 243.51 244.47 243.41 C 244.61 236.83 244.52 230.26 244.50 223.68 C 249.52 224.21 254.54 224.99 259.61 224.64 C 259.50 230.89 259.47 237.15 259.60 243.41 C 270.48 243.51 281.36 243.49 292.24 243.41 C 293.53 234.66 294.45 225.85 295.42 217.06 C 292.94 216.96 290.45 217.01 287.98 216.83 C 298.02 211.66 306.71 203.97 313.14 194.69 C 312.93 197.12 312.58 199.55 312.46 201.99 C 322.97 201.96 333.49 202.10 344.00 201.92 C 346.59 191.21 348.87 180.42 351.26 169.66 C 342.17 169.17 333.04 169.64 323.94 169.43 C 324.91 164.49 325.39 159.45 325.32 154.42 C 333.55 154.48 341.78 154.42 350.01 154.48 C 351.56 154.36 353.25 154.73 354.72 154.05 C 356.05 149.16 356.56 144.04 358.40 139.29 M 152.79 169.53 C 155.16 180.34 157.52 191.16 160.05 201.94 C 170.58 202.08 181.11 201.97 191.64 201.99 C 190.51 191.17 189.13 180.36 187.87 169.55 C 176.18 169.38 164.48 169.43 152.79 169.53 M 163.37 217.09 C 165.32 225.82 167.31 234.54 169.20 243.28 C 178.28 243.70 187.43 243.36 196.53 243.45 C 195.70 234.69 194.46 225.98 193.55 217.23 C 183.53 216.76 173.42 217.03 163.37 217.09 M 310.80 217.00 C 309.30 225.71 308.59 234.63 307.52 243.44 C 316.63 243.43 325.74 243.59 334.84 243.36 C 336.77 234.60 338.74 225.84 340.71 217.09 C 330.74 216.88 320.77 217.05 310.80 217.00 M 173.13 258.44 C 172.75 260.32 173.52 262.17 173.85 264.01 C 175.71 271.94 177.28 279.95 179.28 287.85 C 179.84 289.39 181.69 288.95 182.96 289.07 C 189.29 289.01 195.63 289.13 201.97 289.01 C 200.82 278.85 199.63 268.69 198.35 258.55 C 189.95 258.33 181.54 258.55 173.13 258.44 M 213.51 258.57 C 214.72 268.71 215.85 278.85 217.15 288.98 C 226.28 289.03 235.45 289.29 244.56 288.84 C 244.47 278.73 244.61 268.62 244.49 258.51 C 234.16 258.48 223.83 258.34 213.51 258.57 M 305.70 258.63 C 304.45 268.74 303.25 278.86 302.11 288.98 C 309.62 289.05 317.17 289.24 324.68 288.88 C 326.88 278.76 329.21 268.67 331.41 258.55 C 322.85 258.45 314.25 258.29 305.70 258.63 M 259.56 258.52 C 259.53 268.68 259.47 278.85 259.59 289.02 C 268.70 289.08 277.81 289.10 286.91 289.01 C 288.21 278.85 289.41 268.67 290.51 258.48 C 280.20 258.47 269.88 258.40 259.56 258.52 Z" />
<path fill="#cfcae4" opacity="1.00" d=" M 362.37 300.41 C 364.08 299.45 366.09 299.57 367.98 299.53 C 382.31 299.60 396.64 299.49 410.96 299.58 C 415.33 299.33 419.13 303.64 418.41 307.94 C 418.03 311.97 414.01 314.91 410.08 314.55 C 395.39 314.53 380.70 314.60 366.01 314.51 C 362.74 314.53 359.54 312.17 358.78 308.96 C 357.88 305.72 359.40 302.00 362.37 300.41 Z" />
<path fill="#cfcae4" opacity="1.00" d=" M 362.35 324.43 C 364.37 323.31 366.76 323.59 368.99 323.53 C 383.01 323.60 397.03 323.49 411.05 323.58 C 416.54 323.24 420.34 329.96 417.57 334.60 C 416.15 337.29 413.06 338.72 410.09 338.54 C 395.09 338.48 380.08 338.70 365.09 338.43 C 358.12 338.01 356.09 327.45 362.35 324.43 Z" />
<path fill="#cfcae4" opacity="1.00" d=" M 362.32 348.45 C 364.05 347.45 366.10 347.56 368.03 347.52 C 382.36 347.60 396.70 347.49 411.03 347.58 C 415.06 347.34 418.57 351.03 418.47 354.99 C 418.55 358.95 415.04 362.60 411.05 362.50 C 396.37 362.62 381.68 362.51 367.00 362.55 C 363.42 362.87 359.65 360.59 358.80 357.01 C 357.85 353.78 359.34 350.04 362.32 348.45 Z" />
</g>
<g id="#fed2a4ff">
<path fill="#fed2a4" opacity="1.00" d=" M 14.14 306.12 C 4.68 248.32 16.72 187.20 47.98 137.61 C 47.94 223.85 48.14 310.10 47.89 396.35 C 30.87 368.87 19.19 338.06 14.14 306.12 Z" />
<path fill="#fed2a4" opacity="1.00" d=" M 464.02 137.63 C 490.52 179.81 503.38 230.30 500.61 280.02 C 498.58 321.05 485.81 361.45 464.10 396.31 C 463.89 310.09 464.03 223.86 464.02 137.63 Z" />
<path fill="#fed2a4" opacity="1.00" d=" M 122.17 472.18 C 129.78 471.79 137.41 472.09 145.03 472.00 C 205.02 472.00 265.01 472.00 324.99 472.00 C 346.61 472.14 368.25 471.72 389.86 472.21 C 350.84 497.82 304.37 511.74 257.71 512.00 L 254.29 512.00 C 207.64 511.70 161.17 497.80 122.17 472.18 Z" />
</g>
<g id="#9182b0ff">
<path fill="#9182b0" opacity="1.00" d=" M 323.94 169.43 C 333.04 169.64 342.17 169.17 351.26 169.66 C 348.87 180.42 346.59 191.21 344.00 201.92 C 333.49 202.10 322.97 201.96 312.46 201.99 C 312.58 199.55 312.93 197.12 313.14 194.69 C 318.38 187.10 322.06 178.46 323.94 169.43 Z" />
<path fill="#9182b0" opacity="1.00" d=" M 152.79 169.53 C 164.48 169.43 176.18 169.38 187.87 169.55 C 189.13 180.36 190.51 191.17 191.64 201.99 C 181.11 201.97 170.58 202.08 160.05 201.94 C 157.52 191.16 155.16 180.34 152.79 169.53 Z" />
<path fill="#9182b0" opacity="1.00" d=" M 163.37 217.09 C 173.42 217.03 183.53 216.76 193.55 217.23 C 194.46 225.98 195.70 234.69 196.53 243.45 C 187.43 243.36 178.28 243.70 169.20 243.28 C 167.31 234.54 165.32 225.82 163.37 217.09 Z" />
<path fill="#9182b0" opacity="1.00" d=" M 208.66 217.04 C 213.97 216.89 219.29 217.13 224.60 216.91 C 230.86 220.14 237.59 222.34 244.50 223.68 C 244.52 230.26 244.61 236.83 244.47 243.41 C 233.59 243.51 222.71 243.49 211.83 243.41 C 210.57 234.65 209.61 225.84 208.66 217.04 Z" />
<path fill="#9182b0" opacity="1.00" d=" M 273.33 222.46 C 278.35 220.99 283.32 219.26 287.98 216.83 C 290.45 217.01 292.94 216.96 295.42 217.06 C 294.45 225.85 293.53 234.66 292.24 243.41 C 281.36 243.49 270.48 243.51 259.60 243.41 C 259.47 237.15 259.50 230.89 259.61 224.64 C 264.21 224.08 268.87 223.85 273.33 222.46 Z" />
<path fill="#9182b0" opacity="1.00" d=" M 310.80 217.00 C 320.77 217.05 330.74 216.88 340.71 217.09 C 338.74 225.84 336.77 234.60 334.84 243.36 C 325.74 243.59 316.63 243.43 307.52 243.44 C 308.59 234.63 309.30 225.71 310.80 217.00 Z" />
<path fill="#9182b0" opacity="1.00" d=" M 173.13 258.44 C 181.54 258.55 189.95 258.33 198.35 258.55 C 199.63 268.69 200.82 278.85 201.97 289.01 C 195.63 289.13 189.29 289.01 182.96 289.07 C 181.69 288.95 179.84 289.39 179.28 287.85 C 177.28 279.95 175.71 271.94 173.85 264.01 C 173.52 262.17 172.75 260.32 173.13 258.44 Z" />
<path fill="#9182b0" opacity="1.00" d=" M 213.51 258.57 C 223.83 258.34 234.16 258.48 244.49 258.51 C 244.61 268.62 244.47 278.73 244.56 288.84 C 235.45 289.29 226.28 289.03 217.15 288.98 C 215.85 278.85 214.72 268.71 213.51 258.57 Z" />
<path fill="#9182b0" opacity="1.00" d=" M 305.70 258.63 C 314.25 258.29 322.85 258.45 331.41 258.55 C 329.21 268.67 326.88 278.76 324.68 288.88 C 317.17 289.24 309.62 289.05 302.11 288.98 C 303.25 278.86 304.45 268.74 305.70 258.63 Z" />
<path fill="#9182b0" opacity="1.00" d=" M 259.56 258.52 C 269.88 258.40 280.20 258.47 290.51 258.48 C 289.41 268.67 288.21 278.85 286.91 289.01 C 277.81 289.10 268.70 289.08 259.59 289.02 C 259.47 278.85 259.53 268.68 259.56 258.52 Z" />
<path fill="#9182b0" opacity="1.00" d=" M 321.24 304.07 C 326.24 303.68 331.92 305.33 336.20 301.92 C 336.11 309.29 336.46 316.69 336.01 324.05 C 335.05 331.15 327.74 335.91 320.82 334.95 C 311.46 334.93 302.09 334.92 292.73 334.95 C 265.31 334.92 237.90 334.94 210.49 334.95 C 201.09 334.93 191.70 334.94 182.31 334.94 C 176.86 334.90 171.40 335.00 165.95 334.89 C 161.74 334.61 158.46 330.23 159.35 326.11 C 159.92 322.52 163.38 319.81 166.98 319.95 C 218.38 319.90 269.78 319.98 321.18 319.91 C 321.28 314.63 321.15 309.35 321.24 304.07 Z" />
<path fill="#9182b0" opacity="1.00" d=" M 195.38 341.48 C 200.80 340.58 205.70 346.51 203.61 351.67 C 202.00 357.04 194.24 358.57 190.66 354.29 C 186.44 350.08 189.42 341.94 195.38 341.48 Z" />
<path fill="#9182b0" opacity="1.00" d=" M 306.39 341.41 C 312.14 340.82 316.64 347.78 313.62 352.75 C 311.12 358.01 302.70 358.10 300.15 352.84 C 297.27 348.19 300.96 341.55 306.39 341.41 Z" />
</g>
<g id="#b5add5ff">
<path fill="#b5add5" opacity="1.00" d=" M 182.31 334.94 C 191.70 334.94 201.09 334.93 210.49 334.95 C 213.68 338.59 216.03 343.14 216.20 348.06 C 216.81 356.64 211.10 365.11 202.96 367.85 C 194.92 370.85 185.20 367.80 180.28 360.79 C 174.47 353.15 175.59 341.66 182.31 334.94 M 195.38 341.48 C 189.42 341.94 186.44 350.08 190.66 354.29 C 194.24 358.57 202.00 357.04 203.61 351.67 C 205.70 346.51 200.80 340.58 195.38 341.48 Z" />
<path fill="#b5add5" opacity="1.00" d=" M 292.73 334.95 C 302.09 334.92 311.46 334.93 320.82 334.95 C 325.25 339.33 327.46 345.81 326.53 351.97 C 325.54 359.34 320.01 365.84 312.92 368.04 C 305.76 370.42 297.37 368.22 292.31 362.64 C 284.98 355.17 285.48 342.31 292.73 334.95 M 306.39 341.41 C 300.96 341.55 297.27 348.19 300.15 352.84 C 302.70 358.10 311.12 358.01 313.62 352.75 C 316.64 347.78 312.14 340.82 306.39 341.41 Z" />
</g>
</svg>
