<?xml version="1.0" encoding="UTF-8" ?>
<!DOCTYPE svg PUBLIC "-//W3C//DTD SVG 1.1//EN" "http://www.w3.org/Graphics/SVG/1.1/DTD/svg11.dtd">
<svg width="1000pt" height="254pt" viewBox="0 0 1000 254" version="1.1" xmlns="http://www.w3.org/2000/svg">
<g id="#003087ff">
<path fill="#003087" opacity="1.00" d=" M 33.18 9.96 C 33.78 5.32 37.50 1.23 42.13 0.39 C 45.06 -0.07 48.05 0.15 51.01 0.12 C 75.34 0.13 99.67 0.12 124.00 0.13 C 137.92 0.29 152.12 1.60 165.14 6.82 C 176.93 11.32 186.82 20.59 191.70 32.26 C 196.02 42.36 195.82 53.65 194.23 64.33 C 183.09 59.54 171.09 57.00 158.97 56.77 C 137.31 56.42 115.65 56.80 93.99 56.57 C 90.80 56.59 87.27 56.64 84.68 58.78 C 81.83 60.88 81.26 64.62 80.67 67.87 C 77.65 87.65 74.45 107.40 71.35 127.16 C 70.37 133.92 69.02 140.62 68.48 147.43 C 67.94 149.94 67.40 152.44 66.98 154.97 C 63.30 178.55 59.55 202.12 55.85 225.70 C 39.88 225.67 23.92 225.70 7.95 225.69 C 5.64 225.86 3.29 225.03 1.86 223.14 C -0.70 220.30 0.77 216.26 1.16 212.92 C 11.87 145.28 22.48 77.61 33.18 9.96 Z" />
<path fill="#003087" opacity="1.00" d=" M 328.47 67.63 C 345.98 67.15 363.53 67.57 381.05 67.42 C 392.38 67.22 404.16 68.29 414.37 73.60 C 421.22 77.11 426.84 83.09 429.49 90.37 C 433.29 100.51 432.26 111.70 430.03 122.08 C 427.48 133.98 422.14 145.66 412.98 153.93 C 405.74 160.48 396.52 164.56 386.98 166.43 C 375.45 168.86 363.61 167.98 351.92 168.20 C 348.36 168.03 345.15 170.89 344.61 174.36 C 342.50 186.88 340.69 199.46 338.61 211.99 C 338.15 215.68 334.69 218.66 330.95 218.46 C 322.28 218.48 313.61 218.55 304.95 218.43 C 302.29 218.46 300.07 215.62 300.76 213.04 C 308.01 166.73 315.35 120.43 322.64 74.13 C 323.03 71.04 325.40 68.28 328.47 67.63 M 356.01 101.86 C 354.05 113.84 352.24 125.85 350.30 137.83 C 360.40 137.46 371.19 139.17 380.63 134.65 C 388.51 130.68 391.20 121.22 391.28 113.01 C 391.46 107.79 388.99 102.18 383.98 100.05 C 376.75 96.95 368.67 97.75 361.01 97.62 C 358.48 97.37 356.16 99.33 356.01 101.86 Z" />
<path fill="#003087" opacity="1.00" d=" M 441.32 133.41 C 451.94 122.02 467.33 115.13 482.95 115.31 C 491.73 115.35 501.03 116.40 508.56 121.32 C 511.50 123.13 513.46 126.03 515.44 128.77 C 516.45 125.14 515.32 119.24 519.93 117.87 C 528.61 117.52 537.32 117.82 546.00 117.72 C 548.96 117.25 552.19 119.79 551.51 122.94 C 547.00 152.34 542.23 181.71 537.65 211.10 C 537.41 215.04 534.07 218.63 530.00 218.47 C 522.34 218.56 514.67 218.54 507.01 218.49 C 504.82 218.66 502.47 217.18 502.18 214.92 C 502.04 211.93 502.81 208.99 503.31 206.07 C 493.83 215.58 480.44 221.09 467.00 220.86 C 456.62 221.00 445.72 218.30 437.87 211.19 C 428.82 203.11 424.33 190.91 423.94 178.97 C 423.61 162.32 429.76 145.48 441.32 133.41 M 482.48 143.62 C 466.98 146.54 456.47 163.55 460.13 178.75 C 461.53 184.80 466.24 189.89 472.15 191.80 C 482.55 195.32 494.98 192.61 502.66 184.66 C 508.06 179.24 510.99 171.62 511.18 164.02 C 511.16 158.24 509.16 152.24 504.73 148.35 C 498.80 142.98 490.04 142.00 482.48 143.62 Z" />
<path fill="#003087" opacity="1.00" d=" M 564.81 123.96 C 563.47 121.13 565.86 117.66 568.95 117.79 C 577.64 117.66 586.34 117.66 595.04 117.80 C 598.58 117.77 601.42 120.66 602.19 123.98 C 607.23 140.69 612.17 157.43 617.23 174.13 C 629.18 156.79 640.93 139.30 652.77 121.88 C 654.15 119.73 656.27 117.87 658.96 117.83 C 666.96 117.54 674.98 117.85 682.99 117.69 C 685.40 117.69 688.69 117.57 689.83 120.24 C 691.16 122.41 689.62 124.68 688.41 126.47 C 659.67 167.77 631.15 209.23 602.39 250.51 C 598.57 255.86 591.42 252.93 586.00 253.21 C 580.25 253.58 574.27 252.37 568.68 254.00 L 568.24 254.00 C 568.25 253.89 568.28 253.67 568.29 253.56 C 566.14 251.95 564.41 248.99 566.47 246.57 C 575.38 233.74 584.56 221.08 593.52 208.27 C 583.88 180.19 574.30 152.09 564.81 123.96 Z" />
</g>
<g id="#012169ff">
<path fill="#012169" opacity="1.00" d=" M 84.68 58.78 C 87.27 56.64 90.80 56.59 93.99 56.57 C 115.65 56.80 137.31 56.42 158.97 56.77 C 171.09 57.00 183.09 59.54 194.23 64.33 L 194.16 64.66 C 190.98 83.56 184.24 102.64 170.65 116.62 C 158.92 129.03 142.62 136.26 125.97 139.13 C 110.15 142.07 94.00 140.95 78.02 141.24 C 73.89 141.23 70.60 144.16 68.48 147.43 C 69.02 140.62 70.37 133.92 71.35 127.16 C 74.45 107.40 77.65 87.65 80.67 67.87 C 81.26 64.62 81.83 60.88 84.68 58.78 Z" />
</g>
<g id="#009cdeff">
<path fill="#009cde" opacity="1.00" d=" M 194.16 64.66 C 203.01 69.29 209.98 77.39 212.87 86.99 C 217.18 100.87 214.99 115.78 211.30 129.54 C 206.86 145.96 197.41 161.57 182.86 170.86 C 166.71 181.40 146.82 183.78 127.94 183.34 C 122.86 182.95 118.12 187.06 117.57 192.08 C 114.66 209.78 112.05 227.52 109.10 245.21 C 108.44 250.05 103.96 254.04 99.00 253.72 C 85.33 253.71 71.66 253.80 57.99 253.67 C 54.66 253.72 51.93 250.34 52.47 247.10 C 53.50 239.95 54.71 232.83 55.85 225.70 C 59.55 202.12 63.30 178.55 66.98 154.97 C 67.40 152.44 67.94 149.94 68.48 147.43 C 70.60 144.16 73.89 141.23 78.02 141.24 C 94.00 140.95 110.15 142.07 125.97 139.13 C 142.62 136.26 158.92 129.03 170.65 116.62 C 184.24 102.64 190.98 83.56 194.16 64.66 Z" />
<path fill="#009cde" opacity="1.00" d=" M 716.44 67.61 C 734.95 67.18 753.50 67.55 772.04 67.42 C 784.92 67.43 798.82 69.55 808.95 78.17 C 817.45 85.44 820.52 97.19 819.81 108.03 C 818.95 122.95 814.70 138.33 804.81 149.87 C 797.01 158.98 785.67 164.48 773.99 166.60 C 762.49 168.86 750.71 167.93 739.08 168.23 C 735.59 168.36 732.76 171.46 732.37 174.83 C 730.30 187.74 728.32 200.66 726.25 213.57 C 726.01 216.22 723.71 218.54 720.99 218.45 C 711.65 218.51 702.30 218.52 692.96 218.44 C 690.25 218.54 687.95 215.67 688.63 213.04 C 695.90 166.70 703.20 120.35 710.53 74.02 C 710.92 70.92 713.35 68.20 716.44 67.61 M 743.86 101.97 C 741.96 113.92 740.08 125.88 738.19 137.83 C 748.32 137.45 759.17 139.20 768.61 134.59 C 776.44 130.60 779.02 121.18 779.17 113.02 C 779.27 107.85 776.94 102.23 771.93 100.09 C 764.73 96.93 756.63 97.77 748.97 97.62 C 746.37 97.33 743.95 99.34 743.86 101.97 Z" />
<path fill="#009cde" opacity="1.00" d=" M 969.35 67.52 C 977.91 67.31 986.48 67.45 995.04 67.45 C 997.93 67.24 1000.39 70.15 999.63 72.98 C 992.44 119.03 985.09 165.06 977.87 211.11 C 977.66 215.19 974.07 218.77 969.90 218.49 C 962.61 218.53 955.31 218.56 948.02 218.48 C 945.19 218.66 942.69 215.90 943.38 213.10 C 950.67 166.10 958.15 119.11 965.50 72.12 C 965.63 69.97 967.08 67.76 969.35 67.52 Z" />
<path fill="#009cde" opacity="1.00" d=" M 827.83 134.88 C 838.12 123.15 853.27 115.66 868.94 115.34 C 878.16 115.19 887.95 116.06 895.97 121.02 C 899.12 122.87 901.30 125.86 903.28 128.85 C 904.29 125.14 903.16 119.20 907.88 117.85 C 916.59 117.56 925.33 117.80 934.05 117.73 C 936.95 117.31 940.10 119.89 939.40 122.95 C 934.78 152.62 930.06 182.27 925.36 211.93 C 924.90 215.51 921.65 218.52 918.00 218.47 C 910.35 218.58 902.69 218.52 895.04 218.50 C 892.46 218.81 889.90 216.75 889.94 214.10 C 890.14 211.45 890.68 208.85 891.04 206.22 C 881.36 215.88 867.64 221.31 853.96 220.86 C 843.64 220.87 832.87 217.93 825.22 210.71 C 816.02 202.15 811.75 189.35 811.77 176.99 C 812.01 161.67 817.57 146.34 827.83 134.88 M 870.44 143.61 C 855.11 146.43 844.63 163.01 847.84 178.10 C 849.09 184.51 854.00 189.93 860.22 191.88 C 870.39 195.20 882.42 192.67 890.09 185.11 C 896.47 178.94 899.74 169.76 898.78 160.94 C 898.27 154.72 894.60 148.82 889.10 145.82 C 883.46 142.73 876.65 142.29 870.44 143.61 Z" />
</g>
</svg>
