<?xml version="1.0" encoding="UTF-8" ?>
<!DOCTYPE svg PUBLIC "-//W3C//DTD SVG 1.1//EN" "http://www.w3.org/Graphics/SVG/1.1/DTD/svg11.dtd">
<svg width="512pt" height="512pt" viewBox="0 0 512 512" version="1.1" xmlns="http://www.w3.org/2000/svg">
<g id="#000000ff">
<path fill="#000000" opacity="1.00" d=" M 75.54 0.00 L 380.55 0.00 C 389.43 0.79 397.69 6.42 401.37 14.58 C 403.56 19.06 403.84 24.14 403.73 29.04 C 403.65 47.73 403.78 66.42 403.68 85.11 C 404.01 89.48 400.24 92.68 396.20 93.28 C 394.21 92.67 392.01 92.14 390.62 90.46 C 388.70 88.50 388.72 85.60 388.68 83.04 C 388.75 64.35 388.67 45.65 388.73 26.96 C 388.85 23.59 388.06 19.93 385.37 17.66 C 383.16 15.48 379.96 14.94 376.97 14.99 C 279.65 15.01 182.32 15.01 85.00 14.98 C 80.26 15.12 74.58 14.09 70.93 17.91 C 66.38 22.27 68.18 29.14 67.88 34.73 C 157.26 34.73 246.64 34.74 336.02 34.73 C 341.59 34.79 347.39 34.22 352.69 36.33 C 361.01 39.36 367.38 47.13 368.66 55.90 C 369.23 60.26 368.97 64.66 369.01 69.04 C 369.01 200.11 369.00 331.18 369.01 462.25 C 374.49 461.93 381.06 463.68 385.50 459.52 C 389.35 456.12 388.73 450.60 388.73 445.99 C 388.68 340.32 388.73 234.65 388.71 128.97 C 388.77 125.35 388.37 121.67 389.14 118.10 C 390.00 114.92 393.21 113.34 396.20 112.71 C 400.28 113.27 404.04 116.55 403.68 120.94 C 403.75 228.95 403.68 336.97 403.72 444.98 C 403.70 450.32 404.10 455.87 402.10 460.94 C 398.88 469.75 390.38 476.40 380.99 477.12 C 376.08 477.46 371.15 477.19 366.23 477.27 C 366.15 484.08 366.99 491.34 363.77 497.64 C 360.10 505.58 352.07 510.97 343.46 512.00 L 38.46 512.00 C 26.29 511.01 15.72 500.40 15.43 488.09 C 15.26 465.06 15.46 442.03 15.33 419.00 C 15.31 416.11 15.34 412.77 17.73 410.73 C 19.81 408.52 23.05 408.51 25.82 409.03 C 28.19 410.61 30.42 412.92 30.31 415.99 C 30.50 439.66 30.26 463.33 30.42 486.99 C 30.32 492.55 35.44 497.30 40.96 496.98 C 136.38 497.04 231.81 496.97 327.24 497.01 C 332.52 496.86 337.84 497.33 343.10 496.73 C 348.08 495.91 351.58 490.92 351.22 485.98 C 351.24 344.32 351.22 202.67 351.23 61.01 C 351.67 55.94 348.15 50.71 342.98 49.96 C 337.97 49.43 332.93 49.85 327.90 49.73 C 232.27 49.74 136.64 49.72 41.01 49.75 C 35.31 49.34 30.14 54.39 30.39 60.08 C 30.34 166.72 30.38 273.36 30.37 380.00 C 30.74 383.47 28.75 386.54 25.85 388.26 C 22.99 388.88 19.67 388.75 17.56 386.44 C 14.52 383.45 15.53 378.85 15.35 375.03 C 15.40 272.67 15.36 170.31 15.37 67.95 C 15.44 62.76 14.92 57.42 16.50 52.39 C 19.34 42.99 28.16 35.68 37.98 34.89 C 42.93 34.53 47.90 34.81 52.86 34.73 C 52.94 27.90 52.09 20.63 55.31 14.32 C 58.97 6.41 66.98 1.08 75.54 0.00 Z" />
<path fill="#000000" opacity="1.00" d=" M 70.57 75.72 C 73.61 74.78 76.84 74.93 79.98 74.92 C 122.98 74.97 165.99 74.88 208.99 74.97 C 218.07 74.89 226.17 82.96 226.14 92.03 C 226.22 136.35 226.16 180.66 226.17 224.97 C 226.60 234.33 218.43 242.91 209.06 242.89 C 166.72 242.99 124.37 242.90 82.03 242.94 C 77.68 242.87 73.11 243.35 69.01 241.56 C 62.50 238.94 58.03 232.12 58.22 225.10 C 58.22 181.05 58.22 137.00 58.22 92.95 C 57.90 85.28 63.22 77.90 70.57 75.72 M 74.23 90.45 C 73.06 91.23 73.30 92.78 73.21 93.99 C 73.26 137.67 73.16 181.36 73.26 225.04 C 72.94 227.19 75.18 228.23 77.00 227.93 C 120.72 227.91 164.45 227.98 208.17 227.90 C 210.40 228.22 211.53 225.96 211.18 224.04 C 211.15 180.36 211.22 136.69 211.15 93.01 C 211.45 91.19 209.88 89.70 208.09 89.97 C 165.06 89.88 122.04 89.98 79.01 89.91 C 77.43 90.04 75.68 89.65 74.23 90.45 Z" />
<path fill="#000000" opacity="1.00" d=" M 131.05 103.85 C 141.22 100.28 153.07 101.92 161.85 108.20 C 171.36 114.77 177.10 126.41 176.39 137.96 C 176.00 147.48 171.26 156.54 164.03 162.68 C 170.70 167.72 175.72 174.97 177.73 183.11 C 179.51 189.94 178.70 197.05 178.91 204.02 C 178.80 206.88 179.34 210.06 177.60 212.56 C 176.20 214.74 173.60 215.94 171.05 215.85 C 163.36 215.87 155.66 215.90 147.97 215.84 C 143.89 215.99 140.53 212.32 140.37 208.36 C 140.74 204.84 143.19 201.32 146.96 201.05 C 152.59 200.58 158.24 201.00 163.88 200.86 C 163.82 194.93 164.56 188.66 161.87 183.14 C 158.06 174.59 148.29 169.20 139.03 170.76 C 129.46 172.02 121.39 180.43 120.67 190.08 C 120.24 196.17 120.69 202.28 120.49 208.38 C 120.64 213.13 115.58 217.04 111.02 215.60 C 107.25 214.68 105.10 210.72 105.50 207.01 C 105.81 197.97 104.43 188.57 107.64 179.89 C 110.01 173.01 114.65 167.10 120.35 162.65 C 111.48 155.25 106.62 143.32 108.24 131.82 C 109.72 119.16 118.99 107.91 131.05 103.85 M 137.33 117.59 C 129.86 119.46 123.91 126.21 123.08 133.89 C 122.22 140.29 124.93 146.99 129.94 151.06 C 135.17 155.50 142.86 156.72 149.23 154.16 C 155.59 151.70 160.40 145.65 161.27 138.88 C 162.31 131.97 159.16 124.66 153.46 120.63 C 148.90 117.26 142.81 116.16 137.33 117.59 Z" />
<path fill="#000000" opacity="1.00" d=" M 246.19 112.26 C 248.35 111.32 250.76 111.58 253.06 111.51 C 273.68 111.57 294.30 111.49 314.93 111.55 C 318.76 111.25 322.53 114.09 323.02 117.95 C 323.79 122.15 320.26 126.51 315.96 126.50 C 293.94 126.58 271.92 126.51 249.91 126.53 C 246.10 126.85 242.39 123.96 241.92 120.14 C 241.41 116.95 243.25 113.59 246.19 112.26 Z" />
<path fill="#000000" opacity="1.00" d=" M 434.48 149.62 C 437.53 148.64 440.78 148.79 443.95 148.78 C 456.27 148.88 468.59 148.67 480.90 148.88 C 489.58 149.22 496.90 157.26 496.62 165.91 C 496.65 234.92 496.61 303.92 496.64 372.93 C 496.54 376.15 497.14 379.62 495.53 382.59 C 487.42 398.82 479.35 415.07 471.21 431.28 C 469.00 435.88 464.14 439.34 458.91 438.89 C 454.10 438.65 450.02 435.19 448.04 430.95 C 440.03 414.96 432.08 398.95 424.06 382.97 C 422.21 379.59 422.89 375.63 422.78 371.95 C 422.80 303.30 422.77 234.65 422.79 166.01 C 422.56 158.74 427.56 151.79 434.48 149.62 M 437.77 167.95 C 437.83 177.22 437.73 186.50 437.83 195.77 C 445.51 195.69 453.19 195.76 460.87 195.73 C 467.79 195.74 474.71 195.73 481.63 195.73 C 481.55 185.63 481.79 175.53 481.53 165.44 C 481.52 163.59 479.23 163.88 477.99 163.79 C 472.28 163.78 466.57 163.81 460.86 163.80 C 453.60 163.90 446.31 163.59 439.06 163.94 C 437.34 164.51 437.92 166.60 437.77 167.95 M 437.79 210.74 C 437.78 264.20 437.78 317.67 437.79 371.13 C 445.52 371.13 453.24 371.14 460.97 371.13 C 467.87 371.09 474.77 371.23 481.67 371.05 C 481.51 317.59 481.82 264.12 481.51 210.66 C 474.66 210.81 467.81 210.69 460.96 210.74 C 453.24 210.73 445.51 210.73 437.79 210.74 M 442.42 386.14 C 444.72 390.72 446.99 395.31 449.30 399.89 C 452.79 406.81 456.13 413.82 459.76 420.68 C 465.49 409.16 471.27 397.66 476.99 386.13 C 470.34 386.13 463.69 386.14 457.04 386.13 C 452.17 386.13 447.29 386.13 442.42 386.14 Z" />
<path fill="#000000" opacity="1.00" d=" M 248.11 154.23 C 270.06 153.84 292.04 154.19 314.00 154.06 C 317.55 153.69 321.46 155.44 322.64 159.00 C 324.69 163.88 320.24 169.63 315.03 169.06 C 292.99 169.04 270.95 169.14 248.91 169.01 C 244.14 169.00 240.55 163.63 242.24 159.18 C 243.09 156.63 245.42 154.59 248.11 154.23 Z" />
<path fill="#000000" opacity="1.00" d=" M 248.38 199.55 C 270.60 199.35 292.84 199.53 315.06 199.47 C 318.58 199.21 322.07 201.61 322.88 205.08 C 324.28 209.89 319.91 214.93 314.98 214.45 C 293.30 214.48 271.63 214.48 249.96 214.45 C 246.15 214.72 242.43 211.88 241.93 208.06 C 241.20 204.07 244.33 199.88 248.38 199.55 Z" />
<path fill="#000000" opacity="1.00" d=" M 62.45 272.61 C 63.84 271.92 65.44 271.90 66.96 271.86 C 149.63 271.88 232.30 271.85 314.98 271.87 C 319.48 271.42 323.68 275.60 323.07 280.12 C 322.76 284.06 319.00 287.12 315.10 286.85 C 232.38 286.89 149.66 286.85 66.94 286.87 C 63.84 287.11 60.51 285.74 59.10 282.85 C 57.08 279.28 58.73 274.32 62.45 272.61 Z" />
<path fill="#000000" opacity="1.00" d=" M 64.38 314.55 C 87.93 314.21 111.51 314.50 135.07 314.40 C 195.05 314.40 255.02 314.40 315.00 314.40 C 319.24 314.01 323.29 317.68 323.11 321.98 C 323.16 326.20 319.19 329.74 315.01 329.39 C 232.34 329.42 149.67 329.39 67.00 329.41 C 63.74 329.67 60.26 328.14 58.92 325.02 C 56.79 320.82 59.70 315.16 64.38 314.55 Z" />
<path fill="#000000" opacity="1.00" d=" M 62.44 357.66 C 63.86 356.94 65.49 356.95 67.04 356.92 C 149.68 356.95 232.31 356.92 314.95 356.94 C 319.44 356.44 323.63 360.58 323.08 365.09 C 322.81 369.08 318.99 372.17 315.06 371.91 C 232.36 371.96 149.65 371.92 66.95 371.93 C 63.85 372.15 60.51 370.79 59.09 367.89 C 57.08 364.31 58.72 359.36 62.44 357.66 Z" />
<path fill="#000000" opacity="1.00" d=" M 137.05 388.02 C 139.87 385.11 145.02 385.29 147.68 388.33 C 150.35 391.06 150.31 395.82 147.63 398.54 C 142.00 404.69 136.21 410.68 130.54 416.79 C 130.53 430.18 130.60 443.56 130.51 456.95 C 130.32 464.93 123.07 471.91 115.07 471.73 C 101.05 471.72 87.03 471.77 73.01 471.70 C 64.97 471.55 57.99 464.14 58.23 456.11 C 58.21 442.41 58.21 428.70 58.23 415.00 C 58.01 406.99 65.00 399.68 72.99 399.46 C 86.67 399.32 100.36 399.44 114.05 399.40 C 117.49 399.29 120.85 400.33 123.82 402.03 C 128.25 397.38 132.55 392.60 137.05 388.02 M 72.93 414.49 C 78.68 422.34 83.86 430.64 89.23 438.78 C 96.93 430.71 104.54 422.56 112.14 414.40 C 99.07 414.46 86.00 414.28 72.93 414.49 M 115.55 432.73 C 108.02 440.75 100.50 448.77 92.94 456.75 C 100.46 456.70 107.99 456.78 115.52 456.70 C 115.58 448.71 115.54 440.72 115.55 432.73 M 73.22 441.73 C 73.22 446.72 73.20 451.71 73.25 456.70 C 76.61 456.73 79.98 456.72 83.35 456.77 C 79.71 451.94 76.63 446.72 73.22 441.73 Z" />
<path fill="#000000" opacity="1.00" d=" M 153.46 428.65 C 156.19 427.73 159.13 428.14 161.96 428.06 C 212.67 428.08 263.38 428.07 314.09 428.06 C 317.41 427.76 321.02 429.23 322.41 432.43 C 324.97 437.35 320.50 443.68 315.03 443.06 C 262.70 443.09 210.37 443.04 158.04 443.08 C 155.09 443.30 151.83 442.48 150.15 439.86 C 147.38 436.15 149.13 430.26 153.46 428.65 Z" />
</g>
<g id="#3c87d0ff">
<path fill="#3c87d0" opacity="1.00" d=" M 70.93 17.91 C 74.58 14.09 80.26 15.12 85.00 14.98 C 182.32 15.01 279.65 15.01 376.97 14.99 C 379.96 14.94 383.16 15.48 385.37 17.66 C 388.06 19.93 388.85 23.59 388.73 26.96 C 388.67 45.65 388.75 64.35 388.68 83.04 C 388.72 85.60 388.70 88.50 390.62 90.46 C 392.01 92.14 394.21 92.67 396.20 93.28 C 396.22 99.75 396.22 106.23 396.20 112.71 C 393.21 113.34 390.00 114.92 389.14 118.10 C 388.37 121.67 388.77 125.35 388.71 128.97 C 388.73 234.65 388.68 340.32 388.73 445.99 C 388.73 450.60 389.35 456.12 385.50 459.52 C 381.06 463.68 374.49 461.93 369.01 462.25 C 369.00 331.18 369.01 200.11 369.01 69.04 C 368.97 64.66 369.23 60.26 368.66 55.90 C 367.38 47.13 361.01 39.36 352.69 36.33 C 347.39 34.22 341.59 34.79 336.02 34.73 C 246.64 34.74 157.26 34.73 67.88 34.73 C 68.18 29.14 66.38 22.27 70.93 17.91 Z" />
</g>
<g id="#c8effeff">
<path fill="#c8effe" opacity="1.00" d=" M 30.39 60.08 C 30.14 54.39 35.31 49.34 41.01 49.75 C 136.64 49.72 232.27 49.74 327.90 49.73 C 330.57 55.46 330.49 61.84 330.26 68.01 C 330.26 204.65 330.26 341.30 330.26 477.94 C 330.27 484.38 331.05 491.37 327.24 497.01 C 231.81 496.97 136.38 497.04 40.96 496.98 C 35.44 497.30 30.32 492.55 30.42 486.99 C 30.26 463.33 30.50 439.66 30.31 415.99 C 30.42 412.92 28.19 410.61 25.82 409.03 C 25.80 402.11 25.77 395.18 25.85 388.26 C 28.75 386.54 30.74 383.47 30.37 380.00 C 30.38 273.36 30.34 166.72 30.39 60.08 M 70.57 75.72 C 63.22 77.90 57.90 85.28 58.22 92.95 C 58.22 137.00 58.22 181.05 58.22 225.10 C 58.03 232.12 62.50 238.94 69.01 241.56 C 73.11 243.35 77.68 242.87 82.03 242.94 C 124.37 242.90 166.72 242.99 209.06 242.89 C 218.43 242.91 226.60 234.33 226.17 224.97 C 226.16 180.66 226.22 136.35 226.14 92.03 C 226.17 82.96 218.07 74.89 208.99 74.97 C 165.99 74.88 122.98 74.97 79.98 74.92 C 76.84 74.93 73.61 74.78 70.57 75.72 M 246.19 112.26 C 243.25 113.59 241.41 116.95 241.92 120.14 C 242.39 123.96 246.10 126.85 249.91 126.53 C 271.92 126.51 293.94 126.58 315.96 126.50 C 320.26 126.51 323.79 122.15 323.02 117.95 C 322.53 114.09 318.76 111.25 314.93 111.55 C 294.30 111.49 273.68 111.57 253.06 111.51 C 250.76 111.58 248.35 111.32 246.19 112.26 M 248.11 154.23 C 245.42 154.59 243.09 156.63 242.24 159.18 C 240.55 163.63 244.14 169.00 248.91 169.01 C 270.95 169.14 292.99 169.04 315.03 169.06 C 320.24 169.63 324.69 163.88 322.64 159.00 C 321.46 155.44 317.55 153.69 314.00 154.06 C 292.04 154.19 270.06 153.84 248.11 154.23 M 248.38 199.55 C 244.33 199.88 241.20 204.07 241.93 208.06 C 242.43 211.88 246.15 214.72 249.96 214.45 C 271.63 214.48 293.30 214.48 314.98 214.45 C 319.91 214.93 324.28 209.89 322.88 205.08 C 322.07 201.61 318.58 199.21 315.06 199.47 C 292.84 199.53 270.60 199.35 248.38 199.55 M 62.45 272.61 C 58.73 274.32 57.08 279.28 59.10 282.85 C 60.51 285.74 63.84 287.11 66.94 286.87 C 149.66 286.85 232.38 286.89 315.10 286.85 C 319.00 287.12 322.76 284.06 323.07 280.12 C 323.68 275.60 319.48 271.42 314.98 271.87 C 232.30 271.85 149.63 271.88 66.96 271.86 C 65.44 271.90 63.84 271.92 62.45 272.61 M 64.38 314.55 C 59.70 315.16 56.79 320.82 58.92 325.02 C 60.26 328.14 63.74 329.67 67.00 329.41 C 149.67 329.39 232.34 329.42 315.01 329.39 C 319.19 329.74 323.16 326.20 323.11 321.98 C 323.29 317.68 319.24 314.01 315.00 314.40 C 255.02 314.40 195.05 314.40 135.07 314.40 C 111.51 314.50 87.93 314.21 64.38 314.55 M 62.44 357.66 C 58.72 359.36 57.08 364.31 59.09 367.89 C 60.51 370.79 63.85 372.15 66.95 371.93 C 149.65 371.92 232.36 371.96 315.06 371.91 C 318.99 372.17 322.81 369.08 323.08 365.09 C 323.63 360.58 319.44 356.44 314.95 356.94 C 232.31 356.92 149.68 356.95 67.04 356.92 C 65.49 356.95 63.86 356.94 62.44 357.66 M 137.05 388.02 C 132.55 392.60 128.25 397.38 123.82 402.03 C 120.85 400.33 117.49 399.29 114.05 399.40 C 100.36 399.44 86.67 399.32 72.99 399.46 C 65.00 399.68 58.01 406.99 58.23 415.00 C 58.21 428.70 58.21 442.41 58.23 456.11 C 57.99 464.14 64.97 471.55 73.01 471.70 C 87.03 471.77 101.05 471.72 115.07 471.73 C 123.07 471.91 130.32 464.93 130.51 456.95 C 130.60 443.56 130.53 430.18 130.54 416.79 C 136.21 410.68 142.00 404.69 147.63 398.54 C 150.31 395.82 150.35 391.06 147.68 388.33 C 145.02 385.29 139.87 385.11 137.05 388.02 M 153.46 428.65 C 149.13 430.26 147.38 436.15 150.15 439.86 C 151.83 442.48 155.09 443.30 158.04 443.08 C 210.37 443.04 262.70 443.09 315.03 443.06 C 320.50 443.68 324.97 437.35 322.41 432.43 C 321.02 429.23 317.41 427.76 314.09 428.06 C 263.38 428.07 212.67 428.08 161.96 428.06 C 159.13 428.14 156.19 427.73 153.46 428.65 Z" />
</g>
<g id="#b3dafeff">
<path fill="#b3dafe" opacity="1.00" d=" M 327.90 49.73 C 332.93 49.85 337.97 49.43 342.98 49.96 C 348.15 50.71 351.67 55.94 351.23 61.01 C 351.22 202.67 351.24 344.32 351.22 485.98 C 351.58 490.92 348.08 495.91 343.10 496.73 C 337.84 497.33 332.52 496.86 327.24 497.01 C 331.05 491.37 330.27 484.38 330.26 477.94 C 330.26 341.30 330.26 204.65 330.26 68.01 C 330.49 61.84 330.57 55.46 327.90 49.73 Z" />
</g>
<g id="#fee2caff">
<path fill="#fee2ca" opacity="1.00" d=" M 74.23 90.45 C 75.68 89.65 77.43 90.04 79.01 89.91 C 122.04 89.98 165.06 89.88 208.09 89.97 C 209.88 89.70 211.45 91.19 211.15 93.01 C 211.22 136.69 211.15 180.36 211.18 224.04 C 211.53 225.96 210.40 228.22 208.17 227.90 C 164.45 227.98 120.72 227.91 77.00 227.93 C 75.18 228.23 72.94 227.19 73.26 225.04 C 73.16 181.36 73.26 137.67 73.21 93.99 C 73.30 92.78 73.06 91.23 74.23 90.45 M 131.05 103.85 C 118.99 107.91 109.72 119.16 108.24 131.82 C 106.62 143.32 111.48 155.25 120.35 162.65 C 114.65 167.10 110.01 173.01 107.64 179.89 C 104.43 188.57 105.81 197.97 105.50 207.01 C 105.10 210.72 107.25 214.68 111.02 215.60 C 115.58 217.04 120.64 213.13 120.49 208.38 C 127.11 208.40 133.74 208.44 140.37 208.36 C 140.53 212.32 143.89 215.99 147.97 215.84 C 155.66 215.90 163.36 215.87 171.05 215.85 C 173.60 215.94 176.20 214.74 177.60 212.56 C 179.34 210.06 178.80 206.88 178.91 204.02 C 178.70 197.05 179.51 189.94 177.73 183.11 C 175.72 174.97 170.70 167.72 164.03 162.68 C 171.26 156.54 176.00 147.48 176.39 137.96 C 177.10 126.41 171.36 114.77 161.85 108.20 C 153.07 101.92 141.22 100.28 131.05 103.85 Z" />
</g>
<g id="#ffcebfff">
<path fill="#ffcebf" opacity="1.00" d=" M 137.33 117.59 C 142.81 116.16 148.90 117.26 153.46 120.63 C 159.16 124.66 162.31 131.97 161.27 138.88 C 160.40 145.65 155.59 151.70 149.23 154.16 C 142.86 156.72 135.17 155.50 129.94 151.06 C 124.93 146.99 122.22 140.29 123.08 133.89 C 123.91 126.21 129.86 119.46 137.33 117.59 Z" />
</g>
<g id="#f47c7cff">
<path fill="#f47c7c" opacity="1.00" d=" M 437.77 167.95 C 437.92 166.60 437.34 164.51 439.06 163.94 C 446.31 163.59 453.60 163.90 460.86 163.80 C 460.75 174.45 460.78 185.09 460.87 195.73 C 453.19 195.76 445.51 195.69 437.83 195.77 C 437.73 186.50 437.83 177.22 437.77 167.95 Z" />
</g>
<g id="#ee6161ff">
<path fill="#ee6161" opacity="1.00" d=" M 460.86 163.80 C 466.57 163.81 472.28 163.78 477.99 163.79 C 479.23 163.88 481.52 163.59 481.53 165.44 C 481.79 175.53 481.55 185.63 481.63 195.73 C 474.71 195.73 467.79 195.74 460.87 195.73 C 460.78 185.09 460.75 174.45 460.86 163.80 Z" />
</g>
<g id="#e94444ff">
<path fill="#e94444" opacity="1.00" d=" M 120.67 190.08 C 121.39 180.43 129.46 172.02 139.03 170.76 C 148.29 169.20 158.06 174.59 161.87 183.14 C 164.56 188.66 163.82 194.93 163.88 200.86 C 158.24 201.00 152.59 200.58 146.96 201.05 C 143.19 201.32 140.74 204.84 140.37 208.36 C 133.74 208.44 127.11 208.40 120.49 208.38 C 120.69 202.28 120.24 196.17 120.67 190.08 Z" />
</g>
<g id="#d83131ff">
<path fill="#d83131" opacity="1.00" d=" M 437.79 210.74 C 445.51 210.73 453.24 210.73 460.96 210.74 C 460.88 264.20 460.91 317.66 460.97 371.13 C 453.24 371.14 445.52 371.13 437.79 371.13 C 437.78 317.67 437.78 264.20 437.79 210.74 Z" />
</g>
<g id="#ca2c2cff">
<path fill="#ca2c2c" opacity="1.00" d=" M 460.96 210.74 C 467.81 210.69 474.66 210.81 481.51 210.66 C 481.82 264.12 481.51 317.59 481.67 371.05 C 474.77 371.23 467.87 371.09 460.97 371.13 C 460.91 317.66 460.88 264.20 460.96 210.74 Z" />
</g>
<g id="#f9c6c6ff">
<path fill="#f9c6c6" opacity="1.00" d=" M 442.42 386.14 C 447.29 386.13 452.17 386.13 457.04 386.13 C 454.49 390.73 452.77 395.84 449.30 399.89 C 446.99 395.31 444.72 390.72 442.42 386.14 Z" />
</g>
<g id="#f9b1b1ff">
<path fill="#f9b1b1" opacity="1.00" d=" M 457.04 386.13 C 463.69 386.14 470.34 386.13 476.99 386.13 C 471.27 397.66 465.49 409.16 459.76 420.68 C 456.13 413.82 452.79 406.81 449.30 399.89 C 452.77 395.84 454.49 390.73 457.04 386.13 Z" />
</g>
<g id="#7ca1b1ff">
<path fill="#7ca1b1" opacity="1.00" d=" M 72.93 414.49 C 86.00 414.28 99.07 414.46 112.14 414.40 C 104.54 422.56 96.93 430.71 89.23 438.78 C 83.86 430.64 78.68 422.34 72.93 414.49 Z" />
<path fill="#7ca1b1" opacity="1.00" d=" M 115.55 432.73 C 115.54 440.72 115.58 448.71 115.52 456.70 C 107.99 456.78 100.46 456.70 92.94 456.75 C 100.50 448.77 108.02 440.75 115.55 432.73 Z" />
<path fill="#7ca1b1" opacity="1.00" d=" M 73.22 441.73 C 76.63 446.72 79.71 451.94 83.35 456.77 C 79.98 456.72 76.61 456.73 73.25 456.70 C 73.20 451.71 73.22 446.72 73.22 441.73 Z" />
</g>
</svg>
