<?xml version="1.0" encoding="UTF-8" ?>
<!DOCTYPE svg PUBLIC "-//W3C//DTD SVG 1.1//EN" "http://www.w3.org/Graphics/SVG/1.1/DTD/svg11.dtd">
<svg width="512pt" height="512pt" viewBox="0 0 512 512" version="1.1" xmlns="http://www.w3.org/2000/svg">
<g id="#ffd9bfff">
<path fill="#ffd9bf" opacity="1.00" d=" M 185.76 0.00 L 218.44 0.00 C 220.32 1.75 223.11 0.74 225.42 1.13 C 228.55 2.54 232.18 2.27 235.46 3.30 C 236.75 3.79 238.11 4.04 239.46 4.30 C 241.13 4.81 242.85 5.20 244.53 5.68 C 245.03 5.84 246.01 6.16 246.50 6.32 L 247.55 6.73 C 242.59 10.31 238.53 14.95 234.30 19.32 C 231.23 22.49 234.85 28.26 239.09 26.94 C 242.90 25.71 245.07 21.70 248.10 19.23 C 250.60 21.59 252.81 24.28 255.55 26.38 C 258.28 28.30 262.62 26.35 262.93 23.00 C 263.29 21.34 262.47 19.79 261.37 18.63 C 258.31 15.20 254.76 12.24 251.80 8.72 L 251.85 7.97 C 253.77 8.69 255.70 9.43 257.58 10.26 C 259.82 11.48 262.24 12.29 264.61 13.22 C 266.19 14.09 267.80 14.91 269.41 15.74 C 269.92 15.97 270.93 16.44 271.44 16.68 C 273.57 17.75 275.56 19.05 277.60 20.27 C 281.43 22.34 284.83 25.10 288.59 27.30 C 290.44 29.10 292.59 30.53 294.93 31.63 C 297.80 37.78 299.03 44.79 302.90 50.40 C 305.88 50.77 308.77 48.92 311.66 48.18 C 312.20 48.51 313.29 49.16 313.83 49.49 C 309.61 60.09 303.88 70.07 300.21 80.87 C 280.96 71.85 262.32 61.48 242.99 52.64 C 235.63 54.72 228.43 57.37 221.10 59.56 C 218.93 60.18 216.35 61.29 216.29 63.93 C 215.22 71.55 212.45 79.29 206.49 84.46 C 199.99 89.83 191.59 93.28 183.05 92.57 C 175.75 92.68 168.97 89.11 163.64 84.36 C 161.92 82.91 160.32 81.15 158.11 80.45 C 152.56 82.00 147.07 83.81 141.70 85.90 C 140.98 75.18 135.57 64.63 126.50 58.65 C 115.34 50.76 99.52 50.60 88.13 58.12 C 84.77 60.28 81.97 63.15 78.92 65.70 C 78.91 63.09 81.15 61.51 82.35 59.44 C 83.43 58.16 84.52 56.86 85.30 55.37 C 87.25 53.29 89.26 51.26 90.88 48.91 C 96.13 42.79 102.18 37.44 108.38 32.32 C 111.22 30.51 113.67 28.18 116.46 26.30 C 118.86 24.82 121.16 23.19 123.53 21.68 C 125.18 20.63 126.86 19.62 128.58 18.68 C 130.58 17.70 132.57 16.69 134.58 15.71 C 136.56 14.68 138.57 13.68 140.58 12.70 C 143.14 11.36 145.86 10.36 148.51 9.20 C 149.01 9.10 150.00 8.90 150.50 8.80 C 153.61 7.03 157.18 6.41 160.53 5.26 C 161.01 5.13 161.97 4.88 162.45 4.75 C 163.76 4.30 165.11 4.00 166.46 3.67 C 168.06 3.11 169.77 2.98 171.44 2.76 C 172.97 1.89 174.75 1.99 176.44 1.79 C 179.33 0.13 182.98 1.97 185.76 0.00 Z" />
<path fill="#ffd9bf" opacity="1.00" d=" M 70.70 77.58 C 71.98 74.26 74.70 71.90 76.63 69.00 C 73.06 76.97 71.00 85.95 73.02 94.62 C 75.25 105.54 83.29 115.00 93.53 119.26 C 100.46 122.41 108.31 122.06 115.68 121.12 C 113.67 125.21 111.53 129.24 109.60 133.37 C 106.60 140.02 103.05 146.41 99.93 153.00 C 98.91 154.89 99.48 157.45 101.53 158.37 C 111.57 163.67 121.85 168.52 131.86 173.89 C 134.85 175.38 138.10 177.70 141.61 176.57 C 143.08 175.59 143.70 173.80 144.54 172.33 C 147.22 166.55 150.44 161.04 152.87 155.15 C 153.56 155.35 154.22 155.60 154.87 155.91 C 159.08 168.36 162.99 180.92 167.08 193.41 C 172.92 211.46 178.76 229.51 184.79 247.48 C 185.69 250.29 188.84 251.37 191.44 250.18 C 222.97 239.71 254.57 229.43 286.13 219.01 C 288.79 218.09 291.60 217.46 294.04 216.00 C 296.26 214.69 295.62 211.81 294.98 209.78 C 293.11 204.17 291.21 198.57 289.34 192.95 C 282.36 171.63 275.41 150.30 268.32 129.02 C 267.05 125.36 265.85 121.69 265.03 117.91 C 271.70 120.64 277.93 124.32 284.42 127.47 C 285.85 128.02 287.54 129.13 289.06 128.15 C 291.48 127.25 292.13 124.50 293.29 122.47 C 297.59 114.01 301.59 105.39 306.21 97.10 C 313.84 100.98 321.84 104.11 329.49 107.96 C 322.29 114.68 317.34 124.01 317.35 134.00 C 316.93 146.94 324.57 159.40 335.91 165.45 C 335.18 166.50 334.45 167.54 333.79 168.63 C 332.96 170.78 332.30 172.99 331.61 175.18 C 329.38 182.32 326.60 189.27 324.45 196.42 C 314.79 225.05 304.79 253.56 294.90 282.11 C 294.48 283.26 294.49 284.50 294.49 285.71 C 241.30 285.86 188.11 285.67 134.92 285.73 C 131.50 285.76 128.20 287.44 125.91 289.93 C 123.72 292.41 123.57 295.91 123.53 299.05 C 123.57 311.69 123.58 324.33 123.52 336.97 C 123.39 341.58 125.92 346.83 130.56 348.28 C 133.99 348.85 137.61 348.00 140.91 349.40 C 141.80 355.40 143.49 361.23 145.04 367.08 C 146.25 373.20 147.77 379.25 149.17 385.32 C 143.58 392.28 136.70 398.07 130.57 404.54 C 125.83 409.27 119.50 414.50 120.52 421.98 C 120.05 426.21 123.16 429.36 126.00 432.00 C 129.44 435.54 135.21 437.11 139.79 434.93 C 146.93 432.29 150.48 424.86 156.69 420.87 C 161.03 437.32 164.76 453.94 168.57 470.52 C 169.47 474.87 173.29 478.93 177.95 478.82 C 221.81 478.92 265.68 478.60 309.55 478.93 L 308.57 479.59 C 305.78 481.65 302.69 483.21 299.58 484.72 C 299.08 484.97 298.08 485.46 297.58 485.71 C 296.24 486.36 294.91 487.03 293.58 487.71 C 293.08 487.96 292.08 488.46 291.58 488.71 C 290.24 489.37 288.91 490.04 287.59 490.72 C 286.53 491.23 285.48 491.77 284.43 492.30 C 282.52 493.19 280.54 493.93 278.59 494.72 C 276.61 495.72 274.58 496.62 272.47 497.30 C 271.17 497.78 269.87 498.22 268.59 498.74 C 267.23 499.29 265.87 499.83 264.49 500.33 C 263.50 500.67 262.50 501.01 261.51 501.33 C 260.50 501.66 259.49 501.99 258.49 502.30 C 257.17 502.78 255.83 503.22 254.52 503.73 C 252.50 504.21 250.51 504.76 248.51 505.33 C 247.22 505.78 245.88 506.03 244.54 506.30 C 242.86 506.79 241.15 507.18 239.48 507.70 C 236.20 508.80 232.58 508.50 229.42 509.84 C 227.41 510.11 225.15 509.55 223.42 510.89 C 220.73 511.29 217.62 510.19 215.32 512.00 L 183.07 512.00 C 180.48 510.15 177.10 511.81 174.45 510.21 C 170.34 510.06 166.41 508.81 162.49 507.69 C 159.14 506.67 155.68 505.91 152.54 504.32 C 150.85 503.72 149.19 503.07 147.56 502.34 C 147.07 502.07 146.09 501.52 145.61 501.24 C 143.10 500.29 140.70 499.12 138.39 497.77 C 137.07 496.99 135.78 496.18 134.52 495.32 C 133.16 494.45 131.84 493.53 130.46 492.70 C 125.62 489.22 121.10 485.28 116.74 481.23 C 113.69 477.25 110.08 473.72 107.29 469.54 C 106.46 468.16 105.55 466.84 104.69 465.48 C 103.40 463.61 102.29 461.62 101.26 459.60 C 100.62 458.24 99.97 456.90 99.30 455.57 C 99.03 455.09 98.50 454.11 98.23 453.62 C 97.55 451.96 96.91 450.28 96.24 448.63 C 95.68 447.25 95.14 445.88 94.68 444.49 C 94.21 443.16 93.77 441.83 93.27 440.52 C 91.98 436.57 91.45 432.41 90.25 428.45 C 89.25 423.35 89.05 418.16 88.03 413.08 C 88.05 405.02 87.82 396.93 88.14 388.88 C 89.67 385.20 88.11 380.98 89.85 377.44 C 90.06 375.43 89.66 373.25 90.77 371.44 L 90.73 370.52 C 90.71 370.19 90.67 369.53 90.65 369.20 C 92.18 367.45 94.05 366.07 96.49 366.34 C 98.89 368.82 101.04 371.61 103.90 373.58 C 106.42 374.20 108.57 372.17 109.54 370.06 C 110.32 367.34 107.62 365.72 106.07 363.97 C 102.29 360.59 99.24 356.38 94.83 353.76 L 94.80 352.95 C 94.91 352.34 95.15 351.12 95.26 350.51 C 96.06 348.20 96.65 345.83 97.30 343.49 C 98.56 339.57 99.46 335.56 100.30 331.54 C 101.57 329.32 100.32 326.50 101.89 324.42 C 102.02 321.81 101.98 319.19 102.11 316.58 C 103.96 313.40 102.61 309.46 103.00 305.97 C 102.67 302.81 103.89 299.24 102.10 296.42 C 102.19 291.38 101.60 286.32 100.29 281.46 C 99.64 278.47 99.14 275.44 98.37 272.48 C 98.02 271.49 97.67 270.49 97.31 269.51 C 96.84 267.81 96.29 266.14 95.72 264.47 C 95.36 263.47 95.01 262.47 94.69 261.47 C 93.65 259.14 92.76 256.75 91.79 254.39 C 91.27 253.46 90.76 252.53 90.26 251.60 C 89.45 249.85 88.58 248.13 87.73 246.41 C 87.25 245.46 86.78 244.52 86.31 243.57 C 85.47 242.18 84.55 240.84 83.71 239.45 C 81.02 235.08 77.89 231.00 75.27 226.59 C 74.02 224.57 72.69 222.58 71.73 220.39 C 69.50 217.00 67.92 213.28 66.34 209.56 C 66.06 209.08 65.50 208.11 65.22 207.63 C 64.56 205.96 63.94 204.28 63.25 202.62 C 62.67 201.26 62.13 199.89 61.67 198.49 C 61.21 197.16 60.79 195.82 60.32 194.51 C 59.99 193.50 59.65 192.50 59.28 191.51 C 58.73 189.52 58.17 187.52 57.67 185.51 C 55.01 176.20 54.21 166.53 52.98 157.01 C 53.11 150.34 52.79 143.66 53.13 137.00 C 54.04 133.93 54.07 130.74 54.13 127.57 C 55.61 124.12 55.01 120.11 56.31 116.53 C 57.11 113.88 57.42 111.11 58.29 108.48 C 58.83 106.84 59.21 105.15 59.68 103.49 C 59.99 102.49 60.32 101.49 60.66 100.50 C 60.99 99.52 61.34 98.55 61.71 97.58 C 62.45 95.95 63.09 94.28 63.75 92.61 C 64.61 90.55 65.38 88.46 66.23 86.40 C 66.94 85.08 67.62 83.75 68.29 82.42 C 69.10 80.81 69.90 79.19 70.70 77.58 M 138.38 212.34 C 134.52 216.47 130.28 220.22 126.52 224.42 C 126.07 226.08 126.17 227.91 126.61 229.57 C 128.19 231.43 131.56 232.56 133.48 230.60 C 137.27 227.00 140.95 223.28 144.56 219.52 C 146.53 217.58 145.44 214.29 143.65 212.61 C 141.93 212.14 140.13 212.36 138.38 212.34 Z" />
<path fill="#ffd9bf" opacity="1.00" d=" M 378.50 156.59 C 382.05 152.91 383.90 148.03 385.71 143.33 C 386.89 144.46 388.13 145.53 389.54 146.36 C 390.50 146.80 391.46 147.25 392.42 147.72 C 393.75 148.38 395.08 149.05 396.42 149.72 C 397.75 150.37 399.08 151.04 400.41 151.72 C 402.41 152.70 404.41 153.70 406.42 154.68 C 407.81 155.53 409.17 156.45 410.59 157.27 C 412.29 158.19 413.89 159.27 415.54 160.28 C 422.34 165.39 429.40 170.59 434.32 177.61 C 438.89 182.62 442.54 188.45 445.74 194.40 C 446.68 196.43 447.69 198.43 448.77 200.39 C 449.61 202.46 450.37 204.55 451.25 206.60 C 451.78 207.90 452.26 209.21 452.80 210.51 C 452.91 211.00 453.13 211.98 453.24 212.47 C 453.75 213.75 454.02 215.11 454.32 216.47 C 454.79 218.17 455.16 219.90 455.79 221.56 C 455.92 222.52 456.06 223.48 456.20 224.45 C 457.67 226.60 456.25 229.50 457.90 231.58 C 458.34 234.55 457.16 237.92 458.89 240.58 C 459.08 248.52 459.07 256.48 458.89 264.42 C 457.12 266.98 458.50 270.26 457.83 273.13 C 457.18 275.52 456.92 277.97 456.82 280.44 C 455.44 282.60 456.50 285.33 455.28 287.55 C 454.82 290.20 454.23 292.83 453.71 295.47 C 453.19 297.15 452.81 298.88 452.25 300.55 C 452.12 301.02 451.87 301.98 451.75 302.45 C 451.16 304.10 450.81 305.82 450.35 307.51 C 450.02 308.51 449.69 309.51 449.34 310.51 C 448.98 311.52 448.61 312.53 448.22 313.54 C 448.11 314.02 447.90 315.00 447.79 315.48 C 447.25 316.80 446.79 318.14 446.31 319.48 C 445.87 320.89 445.32 322.26 444.76 323.62 C 444.22 324.86 443.76 326.14 443.25 327.40 C 442.38 329.44 441.62 331.54 440.75 333.59 C 439.14 336.46 438.19 339.64 436.76 342.60 C 435.34 345.23 434.01 347.90 432.75 350.61 C 431.01 353.92 428.84 357.00 427.30 360.42 C 426.19 362.51 424.90 364.50 423.73 366.55 C 422.93 367.86 422.13 369.17 421.30 370.46 C 420.45 371.83 419.54 373.15 418.70 374.53 C 416.68 377.51 414.63 380.48 412.70 383.53 C 411.32 385.56 409.92 387.57 408.32 389.43 C 406.80 391.66 405.25 393.89 404.18 396.38 C 401.59 394.86 399.41 392.81 397.36 390.66 C 395.71 388.87 393.46 387.33 393.03 384.77 C 394.47 377.61 396.16 370.50 397.88 363.40 C 399.46 358.61 400.56 353.67 401.08 348.66 C 405.02 348.19 409.30 349.13 412.90 347.09 C 416.79 345.46 418.47 340.90 418.42 336.95 C 418.35 323.30 418.45 309.65 418.38 296.00 C 418.47 291.11 414.15 287.12 409.56 286.30 C 405.44 285.55 401.23 285.99 397.07 285.73 C 404.01 266.78 410.11 247.52 417.02 228.55 C 420.42 219.25 423.65 209.87 426.70 200.44 C 427.76 196.59 429.42 192.91 430.22 188.98 C 430.67 186.62 429.13 184.14 426.91 183.32 C 421.25 180.87 414.98 180.12 409.51 177.18 C 407.31 176.17 405.03 175.35 402.72 174.64 C 395.42 172.19 387.82 170.56 380.79 167.42 C 377.71 165.70 374.34 164.66 370.96 163.77 C 373.61 161.53 376.11 159.11 378.50 156.59 Z" />
<path fill="#ffd9bf" opacity="1.00" d=" M 356.88 221.82 C 358.29 216.48 364.21 212.81 369.58 214.62 C 375.13 216.08 378.15 222.72 375.98 227.96 C 369.98 245.56 363.84 263.12 357.76 280.70 C 357.23 282.34 356.80 284.02 356.37 285.70 C 349.23 285.87 342.09 285.87 334.95 285.68 C 342.17 264.36 349.59 243.11 356.88 221.82 Z" />
</g>
<g id="#6c6cffff">
<path fill="#6c6cff" opacity="1.00" d=" M 234.30 19.32 C 238.53 14.95 242.59 10.31 247.55 6.73 C 249.00 7.30 250.44 7.93 251.80 8.72 C 254.76 12.24 258.31 15.20 261.37 18.63 C 262.47 19.79 263.29 21.34 262.93 23.00 C 262.62 26.35 258.28 28.30 255.55 26.38 C 252.81 24.28 250.60 21.59 248.10 19.23 C 245.07 21.70 242.90 25.71 239.09 26.94 C 234.85 28.26 231.23 22.49 234.30 19.32 Z" />
<path fill="#6c6cff" opacity="1.00" d=" M 324.45 196.42 C 326.60 189.27 329.38 182.32 331.61 175.18 C 337.76 180.03 345.57 181.82 353.25 182.32 C 350.87 185.58 348.06 188.60 344.55 190.66 C 338.57 194.51 331.35 195.45 324.45 196.42 Z" />
<path fill="#6c6cff" opacity="1.00" d=" M 404.05 194.48 C 404.18 194.08 404.43 193.28 404.55 192.87 C 411.92 195.43 419.26 198.09 426.70 200.44 C 423.65 209.87 420.42 219.25 417.02 228.55 C 412.88 223.76 408.12 219.28 405.56 213.37 C 402.85 207.50 402.46 200.71 404.05 194.48 Z" />
</g>
<g id="#ff4d4dff">
<path fill="#ff4d4d" opacity="1.00" d=" M 326.45 17.72 C 328.42 16.73 330.44 17.95 332.26 18.70 C 334.91 20.05 337.89 20.92 340.21 22.84 C 341.16 25.64 340.97 28.78 342.50 31.41 C 345.47 37.27 352.64 40.58 359.03 38.96 C 362.08 38.40 364.36 36.12 367.16 35.00 C 369.92 35.60 372.40 37.02 374.97 38.14 C 376.80 39.10 379.22 39.76 379.91 41.98 C 383.48 51.23 386.87 60.56 390.40 69.82 C 391.25 71.64 391.38 74.22 389.42 75.37 C 385.07 77.49 380.37 78.80 375.89 80.64 C 373.91 81.43 371.18 82.48 369.55 80.44 C 367.72 77.36 366.88 73.83 365.55 70.53 C 360.89 80.14 356.75 89.99 352.14 99.62 C 343.93 99.66 335.71 102.57 329.49 107.96 C 321.84 104.11 313.84 100.98 306.21 97.10 C 307.80 93.78 311.05 90.18 309.58 86.30 C 307.29 83.38 303.45 82.36 300.21 80.87 C 303.88 70.07 309.61 60.09 313.83 49.49 C 314.02 48.91 314.41 47.75 314.60 47.18 C 313.56 47.35 312.58 47.69 311.66 48.18 C 308.77 48.92 305.88 50.77 302.90 50.40 C 299.03 44.79 297.80 37.78 294.93 31.63 C 294.95 29.33 297.21 28.67 298.96 27.98 C 308.14 24.59 317.28 21.10 326.45 17.72 Z" />
<path fill="#ff4d4d" opacity="1.00" d=" M 88.13 58.12 C 99.52 50.60 115.34 50.76 126.50 58.65 C 135.57 64.63 140.98 75.18 141.70 85.90 C 141.78 88.50 141.62 91.11 141.46 93.71 C 139.77 100.14 137.00 106.43 132.29 111.24 C 127.80 115.98 121.93 119.29 115.68 121.12 C 108.31 122.06 100.46 122.41 93.53 119.26 C 83.29 115.00 75.25 105.54 73.02 94.62 C 71.00 85.95 73.06 76.97 76.63 69.00 C 77.39 67.90 78.17 66.81 78.92 65.70 C 81.97 63.15 84.77 60.28 88.13 58.12 M 102.45 73.33 C 101.56 76.18 102.08 79.25 101.97 82.19 C 99.13 82.27 96.23 81.93 93.45 82.55 C 89.68 83.76 89.10 89.47 92.53 91.43 C 95.42 92.87 98.83 91.98 101.95 92.18 C 102.16 95.26 101.38 98.60 102.66 101.51 C 104.53 105.07 110.40 104.58 111.63 100.73 C 112.23 97.93 111.90 95.02 112.03 92.17 C 114.95 92.08 118.00 92.62 120.82 91.75 C 124.48 90.23 124.63 84.50 121.04 82.80 C 118.18 81.70 114.97 82.36 111.97 82.20 C 111.84 79.25 112.38 76.16 111.47 73.32 C 109.89 69.60 104.01 69.60 102.45 73.33 Z" />
<path fill="#ff4d4d" opacity="1.00" d=" M 144.84 363.04 C 153.58 362.79 162.34 362.88 171.09 363.02 C 163.89 370.56 156.11 377.55 149.17 385.32 C 147.77 379.25 146.25 373.20 145.04 367.08 C 144.95 365.73 144.88 364.39 144.84 363.04 Z" />
<path fill="#ff4d4d" opacity="1.00" d=" M 233.35 364.38 C 234.78 362.72 237.08 362.96 239.06 362.88 C 260.35 363.03 281.65 362.93 302.95 362.92 C 304.93 362.99 307.23 362.73 308.68 364.38 C 318.96 374.17 328.49 384.78 339.13 394.19 C 339.29 390.70 339.30 387.19 339.85 383.74 C 339.94 387.72 340.07 391.70 339.99 395.69 C 339.89 405.45 339.96 415.22 339.95 424.98 C 340.11 429.17 339.43 433.49 340.45 437.60 C 342.26 441.99 349.68 440.79 349.81 435.98 C 350.10 427.52 350.04 419.04 349.85 410.58 C 349.92 409.03 349.97 407.47 350.02 405.93 C 360.76 415.86 370.52 426.82 381.43 436.57 C 378.58 447.90 376.16 459.33 373.44 470.69 C 372.67 474.40 369.79 477.54 366.12 478.53 C 345.06 478.33 323.98 478.85 302.93 478.17 C 263.64 478.17 224.36 478.13 185.07 478.16 C 181.06 478.03 176.33 478.90 173.12 475.89 C 168.89 472.31 168.68 466.39 167.40 461.40 C 165.33 453.08 163.70 444.65 161.48 436.37 C 171.38 425.89 182.04 416.15 192.23 405.95 C 192.17 414.97 192.29 424.00 192.24 433.03 C 192.26 435.30 192.18 438.10 194.38 439.47 C 197.18 441.69 201.99 439.67 202.12 436.04 C 202.50 431.05 202.16 426.03 202.26 421.03 C 202.28 412.60 202.23 404.16 202.32 395.72 C 202.39 391.41 202.48 387.09 202.30 382.78 C 203.28 386.48 202.99 390.36 203.17 394.15 C 213.59 384.61 223.23 374.23 233.35 364.38 M 229.35 383.17 C 228.90 388.14 229.35 393.14 229.17 398.13 C 229.11 410.40 229.20 422.67 229.25 434.95 C 228.84 438.08 231.90 440.89 234.98 440.32 C 237.50 439.93 239.31 437.47 239.14 434.96 C 239.23 422.68 239.18 410.40 239.18 398.12 C 239.04 393.07 239.49 388.00 238.96 382.97 C 237.87 378.24 230.23 378.33 229.35 383.17 M 266.79 381.84 C 266.20 383.17 265.92 384.59 266.00 386.05 C 266.07 402.39 266.06 418.73 266.18 435.06 C 265.89 437.83 268.28 440.41 271.05 440.38 C 273.90 440.48 276.30 437.78 276.04 434.97 C 276.18 422.70 276.07 410.44 276.10 398.17 C 275.96 393.09 276.40 387.99 275.88 382.93 C 274.86 378.89 268.72 378.15 266.79 381.84 M 303.45 382.35 C 302.60 386.01 303.00 389.91 303.16 393.65 C 302.79 407.45 303.07 421.27 303.11 435.08 C 302.79 437.86 305.25 440.45 308.02 440.38 C 310.81 440.44 313.26 437.80 312.92 434.99 C 313.04 423.37 313.04 411.75 312.99 400.13 C 312.80 394.42 313.34 388.68 312.80 382.99 C 311.80 378.64 305.05 378.18 303.45 382.35 Z" />
<path fill="#ff4d4d" opacity="1.00" d=" M 371.57 363.33 C 380.31 362.73 389.14 362.56 397.88 363.40 C 396.16 370.50 394.47 377.61 393.03 384.77 C 385.78 377.71 378.65 370.54 371.57 363.33 Z" />
</g>
<g id="#8e423e8e">
<path fill="#8e423e" opacity="0.56" d=" M 311.66 48.18 C 312.58 47.69 313.56 47.35 314.60 47.18 C 314.41 47.75 314.02 48.91 313.83 49.49 C 313.29 49.16 312.20 48.51 311.66 48.18 Z" />
</g>
<g id="#ff9635ff">
<path fill="#ff9635" opacity="1.00" d=" M 221.10 59.56 C 228.43 57.37 235.63 54.72 242.99 52.64 C 262.32 61.48 280.96 71.85 300.21 80.87 C 303.45 82.36 307.29 83.38 309.58 86.30 C 311.05 90.18 307.80 93.78 306.21 97.10 C 301.59 105.39 297.59 114.01 293.29 122.47 C 292.13 124.50 291.48 127.25 289.06 128.15 C 287.54 129.13 285.85 128.02 284.42 127.47 C 277.93 124.32 271.70 120.64 265.03 117.91 C 265.85 121.69 267.05 125.36 268.32 129.02 C 256.90 129.04 245.48 129.07 234.06 128.94 C 236.77 122.77 236.29 114.68 230.78 110.18 C 225.27 105.16 215.85 106.51 211.63 112.52 C 208.15 117.09 207.43 125.28 213.10 128.45 C 210.18 128.90 207.23 129.18 204.28 129.47 C 203.03 125.35 201.53 120.72 197.39 118.64 C 192.51 115.68 186.69 117.83 181.89 119.82 C 177.03 121.72 174.32 127.10 174.82 132.17 C 174.16 130.90 173.85 128.87 171.97 129.08 C 162.35 128.76 152.70 129.16 143.07 128.99 C 137.52 128.80 131.85 129.68 126.40 128.24 C 137.38 120.77 143.76 106.90 141.46 93.71 C 141.62 91.11 141.78 88.50 141.70 85.90 C 147.07 83.81 152.56 82.00 158.11 80.45 C 160.32 81.15 161.92 82.91 163.64 84.36 C 168.97 89.11 175.75 92.68 183.05 92.57 C 191.59 93.28 199.99 89.83 206.49 84.46 C 212.45 79.29 215.22 71.55 216.29 63.93 C 216.35 61.29 218.93 60.18 221.10 59.56 Z" />
</g>
<g id="#ffffffff">
<path fill="#ffffff" opacity="1.00" d=" M 102.45 73.33 C 104.01 69.60 109.89 69.60 111.47 73.32 C 112.38 76.16 111.84 79.25 111.97 82.20 C 114.97 82.36 118.18 81.70 121.04 82.80 C 124.63 84.50 124.48 90.23 120.82 91.75 C 118.00 92.62 114.95 92.08 112.03 92.17 C 111.90 95.02 112.23 97.93 111.63 100.73 C 110.40 104.58 104.53 105.07 102.66 101.51 C 101.38 98.60 102.16 95.26 101.95 92.18 C 98.83 91.98 95.42 92.87 92.53 91.43 C 89.10 89.47 89.68 83.76 93.45 82.55 C 96.23 81.93 99.13 82.27 101.97 82.19 C 102.08 79.25 101.56 76.18 102.45 73.33 Z" />
<path fill="#ffffff" opacity="1.00" d=" M 347.66 120.78 C 349.11 117.09 354.87 116.86 356.60 120.43 C 357.74 123.32 357.06 126.57 357.24 129.62 C 360.34 129.80 363.73 128.96 366.63 130.34 C 370.02 132.27 369.53 137.84 365.89 139.20 C 363.09 139.91 360.16 139.53 357.31 139.55 C 357.04 142.59 357.72 145.82 356.60 148.72 C 354.85 152.29 349.07 152.04 347.64 148.32 C 346.85 145.51 347.34 142.50 347.21 139.62 C 344.42 139.52 341.57 139.88 338.82 139.28 C 335.11 138.17 334.28 132.64 337.54 130.52 C 340.43 128.80 344.03 129.89 347.23 129.57 C 347.35 126.65 346.82 123.61 347.66 120.78 Z" />
</g>
<g id="#ff820bff">
<path fill="#ff820b" opacity="1.00" d=" M 141.46 93.71 C 143.76 106.90 137.38 120.77 126.40 128.24 C 121.25 131.04 115.63 133.86 109.60 133.37 C 111.53 129.24 113.67 125.21 115.68 121.12 C 121.93 119.29 127.80 115.98 132.29 111.24 C 137.00 106.43 139.77 100.14 141.46 93.71 Z" />
</g>
<g id="#ff9d33ff">
<path fill="#ff9d33" opacity="1.00" d=" M 329.49 107.96 C 335.71 102.57 343.93 99.66 352.14 99.62 C 359.92 99.74 367.67 102.38 373.76 107.24 C 384.35 115.51 389.58 130.36 385.71 143.33 C 383.90 148.03 382.05 152.91 378.50 156.59 C 376.11 159.11 373.61 161.53 370.96 163.77 C 370.00 164.47 369.02 165.14 368.02 165.76 C 365.12 167.11 362.09 168.17 358.97 168.88 C 351.21 170.35 342.82 169.42 335.91 165.45 C 324.57 159.40 316.93 146.94 317.35 134.00 C 317.34 124.01 322.29 114.68 329.49 107.96 M 347.66 120.78 C 346.82 123.61 347.35 126.65 347.23 129.57 C 344.03 129.89 340.43 128.80 337.54 130.52 C 334.28 132.64 335.11 138.17 338.82 139.28 C 341.57 139.88 344.42 139.52 347.21 139.62 C 347.34 142.50 346.85 145.51 347.64 148.32 C 349.07 152.04 354.85 152.29 356.60 148.72 C 357.72 145.82 357.04 142.59 357.31 139.55 C 360.16 139.53 363.09 139.91 365.89 139.20 C 369.53 137.84 370.02 132.27 366.63 130.34 C 363.73 128.96 360.34 129.80 357.24 129.62 C 357.06 126.57 357.74 123.32 356.60 120.43 C 354.87 116.86 349.11 117.09 347.66 120.78 Z" />
<path fill="#ff9d33" opacity="1.00" d=" M 138.38 212.34 C 140.13 212.36 141.93 212.14 143.65 212.61 C 145.44 214.29 146.53 217.58 144.56 219.52 C 140.95 223.28 137.27 227.00 133.48 230.60 C 131.56 232.56 128.19 231.43 126.61 229.57 C 126.17 227.91 126.07 226.08 126.52 224.42 C 130.28 220.22 134.52 216.47 138.38 212.34 Z" />
</g>
<g id="#ffe4e4ff">
<path fill="#ffe4e4" opacity="1.00" d=" M 211.63 112.52 C 215.85 106.51 225.27 105.16 230.78 110.18 C 236.29 114.68 236.77 122.77 234.06 128.94 C 233.37 130.75 232.63 132.53 231.90 134.32 C 234.73 133.73 237.82 131.78 240.65 133.31 C 243.85 134.92 244.04 140.21 240.75 141.81 C 235.99 143.97 230.87 145.17 225.97 146.94 C 223.52 147.58 220.73 149.09 218.34 147.50 C 216.08 146.15 215.37 142.94 216.79 140.73 C 220.11 134.71 224.15 128.84 225.62 122.03 C 226.46 119.26 223.41 115.72 220.64 117.63 C 217.64 119.53 220.44 123.78 218.32 126.24 C 217.15 127.93 214.90 127.97 213.10 128.45 C 207.43 125.28 208.15 117.09 211.63 112.52 Z" />
</g>
<g id="#ffe3e3ff">
<path fill="#ffe3e3" opacity="1.00" d=" M 181.89 119.82 C 186.69 117.83 192.51 115.68 197.39 118.64 C 201.53 120.72 203.03 125.35 204.28 129.47 C 205.79 134.61 208.02 139.58 208.70 144.94 C 205.43 144.88 202.16 144.90 198.89 145.16 C 196.86 139.43 195.36 133.49 193.02 127.88 C 190.44 126.13 187.10 128.87 184.53 129.79 C 186.04 134.82 187.67 139.83 189.35 144.82 C 185.86 144.88 182.38 144.93 178.89 144.99 C 177.54 140.71 176.04 136.49 174.82 132.17 C 174.32 127.10 177.03 121.72 181.89 119.82 Z" />
</g>
<g id="#ff8b39ff">
<path fill="#ff8b39" opacity="1.00" d=" M 220.64 117.63 C 223.41 115.72 226.46 119.26 225.62 122.03 C 224.15 128.84 220.11 134.71 216.79 140.73 C 215.37 142.94 216.08 146.15 218.34 147.50 C 220.73 149.09 223.52 147.58 225.97 146.94 C 230.87 145.17 235.99 143.97 240.75 141.81 C 244.04 140.21 243.85 134.92 240.65 133.31 C 237.82 131.78 234.73 133.73 231.90 134.32 C 232.63 132.53 233.37 130.75 234.06 128.94 C 245.48 129.07 256.90 129.04 268.32 129.02 C 275.41 150.30 282.36 171.63 289.34 192.95 C 254.90 193.04 220.45 192.97 186.01 193.01 C 179.70 193.04 173.37 192.72 167.08 193.41 C 162.99 180.92 159.08 168.36 154.87 155.91 C 154.22 155.60 153.56 155.35 152.87 155.15 C 150.44 161.04 147.22 166.55 144.54 172.33 C 143.70 173.80 143.08 175.59 141.61 176.57 C 138.10 177.70 134.85 175.38 131.86 173.89 C 121.85 168.52 111.57 163.67 101.53 158.37 C 99.48 157.45 98.91 154.89 99.93 153.00 C 103.05 146.41 106.60 140.02 109.60 133.37 C 115.63 133.86 121.25 131.04 126.40 128.24 C 131.85 129.68 137.52 128.80 143.07 128.99 C 152.70 129.16 162.35 128.76 171.97 129.08 C 173.85 128.87 174.16 130.90 174.82 132.17 C 176.04 136.49 177.54 140.71 178.89 144.99 C 180.19 149.18 181.48 154.04 185.65 156.29 C 190.74 159.56 196.98 157.27 202.00 155.06 C 205.97 153.29 208.23 149.12 208.70 144.94 C 208.02 139.58 205.79 134.61 204.28 129.47 C 207.23 129.18 210.18 128.90 213.10 128.45 C 214.90 127.97 217.15 127.93 218.32 126.24 C 220.44 123.78 217.64 119.53 220.64 117.63 Z" />
</g>
<g id="#ff8f37ff">
<path fill="#ff8f37" opacity="1.00" d=" M 184.53 129.79 C 187.10 128.87 190.44 126.13 193.02 127.88 C 195.36 133.49 196.86 139.43 198.89 145.16 C 196.44 146.65 193.70 147.58 190.93 148.27 C 190.38 147.12 189.84 145.98 189.35 144.82 C 187.67 139.83 186.04 134.82 184.53 129.79 Z" />
</g>
<g id="#ff6c6cff">
<path fill="#ff6c6c" opacity="1.00" d=" M 421.13 135.03 C 422.92 132.84 426.50 132.53 428.48 134.65 C 432.15 138.30 436.03 141.79 439.35 145.76 C 441.85 149.60 437.16 154.86 433.06 152.80 C 429.95 150.80 427.72 147.74 425.01 145.27 C 422.29 147.73 420.07 150.80 416.97 152.79 C 412.85 154.87 408.13 149.59 410.67 145.75 C 413.89 141.94 417.68 138.64 421.13 135.03 Z" />
<path fill="#ff6c6c" opacity="1.00" d=" M 125.91 289.93 C 128.20 287.44 131.50 285.76 134.92 285.73 C 188.11 285.67 241.30 285.86 294.49 285.71 C 307.97 285.51 321.46 285.55 334.95 285.68 C 342.09 285.87 349.23 285.87 356.37 285.70 C 369.94 285.55 383.51 285.49 397.07 285.73 C 401.23 285.99 405.44 285.55 409.56 286.30 C 414.15 287.12 418.47 291.11 418.38 296.00 C 418.45 309.65 418.35 323.30 418.42 336.95 C 418.47 340.90 416.79 345.46 412.90 347.09 C 409.30 349.13 405.02 348.19 401.08 348.66 C 386.60 349.60 372.01 348.08 357.56 349.44 C 344.52 336.16 331.24 323.11 318.14 309.89 C 315.18 306.90 311.31 304.52 307.01 304.29 C 300.37 303.76 293.53 307.90 291.36 314.29 C 289.62 319.69 290.30 326.32 294.58 330.39 C 300.71 336.59 306.96 342.68 313.04 348.94 C 285.23 348.77 257.41 349.22 229.60 348.71 C 235.51 342.60 241.70 336.77 247.52 330.58 C 251.66 326.28 252.96 319.64 250.78 314.10 C 248.20 307.11 240.08 302.92 232.87 304.66 C 229.62 305.25 226.90 307.26 224.62 309.55 C 211.32 322.89 198.04 336.25 184.69 349.52 C 179.85 348.49 174.91 349.03 170.02 348.95 C 160.32 349.17 150.57 348.39 140.91 349.40 C 137.61 348.00 133.99 348.85 130.56 348.28 C 125.92 346.83 123.39 341.58 123.52 336.97 C 123.58 324.33 123.57 311.69 123.53 299.05 C 123.57 295.91 123.72 292.41 125.91 289.93 Z" />
<path fill="#ff6c6c" opacity="1.00" d=" M 81.97 365.01 C 86.07 360.82 90.07 356.46 94.80 352.95 L 94.83 353.76 C 99.24 356.38 102.29 360.59 106.07 363.97 C 107.62 365.72 110.32 367.34 109.54 370.06 C 108.57 372.17 106.42 374.20 103.90 373.58 C 101.04 371.61 98.89 368.82 96.49 366.34 C 94.05 366.07 92.18 367.45 90.65 369.20 C 90.67 369.53 90.71 370.19 90.73 370.52 C 89.08 372.35 86.62 374.13 84.03 373.24 C 80.58 372.33 79.27 367.44 81.97 365.01 Z" />
<path fill="#ff6c6c" opacity="1.00" d=" M 437.32 373.24 C 440.95 370.47 446.46 374.81 444.74 379.01 C 442.99 382.31 439.69 384.46 437.26 387.24 C 434.87 389.36 432.72 393.05 429.01 392.32 C 425.49 391.75 423.67 386.96 426.15 384.32 C 429.79 380.55 433.41 376.73 437.32 373.24 Z" />
</g>
<g id="#ffdcdcff">
<path fill="#ffdcdc" opacity="1.00" d=" M 178.89 144.99 C 182.38 144.93 185.86 144.88 189.35 144.82 C 189.84 145.98 190.38 147.12 190.93 148.27 C 193.70 147.58 196.44 146.65 198.89 145.16 C 202.16 144.90 205.43 144.88 208.70 144.94 C 208.23 149.12 205.97 153.29 202.00 155.06 C 196.98 157.27 190.74 159.56 185.65 156.29 C 181.48 154.04 180.19 149.18 178.89 144.99 Z" />
</g>
<g id="#b3b3ffff">
<path fill="#b3b3ff" opacity="1.00" d=" M 368.02 165.76 C 369.02 165.14 370.00 164.47 370.96 163.77 C 374.34 164.66 377.71 165.70 380.79 167.42 C 376.78 172.64 371.40 176.46 365.70 179.63 C 365.25 179.46 364.33 179.11 363.88 178.93 C 365.20 174.52 366.94 170.24 368.02 165.76 Z" />
<path fill="#b3b3ff" opacity="1.00" d=" M 333.79 168.63 C 334.45 167.54 335.18 166.50 335.91 165.45 C 342.82 169.42 351.21 170.35 358.97 168.88 C 358.01 171.33 357.13 173.81 356.27 176.30 C 348.80 173.67 341.35 170.96 333.79 168.63 Z" />
<path fill="#b3b3ff" opacity="1.00" d=" M 396.10 190.50 C 399.50 185.77 399.84 179.66 402.72 174.64 C 405.03 175.35 407.31 176.17 409.51 177.18 C 408.31 182.54 406.28 187.67 404.55 192.87 C 404.43 193.28 404.18 194.08 404.05 194.48 C 401.13 193.80 397.55 193.58 396.10 190.50 Z" />
</g>
<g id="#9494ffff">
<path fill="#9494ff" opacity="1.00" d=" M 358.97 168.88 C 362.09 168.17 365.12 167.11 368.02 165.76 C 366.94 170.24 365.20 174.52 363.88 178.93 C 364.33 179.11 365.25 179.46 365.70 179.63 C 375.81 183.33 386.21 186.25 396.10 190.50 C 397.55 193.58 401.13 193.80 404.05 194.48 C 402.46 200.71 402.85 207.50 405.56 213.37 C 408.12 219.28 412.88 223.76 417.02 228.55 C 410.11 247.52 404.01 266.78 397.07 285.73 C 383.51 285.49 369.94 285.55 356.37 285.70 C 356.80 284.02 357.23 282.34 357.76 280.70 C 363.84 263.12 369.98 245.56 375.98 227.96 C 378.15 222.72 375.13 216.08 369.58 214.62 C 364.21 212.81 358.29 216.48 356.88 221.82 C 349.59 243.11 342.17 264.36 334.95 285.68 C 321.46 285.55 307.97 285.51 294.49 285.71 C 294.49 284.50 294.48 283.26 294.90 282.11 C 304.79 253.56 314.79 225.05 324.45 196.42 C 331.35 195.45 338.57 194.51 344.55 190.66 C 348.06 188.60 350.87 185.58 353.25 182.32 C 354.53 180.46 355.52 178.43 356.27 176.30 C 357.13 173.81 358.01 171.33 358.97 168.88 Z" />
</g>
<g id="#d9d9ffff">
<path fill="#d9d9ff" opacity="1.00" d=" M 380.79 167.42 C 387.82 170.56 395.42 172.19 402.72 174.64 C 399.84 179.66 399.50 185.77 396.10 190.50 C 386.21 186.25 375.81 183.33 365.70 179.63 C 371.40 176.46 376.78 172.64 380.79 167.42 Z" />
<path fill="#d9d9ff" opacity="1.00" d=" M 409.51 177.18 C 414.98 180.12 421.25 180.87 426.91 183.32 C 429.13 184.14 430.67 186.62 430.22 188.98 C 429.42 192.91 427.76 196.59 426.70 200.44 C 419.26 198.09 411.92 195.43 404.55 192.87 C 406.28 187.67 408.31 182.54 409.51 177.18 Z" />
</g>
<g id="#4d4dffff">
<path fill="#4d4dff" opacity="1.00" d=" M 331.61 175.18 C 332.30 172.99 332.96 170.78 333.79 168.63 C 341.35 170.96 348.80 173.67 356.27 176.30 C 355.52 178.43 354.53 180.46 353.25 182.32 C 345.57 181.82 337.76 180.03 331.61 175.18 Z" />
</g>
<g id="#ff833bff">
<path fill="#ff833b" opacity="1.00" d=" M 167.08 193.41 C 173.37 192.72 179.70 193.04 186.01 193.01 C 220.45 192.97 254.90 193.04 289.34 192.95 C 291.21 198.57 293.11 204.17 294.98 209.78 C 295.62 211.81 296.26 214.69 294.04 216.00 C 291.60 217.46 288.79 218.09 286.13 219.01 C 254.57 229.43 222.97 239.71 191.44 250.18 C 188.84 251.37 185.69 250.29 184.79 247.48 C 178.76 229.51 172.92 211.46 167.08 193.41 Z" />
</g>
<g id="#ffab66ff">
<path fill="#ffab66" opacity="1.00" d=" M 232.87 304.66 C 240.08 302.92 248.20 307.11 250.78 314.10 C 252.96 319.64 251.66 326.28 247.52 330.58 C 241.70 336.77 235.51 342.60 229.60 348.71 C 219.24 358.74 209.21 369.10 198.95 379.22 C 196.56 381.54 194.28 383.95 191.95 386.31 C 180.41 397.41 169.51 409.20 157.75 420.06 C 157.49 420.26 156.96 420.67 156.69 420.87 C 150.48 424.86 146.93 432.29 139.79 434.93 C 135.21 437.11 129.44 435.54 126.00 432.00 C 123.16 429.36 120.05 426.21 120.52 421.98 C 119.50 414.50 125.83 409.27 130.57 404.54 C 136.70 398.07 143.58 392.28 149.17 385.32 C 156.11 377.55 163.89 370.56 171.09 363.02 C 175.61 358.51 180.09 353.96 184.69 349.52 C 198.04 336.25 211.32 322.89 224.62 309.55 C 226.90 307.26 229.62 305.25 232.87 304.66 M 232.15 317.19 C 228.76 318.77 228.72 324.23 231.97 325.97 C 234.96 327.92 239.54 325.55 239.47 321.91 C 239.97 318.18 235.35 315.16 232.15 317.19 Z" />
<path fill="#ffab66" opacity="1.00" d=" M 291.36 314.29 C 293.53 307.90 300.37 303.76 307.01 304.29 C 311.31 304.52 315.18 306.90 318.14 309.89 C 331.24 323.11 344.52 336.16 357.56 349.44 C 362.23 354.07 366.83 358.77 371.57 363.33 C 378.65 370.54 385.78 377.71 393.03 384.77 C 393.46 387.33 395.71 388.87 397.36 390.66 C 399.41 392.81 401.59 394.86 404.18 396.38 C 408.95 400.40 413.08 405.14 417.59 409.46 C 423.29 414.67 424.10 424.19 419.33 430.27 C 414.36 437.19 403.45 438.44 397.04 432.85 C 392.90 429.09 389.11 424.95 385.11 421.04 C 373.41 409.33 361.70 397.63 350.01 385.91 C 347.79 383.63 345.51 381.42 343.24 379.20 C 333.19 369.10 323.09 359.04 313.04 348.94 C 306.96 342.68 300.71 336.59 294.58 330.39 C 290.30 326.32 289.62 319.69 291.36 314.29 M 305.25 317.20 C 301.48 318.98 302.03 325.24 306.02 326.36 C 309.36 327.61 313.17 324.64 312.57 321.07 C 312.54 317.53 308.16 315.40 305.25 317.20 Z" />
</g>
<g id="#ff8b00ff">
<path fill="#ff8b00" opacity="1.00" d=" M 232.15 317.19 C 235.35 315.16 239.97 318.18 239.47 321.91 C 239.54 325.55 234.96 327.92 231.97 325.97 C 228.72 324.23 228.76 318.77 232.15 317.19 Z" />
<path fill="#ff8b00" opacity="1.00" d=" M 305.25 317.20 C 308.16 315.40 312.54 317.53 312.57 321.07 C 313.17 324.64 309.36 327.61 306.02 326.36 C 302.03 325.24 301.48 318.98 305.25 317.20 Z" />
</g>
<g id="#ff2d2dff">
<path fill="#ff2d2d" opacity="1.00" d=" M 140.91 349.40 C 150.57 348.39 160.32 349.17 170.02 348.95 C 174.91 349.03 179.85 348.49 184.69 349.52 C 180.09 353.96 175.61 358.51 171.09 363.02 C 162.34 362.88 153.58 362.79 144.84 363.04 C 144.88 364.39 144.95 365.73 145.04 367.08 C 143.49 361.23 141.80 355.40 140.91 349.40 Z" />
<path fill="#ff2d2d" opacity="1.00" d=" M 357.56 349.44 C 372.01 348.08 386.60 349.60 401.08 348.66 C 400.56 353.67 399.46 358.61 397.88 363.40 C 389.14 362.56 380.31 362.73 371.57 363.33 C 366.83 358.77 362.23 354.07 357.56 349.44 Z" />
</g>
<g id="#ff2e2eff">
<path fill="#ff2e2e" opacity="1.00" d=" M 198.95 379.22 C 209.21 369.10 219.24 358.74 229.60 348.71 C 257.41 349.22 285.23 348.77 313.04 348.94 C 323.09 359.04 333.19 369.10 343.24 379.20 C 341.82 380.44 339.90 381.61 339.85 383.74 C 339.30 387.19 339.29 390.70 339.13 394.19 C 328.49 384.78 318.96 374.17 308.68 364.38 C 307.23 362.73 304.93 362.99 302.95 362.92 C 281.65 362.93 260.35 363.03 239.06 362.88 C 237.08 362.96 234.78 362.72 233.35 364.38 C 223.23 374.23 213.59 384.61 203.17 394.15 C 202.99 390.36 203.28 386.48 202.30 382.78 C 201.72 381.16 200.18 380.27 198.95 379.22 Z" />
</g>
<g id="#ffc5c5ff">
<path fill="#ffc5c5" opacity="1.00" d=" M 191.95 386.31 C 194.28 383.95 196.56 381.54 198.95 379.22 C 200.18 380.27 201.72 381.16 202.30 382.78 C 202.48 387.09 202.39 391.41 202.32 395.72 C 198.75 398.64 195.59 402.00 192.70 405.58 L 192.23 404.53 C 191.82 398.46 192.18 392.38 191.95 386.31 Z" />
<path fill="#ffc5c5" opacity="1.00" d=" M 339.85 383.74 C 339.90 381.61 341.82 380.44 343.24 379.20 C 345.51 381.42 347.79 383.63 350.01 385.91 C 350.02 392.58 349.92 399.25 350.02 405.93 C 346.81 402.39 343.47 398.96 339.99 395.69 C 340.07 391.70 339.94 387.72 339.85 383.74 Z" />
</g>
<g id="#ffe6e6ff">
<path fill="#ffe6e6" opacity="1.00" d=" M 229.35 383.17 C 230.23 378.33 237.87 378.24 238.96 382.97 C 239.49 388.00 239.04 393.07 239.18 398.12 C 235.85 398.19 232.51 398.19 229.17 398.13 C 229.35 393.14 228.90 388.14 229.35 383.17 Z" />
<path fill="#ffe6e6" opacity="1.00" d=" M 266.79 381.84 C 268.72 378.15 274.86 378.89 275.88 382.93 C 276.40 387.99 275.96 393.09 276.10 398.17 C 273.11 398.22 270.13 398.15 267.15 397.97 C 266.61 392.61 266.82 387.22 266.79 381.84 Z" />
<path fill="#ffe6e6" opacity="1.00" d=" M 303.45 382.35 C 305.05 378.18 311.80 378.64 312.80 382.99 C 313.34 388.68 312.80 394.42 312.99 400.13 C 310.10 400.21 307.20 400.14 304.32 399.92 C 303.93 397.82 303.50 395.74 303.16 393.65 C 303.00 389.91 302.60 386.01 303.45 382.35 Z" />
</g>
<g id="#ffd7d7ff">
<path fill="#ffd7d7" opacity="1.00" d=" M 266.00 386.05 C 265.92 384.59 266.20 383.17 266.79 381.84 C 266.82 387.22 266.61 392.61 267.15 397.97 C 270.13 398.15 273.11 398.22 276.10 398.17 C 276.07 410.44 276.18 422.70 276.04 434.97 C 276.30 437.78 273.90 440.48 271.05 440.38 C 268.28 440.41 265.89 437.83 266.18 435.06 C 266.06 418.73 266.07 402.39 266.00 386.05 Z" />
<path fill="#ffd7d7" opacity="1.00" d=" M 303.16 393.65 C 303.50 395.74 303.93 397.82 304.32 399.92 C 307.20 400.14 310.10 400.21 312.99 400.13 C 313.04 411.75 313.04 423.37 312.92 434.99 C 313.26 437.80 310.81 440.44 308.02 440.38 C 305.25 440.45 302.79 437.86 303.11 435.08 C 303.07 421.27 302.79 407.45 303.16 393.65 Z" />
<path fill="#ffd7d7" opacity="1.00" d=" M 229.17 398.13 C 232.51 398.19 235.85 398.19 239.18 398.12 C 239.18 410.40 239.23 422.68 239.14 434.96 C 239.31 437.47 237.50 439.93 234.98 440.32 C 231.90 440.89 228.84 438.08 229.25 434.95 C 229.20 422.67 229.11 410.40 229.17 398.13 Z" />
</g>
<g id="#ff3333ff">
<path fill="#ff3333" opacity="1.00" d=" M 350.01 385.91 C 361.70 397.63 373.41 409.33 385.11 421.04 C 383.83 426.20 382.74 431.41 381.43 436.57 C 370.52 426.82 360.76 415.86 350.02 405.93 C 349.92 399.25 350.02 392.58 350.01 385.91 Z" />
<path fill="#ff3333" opacity="1.00" d=" M 157.75 420.06 C 169.51 409.20 180.41 397.41 191.95 386.31 C 192.18 392.38 191.82 398.46 192.23 404.53 L 192.23 405.95 C 182.04 416.15 171.38 425.89 161.48 436.37 C 160.06 430.97 158.85 425.53 157.75 420.06 Z" />
</g>
<g id="#ffdbdbff">
<path fill="#ffdbdb" opacity="1.00" d=" M 192.70 405.58 C 195.59 402.00 198.75 398.64 202.32 395.72 C 202.23 404.16 202.28 412.60 202.26 421.03 C 199.26 421.03 196.26 420.97 193.27 420.86 C 192.87 415.77 193.45 410.63 192.70 405.58 Z" />
</g>
<g id="#ffdadaff">
<path fill="#ffdada" opacity="1.00" d=" M 339.99 395.69 C 343.47 398.96 346.81 402.39 350.02 405.93 C 349.97 407.47 349.92 409.03 349.85 410.58 C 348.70 415.24 349.05 420.06 348.79 424.81 C 345.84 424.92 342.89 424.98 339.95 424.98 C 339.96 415.22 339.89 405.45 339.99 395.69 Z" />
</g>
<g id="#ffd1d1ff">
<path fill="#ffd1d1" opacity="1.00" d=" M 192.23 404.53 L 192.70 405.58 C 193.45 410.63 192.87 415.77 193.27 420.86 C 196.26 420.97 199.26 421.03 202.26 421.03 C 202.16 426.03 202.50 431.05 202.12 436.04 C 201.99 439.67 197.18 441.69 194.38 439.47 C 192.18 438.10 192.26 435.30 192.24 433.03 C 192.29 424.00 192.17 414.97 192.23 405.95 L 192.23 404.53 Z" />
</g>
<g id="#ffd0d0ff">
<path fill="#ffd0d0" opacity="1.00" d=" M 348.79 424.81 C 349.05 420.06 348.70 415.24 349.85 410.58 C 350.04 419.04 350.10 427.52 349.81 435.98 C 349.68 440.79 342.26 441.99 340.45 437.60 C 339.43 433.49 340.11 429.17 339.95 424.98 C 342.89 424.98 345.84 424.92 348.79 424.81 Z" />
</g>
<g id="#e67269e6">
<path fill="#e67269" opacity="0.90" d=" M 156.69 420.87 C 156.96 420.67 157.49 420.26 157.75 420.06 C 158.85 425.53 160.06 430.97 161.48 436.37 C 163.70 444.65 165.33 453.08 167.40 461.40 C 168.68 466.39 168.89 472.31 173.12 475.89 C 176.33 478.90 181.06 478.03 185.07 478.16 C 224.36 478.13 263.64 478.17 302.93 478.17 C 323.98 478.85 345.06 478.33 366.12 478.53 C 347.29 479.29 328.40 478.48 309.55 478.93 C 265.68 478.60 221.81 478.92 177.95 478.82 C 173.29 478.93 169.47 474.87 168.57 470.52 C 164.76 453.94 161.03 437.32 156.69 420.87 Z" />
</g>
</svg>
