<?xml version="1.0" encoding="UTF-8" ?>
<!DOCTYPE svg PUBLIC "-//W3C//DTD SVG 1.1//EN" "http://www.w3.org/Graphics/SVG/1.1/DTD/svg11.dtd">
<svg width="512pt" height="512pt" viewBox="0 0 512 512" version="1.1" xmlns="http://www.w3.org/2000/svg">
<g id="#ff782eff">
<path fill="#ff782e" opacity="1.00" d=" M 39.12 0.00 L 285.06 0.00 C 300.24 0.74 315.06 7.42 325.41 18.60 C 335.60 29.40 341.43 44.16 341.32 59.01 C 341.30 91.00 341.36 122.99 341.29 154.97 C 341.36 163.17 334.12 170.51 325.94 170.65 C 317.35 171.19 309.27 163.63 309.35 155.00 C 309.27 122.68 309.39 90.36 309.29 58.04 C 309.30 44.17 296.90 31.89 283.03 32.03 C 237.34 31.96 191.64 32.01 145.95 32.01 C 155.73 35.27 165.51 38.51 175.29 41.77 C 181.54 43.91 188.09 45.59 193.62 49.35 C 205.89 57.14 213.61 71.45 213.32 85.98 C 213.33 195.99 213.33 305.99 213.32 415.99 C 236.92 415.96 260.52 416.09 284.12 415.93 C 297.57 415.52 309.25 403.47 309.29 390.02 C 309.39 357.71 309.28 325.40 309.34 293.10 C 309.24 284.74 316.68 277.28 325.04 277.34 C 333.55 276.97 341.33 284.52 341.29 293.02 C 341.36 325.01 341.30 357.00 341.32 389.00 C 341.41 403.14 336.15 417.23 326.81 427.85 C 315.97 440.41 299.61 447.95 283.02 447.99 C 259.79 448.02 236.56 447.98 213.32 448.01 C 212.79 460.88 215.24 474.51 209.62 486.61 C 203.21 501.49 187.74 511.76 171.55 512.00 L 168.31 512.00 C 160.43 511.59 153.12 508.48 145.70 506.10 C 106.73 493.09 67.73 480.16 28.77 467.11 C 12.73 461.64 0.95 446.05 0.00 429.13 L 0.00 41.64 C 0.28 32.97 3.14 24.38 8.34 17.42 C 15.49 7.50 27.05 1.35 39.12 0.00 M 39.34 32.57 C 34.99 33.96 31.86 38.36 32.02 42.93 C 31.98 170.62 32.01 298.30 32.00 425.99 C 31.70 430.98 35.21 435.81 40.02 437.14 C 82.38 451.26 124.74 465.41 167.12 479.48 C 173.87 481.92 181.75 476.20 181.31 468.99 C 181.33 341.35 181.34 213.68 181.33 86.03 C 181.63 80.98 178.06 76.20 173.25 74.83 C 131.26 60.83 89.28 46.84 47.29 32.86 C 44.75 31.96 41.92 31.70 39.34 32.57 Z" />
<path fill="#ff782e" opacity="1.00" d=" M 400.17 141.85 C 400.93 134.87 406.93 128.87 413.92 128.15 C 418.79 127.48 423.88 129.17 427.33 132.69 C 454.35 159.65 481.29 186.70 508.33 213.64 C 510.18 215.66 511.15 218.28 512.00 220.85 L 512.00 227.03 C 511.02 231.43 508.18 235.00 504.82 237.87 C 478.91 263.63 453.15 289.55 427.25 315.33 C 422.36 320.38 414.06 321.43 408.02 317.87 C 401.70 314.37 398.55 306.36 400.65 299.46 C 402.04 294.21 406.65 290.95 410.19 287.19 C 425.91 271.46 441.65 255.74 457.37 240.01 C 402.89 239.99 348.42 240.00 293.95 240.00 C 288.96 240.21 284.03 237.90 280.91 234.03 C 276.63 229.01 276.17 221.24 279.67 215.68 C 282.58 210.77 288.24 207.79 293.93 208.00 C 348.41 207.99 402.90 208.01 457.38 207.99 C 439.83 190.42 422.25 172.88 404.71 155.30 C 401.18 151.85 399.49 146.73 400.17 141.85 Z" />
</g>
</svg>
