<?xml version="1.0" encoding="UTF-8" ?>
<!DOCTYPE svg PUBLIC "-//W3C//DTD SVG 1.1//EN" "http://www.w3.org/Graphics/SVG/1.1/DTD/svg11.dtd">
<svg width="512pt" height="512pt" viewBox="0 0 512 512" version="1.1" xmlns="http://www.w3.org/2000/svg">
<g id="#3d6d93ff">
<path fill="#3d6d93" opacity="1.00" d=" M 131.15 4.40 C 138.87 2.06 147.03 2.88 154.97 2.74 C 220.51 2.63 286.05 2.94 351.59 2.58 C 358.41 5.38 365.65 7.80 371.24 12.82 C 379.99 20.69 385.59 32.41 384.76 44.31 C 382.49 38.57 377.34 33.62 370.90 33.41 C 362.59 33.17 354.27 33.45 345.96 33.30 C 342.72 33.36 338.97 32.94 336.39 35.35 C 333.23 37.92 333.91 42.37 332.78 45.89 C 331.05 51.73 324.97 55.53 318.98 55.25 C 278.98 55.29 238.97 55.26 198.97 55.27 C 193.95 55.48 188.78 53.24 186.09 48.89 C 183.85 45.69 184.32 41.58 183.08 38.03 C 181.78 34.91 178.37 33.19 175.08 33.35 C 165.68 33.34 156.27 33.25 146.87 33.40 C 139.47 33.56 132.89 39.99 132.47 47.37 C 132.20 53.97 132.47 60.58 132.39 67.19 C 122.84 62.46 112.40 59.62 101.81 58.60 C 102.06 49.13 100.77 39.31 104.05 30.21 C 108.22 17.90 118.66 7.98 131.15 4.40 M 257.43 21.41 C 252.47 22.27 249.37 28.48 252.22 32.81 C 254.90 38.22 263.98 37.66 265.75 31.76 C 268.30 26.44 262.99 20.32 257.43 21.41 Z" />
<path fill="#3d6d93" opacity="1.00" d=" M 101.80 234.44 C 112.40 233.39 122.84 230.57 132.38 225.83 C 132.38 243.25 132.38 260.66 132.39 278.08 C 123.01 272.55 112.54 268.94 101.80 267.25 C 101.81 256.31 101.81 245.38 101.80 234.44 Z" />
<path fill="#3d6d93" opacity="1.00" d=" M 101.80 441.72 C 112.54 440.01 123.01 436.40 132.38 430.86 C 132.37 440.92 132.41 450.98 132.35 461.04 C 131.19 470.06 138.70 479.08 147.97 478.66 C 222.01 478.65 296.06 478.70 370.10 478.64 C 376.82 478.72 382.43 473.73 384.75 467.70 C 385.64 479.86 379.76 491.84 370.61 499.66 C 365.14 504.38 358.19 506.72 351.61 509.42 C 286.42 509.06 221.22 509.37 156.03 509.26 C 146.96 509.10 137.57 510.13 128.90 506.86 C 113.87 501.66 102.67 486.97 101.94 471.04 C 101.62 461.27 101.90 451.49 101.80 441.72 Z" />
</g>
<g id="#335e80ff">
<path fill="#335e80" opacity="1.00" d=" M 351.59 2.58 C 363.03 2.90 374.72 1.40 385.96 4.10 C 399.29 7.74 410.35 18.58 414.14 31.88 C 416.82 40.53 415.67 49.67 415.91 58.57 C 413.84 58.80 411.77 59.08 409.71 59.44 C 401.21 60.99 392.88 63.54 385.13 67.38 C 385.02 59.69 385.43 51.98 384.76 44.31 C 385.59 32.41 379.99 20.69 371.24 12.82 C 365.65 7.80 358.41 5.38 351.59 2.58 Z" />
<path fill="#335e80" opacity="1.00" d=" M 257.43 21.41 C 262.99 20.32 268.30 26.44 265.75 31.76 C 263.98 37.66 254.90 38.22 252.22 32.81 C 249.37 28.48 252.47 22.27 257.43 21.41 Z" />
<path fill="#335e80" opacity="1.00" d=" M 385.13 225.65 C 392.84 229.44 401.12 232.06 409.58 233.52 C 411.68 233.88 413.79 234.22 415.92 234.47 C 415.91 245.16 415.91 255.84 415.92 266.53 C 413.80 266.77 411.70 267.11 409.60 267.46 C 401.13 268.93 392.84 271.54 385.13 275.34 C 385.13 258.77 385.13 242.21 385.13 225.65 Z" />
<path fill="#335e80" opacity="1.00" d=" M 385.13 433.62 C 392.62 437.29 400.63 439.86 408.83 441.37 C 411.17 441.79 413.54 442.15 415.92 442.43 C 415.84 451.62 416.03 460.82 415.84 470.02 C 415.36 484.72 406.35 498.75 393.08 505.15 C 380.25 511.67 365.42 508.88 351.61 509.42 C 358.19 506.72 365.14 504.38 370.61 499.66 C 379.76 491.84 385.64 479.86 384.75 467.70 C 385.54 456.35 384.94 444.97 385.13 433.62 Z" />
</g>
<g id="#f9f7f8ff">
<path fill="#f9f7f8" opacity="1.00" d=" M 132.47 47.37 C 132.89 39.99 139.47 33.56 146.87 33.40 C 156.27 33.25 165.68 33.34 175.08 33.35 C 178.37 33.19 181.78 34.91 183.08 38.03 C 184.32 41.58 183.85 45.69 186.09 48.89 C 188.78 53.24 193.95 55.48 198.97 55.27 C 238.97 55.26 278.98 55.29 318.98 55.25 C 324.97 55.53 331.05 51.73 332.78 45.89 C 333.91 42.37 333.23 37.92 336.39 35.35 C 338.97 32.94 342.72 33.36 345.96 33.30 C 354.27 33.45 362.59 33.17 370.90 33.41 C 377.34 33.62 382.49 38.57 384.76 44.31 C 385.43 51.98 385.02 59.69 385.13 67.38 C 366.58 76.42 351.43 92.19 343.17 111.11 C 334.69 130.24 333.48 152.42 339.63 172.41 C 346.60 195.42 363.51 215.14 385.13 225.65 C 385.13 242.21 385.13 258.77 385.13 275.34 C 366.34 284.50 351.03 300.57 342.85 319.81 C 334.70 338.70 333.56 360.48 339.57 380.15 C 346.49 403.26 363.45 423.07 385.13 433.62 C 384.94 444.97 385.54 456.35 384.75 467.70 C 382.43 473.73 376.82 478.72 370.10 478.64 C 296.06 478.70 222.01 478.65 147.97 478.66 C 138.70 479.08 131.19 470.06 132.35 461.04 C 132.41 450.98 132.37 440.92 132.38 430.86 C 147.36 422.12 159.72 408.96 167.33 393.37 C 177.57 372.77 179.11 348.09 171.76 326.32 C 165.05 306.16 150.72 288.77 132.39 278.08 C 132.38 260.66 132.38 243.25 132.38 225.83 C 149.73 217.34 164.15 203.02 172.70 185.70 C 182.38 166.32 184.54 143.34 178.56 122.51 C 171.94 98.62 154.66 78.03 132.39 67.19 C 132.47 60.58 132.20 53.97 132.47 47.37 M 244.17 196.09 C 233.40 198.96 223.30 204.47 215.41 212.39 C 202.63 224.91 195.78 243.23 197.40 261.07 C 197.63 266.85 199.71 272.30 200.76 277.94 C 198.93 287.24 194.27 295.81 192.03 305.02 C 191.74 307.59 194.61 309.91 197.06 308.98 C 203.13 307.34 208.84 304.56 214.93 303.01 C 217.76 302.25 220.26 304.10 222.43 305.65 C 228.75 310.34 236.03 313.78 243.67 315.67 C 254.99 318.94 267.28 318.22 278.39 314.45 C 294.55 309.06 308.14 296.58 315.07 281.04 C 320.98 267.94 322.08 252.76 318.08 238.96 C 313.58 223.01 302.24 209.22 287.66 201.43 C 274.46 194.45 258.66 192.31 244.17 196.09 Z" />
</g>
<g id="#fbd268ff">
<path fill="#fbd268" opacity="1.00" d=" M 80.38 59.27 C 87.46 58.16 94.68 57.77 101.81 58.60 C 112.40 59.62 122.84 62.46 132.39 67.19 C 154.66 78.03 171.94 98.62 178.56 122.51 C 184.54 143.34 182.38 166.32 172.70 185.70 C 164.15 203.02 149.73 217.34 132.38 225.83 C 122.84 230.57 112.40 233.39 101.80 234.44 C 94.67 235.23 87.46 234.90 80.39 233.75 C 84.57 231.92 88.96 230.66 93.29 229.24 C 114.69 221.56 132.77 205.15 142.48 184.58 C 151.35 166.65 153.29 145.61 148.82 126.19 C 142.98 101.07 125.45 79.05 102.33 67.64 C 95.39 63.90 87.58 62.39 80.38 59.27 Z" />
</g>
<g id="#6bcdfeff">
<path fill="#6bcdfe" opacity="1.00" d=" M 415.91 58.57 C 443.64 55.86 472.28 67.36 490.42 88.52 C 503.05 102.87 510.67 121.44 512.00 140.49 L 512.00 152.49 C 510.68 171.54 503.07 190.11 490.46 204.46 C 472.33 225.64 443.66 237.17 415.92 234.47 C 413.79 234.22 411.68 233.88 409.58 233.52 C 417.57 231.20 425.68 229.03 433.07 225.10 C 453.03 215.11 468.87 197.21 476.27 176.14 C 483.20 156.91 483.11 135.24 475.98 116.07 C 467.11 91.51 446.62 71.52 421.87 63.18 C 417.83 61.89 413.74 60.76 409.71 59.44 C 411.77 59.08 413.84 58.80 415.91 58.57 Z" />
<path fill="#6bcdfe" opacity="1.00" d=" M 73.39 267.46 C 82.77 265.77 92.40 265.73 101.80 267.25 C 112.54 268.94 123.01 272.55 132.39 278.08 C 150.72 288.77 165.05 306.16 171.76 326.32 C 179.11 348.09 177.57 372.77 167.33 393.37 C 159.72 408.96 147.36 422.12 132.38 430.86 C 123.01 436.40 112.54 440.01 101.80 441.72 C 91.84 443.30 81.62 443.23 71.75 441.14 C 92.30 437.19 111.42 425.85 124.40 409.38 C 143.84 385.39 149.30 350.67 137.29 322.10 C 137.04 321.47 136.54 320.21 136.28 319.58 C 128.08 299.73 111.90 283.46 92.44 274.49 C 86.33 271.52 79.65 270.05 73.39 267.46 Z" />
</g>
<g id="#ffe179ff">
<path fill="#ffe179" opacity="1.00" d=" M 32.26 83.30 C 45.28 70.50 62.42 62.21 80.38 59.27 C 87.58 62.39 95.39 63.90 102.33 67.64 C 125.45 79.05 142.98 101.07 148.82 126.19 C 153.29 145.61 151.35 166.65 142.48 184.58 C 132.77 205.15 114.69 221.56 93.29 229.24 C 88.96 230.66 84.57 231.92 80.39 233.75 C 55.80 229.89 33.08 215.39 19.64 194.39 C 8.65 177.58 3.81 156.92 6.02 136.97 C 8.12 116.74 17.62 97.40 32.26 83.30 M 56.24 102.29 C 51.15 104.81 47.67 110.30 47.78 116.03 C 47.70 135.67 47.81 155.32 47.73 174.97 C 46.64 183.82 54.03 192.59 63.06 192.36 C 74.03 192.49 85.01 192.30 95.98 192.49 C 104.31 192.72 112.64 192.51 120.98 192.61 C 125.05 192.68 129.40 192.32 132.80 189.83 C 137.33 186.84 139.86 181.41 139.68 176.03 C 139.69 158.04 139.65 140.04 139.69 122.05 C 139.67 117.68 140.08 113.01 137.94 109.02 C 135.36 103.87 129.82 100.41 124.04 100.52 C 115.51 100.46 106.97 100.45 98.44 100.56 C 87.63 100.68 76.80 100.71 65.98 100.63 C 62.69 100.64 59.21 100.65 56.24 102.29 Z" />
</g>
<g id="#8fd8faff">
<path fill="#8fd8fa" opacity="1.00" d=" M 385.13 67.38 C 392.88 63.54 401.21 60.99 409.71 59.44 C 413.74 60.76 417.83 61.89 421.87 63.18 C 446.62 71.52 467.11 91.51 475.98 116.07 C 483.11 135.24 483.20 156.91 476.27 176.14 C 468.87 197.21 453.03 215.11 433.07 225.10 C 425.68 229.03 417.57 231.20 409.58 233.52 C 401.12 232.06 392.84 229.44 385.13 225.65 C 363.51 215.14 346.60 195.42 339.63 172.41 C 333.48 152.42 334.69 130.24 343.17 111.11 C 351.43 92.19 366.58 76.42 385.13 67.38 M 409.59 112.16 C 409.27 120.25 409.58 128.35 409.45 136.45 C 404.35 136.79 399.05 135.73 394.09 137.12 C 388.16 139.37 388.10 148.74 394.01 151.06 C 398.99 152.50 404.32 151.40 409.44 151.74 C 409.52 167.84 409.40 183.94 409.49 200.04 C 409.25 204.20 412.86 208.06 417.06 207.96 C 421.24 208.10 424.94 204.30 424.70 200.12 C 424.83 184.00 424.68 167.87 424.77 151.75 C 429.83 151.43 435.06 152.42 440.01 151.14 C 446.13 148.94 446.11 139.23 439.97 137.07 C 435.03 135.79 429.81 136.76 424.76 136.45 C 424.80 128.97 424.62 121.50 424.82 114.03 C 424.78 110.18 428.10 106.67 431.97 106.62 C 438.49 106.25 445.04 106.85 451.55 106.40 C 455.25 106.09 458.24 102.65 458.23 98.97 C 458.37 95.06 455.01 91.34 451.05 91.33 C 444.34 91.20 437.61 91.20 430.90 91.35 C 419.95 91.79 410.34 101.25 409.59 112.16 Z" />
<path fill="#8fd8fa" opacity="1.00" d=" M 24.53 293.51 C 37.47 279.87 54.93 270.84 73.39 267.46 C 79.65 270.05 86.33 271.52 92.44 274.49 C 111.90 283.46 128.08 299.73 136.28 319.58 C 131.15 316.93 126.21 321.55 120.93 321.14 C 118.11 321.56 115.63 320.22 113.62 318.40 C 108.09 313.56 99.66 312.70 93.11 315.90 C 88.04 318.29 84.12 323.00 82.70 328.42 C 81.95 331.60 82.02 334.89 81.91 338.13 C 70.71 338.17 59.40 334.47 50.92 327.05 C 48.75 325.21 46.95 322.95 44.59 321.36 C 43.25 320.61 41.52 321.75 41.32 323.19 C 38.09 333.58 38.06 345.36 42.86 355.29 C 47.16 364.39 55.54 370.65 64.40 374.95 C 58.11 379.55 50.51 381.72 43.01 383.44 C 43.41 385.87 43.39 388.81 45.72 390.31 C 50.72 393.83 57.09 394.49 63.03 394.88 C 78.42 395.42 94.39 391.32 106.56 381.61 C 115.40 374.48 121.33 364.23 124.41 353.39 C 125.48 349.68 125.72 345.49 128.47 342.50 C 133.30 336.74 136.44 329.58 137.29 322.10 C 149.30 350.67 143.84 385.39 124.40 409.38 C 111.42 425.85 92.30 437.19 71.75 441.14 C 51.79 437.25 33.24 426.43 20.30 410.71 C 8.00 396.06 0.93 377.30 0.00 358.22 L 0.00 350.65 C 1.01 329.48 9.73 308.74 24.53 293.51 Z" />
</g>
<g id="#ffffffff">
<path fill="#ffffff" opacity="1.00" d=" M 409.59 112.16 C 410.34 101.25 419.95 91.79 430.90 91.35 C 437.61 91.20 444.34 91.20 451.05 91.33 C 455.01 91.34 458.37 95.06 458.23 98.97 C 458.24 102.65 455.25 106.09 451.55 106.40 C 445.04 106.85 438.49 106.25 431.97 106.62 C 428.10 106.67 424.78 110.18 424.82 114.03 C 424.62 121.50 424.80 128.97 424.76 136.45 C 429.81 136.76 435.03 135.79 439.97 137.07 C 446.11 139.23 446.13 148.94 440.01 151.14 C 435.06 152.42 429.83 151.43 424.77 151.75 C 424.68 167.87 424.83 184.00 424.70 200.12 C 424.94 204.30 421.24 208.10 417.06 207.96 C 412.86 208.06 409.25 204.20 409.49 200.04 C 409.40 183.94 409.52 167.84 409.44 151.74 C 404.32 151.40 398.99 152.50 394.01 151.06 C 388.10 148.74 388.16 139.37 394.09 137.12 C 399.05 135.73 404.35 136.79 409.45 136.45 C 409.58 128.35 409.27 120.25 409.59 112.16 Z" />
<path fill="#ffffff" opacity="1.00" d=" M 78.36 146.02 C 78.40 137.56 86.59 130.29 95.01 131.30 C 101.38 131.69 106.30 136.66 108.65 142.29 C 108.78 145.10 108.79 147.91 108.65 150.71 C 106.32 156.36 101.38 161.33 95.00 161.73 C 86.23 162.80 77.80 154.83 78.36 146.02 Z" />
<path fill="#ffffff" opacity="1.00" d=" M 242.32 229.42 C 246.37 228.12 251.09 230.87 251.92 235.04 C 252.73 238.62 250.15 241.70 249.23 244.99 C 247.92 248.24 248.23 252.61 251.43 254.66 C 255.39 257.36 259.52 259.87 263.76 262.13 C 267.14 264.03 271.14 262.14 273.45 259.45 C 276.04 256.85 277.85 252.66 282.01 252.41 C 285.23 251.90 287.82 254.17 289.91 256.29 C 290.48 259.13 290.29 262.03 289.15 264.71 C 284.02 271.47 276.93 277.89 267.98 278.15 C 259.50 278.94 252.67 273.23 245.77 269.28 C 241.20 266.65 237.12 262.90 235.07 257.96 C 231.93 251.04 233.16 242.98 236.14 236.24 C 237.41 233.43 239.11 230.28 242.32 229.42 Z" />
<path fill="#ffffff" opacity="1.00" d=" M 93.11 315.90 C 99.66 312.70 108.09 313.56 113.62 318.40 C 115.63 320.22 118.11 321.56 120.93 321.14 C 126.21 321.55 131.15 316.93 136.28 319.58 C 136.54 320.21 137.04 321.47 137.29 322.10 C 136.44 329.58 133.30 336.74 128.47 342.50 C 125.72 345.49 125.48 349.68 124.41 353.39 C 121.33 364.23 115.40 374.48 106.56 381.61 C 94.39 391.32 78.42 395.42 63.03 394.88 C 57.09 394.49 50.72 393.83 45.72 390.31 C 43.39 388.81 43.41 385.87 43.01 383.44 C 50.51 381.72 58.11 379.55 64.40 374.95 C 55.54 370.65 47.16 364.39 42.86 355.29 C 38.06 345.36 38.09 333.58 41.32 323.19 C 41.52 321.75 43.25 320.61 44.59 321.36 C 46.95 322.95 48.75 325.21 50.92 327.05 C 59.40 334.47 70.71 338.17 81.91 338.13 C 82.02 334.89 81.95 331.60 82.70 328.42 C 84.12 323.00 88.04 318.29 93.11 315.90 Z" />
<path fill="#ffffff" opacity="1.00" d=" M 403.29 322.21 C 405.84 320.42 408.43 323.24 410.72 324.24 C 426.80 333.55 442.91 342.84 458.99 352.14 C 460.10 352.92 461.67 353.60 461.74 355.18 C 462.02 357.35 459.72 358.26 458.25 359.26 C 441.09 369.03 424.10 379.12 406.89 388.79 C 404.91 390.40 401.90 388.51 402.29 386.07 C 402.14 367.05 402.32 348.03 402.21 329.01 C 402.46 326.78 401.56 323.98 403.29 322.21 Z" />
</g>
<g id="#f58a97ff">
<path fill="#f58a97" opacity="1.00" d=" M 56.24 102.29 C 59.21 100.65 62.69 100.64 65.98 100.63 C 76.80 100.71 87.63 100.68 98.44 100.56 C 103.26 103.68 108.28 107.95 108.70 114.11 C 109.30 123.49 108.86 132.91 108.65 142.29 C 106.30 136.66 101.38 131.69 95.01 131.30 C 86.59 130.29 78.40 137.56 78.36 146.02 C 77.80 154.83 86.23 162.80 95.00 161.73 C 101.38 161.33 106.32 156.36 108.65 150.71 C 108.88 160.10 109.27 169.53 108.70 178.92 C 108.17 185.78 102.34 190.85 95.98 192.49 C 85.01 192.30 74.03 192.49 63.06 192.36 C 54.03 192.59 46.64 183.82 47.73 174.97 C 47.81 155.32 47.70 135.67 47.78 116.03 C 47.67 110.30 51.15 104.81 56.24 102.29 Z" />
<path fill="#f58a97" opacity="1.00" d=" M 385.13 275.34 C 392.84 271.54 401.13 268.93 409.60 267.46 C 419.07 270.01 428.51 273.02 437.02 278.00 C 455.84 288.63 470.40 306.52 477.03 327.08 C 481.82 341.44 482.59 357.06 479.69 371.89 C 475.64 392.23 464.08 410.97 447.72 423.73 C 436.45 432.69 422.92 438.57 408.83 441.37 C 400.63 439.86 392.62 437.29 385.13 433.62 C 363.45 423.07 346.49 403.26 339.57 380.15 C 333.56 360.48 334.70 338.70 342.85 319.81 C 351.03 300.57 366.34 284.50 385.13 275.34 M 403.29 322.21 C 401.56 323.98 402.46 326.78 402.21 329.01 C 402.32 348.03 402.14 367.05 402.29 386.07 C 401.90 388.51 404.91 390.40 406.89 388.79 C 424.10 379.12 441.09 369.03 458.25 359.26 C 459.72 358.26 462.02 357.35 461.74 355.18 C 461.67 353.60 460.10 352.92 458.99 352.14 C 442.91 342.84 426.80 333.55 410.72 324.24 C 408.43 323.24 405.84 320.42 403.29 322.21 Z" />
</g>
<g id="#f07281ff">
<path fill="#f07281" opacity="1.00" d=" M 98.44 100.56 C 106.97 100.45 115.51 100.46 124.04 100.52 C 129.82 100.41 135.36 103.87 137.94 109.02 C 140.08 113.01 139.67 117.68 139.69 122.05 C 139.65 140.04 139.69 158.04 139.68 176.03 C 139.86 181.41 137.33 186.84 132.80 189.83 C 129.40 192.32 125.05 192.68 120.98 192.61 C 112.64 192.51 104.31 192.72 95.98 192.49 C 102.34 190.85 108.17 185.78 108.70 178.92 C 109.27 169.53 108.88 160.10 108.65 150.71 C 108.79 147.91 108.78 145.10 108.65 142.29 C 108.86 132.91 109.30 123.49 108.70 114.11 C 108.28 107.95 103.26 103.68 98.44 100.56 Z" />
<path fill="#f07281" opacity="1.00" d=" M 409.60 267.46 C 411.70 267.11 413.80 266.77 415.92 266.53 C 443.67 263.82 472.34 275.35 490.47 296.54 C 503.07 310.87 510.66 329.40 512.00 348.42 L 512.00 360.55 C 510.66 379.36 503.22 397.71 490.85 411.98 C 472.73 433.43 443.86 445.17 415.92 442.43 C 413.54 442.15 411.17 441.79 408.83 441.37 C 422.92 438.57 436.45 432.69 447.72 423.73 C 464.08 410.97 475.64 392.23 479.69 371.89 C 482.59 357.06 481.82 341.44 477.03 327.08 C 470.40 306.52 455.84 288.63 437.02 278.00 C 428.51 273.02 419.07 270.01 409.60 267.46 Z" />
</g>
<g id="#89daa4ff">
<path fill="#89daa4" opacity="1.00" d=" M 244.17 196.09 C 258.66 192.31 274.46 194.45 287.66 201.43 C 302.24 209.22 313.58 223.01 318.08 238.96 C 322.08 252.76 320.98 267.94 315.07 281.04 C 308.14 296.58 294.55 309.06 278.39 314.45 C 267.28 318.22 254.99 318.94 243.67 315.67 C 260.88 310.97 275.92 298.76 283.63 282.61 C 286.54 277.01 287.90 270.84 289.15 264.71 C 290.29 262.03 290.48 259.13 289.91 256.29 C 289.44 246.05 287.41 235.72 282.32 226.71 C 276.49 215.97 267.44 207.01 256.58 201.37 C 252.57 199.32 248.31 197.84 244.17 196.09 Z" />
</g>
<g id="#aee69cff">
<path fill="#aee69c" opacity="1.00" d=" M 215.41 212.39 C 223.30 204.47 233.40 198.96 244.17 196.09 C 248.31 197.84 252.57 199.32 256.58 201.37 C 267.44 207.01 276.49 215.97 282.32 226.71 C 287.41 235.72 289.44 246.05 289.91 256.29 C 287.82 254.17 285.23 251.90 282.01 252.41 C 277.85 252.66 276.04 256.85 273.45 259.45 C 271.14 262.14 267.14 264.03 263.76 262.13 C 259.52 259.87 255.39 257.36 251.43 254.66 C 248.23 252.61 247.92 248.24 249.23 244.99 C 250.15 241.70 252.73 238.62 251.92 235.04 C 251.09 230.87 246.37 228.12 242.32 229.42 C 239.11 230.28 237.41 233.43 236.14 236.24 C 233.16 242.98 231.93 251.04 235.07 257.96 C 237.12 262.90 241.20 266.65 245.77 269.28 C 252.67 273.23 259.50 278.94 267.98 278.15 C 276.93 277.89 284.02 271.47 289.15 264.71 C 287.90 270.84 286.54 277.01 283.63 282.61 C 275.92 298.76 260.88 310.97 243.67 315.67 C 236.03 313.78 228.75 310.34 222.43 305.65 C 220.26 304.10 217.76 302.25 214.93 303.01 C 208.84 304.56 203.13 307.34 197.06 308.98 C 194.61 309.91 191.74 307.59 192.03 305.02 C 194.27 295.81 198.93 287.24 200.76 277.94 C 199.71 272.30 197.63 266.85 197.40 261.07 C 195.78 243.23 202.63 224.91 215.41 212.39 Z" />
</g>
</svg>
