<?xml version="1.0" encoding="UTF-8" ?>
<!DOCTYPE svg PUBLIC "-//W3C//DTD SVG 1.1//EN" "http://www.w3.org/Graphics/SVG/1.1/DTD/svg11.dtd">
<svg width="512pt" height="512pt" viewBox="0 0 512 512" version="1.1" xmlns="http://www.w3.org/2000/svg">
<g id="#000000ff">
<path fill="#000000" opacity="1.00" d=" M 9.06 56.01 C 16.34 47.27 27.61 42.15 38.98 42.28 C 134.33 42.26 229.69 42.25 325.04 42.29 C 329.50 41.87 333.08 45.54 333.54 49.81 C 332.94 52.89 331.26 56.16 327.94 56.92 C 324.33 57.57 320.63 57.19 316.99 57.26 C 224.32 57.27 131.66 57.24 38.99 57.27 C 26.60 56.76 15.12 67.47 15.05 79.92 C 14.93 95.86 15.01 111.81 15.02 127.76 C 175.64 127.70 336.26 127.81 496.88 127.68 C 496.81 111.77 496.95 95.86 496.82 79.96 C 496.80 68.30 486.62 57.88 474.99 57.45 C 438.02 57.06 401.03 57.40 364.05 57.20 C 359.88 57.38 356.97 53.63 356.43 49.81 C 356.89 45.58 360.42 41.89 364.86 42.29 C 400.58 42.24 436.31 42.28 472.03 42.27 C 480.37 42.12 488.81 44.42 495.62 49.31 C 505.12 55.87 511.12 66.88 512.00 78.35 L 512.00 265.69 C 511.20 269.22 508.23 271.56 504.77 272.21 C 502.33 271.73 499.68 270.94 498.30 268.70 C 496.71 266.46 497.04 263.57 496.95 260.99 C 497.02 221.57 496.97 182.15 496.98 142.74 C 336.32 142.73 175.66 142.73 15.00 142.73 C 15.01 224.48 14.99 306.23 15.01 387.98 C 15.03 392.89 14.65 397.99 16.52 402.66 C 19.84 411.79 29.26 418.18 38.98 417.85 C 118.38 417.86 197.78 417.84 277.18 417.86 C 273.58 409.13 269.95 400.41 266.49 391.62 C 264.07 385.71 266.53 378.31 272.06 375.10 C 276.16 372.91 280.62 371.51 284.86 369.64 C 284.65 365.03 284.66 360.41 284.95 355.80 C 280.27 353.58 275.09 352.27 270.85 349.20 C 266.07 345.44 264.56 338.42 267.07 332.93 C 270.39 324.98 273.71 317.03 277.11 309.11 C 279.48 303.02 286.56 299.24 292.92 300.95 C 297.39 302.24 301.54 304.42 305.86 306.11 C 308.95 302.68 312.24 299.44 315.69 296.38 C 313.99 291.87 311.69 287.55 310.54 282.85 C 309.27 276.73 312.91 270.14 318.68 267.84 C 326.77 264.45 334.92 261.18 343.04 257.88 C 348.75 255.35 356.05 257.24 359.60 262.42 C 362.21 266.61 363.60 271.41 365.49 275.94 C 370.02 275.79 374.54 276.03 379.07 275.96 C 382.36 271.46 382.85 265.08 386.97 260.97 C 390.78 257.13 396.88 255.96 401.86 258.08 C 410.11 261.48 418.36 264.91 426.55 268.48 C 432.47 270.99 435.97 278.01 434.25 284.23 C 432.94 288.64 430.80 292.76 429.13 297.03 C 432.55 300.11 435.79 303.40 438.84 306.86 C 445.44 304.64 452.21 299.58 459.44 302.26 C 464.35 303.84 467.22 308.45 468.81 313.08 C 471.64 320.25 474.69 327.34 477.49 334.53 C 479.67 339.75 478.21 346.18 473.94 349.89 C 469.71 353.47 463.95 354.20 459.31 357.02 C 459.27 361.55 459.48 366.08 459.15 370.60 C 463.77 372.70 468.77 374.13 473.00 377.01 C 477.85 380.67 479.55 387.68 477.10 393.23 C 473.73 401.46 470.19 409.63 466.77 417.85 C 472.18 417.87 477.85 418.26 482.89 415.89 C 491.44 412.29 497.22 403.26 496.98 394.00 C 497.01 363.65 496.94 333.30 497.01 302.95 C 496.58 298.44 500.48 294.91 504.78 294.62 C 508.28 295.23 511.26 297.67 512.00 301.24 L 512.00 398.26 C 510.31 411.30 502.18 423.46 490.15 429.06 C 483.01 432.71 474.84 433.12 466.98 432.87 C 454.46 432.73 441.92 433.14 429.40 432.65 C 431.86 438.54 435.72 445.22 432.55 451.62 C 429.89 458.00 422.63 459.66 416.89 462.10 C 410.98 464.40 405.22 467.11 399.21 469.13 C 393.24 470.97 386.27 467.96 383.50 462.37 C 381.55 458.50 380.17 454.39 378.49 450.41 C 373.85 450.57 369.21 450.54 364.58 450.35 C 362.50 454.96 361.10 459.96 358.21 464.16 C 354.65 468.89 347.86 470.65 342.40 468.39 C 334.42 465.18 326.54 461.71 318.59 458.42 C 314.07 456.71 310.40 452.75 309.60 447.92 C 308.51 442.56 311.58 437.66 313.47 432.88 C 221.96 432.85 130.45 432.88 38.94 432.86 C 26.84 433.05 14.87 427.15 7.69 417.41 C 3.29 411.70 0.91 404.69 0.00 397.59 L 0.00 77.51 C 0.99 69.70 3.87 62.02 9.06 56.01 M 325.75 281.06 C 327.62 286.82 330.67 292.16 332.20 298.03 C 332.91 302.58 328.72 305.26 325.66 307.69 C 321.21 311.24 317.49 315.56 313.91 319.96 C 312.02 322.34 308.62 323.33 305.76 322.26 C 300.55 320.38 295.62 317.77 290.37 316.00 C 287.45 323.36 284.26 330.61 281.22 337.93 C 286.48 340.31 291.96 342.22 297.11 344.83 C 300.66 346.82 300.90 351.29 300.19 354.86 C 299.27 361.21 299.74 367.62 300.36 373.96 C 300.67 376.97 298.84 379.99 296.08 381.18 C 291.13 383.41 286.05 385.36 281.00 387.33 C 283.82 394.81 286.99 402.15 289.96 409.56 C 295.04 407.65 299.97 405.33 305.08 403.48 C 308.19 402.18 311.86 403.49 313.77 406.18 C 317.69 411.24 321.98 416.09 327.25 419.79 C 329.96 421.70 331.63 424.74 331.69 428.06 C 329.51 433.69 326.93 439.16 324.85 444.82 C 332.20 447.80 339.47 451.01 346.83 453.99 C 349.08 448.82 351.01 443.52 353.47 438.45 C 355.02 435.38 358.74 434.20 361.97 434.87 C 368.63 435.80 375.39 435.72 382.06 434.92 C 385.26 434.37 388.70 436.08 389.99 439.10 C 392.22 444.05 394.11 449.16 396.18 454.18 C 402.47 451.98 408.52 449.18 414.74 446.84 C 415.85 446.24 417.32 446.05 418.08 444.97 C 416.52 439.49 413.56 434.53 412.01 429.05 C 410.99 425.45 413.53 422.26 416.34 420.37 C 421.46 416.52 425.87 411.83 429.83 406.82 C 431.64 404.36 434.96 403.02 437.92 404.04 C 443.33 405.80 448.29 408.73 453.78 410.26 C 456.67 402.99 459.72 395.78 462.88 388.63 C 457.84 386.01 452.38 384.30 447.30 381.76 C 444.14 380.20 443.03 376.37 443.71 373.10 C 444.68 366.39 444.50 359.60 443.73 352.88 C 443.26 349.71 445.07 346.41 448.04 345.19 C 452.99 342.95 458.14 341.16 463.10 338.93 C 460.09 331.58 457.21 324.18 454.04 316.89 C 448.98 318.84 444.02 321.08 438.93 322.94 C 435.69 324.28 431.99 322.75 430.08 319.97 C 426.07 314.66 421.39 309.87 416.11 305.81 C 413.71 304.08 411.98 301.12 412.66 298.08 C 414.28 292.34 417.58 287.22 419.06 281.43 C 411.64 278.72 404.59 275.05 397.08 272.55 C 395.71 276.24 394.08 279.83 392.67 283.51 C 391.43 286.12 390.54 289.35 387.77 290.78 C 384.80 292.48 381.29 291.25 378.10 291.11 C 372.40 290.44 366.68 291.09 361.00 291.54 C 357.98 291.76 355.05 289.80 353.94 287.02 C 351.77 282.10 349.90 277.05 347.80 272.10 C 340.46 275.11 333.12 278.13 325.75 281.06 Z" />
<path fill="#000000" opacity="1.00" d=" M 58.46 79.65 C 65.85 76.45 75.18 81.17 76.98 89.01 C 79.19 96.51 73.75 105.01 66.02 106.14 C 58.81 107.65 51.14 102.32 49.99 95.06 C 48.65 88.74 52.46 81.96 58.46 79.65 Z" />
<path fill="#000000" opacity="1.00" d=" M 101.47 79.55 C 108.65 76.63 117.57 81.05 119.59 88.53 C 122.08 96.04 116.80 104.85 108.97 106.10 C 101.68 107.76 93.83 102.35 92.70 94.98 C 91.39 88.58 95.35 81.75 101.47 79.55 Z" />
<path fill="#000000" opacity="1.00" d=" M 144.37 79.49 C 151.32 76.78 159.87 80.85 162.13 87.95 C 164.78 94.92 160.61 103.48 153.46 105.65 C 146.49 108.19 138.10 103.98 135.93 96.91 C 133.43 90.04 137.47 81.82 144.37 79.49 Z" />
<path fill="#000000" opacity="1.00" d=" M 51.33 169.56 C 58.57 169.22 65.84 169.47 73.09 169.41 C 76.92 169.14 80.64 172.09 81.03 175.96 C 81.72 180.15 78.13 184.38 73.87 184.35 C 67.04 184.57 60.20 184.24 53.38 184.48 C 51.56 184.43 50.87 186.41 51.07 187.93 C 51.07 213.67 51.04 239.40 51.09 265.14 C 50.76 266.92 52.23 268.57 54.06 268.30 C 110.03 268.34 166.01 268.35 221.97 268.30 C 223.82 268.56 225.25 266.87 224.92 265.09 C 224.97 239.40 224.94 213.70 224.94 188.01 C 225.30 186.13 224.03 184.09 221.95 184.43 C 185.32 184.35 148.68 184.47 112.05 184.38 C 107.47 184.59 103.58 179.92 104.63 175.46 C 105.24 172.03 108.49 169.34 111.99 169.44 C 147.68 169.35 183.37 169.44 219.06 169.39 C 222.50 169.34 226.08 169.34 229.28 170.79 C 235.64 173.42 240.04 180.06 239.94 186.95 C 239.97 213.33 239.98 239.72 239.93 266.10 C 240.04 275.51 231.41 283.75 222.02 283.32 C 166.00 283.33 109.98 283.33 53.96 283.32 C 44.59 283.75 35.97 275.51 36.08 266.12 C 36.01 240.42 36.09 214.73 36.04 189.03 C 35.01 179.80 41.98 170.49 51.33 169.56 Z" />
<path fill="#000000" opacity="1.00" d=" M 266.10 178.18 C 268.39 177.81 270.72 177.95 273.03 177.93 C 311.35 177.98 349.68 177.88 388.00 177.98 C 392.58 177.75 396.49 182.44 395.41 186.91 C 394.76 190.80 390.78 193.34 386.97 192.94 C 347.29 192.90 307.61 192.98 267.93 192.90 C 264.40 193.00 261.08 190.30 260.50 186.82 C 259.69 183.05 262.33 178.97 266.10 178.18 Z" />
<path fill="#000000" opacity="1.00" d=" M 421.07 178.19 C 434.70 177.63 448.40 178.08 462.05 177.94 C 466.42 177.61 470.42 181.63 469.94 186.01 C 469.75 189.99 465.97 193.22 462.02 192.92 C 449.00 192.93 435.97 192.96 422.95 192.90 C 419.43 193.01 416.11 190.33 415.53 186.85 C 414.70 183.09 417.30 179.00 421.07 178.19 Z" />
<path fill="#000000" opacity="1.00" d=" M 265.34 210.45 C 268.82 209.59 272.47 210.15 276.02 210.00 C 338.01 210.00 400.00 210.00 461.99 210.00 C 466.36 209.64 470.40 213.62 469.95 218.01 C 469.78 222.01 466.00 225.28 462.03 224.99 C 397.68 225.01 333.34 225.00 268.99 225.00 C 265.83 225.27 262.48 223.74 261.13 220.78 C 259.12 216.95 261.25 211.78 265.34 210.45 Z" />
<path fill="#000000" opacity="1.00" d=" M 162.41 306.63 C 164.88 305.94 167.46 305.99 169.99 305.99 C 187.01 306.05 204.03 305.93 221.05 306.05 C 229.91 306.20 237.66 314.09 237.72 322.93 C 237.80 341.64 237.77 360.36 237.74 379.07 C 237.79 388.05 229.88 396.09 220.90 396.18 C 202.95 396.26 185.01 396.21 167.07 396.20 C 157.82 396.43 149.44 388.23 149.57 378.96 C 149.57 360.32 149.52 341.67 149.59 323.03 C 149.64 315.51 155.18 308.54 162.41 306.63 M 166.12 321.19 C 164.52 321.72 164.56 323.56 164.55 324.93 C 164.58 342.61 164.52 360.29 164.58 377.97 C 164.16 380.06 166.07 381.55 168.03 381.19 C 185.37 381.18 202.71 381.25 220.04 381.15 C 221.81 381.39 222.97 379.62 222.73 378.02 C 222.76 360.02 222.78 342.02 222.72 324.02 C 223.09 321.86 220.92 320.62 219.02 321.01 C 201.39 321.14 183.73 320.77 166.12 321.19 Z" />
<path fill="#000000" opacity="1.00" d=" M 48.14 314.21 C 71.75 313.74 95.41 314.11 119.03 314.02 C 123.42 313.66 127.43 317.71 126.96 322.10 C 126.71 326.05 122.98 329.27 119.03 328.98 C 95.99 329.00 72.94 329.03 49.90 328.97 C 45.63 329.19 41.82 325.18 42.27 320.93 C 42.47 317.72 44.98 314.81 48.14 314.21 Z" />
<path fill="#000000" opacity="1.00" d=" M 365.40 315.66 C 380.02 313.54 395.47 318.69 405.87 329.18 C 415.99 339.20 421.28 353.89 419.76 368.07 C 418.52 380.79 411.93 392.88 401.87 400.77 C 390.87 409.57 375.88 413.16 362.10 410.14 C 348.50 407.33 336.36 398.27 329.84 386.00 C 322.48 372.59 322.13 355.65 329.01 341.98 C 335.76 327.86 349.94 317.78 365.40 315.66 M 366.48 330.66 C 357.46 332.20 349.15 337.61 344.26 345.37 C 336.34 357.28 337.62 374.20 347.15 384.84 C 356.72 396.26 374.34 399.55 387.40 392.36 C 401.04 385.50 408.33 368.42 403.65 353.83 C 399.39 338.19 382.41 327.59 366.48 330.66 Z" />
<path fill="#000000" opacity="1.00" d=" M 48.20 346.25 C 71.80 345.83 95.45 346.17 119.08 346.08 C 122.99 345.81 126.70 348.99 126.95 352.92 C 127.46 357.35 123.37 361.44 118.94 361.04 C 96.63 361.09 74.31 361.02 51.99 361.07 C 48.80 361.32 45.17 360.55 43.43 357.60 C 40.55 353.47 43.21 347.05 48.20 346.25 Z" />
<path fill="#000000" opacity="1.00" d=" M 367.37 353.42 C 373.08 350.47 380.76 353.91 382.42 360.10 C 384.35 365.96 380.22 372.80 374.15 373.83 C 368.04 375.25 361.55 370.29 361.24 364.06 C 360.81 359.69 363.40 355.26 367.37 353.42 Z" />
</g>
<g id="#658cd4ff">
<path fill="#658cd4" opacity="1.00" d=" M 333.54 49.81 C 341.17 49.79 348.80 49.79 356.43 49.81 C 356.97 53.63 359.88 57.38 364.05 57.20 C 401.03 57.40 438.02 57.06 474.99 57.45 C 486.62 57.88 496.80 68.30 496.82 79.96 C 496.95 95.86 496.81 111.77 496.88 127.68 C 336.26 127.81 175.64 127.70 15.02 127.76 C 15.01 111.81 14.93 95.86 15.05 79.92 C 15.12 67.47 26.60 56.76 38.99 57.27 C 131.66 57.24 224.32 57.27 316.99 57.26 C 320.63 57.19 324.33 57.57 327.94 56.92 C 331.26 56.16 332.94 52.89 333.54 49.81 M 58.46 79.65 C 52.46 81.96 48.65 88.74 49.99 95.06 C 51.14 102.32 58.81 107.65 66.02 106.14 C 73.75 105.01 79.19 96.51 76.98 89.01 C 75.18 81.17 65.85 76.45 58.46 79.65 M 101.47 79.55 C 95.35 81.75 91.39 88.58 92.70 94.98 C 93.83 102.35 101.68 107.76 108.97 106.10 C 116.80 104.85 122.08 96.04 119.59 88.53 C 117.57 81.05 108.65 76.63 101.47 79.55 M 144.37 79.49 C 137.47 81.82 133.43 90.04 135.93 96.91 C 138.10 103.98 146.49 108.19 153.46 105.65 C 160.61 103.48 164.78 94.92 162.13 87.95 C 159.87 80.85 151.32 76.78 144.37 79.49 Z" />
</g>
<g id="#d5e7fdff">
<path fill="#d5e7fd" opacity="1.00" d=" M 15.00 142.73 C 175.66 142.73 336.32 142.73 496.98 142.74 C 496.97 182.15 497.02 221.57 496.95 260.99 C 497.04 263.57 496.71 266.46 498.30 268.70 C 499.68 270.94 502.33 271.73 504.77 272.21 C 504.73 279.68 504.72 287.15 504.78 294.62 C 500.48 294.91 496.58 298.44 497.01 302.95 C 496.94 333.30 497.01 363.65 496.98 394.00 C 497.22 403.26 491.44 412.29 482.89 415.89 C 477.85 418.26 472.18 417.87 466.77 417.85 C 470.19 409.63 473.73 401.46 477.10 393.23 C 479.55 387.68 477.85 380.67 473.00 377.01 C 468.77 374.13 463.77 372.70 459.15 370.60 C 459.48 366.08 459.27 361.55 459.31 357.02 C 463.95 354.20 469.71 353.47 473.94 349.89 C 478.21 346.18 479.67 339.75 477.49 334.53 C 474.69 327.34 471.64 320.25 468.81 313.08 C 467.22 308.45 464.35 303.84 459.44 302.26 C 452.21 299.58 445.44 304.64 438.84 306.86 C 435.79 303.40 432.55 300.11 429.13 297.03 C 430.80 292.76 432.94 288.64 434.25 284.23 C 435.97 278.01 432.47 270.99 426.55 268.48 C 418.36 264.91 410.11 261.48 401.86 258.08 C 396.88 255.96 390.78 257.13 386.97 260.97 C 382.85 265.08 382.36 271.46 379.07 275.96 C 374.54 276.03 370.02 275.79 365.49 275.94 C 363.60 271.41 362.21 266.61 359.60 262.42 C 356.05 257.24 348.75 255.35 343.04 257.88 C 334.92 261.18 326.77 264.45 318.68 267.84 C 312.91 270.14 309.27 276.73 310.54 282.85 C 311.69 287.55 313.99 291.87 315.69 296.38 C 312.24 299.44 308.95 302.68 305.86 306.11 C 301.54 304.42 297.39 302.24 292.92 300.95 C 286.56 299.24 279.48 303.02 277.11 309.11 C 273.71 317.03 270.39 324.98 267.07 332.93 C 264.56 338.42 266.07 345.44 270.85 349.20 C 275.09 352.27 280.27 353.58 284.95 355.80 C 284.66 360.41 284.65 365.03 284.86 369.64 C 280.62 371.51 276.16 372.91 272.06 375.10 C 266.53 378.31 264.07 385.71 266.49 391.62 C 269.95 400.41 273.58 409.13 277.18 417.86 C 197.78 417.84 118.38 417.86 38.98 417.85 C 29.26 418.18 19.84 411.79 16.52 402.66 C 14.65 397.99 15.03 392.89 15.01 387.98 C 14.99 306.23 15.01 224.48 15.00 142.73 M 51.33 169.56 C 41.98 170.49 35.01 179.80 36.04 189.03 C 36.09 214.73 36.01 240.42 36.08 266.12 C 35.97 275.51 44.59 283.75 53.96 283.32 C 109.98 283.33 166.00 283.33 222.02 283.32 C 231.41 283.75 240.04 275.51 239.93 266.10 C 239.98 239.72 239.97 213.33 239.94 186.95 C 240.04 180.06 235.64 173.42 229.28 170.79 C 226.08 169.34 222.50 169.34 219.06 169.39 C 183.37 169.44 147.68 169.35 111.99 169.44 C 108.49 169.34 105.24 172.03 104.63 175.46 C 103.58 179.92 107.47 184.59 112.05 184.38 C 148.68 184.47 185.32 184.35 221.95 184.43 C 224.03 184.09 225.30 186.13 224.94 188.01 C 224.94 213.70 224.97 239.40 224.92 265.09 C 225.25 266.87 223.82 268.56 221.97 268.30 C 166.01 268.35 110.03 268.34 54.06 268.30 C 52.23 268.57 50.76 266.92 51.09 265.14 C 51.04 239.40 51.07 213.67 51.07 187.93 C 50.87 186.41 51.56 184.43 53.38 184.48 C 60.20 184.24 67.04 184.57 73.87 184.35 C 78.13 184.38 81.72 180.15 81.03 175.96 C 80.64 172.09 76.92 169.14 73.09 169.41 C 65.84 169.47 58.57 169.22 51.33 169.56 M 266.10 178.18 C 262.33 178.97 259.69 183.05 260.50 186.82 C 261.08 190.30 264.40 193.00 267.93 192.90 C 307.61 192.98 347.29 192.90 386.97 192.94 C 390.78 193.34 394.76 190.80 395.41 186.91 C 396.49 182.44 392.58 177.75 388.00 177.98 C 349.68 177.88 311.35 177.98 273.03 177.93 C 270.72 177.95 268.39 177.81 266.10 178.18 M 421.07 178.19 C 417.30 179.00 414.70 183.09 415.53 186.85 C 416.11 190.33 419.43 193.01 422.95 192.90 C 435.97 192.96 449.00 192.93 462.02 192.92 C 465.97 193.22 469.75 189.99 469.94 186.01 C 470.42 181.63 466.42 177.61 462.05 177.94 C 448.40 178.08 434.70 177.63 421.07 178.19 M 265.34 210.45 C 261.25 211.78 259.12 216.95 261.13 220.78 C 262.48 223.74 265.83 225.27 268.99 225.00 C 333.34 225.00 397.68 225.01 462.03 224.99 C 466.00 225.28 469.78 222.01 469.95 218.01 C 470.40 213.62 466.36 209.64 461.99 210.00 C 400.00 210.00 338.01 210.00 276.02 210.00 C 272.47 210.15 268.82 209.59 265.34 210.45 M 162.41 306.63 C 155.18 308.54 149.64 315.51 149.59 323.03 C 149.52 341.67 149.57 360.32 149.57 378.96 C 149.44 388.23 157.82 396.43 167.07 396.20 C 185.01 396.21 202.95 396.26 220.90 396.18 C 229.88 396.09 237.79 388.05 237.74 379.07 C 237.77 360.36 237.80 341.64 237.72 322.93 C 237.66 314.09 229.91 306.20 221.05 306.05 C 204.03 305.93 187.01 306.05 169.99 305.99 C 167.46 305.99 164.88 305.94 162.41 306.63 M 48.14 314.21 C 44.98 314.81 42.47 317.72 42.27 320.93 C 41.82 325.18 45.63 329.19 49.90 328.97 C 72.94 329.03 95.99 329.00 119.03 328.98 C 122.98 329.27 126.71 326.05 126.96 322.10 C 127.43 317.71 123.42 313.66 119.03 314.02 C 95.41 314.11 71.75 313.74 48.14 314.21 M 48.20 346.25 C 43.21 347.05 40.55 353.47 43.43 357.60 C 45.17 360.55 48.80 361.32 51.99 361.07 C 74.31 361.02 96.63 361.09 118.94 361.04 C 123.37 361.44 127.46 357.35 126.95 352.92 C 126.70 348.99 122.99 345.81 119.08 346.08 C 95.45 346.17 71.80 345.83 48.20 346.25 Z" />
<path fill="#d5e7fd" opacity="1.00" d=" M 166.12 321.19 C 183.73 320.77 201.39 321.14 219.02 321.01 C 220.92 320.62 223.09 321.86 222.72 324.02 C 222.78 342.02 222.76 360.02 222.73 378.02 C 222.97 379.62 221.81 381.39 220.04 381.15 C 202.71 381.25 185.37 381.18 168.03 381.19 C 166.07 381.55 164.16 380.06 164.58 377.97 C 164.52 360.29 164.58 342.61 164.55 324.93 C 164.56 323.56 164.52 321.72 166.12 321.19 Z" />
<path fill="#d5e7fd" opacity="1.00" d=" M 366.48 330.66 C 382.41 327.59 399.39 338.19 403.65 353.83 C 408.33 368.42 401.04 385.50 387.40 392.36 C 374.34 399.55 356.72 396.26 347.15 384.84 C 337.62 374.20 336.34 357.28 344.26 345.37 C 349.15 337.61 357.46 332.20 366.48 330.66 M 367.37 353.42 C 363.40 355.26 360.81 359.69 361.24 364.06 C 361.55 370.29 368.04 375.25 374.15 373.83 C 380.22 372.80 384.35 365.96 382.42 360.10 C 380.76 353.91 373.08 350.47 367.37 353.42 Z" />
</g>
<g id="#736e6eff">
<path fill="#736e6e" opacity="1.00" d=" M 325.75 281.06 C 333.12 278.13 340.46 275.11 347.80 272.10 C 349.90 277.05 351.77 282.10 353.94 287.02 C 355.05 289.80 357.98 291.76 361.00 291.54 C 366.68 291.09 372.40 290.44 378.10 291.11 C 381.29 291.25 384.80 292.48 387.77 290.78 C 390.54 289.35 391.43 286.12 392.67 283.51 C 402.72 291.38 411.97 300.57 417.97 311.97 C 428.02 330.73 430.15 353.54 423.72 373.82 C 419.04 388.11 410.63 401.31 398.97 410.89 C 387.11 420.77 372.42 427.39 357.02 429.01 C 348.58 430.08 340.05 429.39 331.69 428.06 C 331.63 424.74 329.96 421.70 327.25 419.79 C 321.98 416.09 317.69 411.24 313.77 406.18 C 311.86 403.49 308.19 402.18 305.08 403.48 C 299.97 405.33 295.04 407.65 289.96 409.56 C 286.99 402.15 283.82 394.81 281.00 387.33 C 286.05 385.36 291.13 383.41 296.08 381.18 C 298.84 379.99 300.67 376.97 300.36 373.96 C 299.74 367.62 299.27 361.21 300.19 354.86 C 300.90 351.29 300.66 346.82 297.11 344.83 C 291.96 342.22 286.48 340.31 281.22 337.93 C 284.26 330.61 287.45 323.36 290.37 316.00 C 295.62 317.77 300.55 320.38 305.76 322.26 C 308.62 323.33 312.02 322.34 313.91 319.96 C 317.49 315.56 321.21 311.24 325.66 307.69 C 328.72 305.26 332.91 302.58 332.20 298.03 C 330.67 292.16 327.62 286.82 325.75 281.06 M 365.40 315.66 C 349.94 317.78 335.76 327.86 329.01 341.98 C 322.13 355.65 322.48 372.59 329.84 386.00 C 336.36 398.27 348.50 407.33 362.10 410.14 C 375.88 413.16 390.87 409.57 401.87 400.77 C 411.93 392.88 418.52 380.79 419.76 368.07 C 421.28 353.89 415.99 339.20 405.87 329.18 C 395.47 318.69 380.02 313.54 365.40 315.66 Z" />
</g>
<g id="#595454ff">
<path fill="#595454" opacity="1.00" d=" M 397.08 272.55 C 404.59 275.05 411.64 278.72 419.06 281.43 C 417.58 287.22 414.28 292.34 412.66 298.08 C 411.98 301.12 413.71 304.08 416.11 305.81 C 421.39 309.87 426.07 314.66 430.08 319.97 C 431.99 322.75 435.69 324.28 438.93 322.94 C 444.02 321.08 448.98 318.84 454.04 316.89 C 457.21 324.18 460.09 331.58 463.10 338.93 C 458.14 341.16 452.99 342.95 448.04 345.19 C 445.07 346.41 443.26 349.71 443.73 352.88 C 444.50 359.60 444.68 366.39 443.71 373.10 C 443.03 376.37 444.14 380.20 447.30 381.76 C 452.38 384.30 457.84 386.01 462.88 388.63 C 459.72 395.78 456.67 402.99 453.78 410.26 C 448.29 408.73 443.33 405.80 437.92 404.04 C 434.96 403.02 431.64 404.36 429.83 406.82 C 425.87 411.83 421.46 416.52 416.34 420.37 C 413.53 422.26 410.99 425.45 412.01 429.05 C 413.56 434.53 416.52 439.49 418.08 444.97 C 417.32 446.05 415.85 446.24 414.74 446.84 C 408.52 449.18 402.47 451.98 396.18 454.18 C 394.11 449.16 392.22 444.05 389.99 439.10 C 388.70 436.08 385.26 434.37 382.06 434.92 C 375.39 435.72 368.63 435.80 361.97 434.87 C 358.74 434.20 355.02 435.38 353.47 438.45 C 351.01 443.52 349.08 448.82 346.83 453.99 C 339.47 451.01 332.20 447.80 324.85 444.82 C 326.93 439.16 329.51 433.69 331.69 428.06 C 340.05 429.39 348.58 430.08 357.02 429.01 C 372.42 427.39 387.11 420.77 398.97 410.89 C 410.63 401.31 419.04 388.11 423.72 373.82 C 430.15 353.54 428.02 330.73 417.97 311.97 C 411.97 300.57 402.72 291.38 392.67 283.51 C 394.08 279.83 395.71 276.24 397.08 272.55 Z" />
</g>
</svg>
