<?xml version="1.0" encoding="UTF-8" ?>
<!DOCTYPE svg PUBLIC "-//W3C//DTD SVG 1.1//EN" "http://www.w3.org/Graphics/SVG/1.1/DTD/svg11.dtd">
<svg width="512pt" height="512pt" viewBox="0 0 512 512" version="1.1" xmlns="http://www.w3.org/2000/svg">
<g id="#58b78cff">
<path fill="#58b78c" opacity="1.00" d=" M 492.54 0.00 L 495.41 0.00 C 502.12 0.87 506.78 8.59 503.91 14.84 C 493.80 37.91 483.56 60.92 473.39 83.96 C 467.37 75.93 461.44 67.84 455.33 59.87 C 431.92 77.31 408.56 94.81 385.18 112.30 C 382.02 114.61 378.92 117.33 374.99 118.18 C 369.93 119.45 364.37 117.98 360.50 114.52 C 349.32 104.69 338.15 94.83 326.99 84.98 C 279.67 120.35 232.39 155.76 185.04 191.08 C 179.10 195.77 170.12 195.38 164.46 190.43 C 153.67 182.34 142.89 174.23 132.07 166.18 C 96.91 192.48 61.76 218.81 26.56 245.05 C 20.15 236.42 13.70 227.82 7.26 219.22 C 45.56 190.56 83.88 161.90 122.21 133.28 C 127.78 128.81 136.24 128.81 141.86 133.18 C 152.98 141.44 164.06 149.74 175.11 158.09 C 222.92 122.65 270.46 86.83 318.18 51.27 C 323.94 46.86 332.64 47.09 338.13 51.84 C 349.53 61.71 360.77 71.77 372.10 81.73 C 393.43 65.85 414.70 49.88 436.01 33.96 C 430.04 25.88 423.96 17.89 417.99 9.82 C 442.85 6.56 467.72 3.44 492.54 0.00 Z" />
</g>
<g id="#4db8ccff">
<path fill="#4db8cc" opacity="1.00" d=" M 383.75 158.77 C 388.15 154.84 394.15 153.12 399.98 153.26 C 408.72 153.36 417.47 153.09 426.22 153.42 C 420.28 154.87 414.39 157.86 411.06 163.18 C 408.21 167.17 407.13 172.12 407.24 176.96 C 407.34 281.30 407.17 385.65 407.31 489.99 C 406.98 500.56 415.36 509.73 425.40 512.00 L 394.48 512.00 C 384.19 510.12 376.00 500.58 376.18 490.04 C 376.16 385.37 376.19 280.70 376.16 176.02 C 376.11 169.55 378.80 163.02 383.75 158.77 Z" />
</g>
<g id="#57d0e6ff">
<path fill="#57d0e6" opacity="1.00" d=" M 411.06 163.18 C 414.39 157.86 420.28 154.87 426.22 153.42 C 441.77 153.73 457.34 153.38 472.91 153.59 C 484.08 153.73 493.85 163.79 493.74 174.95 C 493.79 279.99 493.76 385.03 493.75 490.07 C 494.10 501.22 484.70 511.27 473.63 512.00 L 425.40 512.00 C 415.36 509.73 406.98 500.56 407.31 489.99 C 407.17 385.65 407.34 281.30 407.24 176.96 C 407.13 172.12 408.21 167.17 411.06 163.18 Z" />
</g>
<g id="#e34b4cff">
<path fill="#e34b4c" opacity="1.00" d=" M 217.00 249.95 C 216.96 238.84 226.90 228.73 238.07 228.85 C 247.15 228.63 256.23 228.77 265.32 228.78 C 261.47 230.62 257.28 232.14 254.28 235.31 C 250.28 239.49 247.89 245.23 248.03 251.05 C 248.03 328.39 248.03 405.73 248.03 483.07 C 248.05 488.90 247.47 495.16 250.59 500.40 C 253.47 506.40 259.50 509.94 265.59 512.00 L 235.02 512.00 C 225.19 510.07 216.99 501.16 217.00 490.96 C 217.01 410.63 217.01 330.29 217.00 249.95 Z" />
</g>
<g id="#fd6f71ff">
<path fill="#fd6f71" opacity="1.00" d=" M 265.32 228.78 C 281.21 228.99 297.11 228.77 313.01 228.91 C 324.28 228.79 334.39 238.71 334.42 250.00 C 334.50 329.98 334.44 409.98 334.45 489.97 C 334.85 501.32 325.11 511.63 313.77 512.00 L 265.59 512.00 C 259.50 509.94 253.47 506.40 250.59 500.40 C 247.47 495.16 248.05 488.90 248.03 483.07 C 248.03 405.73 248.03 328.39 248.03 251.05 C 247.89 245.23 250.28 239.49 254.28 235.31 C 257.28 232.14 261.47 230.62 265.32 228.78 Z" />
</g>
<g id="#f2c42cff">
<path fill="#f2c42c" opacity="1.00" d=" M 72.30 305.31 C 76.66 303.60 81.41 304.12 85.98 304.06 C 92.74 304.12 99.49 303.93 106.25 304.18 C 100.54 306.22 94.84 309.39 91.77 314.84 C 89.52 318.48 88.71 322.80 88.71 327.03 C 88.73 381.35 88.71 435.68 88.73 490.00 C 88.67 496.09 91.18 502.20 95.75 506.27 C 98.76 509.07 102.65 510.63 106.46 512.00 L 75.86 512.00 C 65.61 510.12 57.25 500.58 57.68 490.00 C 57.63 435.34 57.61 380.68 57.69 326.03 C 57.45 316.91 63.68 308.18 72.30 305.31 Z" />
</g>
<g id="#fadc60ff">
<path fill="#fadc60" opacity="1.00" d=" M 106.25 304.18 C 122.48 304.42 138.71 304.13 154.93 304.33 C 166.01 304.80 175.42 314.98 175.13 326.05 C 175.15 380.71 175.15 435.37 175.13 490.03 C 175.49 501.07 166.31 511.01 155.39 512.00 L 106.46 512.00 C 102.65 510.63 98.76 509.07 95.75 506.27 C 91.18 502.20 88.67 496.09 88.73 490.00 C 88.71 435.68 88.73 381.35 88.71 327.03 C 88.71 322.80 89.52 318.48 91.77 314.84 C 94.84 309.39 100.54 306.22 106.25 304.18 Z" />
</g>
</svg>
