<?xml version="1.0" encoding="UTF-8" ?>
<!DOCTYPE svg PUBLIC "-//W3C//DTD SVG 1.1//EN" "http://www.w3.org/Graphics/SVG/1.1/DTD/svg11.dtd">
<svg width="1000pt" height="417pt" viewBox="0 0 1000 417" version="1.1" xmlns="http://www.w3.org/2000/svg">
<g id="#635bffff">
<path fill="#635bff" opacity="1.00" d=" M 471.62 14.79 C 494.90 9.83 518.18 4.91 541.48 0.01 C 541.54 18.85 541.38 37.70 541.56 56.54 C 518.29 61.80 494.94 66.67 471.62 71.69 C 471.65 52.73 471.65 33.76 471.62 14.79 Z" />
<path fill="#635bff" opacity="1.00" d=" M 190.40 46.71 C 213.01 41.97 235.59 37.03 258.20 32.30 C 258.28 52.44 257.78 72.58 257.98 92.73 C 275.57 92.81 293.15 92.64 310.74 92.82 C 310.63 112.54 310.64 132.27 310.73 152.00 C 293.09 152.30 275.44 152.02 257.79 152.15 C 257.80 182.44 257.80 212.74 257.79 243.03 C 257.82 251.30 257.48 260.10 261.47 267.63 C 264.69 273.96 271.18 278.16 278.08 279.41 C 288.97 281.44 300.33 279.32 310.56 275.37 C 310.77 294.34 310.73 313.33 310.58 332.30 C 298.61 338.14 285.23 340.15 272.06 341.04 C 257.80 342.14 243.05 340.64 230.00 334.47 C 211.88 326.27 197.92 309.70 192.76 290.51 C 188.95 278.01 190.30 264.83 189.98 251.97 C 190.15 229.33 189.84 206.69 190.21 184.06 C 190.31 138.28 189.98 92.49 190.40 46.71 Z" />
<path fill="#635bff" opacity="1.00" d=" M 663.46 91.20 C 682.86 85.40 704.39 87.38 722.46 96.46 C 738.85 104.53 752.19 117.98 761.50 133.57 C 778.32 161.81 782.78 195.75 780.64 228.09 C 778.92 255.13 772.27 282.80 756.13 305.02 C 743.96 322.03 725.60 334.68 705.06 339.01 C 687.81 342.61 669.12 341.61 653.17 333.67 C 647.39 330.99 642.27 327.15 636.89 323.78 C 636.66 330.52 637.35 337.26 636.86 344.00 C 636.64 363.41 636.89 382.82 636.68 402.23 C 613.79 407.21 590.80 411.75 567.98 417.00 L 567.30 417.00 C 567.13 308.81 567.29 200.61 567.21 92.42 C 587.61 92.43 608.00 92.42 628.39 92.42 C 629.58 98.10 630.78 103.77 631.94 109.46 C 641.04 101.29 651.67 94.65 663.46 91.20 M 653.93 152.16 C 647.31 154.39 640.80 158.25 636.72 163.93 C 636.77 187.61 636.78 211.30 636.78 234.99 C 637.41 245.61 636.52 256.25 637.17 266.87 C 642.29 272.13 648.70 276.22 655.88 277.96 C 665.84 280.50 677.10 280.64 686.18 275.24 C 697.76 268.50 704.69 256.08 708.42 243.58 C 713.55 225.52 713.77 206.03 708.89 187.89 C 705.24 174.86 698.32 161.82 686.46 154.58 C 676.77 148.52 664.50 148.93 653.93 152.16 Z" />
<path fill="#635bff" opacity="1.00" d=" M 870.79 91.82 C 887.42 87.20 905.18 86.64 922.05 90.31 C 937.80 93.72 952.60 101.59 964.07 112.94 C 976.97 125.39 985.82 141.52 991.43 158.43 C 997.13 175.47 999.49 193.44 1000.00 211.34 L 1000.00 219.54 C 999.66 226.47 999.50 233.42 999.47 240.36 C 954.16 240.37 908.84 240.33 863.52 240.38 C 864.24 245.30 865.05 250.28 866.90 254.93 C 870.24 264.08 877.14 271.83 885.91 276.09 C 899.47 282.89 915.14 282.95 929.94 281.97 C 949.19 280.75 968.25 275.80 985.47 267.06 C 985.48 285.72 985.50 304.37 985.46 323.02 C 958.69 337.88 927.31 342.42 897.05 340.59 C 877.91 339.24 858.79 333.90 842.59 323.41 C 828.06 314.14 816.31 300.76 808.51 285.42 C 800.74 270.39 796.48 253.74 794.64 236.98 C 792.11 213.66 793.41 189.74 800.13 167.20 C 805.28 149.89 813.75 133.40 825.91 119.96 C 837.84 106.61 853.55 96.69 870.79 91.82 M 876.89 152.88 C 866.53 161.63 862.76 175.75 862.73 188.85 C 886.60 188.92 910.48 188.84 934.36 188.89 C 934.25 175.09 930.38 159.90 918.87 151.18 C 906.80 141.64 888.29 142.79 876.89 152.88 Z" />
<path fill="#635bff" opacity="1.00" d=" M 33.93 103.02 C 50.65 92.54 70.58 88.55 90.08 87.95 C 114.44 87.50 139.02 91.29 161.72 100.27 C 163.48 100.61 163.01 102.75 163.16 104.03 C 163.05 124.76 162.63 145.47 163.14 166.20 C 141.69 155.53 118.05 148.71 93.98 148.46 C 87.71 148.59 80.99 149.02 75.64 152.64 C 70.88 155.84 69.37 162.46 71.21 167.71 C 73.03 172.35 77.30 175.39 81.51 177.71 C 88.22 181.29 95.48 183.67 102.65 186.17 C 116.91 191.00 131.35 195.87 144.23 203.86 C 154.52 210.21 163.61 218.92 169.16 229.77 C 176.30 243.64 177.79 259.87 175.67 275.17 C 173.50 291.52 165.40 307.06 152.92 317.89 C 138.23 330.78 119.06 337.43 99.91 339.94 C 67.14 344.20 33.53 338.31 3.18 325.58 C 2.48 321.06 3.29 316.51 2.98 311.98 C 2.61 300.64 3.51 289.29 2.86 277.95 C 3.03 271.66 3.26 265.37 2.82 259.09 C 15.80 265.55 29.06 271.61 43.07 275.52 C 56.59 279.37 70.68 282.07 84.80 281.13 C 90.62 280.52 96.84 279.37 101.29 275.27 C 107.12 269.74 106.91 259.41 101.04 253.97 C 93.36 246.59 82.85 243.44 73.15 239.66 C 53.08 232.30 31.64 225.37 16.37 209.64 C 5.74 199.15 0.45 184.26 0.00 169.52 L 0.00 163.64 C 0.45 154.40 2.01 145.14 5.52 136.54 C 10.98 122.63 21.23 110.82 33.93 103.02 Z" />
<path fill="#635bff" opacity="1.00" d=" M 413.50 95.72 C 425.90 88.57 441.30 88.31 454.73 92.54 C 454.77 113.98 454.85 135.41 454.69 156.85 C 438.07 151.69 417.81 154.43 405.43 167.44 C 404.05 169.10 401.72 170.51 401.96 172.96 C 402.04 227.39 401.91 281.82 402.04 336.25 C 378.86 336.28 355.68 336.27 332.50 336.26 C 332.54 255.09 332.53 173.92 332.50 92.75 C 352.52 92.71 372.53 92.80 392.55 92.71 C 394.16 99.40 395.49 106.16 396.93 112.89 C 401.06 106.02 406.42 99.69 413.50 95.72 Z" />
<path fill="#635bff" opacity="1.00" d=" M 471.63 92.75 C 494.92 92.74 518.21 92.74 541.50 92.75 C 541.47 173.92 541.46 255.09 541.50 336.26 C 518.21 336.27 494.92 336.27 471.63 336.26 C 471.65 255.09 471.65 173.92 471.63 92.75 Z" />
</g>
</svg>
