<?xml version="1.0" encoding="UTF-8" ?>
<!DOCTYPE svg PUBLIC "-//W3C//DTD SVG 1.1//EN" "http://www.w3.org/Graphics/SVG/1.1/DTD/svg11.dtd">
<svg width="640pt" height="640pt" viewBox="0 0 640 640" version="1.1" xmlns="http://www.w3.org/2000/svg">
<g id="#ff782eff">
<path fill="#ff782e" opacity="1.00" d=" M 0.00 0.00 L 640.00 0.00 L 640.00 640.00 L 0.00 640.00 L 0.00 0.00 M 171.32 124.86 C 170.61 128.82 173.85 133.08 177.96 133.08 C 187.43 133.21 196.90 133.07 206.37 133.13 C 206.39 168.10 206.34 203.07 206.39 238.04 C 206.21 242.51 210.59 246.51 215.05 245.70 C 219.21 245.26 222.15 241.08 221.76 237.02 C 221.75 202.39 221.75 167.76 221.76 133.13 C 231.18 133.08 240.61 133.20 250.03 133.08 C 253.14 133.12 255.84 130.60 256.45 127.63 C 257.57 123.58 254.41 118.90 250.09 118.94 C 226.38 118.79 202.65 118.91 178.94 118.88 C 175.36 118.59 171.74 121.23 171.32 124.86 M 264.34 158.23 C 253.87 164.83 246.44 175.88 243.95 187.97 C 240.86 202.31 244.17 218.13 253.61 229.50 C 262.31 240.28 276.15 246.50 289.97 246.15 C 302.25 246.14 314.32 240.87 322.77 231.98 C 322.95 235.78 321.80 240.28 324.58 243.41 C 327.27 246.59 332.75 246.56 335.41 243.36 C 337.03 241.64 337.18 239.18 337.15 236.95 C 337.05 210.62 337.22 184.29 337.07 157.97 C 337.08 152.23 329.22 149.32 325.22 153.21 C 321.63 156.14 322.96 161.22 322.78 165.24 C 318.46 161.03 313.54 157.37 307.98 154.98 C 294.08 148.84 277.15 150.03 264.34 158.23 M 395.79 172.06 C 402.97 178.41 410.32 184.55 417.58 190.81 C 420.45 188.49 423.22 186.05 426.18 183.83 C 419.39 177.56 412.11 171.85 405.18 165.74 C 403.26 163.96 400.73 162.20 397.98 163.21 C 394.26 164.15 392.67 169.56 395.79 172.06 M 447.29 172.27 C 423.04 192.34 398.38 211.93 374.34 232.24 C 384.24 234.21 394.42 230.37 402.08 224.16 C 411.34 216.55 420.55 208.87 429.81 201.25 C 441.12 210.94 452.46 220.58 463.75 230.29 C 466.07 232.24 468.56 235.04 471.95 234.17 C 476.04 233.30 477.53 227.37 474.23 224.75 C 462.38 214.46 450.32 204.40 438.38 194.21 C 450.95 183.88 463.69 173.75 476.19 163.33 C 465.76 161.50 455.18 165.53 447.29 172.27 M 354.07 216.71 C 359.44 221.10 364.82 225.50 370.20 229.88 C 375.05 225.91 379.88 221.90 384.71 217.90 C 379.83 216.31 374.94 214.76 370.06 213.15 C 367.75 212.39 365.31 211.67 362.86 212.12 C 359.48 212.56 356.83 214.93 354.07 216.71 M 196.94 279.99 C 190.92 286.45 188.01 295.20 187.31 303.88 C 183.30 304.07 179.15 303.34 175.23 304.40 C 169.96 306.35 170.01 314.74 175.22 316.73 C 179.15 317.81 183.33 317.04 187.36 317.24 C 187.39 341.18 187.35 365.12 187.39 389.06 C 187.10 392.85 190.08 396.66 194.00 396.76 C 198.29 397.30 202.13 393.35 201.86 389.12 C 201.91 365.17 201.85 341.21 201.88 317.26 C 209.57 317.23 217.27 317.30 224.97 317.25 C 228.49 317.53 231.84 314.56 231.90 311.01 C 232.30 307.56 229.50 304.09 226.00 303.96 C 217.99 303.72 209.96 303.97 201.95 303.85 C 202.70 296.40 205.97 288.59 212.82 284.84 C 217.05 282.19 222.13 282.03 226.95 281.57 C 231.67 280.65 233.54 274.13 230.31 270.68 C 228.07 267.93 224.21 268.28 221.05 268.59 C 212.00 269.33 203.07 273.18 196.94 279.99 M 276.30 302.35 C 267.50 303.29 258.91 307.38 253.23 314.27 C 247.00 321.65 244.35 331.50 244.49 341.03 C 244.55 357.35 244.43 373.67 244.54 389.98 C 244.48 393.87 248.22 397.12 252.04 396.76 C 255.98 396.72 259.20 392.95 258.87 389.07 C 258.90 372.71 258.83 356.36 258.90 340.00 C 258.92 331.79 262.02 322.84 269.44 318.51 C 273.35 316.02 278.04 315.62 282.55 315.31 C 287.49 314.77 289.93 308.05 286.56 304.42 C 284.08 301.33 279.75 302.08 276.30 302.35 M 322.83 306.58 C 311.80 311.13 302.79 320.20 298.12 331.16 C 292.21 344.74 292.63 361.10 299.99 374.05 C 306.38 385.70 318.06 394.16 331.03 396.93 C 344.47 400.03 359.46 397.16 370.15 388.23 C 372.30 386.53 373.90 383.73 373.07 380.93 C 372.15 376.52 366.38 374.20 362.62 376.65 C 358.83 378.96 355.29 381.80 350.96 383.08 C 337.34 387.83 321.01 381.77 313.70 369.34 C 304.16 354.30 308.63 332.37 323.34 322.32 C 335.10 313.71 353.50 314.44 363.35 325.65 C 352.16 334.68 341.13 343.89 329.98 352.98 C 326.79 355.34 326.57 360.79 329.74 363.26 C 332.35 365.40 336.49 365.50 338.97 363.08 C 351.89 352.29 364.88 341.56 377.75 330.72 C 380.80 328.27 380.87 323.43 378.36 320.57 C 365.81 304.13 341.68 298.60 322.83 306.58 M 420.33 306.38 C 410.02 310.49 401.41 318.54 396.42 328.43 C 389.58 341.85 389.14 358.51 395.93 372.03 C 401.62 383.70 412.49 392.65 424.98 396.14 C 438.98 400.34 455.12 397.92 466.63 388.68 C 468.68 387.07 470.64 384.73 470.25 381.93 C 470.00 376.66 463.05 373.81 458.99 377.02 C 453.19 381.28 446.42 384.69 439.06 384.65 C 426.72 385.18 414.56 377.82 409.24 366.68 C 401.66 351.80 406.52 331.80 420.35 322.32 C 432.12 313.72 450.46 314.45 460.36 325.61 C 449.21 334.72 438.11 343.87 426.98 353.00 C 424.19 355.10 423.64 359.54 425.81 362.28 C 428.19 365.34 433.21 365.83 436.01 363.05 C 448.77 352.46 461.50 341.83 474.24 331.21 C 477.67 328.83 478.09 323.64 475.38 320.57 C 462.92 304.29 439.11 298.68 420.33 306.38 M 173.47 433.53 C 170.73 434.00 170.48 438.15 173.04 439.11 C 175.37 439.38 177.72 439.25 180.07 439.26 C 278.07 439.23 376.08 439.29 474.09 439.23 C 478.28 439.76 477.95 432.75 473.88 433.42 C 415.25 433.30 356.62 433.41 297.99 433.37 C 256.48 433.48 214.96 433.15 173.47 433.53 M 346.50 460.68 C 344.92 461.49 344.90 463.44 344.87 464.99 C 344.86 481.32 344.91 497.64 344.85 513.97 C 344.93 515.53 344.72 517.19 345.33 518.69 C 346.33 520.91 349.82 521.12 351.13 519.09 C 351.94 517.91 351.67 516.39 351.78 515.06 C 351.70 498.02 351.79 480.98 351.73 463.94 C 352.18 461.17 348.80 459.09 346.50 460.68 M 439.07 468.05 C 438.69 470.92 438.88 473.83 438.88 476.72 C 436.93 476.77 434.93 476.55 433.05 477.10 C 430.71 478.14 430.78 481.87 433.13 482.88 C 435.01 483.25 436.96 483.13 438.87 483.15 C 438.89 489.42 438.84 495.70 438.88 501.97 C 438.84 506.56 440.12 511.31 443.21 514.81 C 446.58 518.72 451.89 520.60 456.99 520.46 C 459.92 520.49 461.00 516.09 458.57 514.61 C 456.22 513.60 453.43 514.10 451.17 512.78 C 447.59 510.97 445.80 506.86 445.78 502.99 C 445.68 496.37 445.79 489.75 445.76 483.13 C 449.84 483.02 453.94 483.36 458.02 482.95 C 460.50 481.94 460.59 477.94 458.01 477.02 C 453.97 476.40 449.85 476.87 445.78 476.77 C 445.73 473.96 445.92 471.13 445.59 468.34 C 445.02 465.16 439.99 465.06 439.07 468.05 M 395.44 477.36 C 389.03 480.89 384.70 487.73 383.97 494.99 C 382.95 502.71 386.20 510.85 392.39 515.63 C 400.50 522.11 413.49 522.47 421.23 515.22 C 423.67 513.03 421.05 508.79 418.00 509.70 C 415.45 510.82 413.29 512.76 410.56 513.46 C 405.09 515.02 398.90 513.12 395.12 508.92 C 388.65 502.06 389.91 489.96 397.39 484.35 C 403.12 479.63 412.05 480.09 417.37 485.23 C 412.34 489.63 407.06 493.73 401.94 498.01 C 401.14 498.84 399.80 499.59 399.99 500.95 C 399.44 503.88 403.63 505.75 405.55 503.58 C 411.77 498.50 417.96 493.37 424.08 488.17 C 426.00 486.92 425.90 484.10 424.35 482.59 C 417.61 474.27 404.69 472.04 395.44 477.36 M 194.35 478.25 C 189.64 481.04 187.36 486.65 187.38 491.95 C 187.34 499.67 187.40 507.39 187.35 515.12 C 187.39 516.83 187.28 519.14 189.13 520.02 C 191.21 521.40 194.42 519.61 194.21 517.07 C 194.46 508.08 193.96 499.06 194.43 490.08 C 194.74 485.33 199.34 481.54 204.08 482.37 C 208.41 482.67 211.56 486.75 211.62 490.95 C 212.01 499.95 211.48 508.97 211.86 517.97 C 212.43 521.47 218.25 521.11 218.42 517.58 C 218.78 508.40 218.14 499.19 218.71 490.02 C 219.06 485.46 223.37 481.70 227.97 482.32 C 232.44 482.45 235.86 486.61 235.90 490.94 C 236.20 499.65 235.84 508.37 236.04 517.08 C 235.80 519.59 238.84 521.32 240.96 520.11 C 242.98 519.24 242.86 516.80 242.89 514.99 C 242.86 507.98 242.89 500.98 242.88 493.97 C 242.89 490.10 242.47 486.00 240.29 482.69 C 235.07 474.20 220.91 473.50 215.10 481.72 C 210.53 475.23 200.86 474.36 194.35 478.25 M 264.10 480.11 C 255.79 486.02 253.00 497.87 256.85 507.14 C 259.49 513.82 265.67 518.98 272.75 520.24 C 279.86 521.70 287.49 519.33 292.60 514.19 C 292.73 516.14 292.19 518.74 294.21 519.93 C 296.37 521.47 299.72 519.64 299.46 516.97 C 299.55 504.64 299.50 492.31 299.48 479.98 C 299.93 477.32 296.85 475.17 294.52 476.47 C 292.23 477.52 292.68 480.37 292.59 482.41 C 285.28 474.88 272.49 473.76 264.10 480.11 M 326.39 476.61 C 319.08 478.33 314.18 485.67 314.26 493.00 C 314.31 501.32 314.08 509.66 314.37 517.97 C 314.85 521.28 320.28 521.29 320.87 518.03 C 321.33 509.32 320.63 500.58 321.20 491.88 C 321.53 487.45 324.76 483.07 329.38 482.59 C 331.62 482.42 335.00 481.98 334.76 478.97 C 334.36 474.85 329.17 475.90 326.39 476.61 M 370.37 477.31 C 365.68 482.64 361.26 488.19 356.60 493.55 C 355.40 495.06 353.61 496.74 354.31 498.89 C 355.00 500.65 356.41 501.99 357.58 503.44 C 362.27 508.80 366.64 514.44 371.44 519.70 C 373.95 522.30 378.65 518.39 376.53 515.45 C 371.80 509.31 366.55 503.58 361.68 497.54 C 365.93 492.51 370.15 487.45 374.40 482.42 C 375.33 481.24 376.57 479.76 375.79 478.17 C 375.07 475.95 371.72 475.33 370.37 477.31 Z" />
<path fill="#ff782e" opacity="1.00" d=" M 283.16 165.28 C 296.10 162.16 310.45 168.25 317.34 179.60 C 326.55 193.85 323.79 214.74 310.47 225.51 C 300.38 234.05 284.90 235.18 273.66 228.24 C 261.43 221.08 255.38 205.76 258.08 192.04 C 260.17 179.21 270.31 167.95 283.16 165.28 Z" />
<path fill="#ff782e" opacity="1.00" d=" M 274.45 482.59 C 282.18 480.84 290.36 486.29 292.10 493.94 C 294.63 502.42 289.08 512.61 280.11 514.01 C 271.87 515.79 263.42 509.32 262.34 501.11 C 260.72 493.02 266.20 484.10 274.45 482.59 Z" />
</g>
<g id="#ffffffff">
<path fill="#ffffff" opacity="1.00" d=" M 171.32 124.86 C 171.74 121.23 175.36 118.59 178.94 118.88 C 202.65 118.91 226.38 118.79 250.09 118.94 C 254.41 118.90 257.57 123.58 256.45 127.63 C 255.84 130.60 253.14 133.12 250.03 133.08 C 240.61 133.20 231.18 133.08 221.76 133.13 C 221.75 167.76 221.75 202.39 221.76 237.02 C 222.15 241.08 219.21 245.26 215.05 245.70 C 210.59 246.51 206.21 242.51 206.39 238.04 C 206.34 203.07 206.39 168.10 206.37 133.13 C 196.90 133.07 187.43 133.21 177.96 133.08 C 173.85 133.08 170.61 128.82 171.32 124.86 Z" />
<path fill="#ffffff" opacity="1.00" d=" M 264.34 158.23 C 277.15 150.03 294.08 148.84 307.98 154.98 C 313.54 157.37 318.46 161.03 322.78 165.24 C 322.96 161.22 321.63 156.14 325.22 153.21 C 329.22 149.32 337.08 152.23 337.07 157.97 C 337.22 184.29 337.05 210.62 337.15 236.95 C 337.18 239.18 337.03 241.64 335.41 243.36 C 332.75 246.56 327.27 246.59 324.58 243.41 C 321.80 240.28 322.95 235.78 322.77 231.98 C 314.32 240.87 302.25 246.14 289.97 246.15 C 276.15 246.50 262.31 240.28 253.61 229.50 C 244.17 218.13 240.86 202.31 243.95 187.97 C 246.44 175.88 253.87 164.83 264.34 158.23 M 283.16 165.28 C 270.31 167.95 260.17 179.21 258.08 192.04 C 255.38 205.76 261.43 221.08 273.66 228.24 C 284.90 235.18 300.38 234.05 310.47 225.51 C 323.79 214.74 326.55 193.85 317.34 179.60 C 310.45 168.25 296.10 162.16 283.16 165.28 Z" />
<path fill="#ffffff" opacity="1.00" d=" M 395.79 172.06 C 392.67 169.56 394.26 164.15 397.98 163.21 C 400.73 162.20 403.26 163.96 405.18 165.74 C 412.11 171.85 419.39 177.56 426.18 183.83 C 423.22 186.05 420.45 188.49 417.58 190.81 C 410.32 184.55 402.97 178.41 395.79 172.06 Z" />
<path fill="#ffffff" opacity="1.00" d=" M 447.29 172.27 C 455.18 165.53 465.76 161.50 476.19 163.33 C 463.69 173.75 450.95 183.88 438.38 194.21 C 450.32 204.40 462.38 214.46 474.23 224.75 C 477.53 227.37 476.04 233.30 471.95 234.17 C 468.56 235.04 466.07 232.24 463.75 230.29 C 452.46 220.58 441.12 210.94 429.81 201.25 C 420.55 208.87 411.34 216.55 402.08 224.16 C 394.42 230.37 384.24 234.21 374.34 232.24 C 398.38 211.93 423.04 192.34 447.29 172.27 Z" />
<path fill="#ffffff" opacity="1.00" d=" M 354.07 216.71 C 356.83 214.93 359.48 212.56 362.86 212.12 C 365.31 211.67 367.75 212.39 370.06 213.15 C 374.94 214.76 379.83 216.31 384.71 217.90 C 379.88 221.90 375.05 225.91 370.20 229.88 C 364.82 225.50 359.44 221.10 354.07 216.71 Z" />
<path fill="#ffffff" opacity="1.00" d=" M 196.94 279.99 C 203.07 273.18 212.00 269.33 221.05 268.59 C 224.21 268.28 228.07 267.93 230.31 270.68 C 233.54 274.13 231.67 280.65 226.95 281.57 C 222.13 282.03 217.05 282.19 212.82 284.84 C 205.97 288.59 202.70 296.40 201.95 303.85 C 209.96 303.97 217.99 303.72 226.00 303.96 C 229.50 304.09 232.30 307.56 231.90 311.01 C 231.84 314.56 228.49 317.53 224.97 317.25 C 217.27 317.30 209.57 317.23 201.88 317.26 C 201.85 341.21 201.91 365.17 201.86 389.12 C 202.13 393.35 198.29 397.30 194.00 396.76 C 190.08 396.66 187.10 392.85 187.39 389.06 C 187.35 365.12 187.39 341.18 187.36 317.24 C 183.33 317.04 179.15 317.81 175.22 316.73 C 170.01 314.74 169.96 306.35 175.23 304.40 C 179.15 303.34 183.30 304.07 187.31 303.88 C 188.01 295.20 190.92 286.45 196.94 279.99 Z" />
<path fill="#ffffff" opacity="1.00" d=" M 276.30 302.35 C 279.75 302.08 284.08 301.33 286.56 304.42 C 289.93 308.05 287.49 314.77 282.55 315.31 C 278.04 315.62 273.35 316.02 269.44 318.51 C 262.02 322.84 258.92 331.79 258.90 340.00 C 258.83 356.36 258.90 372.71 258.87 389.07 C 259.20 392.95 255.98 396.72 252.04 396.76 C 248.22 397.12 244.48 393.87 244.54 389.98 C 244.43 373.67 244.55 357.35 244.49 341.03 C 244.35 331.50 247.00 321.65 253.23 314.27 C 258.91 307.38 267.50 303.29 276.30 302.35 Z" />
<path fill="#ffffff" opacity="1.00" d=" M 322.83 306.58 C 341.68 298.60 365.81 304.13 378.36 320.57 C 380.87 323.43 380.80 328.27 377.75 330.72 C 364.88 341.56 351.89 352.29 338.97 363.08 C 336.49 365.50 332.35 365.40 329.74 363.26 C 326.57 360.79 326.79 355.34 329.98 352.98 C 341.13 343.89 352.16 334.68 363.35 325.65 C 353.50 314.44 335.10 313.71 323.34 322.32 C 308.63 332.37 304.16 354.30 313.70 369.34 C 321.01 381.77 337.34 387.83 350.96 383.08 C 355.29 381.80 358.83 378.96 362.62 376.65 C 366.38 374.20 372.15 376.52 373.07 380.93 C 373.90 383.73 372.30 386.53 370.15 388.23 C 359.46 397.16 344.47 400.03 331.03 396.93 C 318.06 394.16 306.38 385.70 299.99 374.05 C 292.63 361.10 292.21 344.74 298.12 331.16 C 302.79 320.20 311.80 311.13 322.83 306.58 Z" />
<path fill="#ffffff" opacity="1.00" d=" M 420.33 306.38 C 439.11 298.68 462.92 304.29 475.38 320.57 C 478.09 323.64 477.67 328.83 474.24 331.21 C 461.50 341.83 448.77 352.46 436.01 363.05 C 433.21 365.83 428.19 365.34 425.81 362.28 C 423.64 359.54 424.19 355.10 426.98 353.00 C 438.11 343.87 449.21 334.72 460.36 325.61 C 450.46 314.45 432.12 313.72 420.35 322.32 C 406.52 331.80 401.66 351.80 409.24 366.68 C 414.56 377.82 426.72 385.18 439.06 384.65 C 446.42 384.69 453.19 381.28 458.99 377.02 C 463.05 373.81 470.00 376.66 470.25 381.93 C 470.64 384.73 468.68 387.07 466.63 388.68 C 455.12 397.92 438.98 400.34 424.98 396.14 C 412.49 392.65 401.62 383.70 395.93 372.03 C 389.14 358.51 389.58 341.85 396.42 328.43 C 401.41 318.54 410.02 310.49 420.33 306.38 Z" />
<path fill="#ffffff" opacity="1.00" d=" M 173.47 433.53 C 214.96 433.15 256.48 433.48 297.99 433.37 C 356.62 433.41 415.25 433.30 473.88 433.42 C 477.95 432.75 478.28 439.76 474.09 439.23 C 376.08 439.29 278.07 439.23 180.07 439.26 C 177.72 439.25 175.37 439.38 173.04 439.11 C 170.48 438.15 170.73 434.00 173.47 433.53 Z" />
<path fill="#ffffff" opacity="1.00" d=" M 346.50 460.68 C 348.80 459.09 352.18 461.17 351.73 463.94 C 351.79 480.98 351.70 498.02 351.78 515.06 C 351.67 516.39 351.94 517.91 351.13 519.09 C 349.82 521.12 346.33 520.91 345.33 518.69 C 344.72 517.19 344.93 515.53 344.85 513.97 C 344.91 497.64 344.86 481.32 344.87 464.99 C 344.90 463.44 344.92 461.49 346.50 460.68 Z" />
<path fill="#ffffff" opacity="1.00" d=" M 439.07 468.05 C 439.99 465.06 445.02 465.16 445.59 468.34 C 445.92 471.13 445.73 473.96 445.78 476.77 C 449.85 476.87 453.97 476.40 458.01 477.02 C 460.59 477.94 460.50 481.94 458.02 482.95 C 453.94 483.36 449.84 483.02 445.76 483.13 C 445.79 489.75 445.68 496.37 445.78 502.99 C 445.80 506.86 447.59 510.97 451.17 512.78 C 453.43 514.10 456.22 513.60 458.57 514.61 C 461.00 516.09 459.92 520.49 456.99 520.46 C 451.89 520.60 446.58 518.72 443.21 514.81 C 440.12 511.31 438.84 506.56 438.88 501.97 C 438.84 495.70 438.89 489.42 438.87 483.15 C 436.96 483.13 435.01 483.25 433.13 482.88 C 430.78 481.87 430.71 478.14 433.05 477.10 C 434.93 476.55 436.93 476.77 438.88 476.72 C 438.88 473.83 438.69 470.92 439.07 468.05 Z" />
<path fill="#ffffff" opacity="1.00" d=" M 395.44 477.36 C 404.69 472.04 417.61 474.27 424.35 482.59 C 425.90 484.10 426.00 486.92 424.08 488.17 C 417.96 493.37 411.77 498.50 405.55 503.58 C 403.63 505.75 399.44 503.88 399.99 500.95 C 399.80 499.59 401.14 498.84 401.94 498.01 C 407.06 493.73 412.34 489.63 417.37 485.23 C 412.05 480.09 403.12 479.63 397.39 484.35 C 389.91 489.96 388.65 502.06 395.12 508.92 C 398.90 513.12 405.09 515.02 410.56 513.46 C 413.29 512.76 415.45 510.82 418.00 509.70 C 421.05 508.79 423.67 513.03 421.23 515.22 C 413.49 522.47 400.50 522.11 392.39 515.63 C 386.20 510.85 382.95 502.71 383.97 494.99 C 384.70 487.73 389.03 480.89 395.44 477.36 Z" />
<path fill="#ffffff" opacity="1.00" d=" M 194.35 478.25 C 200.86 474.36 210.53 475.23 215.10 481.72 C 220.91 473.50 235.07 474.20 240.29 482.69 C 242.47 486.00 242.89 490.10 242.88 493.97 C 242.89 500.98 242.86 507.98 242.89 514.99 C 242.86 516.80 242.98 519.24 240.96 520.11 C 238.84 521.32 235.80 519.59 236.04 517.08 C 235.84 508.37 236.20 499.65 235.90 490.94 C 235.86 486.61 232.44 482.45 227.97 482.32 C 223.37 481.70 219.06 485.46 218.71 490.02 C 218.14 499.19 218.78 508.40 218.42 517.58 C 218.25 521.11 212.43 521.47 211.86 517.97 C 211.48 508.97 212.01 499.95 211.62 490.95 C 211.56 486.75 208.41 482.67 204.08 482.37 C 199.34 481.54 194.74 485.33 194.43 490.08 C 193.96 499.06 194.46 508.08 194.21 517.07 C 194.42 519.61 191.21 521.40 189.13 520.02 C 187.28 519.14 187.39 516.83 187.35 515.12 C 187.40 507.39 187.34 499.67 187.38 491.95 C 187.36 486.65 189.64 481.04 194.35 478.25 Z" />
<path fill="#ffffff" opacity="1.00" d=" M 264.10 480.11 C 272.49 473.76 285.28 474.88 292.59 482.41 C 292.68 480.37 292.23 477.52 294.52 476.47 C 296.85 475.17 299.93 477.32 299.48 479.98 C 299.50 492.31 299.55 504.64 299.46 516.97 C 299.72 519.64 296.37 521.47 294.21 519.93 C 292.19 518.74 292.73 516.14 292.60 514.19 C 287.49 519.33 279.86 521.70 272.75 520.24 C 265.67 518.98 259.49 513.82 256.85 507.14 C 253.00 497.87 255.79 486.02 264.10 480.11 M 274.45 482.59 C 266.20 484.10 260.72 493.02 262.34 501.11 C 263.42 509.32 271.87 515.79 280.11 514.01 C 289.08 512.61 294.63 502.42 292.10 493.94 C 290.36 486.29 282.18 480.84 274.45 482.59 Z" />
<path fill="#ffffff" opacity="1.00" d=" M 326.39 476.61 C 329.17 475.90 334.36 474.85 334.76 478.97 C 335.00 481.98 331.62 482.42 329.38 482.59 C 324.76 483.07 321.53 487.45 321.20 491.88 C 320.63 500.58 321.33 509.32 320.87 518.03 C 320.28 521.29 314.85 521.28 314.37 517.97 C 314.08 509.66 314.31 501.32 314.26 493.00 C 314.18 485.67 319.08 478.33 326.39 476.61 Z" />
<path fill="#ffffff" opacity="1.00" d=" M 370.37 477.31 C 371.72 475.33 375.07 475.95 375.79 478.17 C 376.57 479.76 375.33 481.24 374.40 482.42 C 370.15 487.45 365.93 492.51 361.68 497.54 C 366.55 503.58 371.80 509.31 376.53 515.45 C 378.65 518.39 373.95 522.30 371.44 519.70 C 366.64 514.44 362.27 508.80 357.58 503.44 C 356.41 501.99 355.00 500.65 354.31 498.89 C 353.61 496.74 355.40 495.06 356.60 493.55 C 361.26 488.19 365.68 482.64 370.37 477.31 Z" />
</g>
</svg>
