<?xml version="1.0" encoding="UTF-8" ?>
<!DOCTYPE svg PUBLIC "-//W3C//DTD SVG 1.1//EN" "http://www.w3.org/Graphics/SVG/1.1/DTD/svg11.dtd">
<svg width="512pt" height="512pt" viewBox="0 0 512 512" version="1.1" xmlns="http://www.w3.org/2000/svg">
<g id="#4295cdff">
<path fill="#4295cd" opacity="1.00" d=" M 321.14 4.32 C 384.76 4.36 448.38 4.32 512.00 4.34 L 512.00 143.34 C 448.36 143.34 384.73 143.39 321.09 143.18 C 305.85 122.96 290.78 102.61 275.46 82.45 C 261.67 82.49 247.89 82.34 234.11 82.52 C 224.37 82.70 214.63 85.95 207.11 92.21 C 198.10 99.40 192.18 110.36 191.25 121.87 C 190.11 133.26 193.79 145.05 201.27 153.73 C 207.71 161.47 216.98 166.75 226.90 168.46 C 233.89 169.52 240.98 169.16 248.02 169.21 C 302.67 169.21 357.32 169.21 411.98 169.21 C 419.75 169.18 427.75 169.08 435.21 171.59 C 447.60 175.38 458.18 184.61 463.77 196.28 C 468.74 206.63 469.86 218.82 466.66 229.86 C 463.23 242.57 454.07 253.54 442.33 259.43 C 434.89 263.38 426.39 264.65 418.05 264.70 C 406.03 264.69 394.00 264.69 381.97 264.70 C 381.99 258.90 382.01 253.10 381.97 247.30 C 393.99 247.31 406.01 247.29 418.03 247.31 C 423.03 247.32 428.16 246.89 432.77 244.80 C 443.08 240.51 450.50 230.12 451.07 218.95 C 452.09 206.73 444.74 194.43 433.57 189.45 C 427.19 186.33 419.93 186.50 413.02 186.57 C 353.35 186.55 293.68 186.61 234.01 186.53 C 213.80 186.61 194.04 175.75 183.26 158.67 C 176.26 147.89 172.87 134.85 173.73 122.02 C 174.69 104.42 183.92 87.53 198.11 77.10 C 208.11 69.57 220.51 65.38 233.01 65.15 C 247.22 64.95 261.43 65.22 275.64 65.01 C 290.75 44.74 305.94 24.52 321.14 4.32 M 434.07 30.32 C 433.87 33.23 433.82 36.16 433.87 39.08 C 427.57 40.19 421.55 43.80 418.69 49.69 C 414.11 58.12 417.26 69.64 425.42 74.65 C 433.30 79.29 441.82 82.76 449.84 87.14 C 451.47 87.74 451.12 89.53 450.80 90.87 C 439.38 91.57 427.91 90.79 416.47 91.23 C 416.58 96.96 416.39 102.69 416.71 108.41 C 422.39 108.45 428.08 108.47 433.76 108.36 C 434.02 111.24 434.03 114.14 434.00 117.03 C 439.71 117.14 445.43 117.11 451.15 117.05 C 451.18 114.14 451.20 111.24 451.21 108.33 C 458.92 107.28 465.95 101.71 467.88 94.03 C 470.22 85.77 466.17 76.39 458.69 72.27 C 451.08 68.02 443.09 64.50 435.41 60.40 C 433.34 59.73 433.68 56.19 436.07 56.50 C 446.90 56.31 457.74 56.52 468.57 56.42 C 468.70 50.60 468.73 44.78 468.54 38.96 C 462.78 38.95 457.01 39.23 451.25 38.92 C 451.32 36.05 451.36 33.17 451.04 30.30 C 445.38 30.39 439.72 30.36 434.07 30.32 M 323.46 57.64 C 314.07 60.97 309.90 72.90 314.34 81.60 C 317.96 89.05 327.33 92.98 335.17 90.21 C 344.10 87.49 349.46 76.84 346.11 68.07 C 343.22 59.05 332.21 53.93 323.46 57.64 Z" />
<path fill="#4295cd" opacity="1.00" d=" M 0.00 360.11 C 37.64 360.13 75.28 360.08 112.92 360.14 C 113.13 409.34 112.90 458.54 113.03 507.74 C 75.36 508.03 37.68 507.79 0.00 507.86 L 0.00 360.11 M 57.38 438.54 C 48.21 440.11 41.64 449.92 43.71 459.01 C 45.27 468.09 54.87 474.53 63.89 472.66 C 73.48 471.25 80.27 460.65 77.59 451.33 C 75.63 442.56 66.14 436.64 57.38 438.54 Z" />
</g>
<g id="#87ced9ff">
<path fill="#87ced9" opacity="1.00" d=" M 434.07 30.32 C 439.72 30.36 445.38 30.39 451.04 30.30 C 451.36 33.17 451.32 36.05 451.25 38.92 C 457.01 39.23 462.78 38.95 468.54 38.96 C 468.73 44.78 468.70 50.60 468.57 56.42 C 457.74 56.52 446.90 56.31 436.07 56.50 C 433.68 56.19 433.34 59.73 435.41 60.40 C 443.09 64.50 451.08 68.02 458.69 72.27 C 466.17 76.39 470.22 85.77 467.88 94.03 C 465.95 101.71 458.92 107.28 451.21 108.33 C 451.20 111.24 451.18 114.14 451.15 117.05 C 445.43 117.11 439.71 117.14 434.00 117.03 C 434.03 114.14 434.02 111.24 433.76 108.36 C 428.08 108.47 422.39 108.45 416.71 108.41 C 416.39 102.69 416.58 96.96 416.47 91.23 C 427.91 90.79 439.38 91.57 450.80 90.87 C 451.12 89.53 451.47 87.74 449.84 87.14 C 441.82 82.76 433.30 79.29 425.42 74.65 C 417.26 69.64 414.11 58.12 418.69 49.69 C 421.55 43.80 427.57 40.19 433.87 39.08 C 433.82 36.16 433.87 33.23 434.07 30.32 Z" />
</g>
<g id="#f8b146ff">
<path fill="#f8b146" opacity="1.00" d=" M 138.85 212.63 C 170.68 212.53 202.51 212.79 234.34 212.50 C 234.35 229.87 234.28 247.25 234.37 264.63 C 251.61 264.73 268.85 264.64 286.09 264.68 C 286.62 247.30 286.22 229.89 286.29 212.50 C 318.14 212.79 350.00 212.54 381.85 212.63 C 381.90 224.18 381.74 235.74 381.97 247.30 C 382.01 253.10 381.99 258.90 381.97 264.70 C 381.95 309.03 381.96 353.37 381.97 397.70 C 370.26 404.16 358.32 410.16 346.67 416.72 C 344.98 415.40 343.34 414.04 341.76 412.61 C 347.57 407.00 351.27 399.15 351.24 391.01 C 351.61 380.39 345.70 369.92 336.56 364.58 C 331.03 361.16 324.42 360.09 318.02 360.13 C 291.01 360.17 264.01 360.10 237.01 360.17 C 233.11 360.47 230.07 357.68 226.73 356.16 C 199.68 342.98 167.66 340.36 138.85 349.05 C 138.84 303.58 138.84 258.10 138.85 212.63 Z" />
</g>
<g id="#f77219ff">
<path fill="#f77219" opacity="1.00" d=" M 234.34 212.50 C 251.65 212.29 268.98 212.29 286.29 212.50 C 286.22 229.89 286.62 247.30 286.09 264.68 C 268.85 264.64 251.61 264.73 234.37 264.63 C 234.28 247.25 234.35 229.87 234.34 212.50 Z" />
</g>
<g id="#fec9a3ff">
<path fill="#fec9a3" opacity="1.00" d=" M 138.85 349.05 C 167.66 340.36 199.68 342.98 226.73 356.16 C 230.07 357.68 233.11 360.47 237.01 360.17 C 264.01 360.10 291.01 360.17 318.02 360.13 C 324.42 360.09 331.03 361.16 336.56 364.58 C 345.70 369.92 351.61 380.39 351.24 391.01 C 351.27 399.15 347.57 407.00 341.76 412.61 C 336.52 411.97 331.24 412.15 325.98 412.15 C 300.66 412.13 275.34 412.15 250.02 412.12 C 245.80 412.19 240.93 411.42 237.43 414.36 C 233.71 417.48 233.46 423.63 236.86 427.08 C 239.29 429.34 242.79 429.71 245.97 429.71 C 275.98 429.63 305.99 429.69 336.00 429.70 C 339.37 429.79 343.01 428.92 345.21 426.18 C 347.50 423.57 346.80 419.89 346.67 416.72 C 358.32 410.16 370.26 404.16 381.97 397.70 C 407.75 383.89 433.59 370.19 459.38 356.40 C 471.75 349.23 488.76 349.76 499.86 359.15 C 507.40 365.25 511.70 374.76 512.00 384.39 L 512.00 385.59 C 511.68 396.94 505.24 407.83 495.37 413.49 C 443.08 444.80 390.90 476.35 338.51 507.48 C 263.37 507.95 188.18 507.42 113.03 507.74 C 112.90 458.54 113.13 409.34 112.92 360.14 C 121.08 355.42 129.82 351.76 138.85 349.05 Z" />
</g>
<g id="#f5b789ff">
<path fill="#f5b789" opacity="1.00" d=" M 237.43 414.36 C 240.93 411.42 245.80 412.19 250.02 412.12 C 275.34 412.15 300.66 412.13 325.98 412.15 C 331.24 412.15 336.52 411.97 341.76 412.61 C 343.34 414.04 344.98 415.40 346.67 416.72 C 346.80 419.89 347.50 423.57 345.21 426.18 C 343.01 428.92 339.37 429.79 336.00 429.70 C 305.99 429.69 275.98 429.63 245.97 429.71 C 242.79 429.71 239.29 429.34 236.86 427.08 C 233.46 423.63 233.71 417.48 237.43 414.36 Z" />
</g>
<g id="#18588cff">
<path fill="#18588c" opacity="1.00" d=" M 57.38 438.54 C 66.14 436.64 75.63 442.56 77.59 451.33 C 80.27 460.65 73.48 471.25 63.89 472.66 C 54.87 474.53 45.27 468.09 43.71 459.01 C 41.64 449.92 48.21 440.11 57.38 438.54 Z" />
</g>
</svg>
