<?xml version="1.0" encoding="UTF-8" ?>
<!DOCTYPE svg PUBLIC "-//W3C//DTD SVG 1.1//EN" "http://www.w3.org/Graphics/SVG/1.1/DTD/svg11.dtd">
<svg width="512pt" height="512pt" viewBox="0 0 512 512" version="1.1" xmlns="http://www.w3.org/2000/svg">
<g id="#ffaf10ff">
<path fill="#ffaf10" opacity="1.00" d=" M 198.07 17.96 C 234.15 9.16 272.25 8.76 308.53 16.70 C 340.10 23.53 370.18 36.89 396.65 55.37 C 347.45 55.59 298.24 55.40 249.04 55.47 C 204.48 55.40 159.91 55.59 115.36 55.37 C 140.32 37.96 168.45 25.05 198.07 17.96 Z" />
<path fill="#ffaf10" opacity="1.00" d=" M 457.27 116.16 C 460.58 121.37 464.10 126.45 467.17 131.82 C 488.61 168.02 500.34 209.90 500.90 251.97 C 501.67 288.91 493.63 325.88 478.22 359.43 C 478.12 335.27 478.27 311.10 478.15 286.94 C 478.13 284.27 475.76 281.94 473.08 282.03 C 467.80 281.94 462.52 282.04 457.24 281.99 C 457.28 226.71 457.21 171.44 457.27 116.16 Z" />
<path fill="#ffaf10" opacity="1.00" d=" M 267.92 134.01 C 267.60 131.32 269.67 129.51 271.92 128.56 C 318.26 128.79 364.61 128.58 410.96 128.67 C 413.92 128.48 416.55 131.09 416.36 134.06 C 416.39 158.03 416.38 182.00 416.37 205.96 C 416.56 208.97 413.87 211.60 410.88 211.37 C 364.57 211.44 318.25 211.27 271.94 211.45 C 269.67 210.52 267.57 208.69 267.92 205.98 C 267.82 181.99 267.83 158.00 267.92 134.01 Z" />
<path fill="#ffaf10" opacity="1.00" d=" M 45.21 380.86 C 88.27 380.84 131.33 380.84 174.40 380.86 C 174.41 395.57 174.41 410.28 174.40 425.00 C 165.29 425.00 156.17 425.00 147.06 425.00 C 140.69 425.03 134.32 424.94 127.96 425.04 C 125.76 425.52 123.93 427.68 124.03 429.98 C 124.01 436.65 124.01 443.33 124.03 450.00 C 123.92 452.59 126.29 455.18 128.93 454.99 C 134.97 455.01 141.01 454.99 147.04 455.00 C 207.06 455.00 267.07 455.00 327.09 455.00 C 330.03 455.36 333.14 453.15 333.09 450.04 C 333.15 443.34 333.15 436.63 333.09 429.94 C 333.11 427.26 330.70 425.01 328.07 425.03 C 312.92 424.95 297.77 425.03 282.63 424.99 C 282.63 410.28 282.62 395.57 282.64 380.86 C 291.43 380.83 300.22 380.85 309.01 380.85 C 309.10 387.92 308.97 394.99 309.08 402.06 C 309.12 404.56 311.49 406.90 313.99 406.91 C 320.01 406.95 326.03 407.00 332.05 406.88 C 371.02 406.68 410.00 406.80 448.97 406.82 C 420.42 443.54 381.12 471.81 337.21 487.16 C 298.19 500.93 255.66 504.43 214.89 497.51 C 175.68 490.95 138.20 474.52 106.75 450.23 C 82.07 431.29 61.09 407.59 45.21 380.86 Z" />
</g>
<g id="#445ea0ff">
<path fill="#445ea0" opacity="1.00" d=" M 0.00 65.95 C 0.47 60.23 5.34 55.54 11.13 55.50 C 45.87 55.36 80.62 55.62 115.36 55.37 C 159.91 55.59 204.48 55.40 249.04 55.47 C 298.24 55.40 347.45 55.59 396.65 55.37 C 413.29 55.65 429.95 55.30 446.59 55.55 C 452.14 55.76 456.99 60.45 457.16 66.04 C 457.39 82.74 457.16 99.46 457.27 116.16 C 457.21 171.44 457.28 226.71 457.24 281.99 C 449.92 282.01 442.59 282.01 435.28 281.99 C 435.29 215.66 435.29 149.32 435.27 82.99 C 435.51 80.05 432.98 77.34 430.03 77.49 C 295.99 77.43 161.96 77.48 27.93 77.46 C 24.77 77.07 21.69 79.69 21.99 82.96 C 21.95 150.98 21.97 219.01 21.98 287.03 C 21.54 290.40 24.59 293.34 27.92 292.91 C 121.64 292.91 215.35 292.90 309.06 292.91 C 308.96 300.24 309.06 307.58 308.99 314.91 C 212.67 314.87 116.34 314.86 20.01 314.92 C 13.34 314.85 6.67 314.87 0.00 314.91 L 0.00 65.95 Z" />
<path fill="#445ea0" opacity="1.00" d=" M 227.34 334.45 C 236.18 333.29 244.40 342.25 242.17 350.95 C 240.84 358.72 232.15 364.06 224.64 361.49 C 218.12 359.64 213.67 352.66 214.98 345.96 C 215.92 339.94 221.15 334.77 227.34 334.45 Z" />
<path fill="#445ea0" opacity="1.00" d=" M 194.16 381.05 C 223.64 380.58 253.15 380.98 282.64 380.86 C 282.62 395.57 282.63 410.28 282.63 424.99 C 253.14 424.92 223.64 425.15 194.15 424.89 C 194.54 410.29 194.46 395.65 194.16 381.05 Z" />
</g>
<g id="#eef6ffff">
<path fill="#eef6ff" opacity="1.00" d=" M 21.99 82.96 C 21.69 79.69 24.77 77.07 27.93 77.46 C 161.96 77.48 295.99 77.43 430.03 77.49 C 432.98 77.34 435.51 80.05 435.27 82.99 C 435.29 149.32 435.29 215.66 435.28 281.99 C 400.90 282.02 366.52 281.99 332.15 282.00 C 325.50 282.19 318.77 281.62 312.18 282.30 C 307.97 284.17 309.27 289.26 309.06 292.91 C 215.35 292.90 121.64 292.91 27.92 292.91 C 24.59 293.34 21.54 290.40 21.98 287.03 C 21.97 219.01 21.95 150.98 21.99 82.96 M 203.08 99.97 C 203.04 107.01 203.04 114.05 203.08 121.09 C 203.02 123.32 204.77 125.34 206.87 125.93 C 210.34 126.08 213.81 125.97 217.28 126.00 C 221.22 125.99 225.18 126.04 229.13 125.97 C 231.80 126.02 234.13 123.65 234.12 120.99 C 234.18 113.99 234.19 106.98 234.12 99.97 C 234.12 97.28 231.74 94.98 229.05 95.03 C 225.11 94.96 221.17 95.00 217.24 95.01 C 213.82 95.03 210.40 94.91 207.00 95.08 C 204.82 95.56 202.99 97.68 203.08 99.97 M 341.44 95.49 C 337.29 97.34 338.54 102.42 338.37 106.02 C 338.57 108.77 337.69 111.96 339.58 114.30 C 341.95 116.97 345.83 115.87 348.96 116.09 C 351.87 115.88 355.33 116.83 357.75 114.73 C 360.09 112.45 359.21 108.92 359.38 106.00 C 359.12 102.81 360.28 98.88 357.66 96.39 C 355.59 94.51 352.58 95.23 350.05 95.09 C 347.18 95.23 344.24 94.73 341.44 95.49 M 369.37 95.52 C 365.26 97.43 366.56 102.49 366.37 106.09 C 366.56 108.83 365.69 112.03 367.62 114.35 C 370.03 116.97 373.88 115.86 377.01 116.09 C 379.89 115.89 383.29 116.82 385.70 114.77 C 388.10 112.51 387.21 108.95 387.38 106.02 C 387.12 102.81 388.29 98.86 385.64 96.36 C 383.53 94.50 380.51 95.24 377.97 95.09 C 375.10 95.23 372.16 94.71 369.37 95.52 M 397.41 95.50 C 395.72 96.32 394.45 98.02 394.42 99.94 C 394.32 103.65 394.36 107.37 394.40 111.09 C 394.36 114.01 397.14 116.35 400.01 116.09 C 404.18 115.84 408.51 116.69 412.57 115.53 C 416.47 113.55 415.15 108.57 415.38 105.04 C 415.45 101.61 416.00 96.49 411.75 95.36 C 407.02 94.98 402.11 94.78 397.41 95.50 M 37.08 101.92 C 37.05 108.97 37.05 116.02 37.08 123.06 C 37.01 125.32 38.82 127.47 40.99 127.93 C 44.41 128.08 47.84 127.97 51.27 128.00 C 55.19 128.00 59.12 128.03 63.05 127.97 C 65.76 128.07 68.14 125.67 68.12 122.98 C 68.18 115.99 68.18 109.00 68.12 102.01 C 68.14 99.33 65.78 97.02 63.12 97.04 C 59.15 96.95 55.18 97.01 51.21 97.00 C 47.80 97.04 44.39 96.91 40.99 97.08 C 38.83 97.57 37.01 99.66 37.08 101.92 M 77.36 106.52 C 72.48 108.10 70.90 114.95 74.47 118.60 C 78.02 122.20 83.48 120.69 87.98 121.00 C 91.66 121.23 95.55 118.76 96.14 114.99 C 97.25 110.65 93.53 106.12 89.11 106.07 C 85.21 106.08 81.20 105.59 77.36 106.52 M 111.41 106.51 C 107.05 107.90 105.06 113.70 107.66 117.47 C 109.31 120.37 112.89 121.21 116.00 121.01 C 120.34 120.83 125.92 122.03 128.86 117.90 C 132.23 113.82 129.42 106.83 124.16 106.23 C 119.95 105.93 115.57 105.64 111.41 106.51 M 145.32 106.53 C 138.97 108.52 139.05 118.64 145.45 120.50 C 150.06 121.29 154.96 121.33 159.57 120.44 C 165.76 118.37 165.77 108.70 159.61 106.57 C 154.95 105.66 149.99 105.70 145.32 106.53 M 179.47 106.49 C 174.53 107.99 172.87 114.89 176.44 118.57 C 179.99 122.22 185.51 120.68 190.04 121.00 C 193.70 121.22 197.58 118.73 198.15 114.96 C 199.24 110.63 195.52 106.12 191.12 106.07 C 187.25 106.08 183.27 105.60 179.47 106.49 M 247.85 134.05 C 247.80 158.03 247.80 182.01 247.85 206.00 C 247.43 209.42 250.79 211.78 253.92 211.61 C 259.93 211.50 265.95 211.81 271.94 211.45 C 318.25 211.27 364.57 211.44 410.88 211.37 C 413.87 211.60 416.56 208.97 416.37 205.96 C 416.38 182.00 416.39 158.03 416.36 134.06 C 416.55 131.09 413.92 128.48 410.96 128.67 C 364.61 128.58 318.26 128.79 271.92 128.56 C 265.93 128.25 259.92 128.53 253.93 128.43 C 250.78 128.26 247.42 130.61 247.85 134.05 M 70.07 138.90 C 70.06 167.29 70.06 195.67 70.07 224.06 C 69.75 226.93 72.24 229.47 75.03 229.63 C 81.34 229.70 87.66 229.72 93.98 229.62 C 127.65 229.34 161.34 229.62 195.01 229.48 C 197.90 229.56 200.35 226.92 200.14 224.05 C 200.17 195.72 200.16 167.39 200.15 139.07 C 200.42 136.10 197.88 133.43 194.92 133.52 C 161.32 133.38 127.70 133.66 94.10 133.39 C 87.77 133.28 81.43 133.31 75.10 133.36 C 72.31 133.56 69.75 135.99 70.07 138.90 M 49.17 134.26 C 45.38 134.64 42.54 138.30 42.68 142.04 C 42.82 145.94 42.09 150.02 43.42 153.78 C 45.44 158.44 52.29 159.45 55.61 155.64 C 58.84 151.81 57.34 146.42 57.63 141.85 C 57.73 137.47 53.58 133.50 49.17 134.26 M 219.15 134.27 C 214.96 134.68 212.25 138.95 212.65 142.95 C 212.96 147.27 211.52 152.57 215.00 155.95 C 218.60 159.71 225.68 158.01 227.15 153.01 C 228.08 149.12 227.61 145.04 227.55 141.09 C 227.33 136.98 223.24 133.55 219.15 134.27 M 49.15 168.27 C 45.37 168.66 42.55 172.29 42.68 176.02 C 42.80 179.90 42.13 183.93 43.37 187.69 C 45.36 192.42 52.30 193.50 55.63 189.62 C 58.82 185.81 57.35 180.50 57.63 175.97 C 57.78 171.54 53.62 167.46 49.15 168.27 M 219.15 168.27 C 214.91 168.68 212.22 173.02 212.65 177.06 C 212.94 181.19 211.64 186.08 214.59 189.53 C 217.15 192.56 222.21 192.86 225.09 190.12 C 227.44 188.15 227.78 184.87 227.67 182.00 C 227.57 179.27 227.93 176.50 227.31 173.82 C 226.54 170.25 222.75 167.65 219.15 168.27 M 49.13 202.27 C 44.96 202.69 42.25 206.95 42.65 210.95 C 42.95 215.10 41.64 219.97 44.53 223.47 C 47.09 226.57 52.23 226.87 55.12 224.09 C 57.45 222.12 57.78 218.85 57.67 216.00 C 57.57 213.28 57.93 210.51 57.32 207.84 C 56.56 204.26 52.74 201.64 49.13 202.27 M 219.17 202.27 C 214.96 202.67 212.23 206.97 212.65 211.00 C 212.95 215.30 211.53 220.58 215.00 223.95 C 218.37 227.43 224.86 226.27 226.83 221.83 C 228.31 218.03 227.47 213.82 227.63 209.85 C 227.72 205.47 223.57 201.49 219.17 202.27 M 254.31 225.47 C 251.40 226.24 248.84 228.88 248.77 231.99 C 248.22 236.50 252.57 240.50 256.99 240.09 C 269.66 240.21 282.33 240.05 295.00 240.16 C 297.67 240.08 300.56 240.37 303.00 239.05 C 306.63 237.12 307.80 231.92 305.43 228.57 C 303.53 225.35 299.39 224.91 296.01 225.09 C 282.12 225.34 268.16 224.65 254.31 225.47 M 317.35 225.48 C 314.84 226.23 312.38 228.24 312.02 230.96 C 310.81 235.25 314.51 240.06 318.95 240.02 C 328.28 240.29 337.62 240.02 346.95 240.15 C 349.86 240.03 353.14 240.45 355.65 238.63 C 359.52 236.11 359.71 229.75 356.00 226.97 C 352.27 224.10 347.31 225.39 342.99 225.11 C 334.45 225.34 325.84 224.64 317.35 225.48 M 369.26 225.40 C 364.92 226.41 362.09 231.69 364.28 235.74 C 365.36 238.92 368.89 240.20 371.99 240.12 C 384.33 240.16 396.67 240.09 409.02 240.15 C 411.54 240.09 414.41 240.22 416.42 238.40 C 419.89 235.82 420.21 229.99 416.82 227.21 C 413.62 224.21 408.92 225.31 404.96 225.10 C 393.06 225.32 381.12 224.71 369.26 225.40 M 40.15 235.19 C 38.35 236.06 36.94 237.91 37.08 239.99 C 37.06 247.02 37.03 254.06 37.09 261.09 C 37.06 263.32 38.90 265.26 40.96 265.85 C 44.38 266.09 47.80 265.86 51.22 266.00 C 55.47 265.70 59.74 266.08 63.98 265.75 C 66.69 265.40 68.40 262.59 68.15 259.99 C 68.13 253.32 68.20 246.66 68.12 239.99 C 68.20 237.20 65.72 234.79 62.94 234.90 C 59.04 234.84 55.13 234.91 51.23 234.78 C 47.54 234.96 43.79 234.42 40.15 235.19 M 206.18 235.17 C 204.36 236.05 202.93 237.90 203.08 239.99 C 203.06 247.01 203.03 254.04 203.09 261.06 C 203.03 263.30 204.86 265.17 206.88 265.85 C 210.31 266.08 213.74 265.86 217.17 266.00 C 221.43 265.70 225.71 266.07 229.97 265.75 C 232.70 265.41 234.41 262.56 234.15 259.96 C 234.13 253.28 234.20 246.61 234.12 239.94 C 234.17 237.20 231.75 234.84 229.02 234.90 C 225.07 234.84 221.12 234.90 217.18 234.78 C 213.51 234.94 209.79 234.43 206.18 235.17 M 77.48 242.49 C 72.52 243.98 70.87 250.91 74.46 254.59 C 78.03 258.21 83.53 256.69 88.05 257.00 C 92.15 257.29 96.19 254.11 96.33 249.90 C 96.60 245.84 93.14 242.13 89.09 242.06 C 85.23 242.07 81.27 241.60 77.48 242.49 M 111.42 242.51 C 106.79 243.96 104.94 250.30 108.03 254.03 C 110.78 257.79 115.89 256.91 119.94 257.01 C 123.17 257.20 126.95 256.78 128.91 253.84 C 132.20 249.73 129.38 242.81 124.15 242.23 C 119.94 241.92 115.58 241.65 111.42 242.51 M 145.40 242.51 C 140.50 244.06 138.89 250.91 142.44 254.57 C 146.01 258.22 151.54 256.68 156.07 256.99 C 160.84 257.43 165.38 252.81 164.14 248.03 C 163.55 244.26 159.70 241.77 156.02 242.00 C 152.48 242.12 148.86 241.60 145.40 242.51 M 179.44 242.50 C 174.51 244.02 172.88 250.90 176.45 254.58 C 180.02 258.21 185.53 256.68 190.07 257.00 C 194.83 257.43 199.39 252.82 198.13 248.02 C 197.55 244.27 193.73 241.79 190.07 242.01 C 186.53 242.12 182.90 241.61 179.44 242.50 M 253.34 248.45 C 250.68 249.97 248.38 252.76 248.80 256.02 C 248.93 260.13 253.00 263.06 256.92 262.89 C 270.97 262.91 285.03 262.98 299.09 262.87 C 303.71 262.93 307.76 258.25 306.43 253.69 C 305.89 250.21 302.42 247.91 299.04 247.96 C 291.37 247.85 283.70 247.95 276.03 247.91 C 268.48 248.10 260.83 247.37 253.34 248.45 M 316.40 248.50 C 312.39 250.17 310.48 255.40 312.78 259.16 C 314.47 261.99 317.91 263.10 321.06 262.92 C 331.37 262.79 341.70 263.12 352.00 262.75 C 357.30 262.39 360.55 255.74 357.52 251.36 C 354.64 246.78 348.59 248.09 344.04 247.88 C 334.84 248.26 325.50 247.16 316.40 248.50 M 368.38 248.44 C 364.74 249.81 362.47 254.22 363.98 257.89 C 365.22 261.07 368.61 263.16 372.01 262.92 C 385.01 262.90 398.01 262.98 411.01 262.87 C 414.29 263.06 417.63 261.11 418.79 257.99 C 420.57 253.47 416.83 247.97 411.99 248.00 C 400.01 247.75 388.02 248.01 376.03 247.90 C 373.48 247.92 370.86 247.72 368.38 248.44 Z" />
</g>
<g id="#1e99d6ff">
<path fill="#1e99d6" opacity="1.00" d=" M 203.08 99.97 C 202.99 97.68 204.82 95.56 207.00 95.08 C 210.40 94.91 213.82 95.03 217.24 95.01 C 215.93 96.41 214.15 97.81 214.23 99.94 C 214.08 106.97 214.11 114.01 214.23 121.05 C 214.11 123.20 215.97 124.58 217.28 126.00 C 213.81 125.97 210.34 126.08 206.87 125.93 C 204.77 125.34 203.02 123.32 203.08 121.09 C 203.04 114.05 203.04 107.01 203.08 99.97 Z" />
<path fill="#1e99d6" opacity="1.00" d=" M 37.08 101.92 C 37.01 99.66 38.83 97.57 40.99 97.08 C 44.39 96.91 47.80 97.04 51.21 97.00 C 49.91 98.41 48.12 99.82 48.22 101.95 C 48.10 108.98 48.12 116.03 48.21 123.07 C 48.14 125.20 49.98 126.58 51.27 128.00 C 47.84 127.97 44.41 128.08 40.99 127.93 C 38.82 127.47 37.01 125.32 37.08 123.06 C 37.05 116.02 37.05 108.97 37.08 101.92 Z" />
<path fill="#1e99d6" opacity="1.00" d=" M 40.15 235.19 C 43.79 234.42 47.54 234.96 51.23 234.78 C 49.99 236.30 48.15 237.74 48.21 239.90 C 48.07 246.61 48.17 253.32 48.18 260.03 C 47.93 262.49 49.69 264.33 51.22 266.00 C 47.80 265.86 44.38 266.09 40.96 265.85 C 38.90 265.26 37.06 263.32 37.09 261.09 C 37.03 254.06 37.06 247.02 37.08 239.99 C 36.94 237.91 38.35 236.06 40.15 235.19 Z" />
<path fill="#1e99d6" opacity="1.00" d=" M 206.18 235.17 C 209.79 234.43 213.51 234.94 217.18 234.78 C 215.95 236.29 214.13 237.72 214.23 239.87 C 214.08 246.61 214.14 253.35 214.21 260.09 C 213.98 262.50 215.68 264.34 217.17 266.00 C 213.74 265.86 210.31 266.08 206.88 265.85 C 204.86 265.17 203.03 263.30 203.09 261.06 C 203.03 254.04 203.06 247.01 203.08 239.99 C 202.93 237.90 204.36 236.05 206.18 235.17 Z" />
</g>
<g id="#52bbefff">
<path fill="#52bbef" opacity="1.00" d=" M 217.24 95.01 C 221.17 95.00 225.11 94.96 229.05 95.03 C 231.74 94.98 234.12 97.28 234.12 99.97 C 234.19 106.98 234.18 113.99 234.12 120.99 C 234.13 123.65 231.80 126.02 229.13 125.97 C 225.18 126.04 221.22 125.99 217.28 126.00 C 215.97 124.58 214.11 123.20 214.23 121.05 C 214.11 114.01 214.08 106.97 214.23 99.94 C 214.15 97.81 215.93 96.41 217.24 95.01 Z" />
<path fill="#52bbef" opacity="1.00" d=" M 51.21 97.00 C 55.18 97.01 59.15 96.95 63.12 97.04 C 65.78 97.02 68.14 99.33 68.12 102.01 C 68.18 109.00 68.18 115.99 68.12 122.98 C 68.14 125.67 65.76 128.07 63.05 127.97 C 59.12 128.03 55.19 128.00 51.27 128.00 C 49.98 126.58 48.14 125.20 48.21 123.07 C 48.12 116.03 48.10 108.98 48.22 101.95 C 48.12 99.82 49.91 98.41 51.21 97.00 Z" />
<path fill="#52bbef" opacity="1.00" d=" M 51.23 234.78 C 55.13 234.91 59.04 234.84 62.94 234.90 C 65.72 234.79 68.20 237.20 68.12 239.99 C 68.20 246.66 68.13 253.32 68.15 259.99 C 68.40 262.59 66.69 265.40 63.98 265.75 C 59.74 266.08 55.47 265.70 51.22 266.00 C 49.69 264.33 47.93 262.49 48.18 260.03 C 48.17 253.32 48.07 246.61 48.21 239.90 C 48.15 237.74 49.99 236.30 51.23 234.78 Z" />
<path fill="#52bbef" opacity="1.00" d=" M 217.18 234.78 C 221.12 234.90 225.07 234.84 229.02 234.90 C 231.75 234.84 234.17 237.20 234.12 239.94 C 234.20 246.61 234.13 253.28 234.15 259.96 C 234.41 262.56 232.70 265.41 229.97 265.75 C 225.71 266.07 221.43 265.70 217.17 266.00 C 215.68 264.34 213.98 262.50 214.21 260.09 C 214.14 253.35 214.08 246.61 214.23 239.87 C 214.13 237.72 215.95 236.29 217.18 234.78 Z" />
</g>
<g id="#ef8318ff">
<path fill="#ef8318" opacity="1.00" d=" M 341.44 95.49 C 344.24 94.73 347.18 95.23 350.05 95.09 C 352.58 95.23 355.59 94.51 357.66 96.39 C 360.28 98.88 359.12 102.81 359.38 106.00 C 359.21 108.92 360.09 112.45 357.75 114.73 C 355.33 116.83 351.87 115.88 348.96 116.09 C 345.83 115.87 341.95 116.97 339.58 114.30 C 337.69 111.96 338.57 108.77 338.37 106.02 C 338.54 102.42 337.29 97.34 341.44 95.49 Z" />
<path fill="#ef8318" opacity="1.00" d=" M 369.37 95.52 C 372.16 94.71 375.10 95.23 377.97 95.09 C 380.51 95.24 383.53 94.50 385.64 96.36 C 388.29 98.86 387.12 102.81 387.38 106.02 C 387.21 108.95 388.10 112.51 385.70 114.77 C 383.29 116.82 379.89 115.89 377.01 116.09 C 373.88 115.86 370.03 116.97 367.62 114.35 C 365.69 112.03 366.56 108.83 366.37 106.09 C 366.56 102.49 365.26 97.43 369.37 95.52 Z" />
<path fill="#ef8318" opacity="1.00" d=" M 397.41 95.50 C 402.11 94.78 407.02 94.98 411.75 95.36 C 416.00 96.49 415.45 101.61 415.38 105.04 C 415.15 108.57 416.47 113.55 412.57 115.53 C 408.51 116.69 404.18 115.84 400.01 116.09 C 397.14 116.35 394.36 114.01 394.40 111.09 C 394.36 107.37 394.32 103.65 394.42 99.94 C 394.45 98.02 395.72 96.32 397.41 95.50 Z" />
</g>
<g id="#69cdffff">
<path fill="#69cdff" opacity="1.00" d=" M 77.36 106.52 C 81.20 105.59 85.21 106.08 89.11 106.07 C 93.53 106.12 97.25 110.65 96.14 114.99 C 95.55 118.76 91.66 121.23 87.98 121.00 C 83.48 120.69 78.02 122.20 74.47 118.60 C 70.90 114.95 72.48 108.10 77.36 106.52 Z" />
<path fill="#69cdff" opacity="1.00" d=" M 111.41 106.51 C 115.57 105.64 119.95 105.93 124.16 106.23 C 129.42 106.83 132.23 113.82 128.86 117.90 C 125.92 122.03 120.34 120.83 116.00 121.01 C 112.89 121.21 109.31 120.37 107.66 117.47 C 105.06 113.70 107.05 107.90 111.41 106.51 Z" />
<path fill="#69cdff" opacity="1.00" d=" M 145.32 106.53 C 149.99 105.70 154.95 105.66 159.61 106.57 C 165.77 108.70 165.76 118.37 159.57 120.44 C 154.96 121.33 150.06 121.29 145.45 120.50 C 139.05 118.64 138.97 108.52 145.32 106.53 Z" />
<path fill="#69cdff" opacity="1.00" d=" M 179.47 106.49 C 183.27 105.60 187.25 106.08 191.12 106.07 C 195.52 106.12 199.24 110.63 198.15 114.96 C 197.58 118.73 193.70 121.22 190.04 121.00 C 185.51 120.68 179.99 122.22 176.44 118.57 C 172.87 114.89 174.53 107.99 179.47 106.49 Z" />
<path fill="#69cdff" opacity="1.00" d=" M 49.17 134.26 C 53.58 133.50 57.73 137.47 57.63 141.85 C 57.34 146.42 58.84 151.81 55.61 155.64 C 52.29 159.45 45.44 158.44 43.42 153.78 C 42.09 150.02 42.82 145.94 42.68 142.04 C 42.54 138.30 45.38 134.64 49.17 134.26 Z" />
<path fill="#69cdff" opacity="1.00" d=" M 219.15 134.27 C 223.24 133.55 227.33 136.98 227.55 141.09 C 227.61 145.04 228.08 149.12 227.15 153.01 C 225.68 158.01 218.60 159.71 215.00 155.95 C 211.52 152.57 212.96 147.27 212.65 142.95 C 212.25 138.95 214.96 134.68 219.15 134.27 Z" />
<path fill="#69cdff" opacity="1.00" d=" M 49.15 168.27 C 53.62 167.46 57.78 171.54 57.63 175.97 C 57.35 180.50 58.82 185.81 55.63 189.62 C 52.30 193.50 45.36 192.42 43.37 187.69 C 42.13 183.93 42.80 179.90 42.68 176.02 C 42.55 172.29 45.37 168.66 49.15 168.27 Z" />
<path fill="#69cdff" opacity="1.00" d=" M 219.15 168.27 C 222.75 167.65 226.54 170.25 227.31 173.82 C 227.93 176.50 227.57 179.27 227.67 182.00 C 227.78 184.87 227.44 188.15 225.09 190.12 C 222.21 192.86 217.15 192.56 214.59 189.53 C 211.64 186.08 212.94 181.19 212.65 177.06 C 212.22 173.02 214.91 168.68 219.15 168.27 Z" />
<path fill="#69cdff" opacity="1.00" d=" M 49.13 202.27 C 52.74 201.64 56.56 204.26 57.32 207.84 C 57.93 210.51 57.57 213.28 57.67 216.00 C 57.78 218.85 57.45 222.12 55.12 224.09 C 52.23 226.87 47.09 226.57 44.53 223.47 C 41.64 219.97 42.95 215.10 42.65 210.95 C 42.25 206.95 44.96 202.69 49.13 202.27 Z" />
<path fill="#69cdff" opacity="1.00" d=" M 219.17 202.27 C 223.57 201.49 227.72 205.47 227.63 209.85 C 227.47 213.82 228.31 218.03 226.83 221.83 C 224.86 226.27 218.37 227.43 215.00 223.95 C 211.53 220.58 212.95 215.30 212.65 211.00 C 212.23 206.97 214.96 202.67 219.17 202.27 Z" />
<path fill="#69cdff" opacity="1.00" d=" M 77.48 242.49 C 81.27 241.60 85.23 242.07 89.09 242.06 C 93.14 242.13 96.60 245.84 96.33 249.90 C 96.19 254.11 92.15 257.29 88.05 257.00 C 83.53 256.69 78.03 258.21 74.46 254.59 C 70.87 250.91 72.52 243.98 77.48 242.49 Z" />
<path fill="#69cdff" opacity="1.00" d=" M 111.42 242.51 C 115.58 241.65 119.94 241.92 124.15 242.23 C 129.38 242.81 132.20 249.73 128.91 253.84 C 126.95 256.78 123.17 257.20 119.94 257.01 C 115.89 256.91 110.78 257.79 108.03 254.03 C 104.94 250.30 106.79 243.96 111.42 242.51 Z" />
<path fill="#69cdff" opacity="1.00" d=" M 145.40 242.51 C 148.86 241.60 152.48 242.12 156.02 242.00 C 159.70 241.77 163.55 244.26 164.14 248.03 C 165.38 252.81 160.84 257.43 156.07 256.99 C 151.54 256.68 146.01 258.22 142.44 254.57 C 138.89 250.91 140.50 244.06 145.40 242.51 Z" />
<path fill="#69cdff" opacity="1.00" d=" M 179.44 242.50 C 182.90 241.61 186.53 242.12 190.07 242.01 C 193.73 241.79 197.55 244.27 198.13 248.02 C 199.39 252.82 194.83 257.43 190.07 257.00 C 185.53 256.68 180.02 258.21 176.45 254.58 C 172.88 250.90 174.51 244.02 179.44 242.50 Z" />
</g>
<g id="#ff9518ff">
<path fill="#ff9518" opacity="1.00" d=" M 247.85 134.05 C 247.42 130.61 250.78 128.26 253.93 128.43 C 259.92 128.53 265.93 128.25 271.92 128.56 C 269.67 129.51 267.60 131.32 267.92 134.01 C 267.83 158.00 267.82 181.99 267.92 205.98 C 267.57 208.69 269.67 210.52 271.94 211.45 C 265.95 211.81 259.93 211.50 253.92 211.61 C 250.79 211.78 247.43 209.42 247.85 206.00 C 247.80 182.01 247.80 158.03 247.85 134.05 Z" />
</g>
<g id="#28a5a5ff">
<path fill="#28a5a5" opacity="1.00" d=" M 70.07 138.90 C 69.75 135.99 72.31 133.56 75.10 133.36 C 81.43 133.31 87.77 133.28 94.10 133.39 C 91.79 134.27 89.78 136.27 90.03 138.93 C 89.98 167.31 89.97 195.69 90.04 224.06 C 89.75 226.71 91.77 228.62 93.98 229.62 C 87.66 229.72 81.34 229.70 75.03 229.63 C 72.24 229.47 69.75 226.93 70.07 224.06 C 70.06 195.67 70.06 167.29 70.07 138.90 Z" />
<path fill="#28a5a5" opacity="1.00" d=" M 312.18 282.30 C 318.77 281.62 325.50 282.19 332.15 282.00 C 330.43 283.55 328.71 285.46 329.05 287.97 C 329.02 325.66 329.04 363.34 329.05 401.03 C 328.75 403.47 330.46 405.30 332.05 406.88 C 326.03 407.00 320.01 406.95 313.99 406.91 C 311.49 406.90 309.12 404.56 309.08 402.06 C 308.97 394.99 309.10 387.92 309.01 380.85 C 308.97 358.87 309.02 336.89 308.99 314.91 C 309.06 307.58 308.96 300.24 309.06 292.91 C 309.27 289.26 307.97 284.17 312.18 282.30 Z" />
</g>
<g id="#5dc1d8ff">
<path fill="#5dc1d8" opacity="1.00" d=" M 94.10 133.39 C 127.70 133.66 161.32 133.38 194.92 133.52 C 197.88 133.43 200.42 136.10 200.15 139.07 C 200.16 167.39 200.17 195.72 200.14 224.05 C 200.35 226.92 197.90 229.56 195.01 229.48 C 161.34 229.62 127.65 229.34 93.98 229.62 C 91.77 228.62 89.75 226.71 90.04 224.06 C 89.97 195.69 89.98 167.31 90.03 138.93 C 89.78 136.27 91.79 134.27 94.10 133.39 Z" />
<path fill="#5dc1d8" opacity="1.00" d=" M 332.15 282.00 C 366.52 281.99 400.90 282.02 435.28 281.99 C 442.59 282.01 449.92 282.01 457.24 281.99 C 462.52 282.04 467.80 281.94 473.08 282.03 C 475.76 281.94 478.13 284.27 478.15 286.94 C 478.27 311.10 478.12 335.27 478.22 359.43 C 478.14 366.46 478.20 373.50 478.19 380.54 C 463.74 375.50 449.54 369.64 434.98 364.98 C 433.45 366.26 435.19 368.16 435.44 369.65 C 440.00 381.99 444.52 394.36 449.06 406.71 L 448.97 406.82 C 410.00 406.80 371.02 406.68 332.05 406.88 C 330.46 405.30 328.75 403.47 329.05 401.03 C 329.04 363.34 329.02 325.66 329.05 287.97 C 328.71 285.46 330.43 283.55 332.15 282.00 Z" />
</g>
<g id="#c3ddf4ff">
<path fill="#c3ddf4" opacity="1.00" d=" M 254.31 225.47 C 268.16 224.65 282.12 225.34 296.01 225.09 C 299.39 224.91 303.53 225.35 305.43 228.57 C 307.80 231.92 306.63 237.12 303.00 239.05 C 300.56 240.37 297.67 240.08 295.00 240.16 C 282.33 240.05 269.66 240.21 256.99 240.09 C 252.57 240.50 248.22 236.50 248.77 231.99 C 248.84 228.88 251.40 226.24 254.31 225.47 Z" />
<path fill="#c3ddf4" opacity="1.00" d=" M 317.35 225.48 C 325.84 224.64 334.45 225.34 342.99 225.11 C 347.31 225.39 352.27 224.10 356.00 226.97 C 359.71 229.75 359.52 236.11 355.65 238.63 C 353.14 240.45 349.86 240.03 346.95 240.15 C 337.62 240.02 328.28 240.29 318.95 240.02 C 314.51 240.06 310.81 235.25 312.02 230.96 C 312.38 228.24 314.84 226.23 317.35 225.48 Z" />
<path fill="#c3ddf4" opacity="1.00" d=" M 369.26 225.40 C 381.12 224.71 393.06 225.32 404.96 225.10 C 408.92 225.31 413.62 224.21 416.82 227.21 C 420.21 229.99 419.89 235.82 416.42 238.40 C 414.41 240.22 411.54 240.09 409.02 240.15 C 396.67 240.09 384.33 240.16 371.99 240.12 C 368.89 240.20 365.36 238.92 364.28 235.74 C 362.09 231.69 364.92 226.41 369.26 225.40 Z" />
<path fill="#c3ddf4" opacity="1.00" d=" M 253.34 248.45 C 260.83 247.37 268.48 248.10 276.03 247.91 C 283.70 247.95 291.37 247.85 299.04 247.96 C 302.42 247.91 305.89 250.21 306.43 253.69 C 307.76 258.25 303.71 262.93 299.09 262.87 C 285.03 262.98 270.97 262.91 256.92 262.89 C 253.00 263.06 248.93 260.13 248.80 256.02 C 248.38 252.76 250.68 249.97 253.34 248.45 Z" />
<path fill="#c3ddf4" opacity="1.00" d=" M 316.40 248.50 C 325.50 247.16 334.84 248.26 344.04 247.88 C 348.59 248.09 354.64 246.78 357.52 251.36 C 360.55 255.74 357.30 262.39 352.00 262.75 C 341.70 263.12 331.37 262.79 321.06 262.92 C 317.91 263.10 314.47 261.99 312.78 259.16 C 310.48 255.40 312.39 250.17 316.40 248.50 Z" />
<path fill="#c3ddf4" opacity="1.00" d=" M 368.38 248.44 C 370.86 247.72 373.48 247.92 376.03 247.90 C 388.02 248.01 400.01 247.75 411.99 248.00 C 416.83 247.97 420.57 253.47 418.79 257.99 C 417.63 261.11 414.29 263.06 411.01 262.87 C 398.01 262.98 385.01 262.90 372.01 262.92 C 368.61 263.16 365.22 261.07 363.98 257.89 C 362.47 254.22 364.74 249.81 368.38 248.44 Z" />
</g>
<g id="#1a2b63ff">
<path fill="#1a2b63" opacity="1.00" d=" M 0.00 314.91 C 6.67 314.87 13.34 314.85 20.01 314.92 C 19.73 333.28 19.88 351.64 19.92 369.99 C 19.55 374.87 23.15 378.65 27.08 380.91 C 21.34 381.05 15.60 380.97 9.85 380.96 C 5.17 380.78 0.96 377.27 0.00 372.68 L 0.00 314.91 Z" />
<path fill="#1a2b63" opacity="1.00" d=" M 124.03 429.98 C 123.93 427.68 125.76 425.52 127.96 425.04 C 134.32 424.94 140.69 425.03 147.06 425.00 C 142.38 428.60 144.35 434.89 143.99 439.95 C 144.40 445.02 142.32 451.37 147.04 455.00 C 141.01 454.99 134.97 455.01 128.93 454.99 C 126.29 455.18 123.92 452.59 124.03 450.00 C 124.01 443.33 124.01 436.65 124.03 429.98 Z" />
</g>
<g id="#293d7cff">
<path fill="#293d7c" opacity="1.00" d=" M 20.01 314.92 C 116.34 314.86 212.67 314.87 308.99 314.91 C 309.02 336.89 308.97 358.87 309.01 380.85 C 300.22 380.85 291.43 380.83 282.64 380.86 C 253.15 380.98 223.64 380.58 194.16 381.05 C 187.57 381.01 180.98 380.90 174.40 380.86 C 131.33 380.84 88.27 380.84 45.21 380.86 C 39.17 380.86 33.12 380.78 27.08 380.91 C 23.15 378.65 19.55 374.87 19.92 369.99 C 19.88 351.64 19.73 333.28 20.01 314.92 M 227.34 334.45 C 221.15 334.77 215.92 339.94 214.98 345.96 C 213.67 352.66 218.12 359.64 224.64 361.49 C 232.15 364.06 240.84 358.72 242.17 350.95 C 244.40 342.25 236.18 333.29 227.34 334.45 Z" />
<path fill="#293d7c" opacity="1.00" d=" M 434.98 364.98 C 449.54 369.64 463.74 375.50 478.19 380.54 C 487.98 384.22 497.81 387.76 507.62 391.39 C 509.18 391.65 510.54 393.48 509.03 394.77 C 504.43 399.58 499.59 404.16 494.97 408.95 C 493.82 410.04 493.68 412.03 494.77 413.22 C 500.34 419.31 506.79 424.64 512.00 431.03 L 512.00 432.71 C 509.60 436.02 506.36 438.63 503.57 441.60 C 502.30 443.08 499.80 442.97 498.59 441.49 C 493.37 436.32 488.22 431.08 482.99 425.92 C 481.92 424.61 479.72 424.24 478.48 425.50 C 473.72 430.05 469.16 434.80 464.45 439.41 C 463.53 440.85 461.29 440.55 460.89 438.86 C 456.89 428.16 453.01 417.42 449.06 406.71 C 444.52 394.36 440.00 381.99 435.44 369.65 C 435.19 368.16 433.45 366.26 434.98 364.98 Z" />
<path fill="#293d7c" opacity="1.00" d=" M 147.06 425.00 C 156.17 425.00 165.29 425.00 174.40 425.00 C 180.98 425.03 187.57 425.05 194.15 424.89 C 223.64 425.15 253.14 424.92 282.63 424.99 C 297.77 425.03 312.92 424.95 328.07 425.03 C 330.70 425.01 333.11 427.26 333.09 429.94 C 333.15 436.63 333.15 443.34 333.09 450.04 C 333.14 453.15 330.03 455.36 327.09 455.00 C 267.07 455.00 207.06 455.00 147.04 455.00 C 142.32 451.37 144.40 445.02 143.99 439.95 C 144.35 434.89 142.38 428.60 147.06 425.00 Z" />
</g>
<g id="#2e4c89ff">
<path fill="#2e4c89" opacity="1.00" d=" M 174.40 380.86 C 180.98 380.90 187.57 381.01 194.16 381.05 C 194.46 395.65 194.54 410.29 194.15 424.89 C 187.57 425.05 180.98 425.03 174.40 425.00 C 174.41 410.28 174.41 395.57 174.40 380.86 Z" />
</g>
</svg>
