<?xml version="1.0" encoding="UTF-8" ?>
<!DOCTYPE svg PUBLIC "-//W3C//DTD SVG 1.1//EN" "http://www.w3.org/Graphics/SVG/1.1/DTD/svg11.dtd">
<svg width="1000pt" height="323pt" viewBox="0 0 1000 323" version="1.1" xmlns="http://www.w3.org/2000/svg">
<g id="#00579fff">
<path fill="#00579f" opacity="1.00" d=" M 601.00 7.13 C 642.37 -4.17 687.46 -2.08 727.40 13.60 C 724.49 26.24 723.24 39.19 720.88 51.94 C 719.38 61.61 717.33 71.20 716.32 80.94 C 712.44 79.39 708.62 77.72 704.80 76.04 C 688.39 69.28 670.71 65.65 652.94 65.71 C 641.07 65.71 628.64 66.15 617.83 71.62 C 610.40 75.04 603.53 81.37 602.14 89.78 C 600.58 97.59 605.44 104.97 611.23 109.74 C 622.39 119.00 635.71 125.05 648.48 131.71 C 665.32 139.82 681.67 149.74 694.54 163.49 C 707.31 176.70 715.10 194.63 715.53 213.04 C 715.94 226.58 713.36 240.16 708.63 252.82 C 700.97 272.06 686.65 288.25 669.19 299.22 C 644.60 314.93 615.24 321.35 586.42 323.00 L 561.20 323.00 C 535.01 320.70 508.49 316.90 484.12 306.60 C 485.73 294.34 488.15 282.20 490.07 269.99 C 491.52 258.69 493.65 247.49 495.52 236.25 C 508.09 242.20 520.78 248.05 534.19 251.85 C 548.31 256.38 563.24 257.48 577.98 257.74 C 590.19 257.98 602.87 256.76 613.84 251.00 C 621.15 247.43 627.98 241.36 629.92 233.18 C 632.00 225.68 629.89 217.18 624.46 211.58 C 615.74 202.02 603.85 196.28 592.60 190.28 C 575.38 182.08 558.42 172.76 544.25 159.83 C 530.43 147.55 520.03 130.71 518.11 112.07 C 516.45 94.38 520.15 76.17 528.60 60.54 C 535.08 48.62 544.28 38.26 554.98 29.95 C 568.55 19.27 584.53 12.06 601.00 7.13 Z" />
<path fill="#00579f" opacity="1.00" d=" M 211.49 202.79 C 235.88 137.12 260.28 71.43 284.74 5.78 C 313.34 5.87 341.95 5.82 370.56 5.81 C 327.83 109.82 285.72 214.07 243.15 318.12 C 214.66 318.18 186.17 318.05 157.68 318.19 C 153.11 303.10 149.62 287.72 145.23 272.59 C 143.38 263.63 140.29 255.00 138.32 246.07 C 120.55 179.58 103.01 113.04 85.25 46.55 C 123.83 68.89 157.29 100.65 179.66 139.37 C 186.46 151.36 192.72 163.78 196.95 176.93 C 198.74 185.25 200.71 193.55 201.98 201.97 C 202.90 207.17 204.48 212.26 204.83 217.54 C 205.20 217.57 205.96 217.63 206.33 217.66 C 207.48 212.52 209.68 207.72 211.49 202.79 Z" />
<path fill="#00579f" opacity="1.00" d=" M 402.80 5.89 C 429.94 5.74 457.09 5.86 484.23 5.83 C 477.92 42.87 472.32 80.01 466.01 117.04 C 464.02 132.80 460.58 148.35 458.60 164.12 C 454.47 187.40 451.16 210.81 447.04 234.10 C 445.12 249.54 441.74 264.76 439.78 280.19 C 437.75 292.95 435.24 305.64 433.59 318.46 C 406.46 318.43 379.34 318.48 352.22 318.43 C 354.59 304.63 357.17 290.84 358.99 276.95 C 363.22 253.35 366.53 229.60 370.73 205.99 C 372.58 190.78 376.01 175.79 377.85 160.58 C 384.11 123.97 389.62 87.24 395.88 50.63 C 397.65 35.64 401.26 20.91 402.80 5.89 Z" />
<path fill="#00579f" opacity="1.00" d=" M 834.92 22.03 C 841.99 11.11 855.35 5.87 868.01 5.93 C 890.28 5.70 912.57 5.87 934.85 5.84 C 937.40 18.41 939.95 30.98 942.77 43.50 C 944.77 55.44 947.98 67.13 950.06 79.05 C 966.82 158.52 983.22 238.06 1000.00 317.52 L 1000.00 318.43 C 974.96 318.45 949.92 318.49 924.88 318.41 C 923.99 311.49 922.18 304.73 920.82 297.90 C 918.78 289.15 917.55 280.23 915.32 271.52 C 880.76 271.56 846.20 271.58 811.64 271.51 C 805.54 287.06 800.42 302.98 794.27 318.50 C 765.97 318.36 737.67 318.51 709.37 318.43 C 748.86 224.77 787.97 130.97 827.38 37.27 C 829.68 32.09 831.44 26.60 834.92 22.03 M 874.03 100.94 C 861.35 136.58 847.81 171.90 835.01 207.48 C 857.32 207.53 879.64 207.51 901.95 207.50 C 893.95 168.60 885.91 129.70 877.94 90.79 C 876.10 93.94 875.22 97.53 874.03 100.94 Z" />
</g>
<g id="#faa61aff">
<path fill="#faa61a" opacity="1.00" d=" M 0.07 12.09 C 0.39 9.94 0.83 7.81 1.51 5.74 C 45.00 5.96 88.49 5.72 131.98 5.86 C 141.19 5.88 150.83 7.97 158.10 13.89 C 165.83 20.26 168.90 30.42 170.00 40.03 C 173.17 55.01 175.98 70.06 178.93 85.08 C 179.38 86.72 179.64 88.40 179.94 90.08 C 182.58 102.32 184.58 114.69 187.27 126.93 C 188.46 131.61 188.87 136.44 189.88 141.16 C 191.23 147.83 192.82 154.46 193.85 161.19 C 193.97 161.32 194.21 161.58 194.33 161.70 C 194.75 166.85 196.14 171.84 196.95 176.93 C 192.72 163.78 186.46 151.36 179.66 139.37 C 157.29 100.65 123.83 68.89 85.25 46.55 C 58.73 30.99 29.80 19.78 0.07 12.09 Z" />
</g>
</svg>
