<?xml version="1.0" encoding="UTF-8" ?>
<!DOCTYPE svg PUBLIC "-//W3C//DTD SVG 1.1//EN" "http://www.w3.org/Graphics/SVG/1.1/DTD/svg11.dtd">
<svg width="1543pt" height="485pt" viewBox="0 0 1543 485" version="1.1" xmlns="http://www.w3.org/2000/svg">
<g id="#fcb143ff">
<path fill="#fcb143" opacity="1.00" d=" M 175.42 0.00 L 280.73 0.00 C 285.22 1.83 288.80 5.96 288.35 11.06 C 288.40 51.38 288.37 91.71 288.36 132.03 C 288.02 135.02 289.76 138.46 293.08 138.56 C 302.35 139.14 311.68 138.20 320.93 138.93 C 327.56 139.53 329.89 148.86 324.97 153.02 C 292.53 187.48 259.94 221.81 227.53 256.31 C 203.31 230.35 178.80 204.65 154.48 178.78 C 146.19 169.98 137.84 161.24 129.60 152.39 C 125.23 148.13 127.95 139.73 133.98 138.86 C 143.26 138.29 152.59 138.98 161.87 138.56 C 164.66 138.46 166.83 135.82 166.66 133.09 C 166.73 95.06 166.67 57.03 166.69 19.00 C 166.75 15.34 166.43 11.65 166.99 8.02 C 167.75 3.87 171.43 0.87 175.42 0.00 Z" />
<path fill="#fcb143" opacity="1.00" d=" M 59.61 295.08 C 59.78 286.46 67.41 278.83 76.04 278.70 C 93.14 278.64 110.25 278.64 127.35 278.70 C 127.42 290.49 127.34 302.27 127.41 314.05 C 127.41 317.81 127.12 321.75 125.11 325.03 C 121.99 330.80 115.47 334.30 108.96 334.10 C 92.45 334.07 75.94 334.28 59.44 333.99 C 59.76 321.02 59.40 308.05 59.61 295.08 Z" />
</g>
<g id="#fba615ff">
<path fill="#fba615" opacity="1.00" d=" M 280.73 0.00 L 339.65 0.00 C 344.47 1.41 347.83 6.08 347.59 11.11 C 347.65 51.74 347.54 92.37 347.64 133.00 C 347.38 135.59 349.34 138.27 352.05 138.30 C 361.00 138.73 369.97 138.19 378.92 138.52 C 383.70 138.63 387.48 143.44 386.77 148.09 C 386.30 151.00 384.10 153.15 382.17 155.21 C 374.61 162.96 367.35 171.01 359.82 178.78 C 329.71 210.70 299.60 242.62 269.45 274.49 C 264.95 279.51 257.39 281.43 251.09 278.93 C 247.16 277.53 244.38 274.29 241.63 271.33 C 236.94 266.31 232.11 261.43 227.53 256.31 C 259.94 221.81 292.53 187.48 324.97 153.02 C 329.89 148.86 327.56 139.53 320.93 138.93 C 311.68 138.20 302.35 139.14 293.08 138.56 C 289.76 138.46 288.02 135.02 288.36 132.03 C 288.37 91.71 288.40 51.38 288.35 11.06 C 288.80 5.96 285.22 1.83 280.73 0.00 Z" />
<path fill="#fba615" opacity="1.00" d=" M 899.08 190.45 C 899.37 190.52 899.94 190.66 900.22 190.73 C 899.17 197.19 900.79 203.69 900.01 210.17 C 898.42 220.61 894.20 231.05 886.06 238.08 C 880.49 243.23 873.30 246.45 865.85 247.65 L 864.81 246.96 C 876.12 244.52 886.92 237.97 892.67 227.69 C 899.29 216.54 900.42 203.11 899.08 190.45 Z" />
<path fill="#fba615" opacity="1.00" d=" M 127.35 278.46 C 134.17 278.86 141.42 277.29 147.88 280.13 C 153.93 282.87 158.26 289.31 158.01 296.02 C 157.99 309.99 158.01 323.97 157.99 337.94 C 158.06 346.91 149.90 354.71 141.04 354.84 C 120.02 354.91 99.01 354.83 78.00 354.88 C 72.06 355.12 66.06 352.28 62.66 347.37 C 59.86 343.55 59.02 338.63 59.44 333.99 C 75.94 334.28 92.45 334.07 108.96 334.10 C 115.47 334.30 121.99 330.80 125.11 325.03 C 127.12 321.75 127.41 317.81 127.41 314.05 C 127.34 302.27 127.42 290.49 127.35 278.70 L 127.35 278.46 Z" />
</g>
<g id="#ffb600ff">
<path fill="#ffb600" opacity="1.00" d=" M 788.28 0.00 L 793.62 0.00 C 812.54 0.55 831.38 3.08 849.89 7.03 C 847.63 9.15 845.03 10.86 842.33 12.36 C 751.22 67.25 660.05 122.04 568.88 176.85 C 565.45 179.01 562.00 181.24 558.02 182.23 C 558.25 181.43 558.70 179.82 558.93 179.02 C 575.02 117.86 616.68 64.16 671.48 32.72 C 706.81 12.17 747.42 0.79 788.28 0.00 Z" />
</g>
<g id="#684a0068">
<path fill="#684a00" opacity="0.41" d=" M 793.62 0.00 L 813.40 0.00 C 825.94 2.25 838.87 2.98 851.01 7.19 L 849.89 7.03 C 831.38 3.08 812.54 0.55 793.62 0.00 Z" />
<path fill="#684a00" opacity="0.41" d=" M 821.24 350.68 C 832.94 351.15 844.65 349.95 856.06 347.35 C 849.13 350.38 841.51 351.02 834.06 351.56 C 829.77 351.76 825.36 352.10 821.24 350.68 Z" />
</g>
<g id="#a8e83aff">
<path fill="#a8e83a" opacity="1.00" d=" M 1334.60 0.00 L 1346.90 0.00 C 1361.41 9.00 1375.19 19.15 1389.44 28.57 C 1424.46 52.49 1459.53 76.32 1494.56 100.22 C 1499.42 103.37 1502.18 109.34 1501.53 115.09 C 1501.47 118.89 1499.30 122.14 1497.25 125.17 C 1488.28 138.34 1479.21 151.43 1470.36 164.68 L 1470.21 164.90 C 1463.90 174.03 1457.57 183.15 1451.52 192.45 C 1446.96 192.30 1442.40 192.45 1437.84 192.41 C 1446.21 179.07 1455.60 166.40 1464.20 153.22 C 1467.68 147.88 1467.63 140.42 1463.80 135.29 C 1459.83 130.51 1454.18 127.61 1449.13 124.16 C 1449.02 124.67 1448.80 125.68 1448.69 126.18 C 1447.33 120.91 1447.25 115.43 1447.73 110.03 C 1448.29 106.30 1446.88 102.35 1443.67 100.24 C 1418.73 83.19 1393.71 66.23 1368.76 49.20 C 1365.99 47.22 1362.22 46.64 1359.13 48.19 C 1354.11 50.64 1348.95 52.91 1343.41 53.84 C 1343.44 53.40 1343.49 52.52 1343.51 52.08 C 1335.74 46.66 1327.69 41.65 1320.02 36.08 C 1317.10 33.94 1313.98 32.10 1310.77 30.47 C 1314.46 24.67 1318.46 19.08 1322.33 13.40 C 1325.83 8.47 1328.62 2.41 1334.60 0.00 Z" />
<path fill="#a8e83a" opacity="1.00" d=" M 1148.89 40.85 C 1152.41 36.88 1157.90 35.29 1163.09 35.97 C 1208.07 40.54 1253.08 44.70 1298.05 49.35 C 1291.74 58.31 1285.69 67.45 1279.55 76.52 C 1269.71 75.03 1259.77 74.43 1249.88 73.36 C 1233.90 71.83 1217.92 70.12 1201.94 68.58 C 1198.63 68.18 1195.04 69.21 1192.98 71.93 C 1189.77 76.05 1186.81 80.44 1182.65 83.69 C 1177.24 81.89 1171.50 82.07 1165.91 81.43 C 1158.02 80.76 1150.05 79.02 1142.17 80.74 C 1142.05 79.48 1141.95 78.23 1141.88 76.98 C 1142.61 68.97 1143.47 60.96 1144.21 52.95 C 1144.43 48.56 1145.62 43.98 1148.89 40.85 Z" />
</g>
<g id="#f6921eff">
<path fill="#f6921e" opacity="1.00" d=" M 849.89 7.03 L 851.01 7.19 C 855.32 7.88 859.47 9.29 863.65 10.54 C 903.17 22.64 939.50 45.04 967.94 75.04 C 1006.42 115.36 1030.41 169.30 1034.13 224.93 C 1035.94 242.96 1034.33 261.13 1031.95 279.02 C 1024.19 270.46 1015.73 262.57 1007.64 254.32 C 962.57 209.07 917.46 163.85 872.38 118.62 C 867.09 113.77 862.91 107.75 857.06 103.54 C 853.40 116.58 850.44 129.81 846.72 142.85 C 846.14 144.71 846.43 146.66 846.67 148.55 C 846.09 148.40 844.94 148.08 844.36 147.93 C 844.12 146.30 844.27 144.66 844.73 143.09 C 848.13 130.15 851.32 117.15 854.77 104.23 C 846.20 101.68 837.58 99.28 828.85 97.33 C 827.83 101.83 826.57 106.29 826.38 110.92 C 826.12 108.82 824.95 107.06 823.44 105.67 C 818.94 101.34 814.62 96.83 810.10 92.54 C 809.09 94.27 808.08 95.99 807.08 97.72 C 807.41 95.78 807.86 93.86 808.44 91.98 C 799.83 89.81 791.35 87.17 782.69 85.22 C 778.59 99.59 775.39 114.23 771.32 128.61 C 753.57 123.93 735.66 119.86 717.92 115.12 C 716.13 124.53 713.20 133.68 711.23 143.05 C 718.35 144.82 725.40 146.84 732.49 148.73 C 739.60 150.60 743.90 158.85 741.79 165.79 C 738.73 177.86 735.90 189.98 732.84 202.05 C 726.80 227.06 720.50 252.02 714.42 277.03 C 713.57 280.57 712.93 284.59 709.83 286.94 C 707.47 289.16 703.99 289.09 701.01 288.59 C 694.42 287.38 688.17 284.62 681.46 284.05 C 677.28 293.85 673.27 303.75 668.60 313.33 C 669.55 313.60 670.52 313.87 671.50 314.12 C 670.94 314.51 669.83 315.28 669.28 315.67 C 682.85 328.76 695.93 342.36 709.43 355.52 C 711.32 357.30 713.17 359.28 713.66 361.93 C 712.91 365.03 712.00 368.08 711.20 371.17 C 711.52 372.25 712.01 373.29 712.83 374.11 C 746.18 407.45 779.52 440.81 812.85 474.18 C 815.21 476.38 817.14 479.21 820.05 480.72 C 824.74 480.77 829.42 479.79 834.10 480.68 C 828.72 481.55 823.36 482.79 817.88 482.69 L 817.12 483.33 C 810.42 483.81 803.68 483.56 797.00 484.37 C 758.66 484.82 720.18 476.35 685.70 459.47 C 652.17 443.15 622.54 418.87 599.97 389.19 C 555.52 331.59 538.99 253.23 557.81 182.83 C 557.86 182.68 557.97 182.38 558.02 182.23 C 562.00 181.24 565.45 179.01 568.88 176.85 C 660.05 122.04 751.22 67.25 842.33 12.36 C 845.03 10.86 847.63 9.15 849.89 7.03 Z" />
<path fill="#f6921e" opacity="1.00" d=" M 885.02 262.33 C 891.63 269.40 895.06 279.34 894.55 288.98 C 895.12 297.81 892.57 306.44 889.52 314.61 C 884.79 327.97 875.68 340.33 862.58 346.38 C 846.79 353.62 828.75 353.43 811.88 351.11 L 810.85 350.36 C 814.31 350.36 817.77 350.43 821.24 350.68 C 825.36 352.10 829.77 351.76 834.06 351.56 C 841.51 351.02 849.13 350.38 856.06 347.35 C 863.06 344.93 869.52 340.98 874.78 335.76 C 884.48 325.82 889.60 312.40 892.57 299.06 C 895.27 286.46 893.41 272.48 885.02 262.33 Z" />
</g>
<g id="#b6fa4cff">
<path fill="#b6fa4c" opacity="1.00" d=" M 1310.77 30.47 C 1313.98 32.10 1317.10 33.94 1320.02 36.08 C 1327.69 41.65 1335.74 46.66 1343.51 52.08 C 1343.49 52.52 1343.44 53.40 1343.41 53.84 C 1337.64 54.78 1331.81 53.74 1326.03 54.09 C 1320.02 55.38 1317.80 61.91 1314.45 66.31 C 1286.07 108.47 1257.15 150.27 1228.72 192.40 C 1219.35 192.42 1209.99 192.43 1200.63 192.40 C 1217.23 167.51 1234.31 142.95 1251.04 118.14 C 1260.61 104.32 1269.92 90.31 1279.55 76.52 C 1285.69 67.45 1291.74 58.31 1298.05 49.35 C 1302.22 43.01 1306.66 36.85 1310.77 30.47 Z" />
<path fill="#b6fa4c" opacity="1.00" d=" M 1133.43 164.80 C 1136.15 135.52 1139.33 106.28 1141.88 76.98 C 1141.95 78.23 1142.05 79.48 1142.17 80.74 C 1150.05 79.02 1158.02 80.76 1165.91 81.43 C 1171.50 82.07 1177.24 81.89 1182.65 83.69 C 1178.21 87.67 1172.65 89.89 1167.43 92.56 C 1162.07 95.74 1162.89 102.73 1162.21 108.05 C 1159.74 136.18 1156.59 164.26 1154.16 192.41 C 1146.35 192.44 1138.55 192.37 1130.75 192.45 C 1131.52 183.22 1132.49 174.01 1133.43 164.80 Z" />
<path fill="#b6fa4c" opacity="1.00" d=" M 1449.13 124.16 C 1454.18 127.61 1459.83 130.51 1463.80 135.29 C 1467.63 140.42 1467.68 147.88 1464.20 153.22 C 1455.60 166.40 1446.21 179.07 1437.84 192.41 C 1433.01 192.42 1428.19 192.42 1423.37 192.39 C 1432.07 179.13 1441.19 166.15 1450.08 153.02 C 1452.42 149.52 1455.78 145.68 1454.50 141.13 C 1452.75 136.08 1449.64 131.52 1448.69 126.18 C 1448.80 125.68 1449.02 124.67 1449.13 124.16 Z" />
<path fill="#b6fa4c" opacity="1.00" d=" M 1294.58 159.62 C 1305.19 144.33 1324.63 135.73 1343.09 138.32 C 1359.13 140.16 1373.86 150.22 1381.61 164.36 C 1386.55 172.82 1388.21 182.72 1388.30 192.41 C 1353.93 192.42 1319.56 192.42 1285.19 192.41 C 1284.57 180.83 1287.68 169.02 1294.58 159.62 Z" />
</g>
<g id="#73cc00ff">
<path fill="#73cc00" opacity="1.00" d=" M 1359.13 48.19 C 1362.22 46.64 1365.99 47.22 1368.76 49.20 C 1393.71 66.23 1418.73 83.19 1443.67 100.24 C 1446.88 102.35 1448.29 106.30 1447.73 110.03 C 1447.25 115.43 1447.33 120.91 1448.69 126.18 C 1449.64 131.52 1452.75 136.08 1454.50 141.13 C 1455.78 145.68 1452.42 149.52 1450.08 153.02 C 1441.19 166.15 1432.07 179.13 1423.37 192.39 C 1418.18 192.40 1412.98 192.40 1407.80 192.39 C 1411.02 187.15 1415.23 182.54 1418.04 177.04 C 1419.48 174.31 1419.11 171.03 1417.71 168.37 C 1414.56 162.00 1411.87 155.14 1411.94 147.93 C 1411.81 143.75 1412.54 139.50 1411.66 135.37 C 1409.91 130.70 1405.19 128.33 1401.27 125.74 C 1386.58 115.37 1371.34 105.80 1356.56 95.56 C 1346.65 88.71 1336.58 82.12 1326.60 75.39 C 1322.52 72.40 1317.72 70.28 1314.45 66.31 C 1317.80 61.91 1320.02 55.38 1326.03 54.09 C 1331.81 53.74 1337.64 54.78 1343.41 53.84 C 1348.95 52.91 1354.11 50.64 1359.13 48.19 Z" />
<path fill="#73cc00" opacity="1.00" d=" M 1192.98 71.93 C 1195.04 69.21 1198.63 68.18 1201.94 68.58 C 1217.92 70.12 1233.90 71.83 1249.88 73.36 C 1259.77 74.43 1269.71 75.03 1279.55 76.52 C 1269.92 90.31 1260.61 104.32 1251.04 118.14 C 1221.91 114.86 1192.68 112.47 1163.50 109.61 C 1163.18 109.22 1162.53 108.44 1162.21 108.05 C 1162.89 102.73 1162.07 95.74 1167.43 92.56 C 1172.65 89.89 1178.21 87.67 1182.65 83.69 C 1186.81 80.44 1189.77 76.05 1192.98 71.93 Z" />
</g>
<g id="#77dd00ff">
<path fill="#77dd00" opacity="1.00" d=" M 1228.72 192.40 C 1257.15 150.27 1286.07 108.47 1314.45 66.31 C 1317.72 70.28 1322.52 72.40 1326.60 75.39 C 1336.58 82.12 1346.65 88.71 1356.56 95.56 C 1371.34 105.80 1386.58 115.37 1401.27 125.74 C 1405.19 128.33 1409.91 130.70 1411.66 135.37 C 1412.54 139.50 1411.81 143.75 1411.94 147.93 C 1411.87 155.14 1414.56 162.00 1417.71 168.37 C 1419.11 171.03 1419.48 174.31 1418.04 177.04 C 1415.23 182.54 1411.02 187.15 1407.80 192.39 C 1401.30 192.41 1394.80 192.39 1388.30 192.41 C 1388.21 182.72 1386.55 172.82 1381.61 164.36 C 1373.86 150.22 1359.13 140.16 1343.09 138.32 C 1324.63 135.73 1305.19 144.33 1294.58 159.62 C 1287.68 169.02 1284.57 180.83 1285.19 192.41 C 1266.36 192.39 1247.54 192.40 1228.72 192.40 Z" />
<path fill="#77dd00" opacity="1.00" d=" M 1162.21 108.05 C 1162.53 108.44 1163.18 109.22 1163.50 109.61 C 1192.68 112.47 1221.91 114.86 1251.04 118.14 C 1234.31 142.95 1217.23 167.51 1200.63 192.40 C 1185.14 192.41 1169.65 192.39 1154.16 192.41 C 1156.59 164.26 1159.74 136.18 1162.21 108.05 Z" />
</g>
<g id="#ed6c0cff">
<path fill="#ed6c0c" opacity="1.00" d=" M 807.08 97.72 C 808.08 95.99 809.09 94.27 810.10 92.54 C 814.62 96.83 818.94 101.34 823.44 105.67 C 824.95 107.06 826.12 108.82 826.38 110.92 C 823.89 120.48 822.20 130.26 819.35 139.72 C 812.02 137.64 804.49 136.39 797.18 134.28 C 800.70 122.16 803.29 109.76 807.08 97.72 Z" />
<path fill="#ed6c0c" opacity="1.00" d=" M 857.06 103.54 C 862.91 107.75 867.09 113.77 872.38 118.62 C 917.46 163.85 962.57 209.07 1007.64 254.32 C 1015.73 262.57 1024.19 270.46 1031.95 279.02 C 1029.72 293.40 1026.30 307.58 1021.67 321.36 C 1017.61 318.46 1014.32 314.72 1010.82 311.22 C 974.42 275.03 938.33 238.51 901.81 202.43 C 901.18 205.01 900.55 207.58 900.01 210.17 C 900.79 203.69 899.17 197.19 900.22 190.73 C 899.94 190.66 899.37 190.52 899.08 190.45 C 896.25 182.29 892.00 174.45 885.41 168.72 C 874.33 159.01 860.58 152.95 846.67 148.55 C 846.43 146.66 846.14 144.71 846.72 142.85 C 850.44 129.81 853.40 116.58 857.06 103.54 Z" />
<path fill="#ed6c0c" opacity="1.00" d=" M 788.13 217.27 C 807.69 214.18 827.22 210.91 846.77 207.76 C 845.66 214.04 841.54 219.71 835.82 222.56 C 827.58 226.83 817.99 225.87 809.04 225.55 C 802.63 224.91 796.28 223.60 790.06 221.92 C 787.26 221.16 784.16 220.97 781.71 219.28 C 783.79 218.47 785.89 217.61 788.13 217.27 Z" />
<path fill="#ed6c0c" opacity="1.00" d=" M 826.07 295.01 C 830.00 294.41 834.02 293.71 837.98 294.57 C 836.87 300.01 832.66 304.26 828.20 307.24 C 820.34 311.98 810.86 311.98 801.99 311.74 C 794.61 311.66 787.32 310.40 780.11 308.92 C 773.57 307.42 767.01 305.95 760.53 304.20 C 762.90 303.16 765.39 302.31 767.99 302.09 C 787.37 299.86 806.72 297.48 826.07 295.01 Z" />
<path fill="#ed6c0c" opacity="1.00" d=" M 747.58 335.32 C 748.80 335.48 750.03 335.64 751.27 335.86 C 751.58 337.57 752.30 339.19 753.68 340.33 C 757.61 344.06 761.35 347.99 765.19 351.82 C 765.86 351.25 766.54 350.67 767.23 350.10 L 766.95 351.10 C 766.84 351.88 766.62 353.43 766.51 354.21 C 766.29 354.55 765.85 355.25 765.62 355.60 C 765.49 356.69 765.36 357.78 765.24 358.88 C 763.49 365.24 761.54 371.59 760.40 378.10 C 760.17 378.41 759.73 379.03 759.51 379.34 C 759.40 381.03 759.31 382.72 759.22 384.42 C 759.94 384.52 761.38 384.74 762.10 384.84 C 761.85 385.38 761.36 386.46 761.11 387.00 C 772.76 397.99 783.84 409.56 795.22 420.83 C 810.42 435.94 825.52 451.16 840.69 466.31 C 844.49 469.85 847.72 474.00 851.95 477.07 L 851.16 477.27 C 845.51 478.56 839.84 479.83 834.10 480.68 C 829.42 479.79 824.74 480.77 820.05 480.72 C 817.14 479.21 815.21 476.38 812.85 474.18 C 779.52 440.81 746.18 407.45 712.83 374.11 C 712.01 373.29 711.52 372.25 711.20 371.17 C 719.87 373.27 728.38 376.05 737.12 377.85 C 738.45 370.08 741.23 362.65 742.57 354.89 C 742.78 354.55 743.21 353.88 743.43 353.55 C 743.49 352.88 743.62 351.53 743.68 350.86 C 745.13 345.72 746.58 340.57 747.58 335.32 Z" />
</g>
<g id="#ffb125ff">
<path fill="#ffb125" opacity="1.00" d=" M 1470.21 164.90 L 1470.36 164.68 C 1477.91 165.12 1485.55 164.23 1493.05 165.61 C 1498.91 166.86 1503.72 171.72 1505.26 177.48 C 1506.52 183.23 1505.40 189.17 1506.13 194.99 C 1502.66 193.38 1498.91 192.27 1495.06 192.37 C 1480.55 192.42 1466.03 192.29 1451.52 192.45 C 1457.57 183.15 1463.90 174.03 1470.21 164.90 Z" />
<path fill="#ffb125" opacity="1.00" d=" M 1094.17 173.15 C 1097.24 168.01 1103.06 165.12 1108.95 164.93 C 1117.10 164.63 1125.27 164.91 1133.43 164.80 C 1132.49 174.01 1131.52 183.22 1130.75 192.45 C 1117.73 192.91 1104.65 191.79 1091.68 193.10 C 1091.99 186.45 1090.42 179.12 1094.17 173.15 Z" />
<path fill="#ffb125" opacity="1.00" d=" M 1073.16 243.77 C 1207.05 243.71 1340.95 243.66 1474.85 243.80 C 1474.72 259.65 1474.70 275.51 1474.89 291.36 C 1464.25 291.49 1453.61 291.34 1442.98 291.45 C 1426.81 291.85 1411.28 301.37 1403.59 315.59 C 1400.17 321.68 1398.24 328.54 1397.70 335.49 C 1396.49 351.61 1404.60 367.96 1418.00 376.95 C 1426.68 383.10 1437.51 385.44 1448.01 385.38 C 1456.95 385.31 1465.90 385.38 1474.85 385.33 C 1474.72 401.11 1474.74 416.89 1474.80 432.67 C 1367.53 432.68 1260.25 432.67 1152.98 432.67 C 1126.56 432.75 1100.13 432.52 1073.71 432.79 L 1073.14 432.80 C 1073.32 369.79 1073.29 306.78 1073.16 243.77 Z" />
</g>
<g id="#e05a00ff">
<path fill="#e05a00" opacity="1.00" d=" M 787.93 178.93 C 789.27 174.31 789.94 169.51 791.67 165.01 C 792.53 165.31 794.24 165.91 795.09 166.22 C 796.39 166.41 797.71 166.59 799.04 166.81 C 805.26 168.75 811.79 169.87 817.91 172.24 C 828.54 175.97 840.17 181.09 845.67 191.56 C 848.54 196.46 847.56 202.25 847.52 207.64 C 847.33 207.67 846.96 207.73 846.77 207.76 C 827.22 210.91 807.69 214.18 788.13 217.27 C 785.89 217.61 783.79 218.47 781.71 219.28 C 780.85 219.29 779.12 219.30 778.26 219.30 C 779.49 212.45 781.50 205.77 782.97 198.98 C 784.73 192.32 786.33 185.62 787.93 178.93 Z" />
<path fill="#e05a00" opacity="1.00" d=" M 765.17 270.08 C 766.84 261.81 769.54 253.75 770.79 245.39 C 780.34 246.68 789.70 249.42 798.98 252.01 C 801.01 252.62 803.03 253.27 805.07 253.89 C 806.05 254.24 807.03 254.59 808.03 254.93 C 810.39 255.81 812.71 256.77 815.05 257.73 C 823.20 261.40 831.16 266.29 836.28 273.82 C 840.32 279.89 840.71 287.83 838.49 294.65 L 837.98 294.57 C 834.02 293.71 830.00 294.41 826.07 295.01 C 806.72 297.48 787.37 299.86 767.99 302.09 C 765.39 302.31 762.90 303.16 760.53 304.20 L 760.06 304.40 C 759.30 304.14 757.78 303.63 757.02 303.37 C 757.76 300.60 758.20 297.76 759.11 295.03 C 759.61 292.31 760.42 289.66 760.97 286.95 C 762.55 281.37 763.56 275.64 765.17 270.08 Z" />
<path fill="#e05a00" opacity="1.00" d=" M 792.20 359.49 C 793.20 355.15 794.14 350.78 795.70 346.59 C 800.08 349.20 805.33 348.79 810.15 349.88 C 806.50 350.34 802.81 350.37 799.15 350.08 C 801.05 351.76 802.94 353.47 804.76 355.25 C 837.41 387.90 870.06 420.55 902.71 453.20 C 904.04 454.74 906.13 454.83 908.00 455.18 C 890.27 464.68 871.46 472.16 851.95 477.07 C 847.72 474.00 844.49 469.85 840.69 466.31 C 825.52 451.16 810.42 435.94 795.22 420.83 C 783.84 409.56 772.76 397.99 761.11 387.00 C 761.36 386.46 761.85 385.38 762.10 384.84 C 769.43 387.06 776.82 389.13 784.30 390.80 C 786.87 380.35 789.54 369.92 792.20 359.49 Z" />
</g>
<g id="#0a81f9ff">
<path fill="#0a81f9" opacity="1.00" d=" M 0.00 207.23 C 0.07 192.31 13.13 179.00 28.07 178.78 C 70.20 178.71 112.34 178.70 154.48 178.78 C 178.80 204.65 203.31 230.35 227.53 256.31 C 232.11 261.43 236.94 266.31 241.63 271.33 C 244.38 274.29 247.16 277.53 251.09 278.93 C 257.39 281.43 264.95 279.51 269.45 274.49 C 299.60 242.62 329.71 210.70 359.82 178.78 C 398.55 178.60 437.29 178.91 476.02 178.62 C 475.82 259.10 476.05 339.57 475.90 420.05 C 475.96 435.87 461.91 450.14 446.02 450.01 C 297.35 449.99 148.67 450.02 0.00 450.00 L 0.00 207.23 M 437.25 225.26 C 434.02 226.72 432.11 230.58 433.02 234.03 C 433.50 236.48 435.55 238.09 437.25 239.73 C 451.48 252.61 459.61 271.84 459.08 291.01 C 458.74 309.16 450.69 327.03 437.23 339.23 C 434.60 341.36 432.06 344.42 432.94 348.08 C 433.68 353.43 440.76 356.38 445.00 352.93 C 467.58 334.39 478.70 303.23 473.21 274.56 C 469.86 255.99 459.95 238.67 445.57 226.44 C 443.33 224.46 439.94 223.92 437.25 225.26 M 412.18 250.33 C 407.91 252.17 406.30 258.17 409.21 261.84 C 411.55 264.47 414.63 266.39 416.73 269.26 C 423.95 278.10 425.77 290.85 421.53 301.41 C 419.37 307.13 415.32 311.90 410.59 315.67 C 407.05 318.32 406.79 324.02 409.98 327.04 C 412.70 329.90 417.55 330.06 420.51 327.46 C 431.76 318.89 438.83 305.13 439.24 290.99 C 439.81 275.62 432.39 260.18 419.96 251.10 C 417.76 249.44 414.67 249.14 412.18 250.33 M 127.35 278.46 L 127.35 278.70 C 110.25 278.64 93.14 278.64 76.04 278.70 C 67.41 278.83 59.78 286.46 59.61 295.08 C 59.40 308.05 59.76 321.02 59.44 333.99 C 59.02 338.63 59.86 343.55 62.66 347.37 C 66.06 352.28 72.06 355.12 78.00 354.88 C 99.01 354.83 120.02 354.91 141.04 354.84 C 149.90 354.71 158.06 346.91 157.99 337.94 C 158.01 323.97 157.99 309.99 158.01 296.02 C 158.26 289.31 153.93 282.87 147.88 280.13 C 141.42 277.29 134.17 278.86 127.35 278.46 M 391.48 280.65 C 385.03 283.09 383.63 292.67 389.12 296.85 C 394.37 301.63 403.82 298.12 404.69 291.08 C 406.26 283.96 398.08 277.46 391.48 280.65 M 61.45 398.60 C 57.41 399.52 54.75 404.09 55.96 408.07 C 56.81 411.58 60.37 413.99 63.94 413.78 C 79.99 413.84 96.04 413.78 112.09 413.80 C 114.88 413.95 117.88 412.99 119.53 410.60 C 121.99 407.39 121.28 402.34 118.02 399.95 C 115.17 397.67 111.32 398.46 107.97 398.32 C 92.47 398.53 76.92 397.97 61.45 398.60 M 154.35 398.57 C 150.27 399.41 147.53 403.98 148.70 407.98 C 149.54 411.65 153.28 414.06 156.95 413.79 C 172.33 413.84 187.70 413.76 203.07 413.82 C 205.81 413.83 208.88 413.92 211.05 411.94 C 214.68 409.04 214.65 402.91 210.96 400.08 C 208.19 397.71 204.35 398.44 201.01 398.32 C 185.46 398.51 169.88 398.01 154.35 398.57 M 247.30 398.53 C 244.22 399.11 241.75 401.80 241.30 404.88 C 240.46 409.34 244.32 413.86 248.86 413.75 C 264.91 413.88 280.97 413.74 297.02 413.81 C 300.35 414.08 304.06 412.86 305.63 409.69 C 308.46 404.96 304.57 398.23 299.05 398.38 C 281.80 398.40 264.53 398.10 247.30 398.53 M 340.40 398.48 C 336.37 399.00 333.37 403.19 334.06 407.17 C 334.53 410.94 338.09 413.90 341.88 413.76 C 358.25 413.84 374.62 413.80 390.99 413.78 C 395.32 414.12 399.48 410.41 399.31 405.99 C 399.41 401.65 395.32 397.98 391.03 398.35 C 374.15 398.41 357.26 398.14 340.40 398.48 Z" />
</g>
<g id="#0571f9ff">
<path fill="#0571f9" opacity="1.00" d=" M 476.02 178.62 C 481.39 178.42 486.92 178.38 492.06 180.15 C 501.09 183.18 508.36 190.83 510.97 199.99 C 512.41 204.52 511.94 209.34 512.00 214.02 C 511.99 294.70 512.01 375.37 511.99 456.05 C 511.77 471.73 496.98 485.12 481.38 484.13 C 369.26 483.82 257.12 484.09 144.99 484.00 C 106.45 484.10 67.90 483.80 29.36 484.15 C 14.73 484.41 1.42 472.31 0.00 457.80 L 0.00 450.00 C 148.67 450.02 297.35 449.99 446.02 450.01 C 461.91 450.14 475.96 435.87 475.90 420.05 C 476.05 339.57 475.82 259.10 476.02 178.62 Z" />
</g>
<g id="#ff6d3aff">
<path fill="#ff6d3a" opacity="1.00" d=" M 1130.75 192.45 C 1138.55 192.37 1146.35 192.44 1154.16 192.41 C 1169.65 192.39 1185.14 192.41 1200.63 192.40 C 1209.99 192.43 1219.35 192.42 1228.72 192.40 C 1247.54 192.40 1266.36 192.39 1285.19 192.41 C 1319.56 192.42 1353.93 192.42 1388.30 192.41 C 1394.80 192.39 1401.30 192.41 1407.80 192.39 C 1412.98 192.40 1418.18 192.40 1423.37 192.39 C 1428.19 192.42 1433.01 192.42 1437.84 192.41 C 1442.40 192.45 1446.96 192.30 1451.52 192.45 C 1458.58 193.23 1465.51 196.34 1469.73 202.25 C 1474.78 208.28 1475.04 216.51 1474.81 223.99 C 1474.71 230.59 1474.69 237.20 1474.85 243.80 C 1340.95 243.66 1207.05 243.71 1073.16 243.77 C 1072.97 234.84 1073.10 225.91 1073.06 216.98 C 1072.90 206.01 1081.00 195.61 1091.68 193.10 C 1104.65 191.79 1117.73 192.91 1130.75 192.45 Z" />
<path fill="#ff6d3a" opacity="1.00" d=" M 1403.59 315.59 C 1411.28 301.37 1426.81 291.85 1442.98 291.45 C 1453.61 291.34 1464.25 291.49 1474.89 291.36 C 1480.22 291.37 1485.57 291.36 1490.91 291.35 C 1494.53 292.82 1498.19 295.64 1497.97 299.98 C 1498.10 319.65 1497.91 339.34 1498.13 359.02 C 1498.05 363.14 1498.32 367.96 1495.14 371.10 C 1492.74 373.53 1489.16 373.85 1485.96 373.82 C 1472.30 373.72 1458.64 373.77 1444.99 373.78 C 1427.15 373.96 1409.63 363.12 1402.14 346.88 C 1400.54 343.13 1399.66 339.09 1397.70 335.49 C 1398.24 328.54 1400.17 321.68 1403.59 315.59 M 1439.40 317.57 C 1431.44 320.17 1425.31 327.69 1424.52 336.04 C 1423.52 344.53 1428.18 353.26 1435.70 357.27 C 1442.40 361.02 1451.20 360.83 1457.70 356.69 C 1463.74 352.99 1467.75 346.16 1467.85 339.05 C 1468.24 331.07 1463.83 323.00 1456.75 319.23 C 1451.53 316.26 1445.08 315.62 1439.40 317.57 Z" />
<path fill="#ff6d3a" opacity="1.00" d=" M 1073.71 432.79 C 1100.13 432.52 1126.56 432.75 1152.98 432.67 C 1260.25 432.67 1367.53 432.68 1474.80 432.67 C 1474.67 441.45 1474.91 450.24 1474.70 459.02 C 1474.86 461.56 1472.63 463.87 1470.07 463.66 C 1348.40 463.67 1226.72 463.67 1105.04 463.68 C 1100.20 463.70 1095.21 464.09 1090.57 462.45 C 1083.02 460.22 1076.98 454.01 1074.34 446.67 C 1072.91 442.18 1073.61 437.40 1073.71 432.79 Z" />
</g>
<g id="#ed5729ff">
<path fill="#ed5729" opacity="1.00" d=" M 1451.52 192.45 C 1466.03 192.29 1480.55 192.42 1495.06 192.37 C 1498.91 192.27 1502.66 193.38 1506.13 194.99 C 1514.20 199.01 1519.92 207.93 1519.31 217.06 C 1519.24 226.01 1519.29 234.96 1519.28 243.91 C 1504.47 243.75 1489.66 244.18 1474.85 243.80 C 1474.69 237.20 1474.71 230.59 1474.81 223.99 C 1475.04 216.51 1474.78 208.28 1469.73 202.25 C 1465.51 196.34 1458.58 193.23 1451.52 192.45 Z" />
<path fill="#ed5729" opacity="1.00" d=" M 1490.91 291.35 C 1500.37 291.30 1509.83 291.37 1519.30 291.32 C 1524.44 291.35 1529.59 291.16 1534.75 291.38 C 1538.92 291.35 1541.79 295.17 1543.00 298.79 L 1543.00 377.44 C 1542.11 381.31 1539.14 384.60 1535.12 385.21 C 1529.84 385.62 1524.54 385.27 1519.26 385.36 C 1504.45 385.30 1489.65 385.35 1474.85 385.33 C 1465.90 385.38 1456.95 385.31 1448.01 385.38 C 1437.51 385.44 1426.68 383.10 1418.00 376.95 C 1404.60 367.96 1396.49 351.61 1397.70 335.49 C 1399.66 339.09 1400.54 343.13 1402.14 346.88 C 1409.63 363.12 1427.15 373.96 1444.99 373.78 C 1458.64 373.77 1472.30 373.72 1485.96 373.82 C 1489.16 373.85 1492.74 373.53 1495.14 371.10 C 1498.32 367.96 1498.05 363.14 1498.13 359.02 C 1497.91 339.34 1498.10 319.65 1497.97 299.98 C 1498.19 295.64 1494.53 292.82 1490.91 291.35 Z" />
<path fill="#ed5729" opacity="1.00" d=" M 1073.14 432.80 L 1073.71 432.79 C 1073.61 437.40 1072.91 442.18 1074.34 446.67 C 1076.98 454.01 1083.02 460.22 1090.57 462.45 C 1095.21 464.09 1100.20 463.70 1105.04 463.68 C 1226.72 463.67 1348.40 463.67 1470.07 463.66 C 1472.63 463.87 1474.86 461.56 1474.70 459.02 C 1474.91 450.24 1474.67 441.45 1474.80 432.67 C 1489.63 432.60 1504.45 432.55 1519.28 432.69 C 1519.26 442.44 1519.29 452.20 1519.28 461.95 C 1518.77 471.13 1512.20 479.44 1503.65 482.64 C 1499.37 484.61 1494.59 483.89 1490.05 483.98 C 1361.04 483.98 1232.03 483.98 1103.02 483.98 C 1098.44 483.88 1093.66 484.59 1089.34 482.75 C 1082.17 480.20 1076.45 474.18 1074.16 466.95 C 1072.71 463.11 1073.00 458.97 1073.01 454.96 C 1073.07 447.57 1072.93 440.18 1073.14 432.80 Z" />
</g>
<g id="#d85107ff">
<path fill="#d85107" opacity="1.00" d=" M 900.01 210.17 C 900.55 207.58 901.18 205.01 901.81 202.43 C 938.33 238.51 974.42 275.03 1010.82 311.22 C 1014.32 314.72 1017.61 318.46 1021.67 321.36 C 1002.29 378.13 960.76 426.75 908.00 455.18 C 906.13 454.83 904.04 454.74 902.71 453.20 C 870.06 420.55 837.41 387.90 804.76 355.25 C 802.94 353.47 801.05 351.76 799.15 350.08 C 802.81 350.37 806.50 350.34 810.15 349.88 C 810.33 350.00 810.67 350.24 810.85 350.36 L 811.88 351.11 C 828.75 353.43 846.79 353.62 862.58 346.38 C 875.68 340.33 884.79 327.97 889.52 314.61 C 892.57 306.44 895.12 297.81 894.55 288.98 C 895.06 279.34 891.63 269.40 885.02 262.33 C 879.79 256.04 872.60 252.03 865.85 247.65 C 873.30 246.45 880.49 243.23 886.06 238.08 C 894.20 231.05 898.42 220.61 900.01 210.17 Z" />
<path fill="#d85107" opacity="1.00" d=" M 753.68 340.33 C 752.30 339.19 751.58 337.57 751.27 335.86 C 757.44 337.29 763.70 338.53 769.63 340.80 C 768.96 343.93 768.13 347.03 767.23 350.10 C 766.54 350.67 765.86 351.25 765.19 351.82 C 761.35 347.99 757.61 344.06 753.68 340.33 Z" />
</g>
<g id="#fff0e1ff">
<path fill="#fff0e1" opacity="1.00" d=" M 437.25 225.26 C 439.94 223.92 443.33 224.46 445.57 226.44 C 459.95 238.67 469.86 255.99 473.21 274.56 C 478.70 303.23 467.58 334.39 445.00 352.93 C 440.76 356.38 433.68 353.43 432.94 348.08 C 432.06 344.42 434.60 341.36 437.23 339.23 C 450.69 327.03 458.74 309.16 459.08 291.01 C 459.61 271.84 451.48 252.61 437.25 239.73 C 435.55 238.09 433.50 236.48 433.02 234.03 C 432.11 230.58 434.02 226.72 437.25 225.26 Z" />
<path fill="#fff0e1" opacity="1.00" d=" M 412.18 250.33 C 414.67 249.14 417.76 249.44 419.96 251.10 C 432.39 260.18 439.81 275.62 439.24 290.99 C 438.83 305.13 431.76 318.89 420.51 327.46 C 417.55 330.06 412.70 329.90 409.98 327.04 C 406.79 324.02 407.05 318.32 410.59 315.67 C 415.32 311.90 419.37 307.13 421.53 301.41 C 425.77 290.85 423.95 278.10 416.73 269.26 C 414.63 266.39 411.55 264.47 409.21 261.84 C 406.30 258.17 407.91 252.17 412.18 250.33 Z" />
<path fill="#fff0e1" opacity="1.00" d=" M 391.48 280.65 C 398.08 277.46 406.26 283.96 404.69 291.08 C 403.82 298.12 394.37 301.63 389.12 296.85 C 383.63 292.67 385.03 283.09 391.48 280.65 Z" />
<path fill="#fff0e1" opacity="1.00" d=" M 61.45 398.60 C 76.92 397.97 92.47 398.53 107.97 398.32 C 111.32 398.46 115.17 397.67 118.02 399.95 C 121.28 402.34 121.99 407.39 119.53 410.60 C 117.88 412.99 114.88 413.95 112.09 413.80 C 96.04 413.78 79.99 413.84 63.94 413.78 C 60.37 413.99 56.81 411.58 55.96 408.07 C 54.75 404.09 57.41 399.52 61.45 398.60 Z" />
<path fill="#fff0e1" opacity="1.00" d=" M 154.35 398.57 C 169.88 398.01 185.46 398.51 201.01 398.32 C 204.35 398.44 208.19 397.71 210.96 400.08 C 214.65 402.91 214.68 409.04 211.05 411.94 C 208.88 413.92 205.81 413.83 203.07 413.82 C 187.70 413.76 172.33 413.84 156.95 413.79 C 153.28 414.06 149.54 411.65 148.70 407.98 C 147.53 403.98 150.27 399.41 154.35 398.57 Z" />
<path fill="#fff0e1" opacity="1.00" d=" M 247.30 398.53 C 264.53 398.10 281.80 398.40 299.05 398.38 C 304.57 398.23 308.46 404.96 305.63 409.69 C 304.06 412.86 300.35 414.08 297.02 413.81 C 280.97 413.74 264.91 413.88 248.86 413.75 C 244.32 413.86 240.46 409.34 241.30 404.88 C 241.75 401.80 244.22 399.11 247.30 398.53 Z" />
<path fill="#fff0e1" opacity="1.00" d=" M 340.40 398.48 C 357.26 398.14 374.15 398.41 391.03 398.35 C 395.32 397.98 399.41 401.65 399.31 405.99 C 399.48 410.41 395.32 414.12 390.99 413.78 C 374.62 413.80 358.25 413.84 341.88 413.76 C 338.09 413.90 334.53 410.94 334.06 407.17 C 333.37 403.19 336.37 399.00 340.40 398.48 Z" />
</g>
<g id="#ff901dff">
<path fill="#ff901d" opacity="1.00" d=" M 1474.85 243.80 C 1489.66 244.18 1504.47 243.75 1519.28 243.91 C 1519.29 259.71 1519.25 275.51 1519.30 291.32 C 1509.83 291.37 1500.37 291.30 1490.91 291.35 C 1485.57 291.36 1480.22 291.37 1474.89 291.36 C 1474.70 275.51 1474.72 259.65 1474.85 243.80 Z" />
<path fill="#ff901d" opacity="1.00" d=" M 1474.85 385.33 C 1489.65 385.35 1504.45 385.30 1519.26 385.36 C 1519.30 401.14 1519.27 416.91 1519.28 432.69 C 1504.45 432.55 1489.63 432.60 1474.80 432.67 C 1474.74 416.89 1474.72 401.11 1474.85 385.33 Z" />
</g>
<g id="#e26600ff">
<path fill="#e26600" opacity="1.00" d=" M 669.28 315.67 C 669.83 315.28 670.94 314.51 671.50 314.12 C 688.30 318.68 705.28 322.62 722.01 327.44 C 719.82 339.06 716.52 350.46 713.66 361.93 C 713.17 359.28 711.32 357.30 709.43 355.52 C 695.93 342.36 682.85 328.76 669.28 315.67 Z" />
</g>
<g id="#f2f2f2ff">
<path fill="#f2f2f2" opacity="1.00" d=" M 1439.40 317.57 C 1445.08 315.62 1451.53 316.26 1456.75 319.23 C 1463.83 323.00 1468.24 331.07 1467.85 339.05 C 1467.75 346.16 1463.74 352.99 1457.70 356.69 C 1451.20 360.83 1442.40 361.02 1435.70 357.27 C 1428.18 353.26 1423.52 344.53 1424.52 336.04 C 1425.31 327.69 1431.44 320.17 1439.40 317.57 Z" />
</g>
<g id="#01102021">
<path fill="#011020" opacity="0.13" d=" M 29.36 484.15 C 67.90 483.80 106.45 484.10 144.99 484.00 C 257.12 484.09 369.26 483.82 481.38 484.13 L 482.58 485.00 L 30.59 485.00 L 29.36 484.15 Z" />
</g>
</svg>
