<?xml version="1.0" encoding="UTF-8" ?>
<!DOCTYPE svg PUBLIC "-//W3C//DTD SVG 1.1//EN" "http://www.w3.org/Graphics/SVG/1.1/DTD/svg11.dtd">
<svg width="512pt" height="512pt" viewBox="0 0 512 512" version="1.1" xmlns="http://www.w3.org/2000/svg">
<g id="#222333ff">
<path fill="#222333" opacity="1.00" d=" M 303.97 16.13 C 321.59 15.90 339.36 13.62 356.87 16.57 C 365.83 18.18 375.12 21.80 380.62 29.44 C 384.64 34.76 385.92 41.47 386.57 47.95 C 387.71 51.30 390.33 53.96 391.48 57.33 C 396.52 69.61 393.15 83.63 386.79 94.75 C 382.01 103.06 374.45 111.05 364.32 111.82 C 364.28 106.00 364.28 100.17 364.24 94.35 C 367.46 93.59 370.96 92.81 373.24 90.20 C 377.46 86.05 377.66 78.67 373.67 74.30 C 371.47 71.52 367.91 70.61 364.68 69.66 C 364.52 74.64 364.97 79.65 364.43 84.61 C 364.11 87.75 360.86 88.98 358.50 90.33 C 355.94 80.53 353.35 70.70 351.61 60.71 C 333.33 60.75 315.05 60.73 296.77 60.73 C 293.98 67.06 293.21 74.01 293.49 80.87 C 287.84 74.88 286.08 66.39 286.74 58.39 C 280.53 54.77 276.17 48.29 275.46 41.11 C 274.32 32.79 277.86 23.58 285.33 19.30 C 290.91 15.85 297.68 16.27 303.97 16.13 Z" />
<path fill="#222333" opacity="1.00" d=" M 306.33 83.28 C 311.35 82.59 311.82 92.09 307.14 92.91 C 302.92 92.13 302.69 85.01 306.33 83.28 Z" />
<path fill="#222333" opacity="1.00" d=" M 329.31 83.47 C 334.85 81.68 335.51 93.00 330.07 92.86 C 326.51 91.39 326.39 85.66 329.31 83.47 Z" />
<path fill="#222333" opacity="1.00" d=" M 368.63 382.68 C 385.83 382.66 403.03 382.65 420.23 382.68 L 420.91 382.69 C 420.78 420.77 420.99 458.85 421.54 496.93 C 397.96 496.93 374.39 496.94 350.81 496.93 C 347.03 477.84 343.66 458.67 339.62 439.64 C 339.43 458.73 339.28 477.83 339.11 496.93 C 316.85 496.93 294.60 496.94 272.35 496.92 C 271.50 480.08 270.35 463.25 269.66 446.40 C 300.47 431.65 331.26 416.86 362.07 402.10 C 365.57 400.45 368.87 397.77 369.97 393.91 C 371.37 390.17 370.28 386.14 368.63 382.68 Z" />
</g>
<g id="#edf3ffff">
<path fill="#edf3ff" opacity="1.00" d=" M 11.56 22.79 C 13.14 20.58 15.09 18.70 17.14 16.94 C 20.29 16.16 23.55 15.92 26.78 15.65 C 28.71 15.68 30.65 15.66 32.59 15.60 L 33.00 16.87 L 33.42 15.60 C 37.80 15.71 42.19 15.71 46.57 15.60 L 47.00 16.84 L 47.43 15.60 C 49.37 15.66 51.31 15.66 53.25 15.68 C 55.42 15.90 57.61 15.99 59.78 15.67 C 61.59 15.67 63.40 15.67 65.22 15.64 C 68.73 16.27 72.26 16.26 75.77 15.63 C 77.58 15.68 79.38 15.67 81.19 15.66 C 83.99 15.65 86.80 15.71 89.60 15.58 L 89.57 16.40 C 92.25 15.03 95.41 15.87 98.30 15.67 C 105.11 16.17 112.00 16.59 118.80 15.64 C 120.93 15.69 123.07 15.68 125.21 15.64 C 128.24 16.01 131.28 16.30 134.34 16.18 L 134.40 15.60 C 138.13 15.71 141.87 15.70 145.61 15.60 L 145.65 16.35 C 146.99 15.93 148.37 15.68 149.78 15.61 C 151.92 15.70 154.08 15.69 156.23 15.63 C 159.07 16.18 161.93 16.18 164.77 15.64 C 166.25 15.66 167.73 15.66 169.21 15.65 C 173.38 16.35 177.59 16.27 181.76 15.63 C 184.58 15.69 187.39 15.65 190.22 15.71 C 191.74 15.76 193.27 15.75 194.79 15.65 C 197.56 15.48 200.24 16.22 202.86 17.02 C 204.94 18.72 206.85 20.62 208.42 22.82 C 209.00 24.86 209.63 26.91 209.56 29.06 C 209.56 66.72 209.55 104.37 209.56 142.03 C 209.63 144.13 209.02 146.15 208.47 148.15 C 206.98 150.37 205.14 152.32 203.01 153.95 C 201.87 154.29 200.73 154.61 199.57 154.88 L 199.50 155.37 C 194.08 155.54 188.65 155.46 183.23 155.47 C 183.27 159.73 183.17 164.00 183.32 168.27 C 182.50 172.15 178.44 175.59 174.48 173.39 C 165.65 167.51 156.89 161.51 148.14 155.51 C 105.59 155.36 63.03 155.62 20.48 155.37 L 20.42 154.88 C 19.26 154.61 18.11 154.30 16.97 153.96 C 14.83 152.35 12.98 150.42 11.50 148.19 C 10.90 146.18 10.31 144.14 10.38 142.01 C 10.39 106.66 10.38 71.31 10.39 35.96 C 10.46 31.55 9.90 26.99 11.56 22.79 M 33.90 46.95 C 32.76 48.40 31.43 50.06 32.22 52.04 C 33.96 59.40 35.80 66.75 37.72 74.06 C 38.43 78.68 46.12 78.69 47.47 74.50 C 49.16 70.38 50.28 66.05 51.75 61.84 C 53.35 66.13 54.39 70.61 56.20 74.82 C 57.36 77.85 61.28 77.79 63.88 77.01 C 65.60 75.97 65.82 73.81 66.36 72.07 C 67.81 65.98 69.41 59.93 70.81 53.83 C 71.18 51.96 71.75 49.95 70.99 48.09 C 68.98 46.57 64.85 46.16 63.89 49.02 C 62.36 53.83 61.75 58.87 60.38 63.72 C 58.47 58.79 57.42 53.54 55.25 48.71 C 54.32 46.72 51.68 47.20 49.92 46.70 C 45.96 51.68 45.38 58.30 43.07 64.06 C 41.23 58.42 41.49 51.97 38.13 46.92 C 36.72 46.94 35.31 46.95 33.90 46.95 M 77.74 49.98 C 77.54 57.98 77.60 66.01 77.71 74.02 C 77.17 77.94 83.24 78.57 84.98 75.95 C 85.76 72.50 85.26 68.89 85.36 65.37 C 89.23 65.36 93.10 65.36 96.97 65.33 C 97.15 68.95 96.43 72.78 97.72 76.24 C 99.52 78.17 104.16 78.07 104.73 74.99 C 105.39 69.35 104.81 63.64 105.02 57.97 C 104.84 54.26 105.87 49.95 103.13 46.93 C 101.73 46.94 100.33 46.95 98.93 46.94 C 95.97 50.26 97.24 54.97 97.00 59.00 C 93.11 59.00 89.22 59.00 85.33 58.98 C 85.32 55.66 85.61 52.31 85.12 49.02 C 83.99 45.82 77.81 46.32 77.74 49.98 M 123.11 47.16 C 120.10 47.62 117.15 48.85 115.02 51.07 C 109.99 56.21 109.63 64.88 113.08 70.98 C 117.06 77.72 126.31 78.79 133.09 76.22 C 141.56 72.77 143.35 61.22 139.30 53.81 C 136.24 48.14 129.12 46.20 123.11 47.16 M 148.61 49.39 C 148.03 56.54 148.57 63.75 148.35 70.93 C 148.52 73.03 147.86 75.81 150.03 77.12 C 155.27 77.47 160.64 77.74 165.85 76.96 C 167.59 75.14 166.78 72.45 165.10 70.92 C 162.13 71.01 159.16 71.01 156.19 70.99 C 156.14 64.31 156.31 57.63 156.15 50.95 C 156.33 49.20 155.01 47.97 154.05 46.70 C 152.19 47.19 148.89 46.77 148.61 49.39 M 174.14 47.01 C 173.40 47.65 172.67 48.30 171.94 48.95 C 171.90 56.98 171.88 65.01 171.90 73.05 C 171.94 74.55 172.14 77.13 174.13 77.19 C 179.04 77.51 184.00 77.55 188.90 77.13 C 190.85 76.03 190.04 73.59 190.32 71.78 C 186.81 70.86 183.16 70.90 179.56 70.94 C 179.59 69.08 179.61 67.22 179.64 65.37 C 182.38 65.36 185.13 65.53 187.86 65.21 C 190.11 64.32 189.16 61.65 189.44 59.81 C 186.22 58.91 182.86 58.88 179.55 58.91 C 179.58 57.06 179.61 55.21 179.65 53.37 C 182.68 53.31 185.78 53.68 188.77 53.01 C 191.04 51.82 190.52 47.84 188.02 47.21 C 183.41 46.70 178.76 47.11 174.14 47.01 M 68.21 91.18 C 62.18 91.55 58.02 98.05 60.46 103.66 C 62.70 109.24 70.32 107.79 73.78 111.98 C 73.20 116.49 68.13 114.77 65.35 113.63 C 63.19 112.41 59.37 112.91 59.52 116.05 C 58.91 119.23 62.73 120.39 65.12 121.02 C 70.12 121.77 76.24 122.00 79.96 117.94 C 82.52 114.75 82.53 109.89 80.38 106.49 C 78.14 103.55 74.24 102.94 71.02 101.63 C 69.86 101.03 67.74 100.66 68.16 98.85 C 70.85 95.74 74.70 99.12 78.01 98.30 C 80.42 97.98 80.94 94.25 79.01 93.03 C 75.98 90.70 71.83 90.73 68.21 91.18 M 94.42 95.41 C 91.91 101.66 89.58 107.98 87.17 114.27 C 86.50 116.37 85.39 119.07 87.12 120.96 C 88.66 121.50 90.34 121.51 91.95 121.29 C 93.79 119.91 94.07 117.45 94.89 115.45 C 98.20 115.36 101.52 115.33 104.84 115.32 C 105.57 117.16 106.04 119.16 107.25 120.77 C 109.12 121.84 112.09 121.85 113.53 120.00 C 114.08 116.78 112.53 113.78 111.45 110.85 C 109.29 105.57 107.56 100.12 105.24 94.91 C 104.37 92.77 102.49 90.62 99.94 90.94 C 97.16 90.65 95.26 93.06 94.42 95.41 M 119.99 92.14 C 119.07 94.63 119.44 97.36 119.36 99.96 C 119.49 106.01 119.22 112.06 119.45 118.11 C 119.36 119.54 120.37 121.32 121.97 121.25 C 126.91 121.35 131.94 121.77 136.83 120.97 C 138.60 119.16 137.79 116.42 136.08 114.91 C 133.11 115.01 130.15 115.01 127.19 114.99 C 127.13 108.32 127.31 101.65 127.15 94.99 C 127.34 93.20 126.01 91.96 125.01 90.69 C 123.33 91.07 121.38 90.96 119.99 92.14 M 146.14 91.01 C 145.40 91.65 144.67 92.30 143.94 92.95 C 143.86 100.30 143.95 107.66 143.87 115.01 C 143.95 117.03 143.61 119.37 145.15 120.97 C 150.07 121.75 155.13 121.37 160.10 121.24 C 162.85 121.07 162.13 117.67 162.33 115.79 C 158.81 114.85 155.16 114.90 151.55 114.92 C 151.58 113.07 151.61 111.22 151.65 109.36 C 154.40 109.36 157.17 109.53 159.91 109.21 C 162.07 108.24 161.19 105.66 161.44 103.83 C 158.26 102.88 154.92 102.89 151.63 102.98 C 151.62 101.11 151.61 99.24 151.61 97.37 C 154.40 97.36 157.21 97.54 160.00 97.20 C 163.09 96.82 162.81 91.79 159.95 91.18 C 155.37 90.71 150.74 91.11 146.14 91.01 Z" />
<path fill="#edf3ff" opacity="1.00" d=" M 124.53 53.63 C 128.90 52.24 132.88 56.77 132.87 60.93 C 133.63 65.30 131.04 71.18 125.97 71.02 C 117.44 70.50 116.74 55.98 124.53 53.63 Z" />
<path fill="#edf3ff" opacity="1.00" d=" M 97.00 108.95 C 97.98 106.12 99.04 103.32 100.18 100.55 C 101.11 103.35 102.02 106.16 102.90 108.97 C 100.93 108.98 98.96 108.97 97.00 108.95 Z" />
<path fill="#edf3ff" opacity="1.00" d=" M 304.82 107.37 C 313.81 107.58 322.80 107.24 331.78 107.58 C 331.19 111.38 330.17 115.40 327.06 117.96 C 321.87 122.88 312.77 122.41 308.14 116.96 C 305.69 114.40 304.74 110.85 304.82 107.37 Z" />
<path fill="#edf3ff" opacity="1.00" d=" M 203.19 221.31 C 210.52 218.56 219.38 223.20 221.36 230.75 C 223.76 238.23 218.66 246.97 210.95 248.52 C 203.67 250.40 195.54 245.38 193.99 238.02 C 192.13 231.15 196.42 223.43 203.19 221.31 Z" />
<path fill="#edf3ff" opacity="1.00" d=" M 260.34 292.41 C 262.34 291.06 265.38 291.01 267.02 292.96 C 268.78 294.89 268.21 297.70 268.05 300.06 C 264.70 329.20 261.61 358.37 258.21 387.50 C 258.01 391.18 253.63 393.68 250.42 391.69 C 247.95 390.45 247.64 387.42 248.05 384.99 C 251.33 355.97 254.57 326.94 257.81 297.91 C 258.06 295.89 258.36 293.50 260.34 292.41 Z" />
<path fill="#edf3ff" opacity="1.00" d=" M 221.29 310.48 C 225.59 309.29 230.32 309.68 234.28 311.79 C 241.05 315.29 245.39 322.28 247.25 329.50 C 248.85 335.85 247.72 343.21 243.03 348.02 C 236.85 354.32 226.34 357.34 218.41 352.51 C 209.06 346.84 203.62 334.71 206.31 324.01 C 208.13 317.02 214.60 312.32 221.29 310.48 M 221.39 321.41 C 218.08 322.82 216.18 326.43 216.46 329.96 C 216.86 335.13 219.49 340.39 223.99 343.17 C 228.82 346.20 236.09 342.79 236.86 337.14 C 237.57 332.07 235.30 326.89 231.79 323.31 C 229.17 320.54 224.81 319.48 221.39 321.41 Z" />
<path fill="#edf3ff" opacity="1.00" d=" M 284.48 329.59 C 290.79 327.89 297.59 330.32 302.11 334.85 C 306.69 339.47 309.67 345.68 310.40 352.14 C 311.03 357.85 309.27 363.99 304.96 367.94 C 299.98 372.47 292.90 375.19 286.16 373.81 C 279.62 372.33 274.43 367.27 271.46 361.42 C 268.27 355.43 266.94 348.06 269.46 341.59 C 271.88 335.26 278.12 331.21 284.48 329.59 M 284.39 340.49 C 280.97 341.79 278.80 345.39 279.05 349.02 C 279.35 354.25 282.02 359.56 286.51 362.40 C 291.30 365.47 298.58 362.14 299.44 356.53 C 300.20 351.47 297.95 346.27 294.47 342.66 C 291.95 339.98 287.80 338.78 284.39 340.49 Z" />
</g>
<g id="#f8c51aff">
<path fill="#f8c51a" opacity="1.00" d=" M 33.90 46.95 C 35.31 46.95 36.72 46.94 38.13 46.92 C 41.49 51.97 41.23 58.42 43.07 64.06 C 45.38 58.30 45.96 51.68 49.92 46.70 C 51.68 47.20 54.32 46.72 55.25 48.71 C 57.42 53.54 58.47 58.79 60.38 63.72 C 61.75 58.87 62.36 53.83 63.89 49.02 C 64.85 46.16 68.98 46.57 70.99 48.09 C 71.75 49.95 71.18 51.96 70.81 53.83 C 69.41 59.93 67.81 65.98 66.36 72.07 C 65.82 73.81 65.60 75.97 63.88 77.01 C 61.28 77.79 57.36 77.85 56.20 74.82 C 54.39 70.61 53.35 66.13 51.75 61.84 C 50.28 66.05 49.16 70.38 47.47 74.50 C 46.12 78.69 38.43 78.68 37.72 74.06 C 35.80 66.75 33.96 59.40 32.22 52.04 C 31.43 50.06 32.76 48.40 33.90 46.95 Z" />
<path fill="#f8c51a" opacity="1.00" d=" M 77.74 49.98 C 77.81 46.32 83.99 45.82 85.12 49.02 C 85.61 52.31 85.32 55.66 85.33 58.98 C 89.22 59.00 93.11 59.00 97.00 59.00 C 97.24 54.97 95.97 50.26 98.93 46.94 C 100.33 46.95 101.73 46.94 103.13 46.93 C 105.87 49.95 104.84 54.26 105.02 57.97 C 104.81 63.64 105.39 69.35 104.73 74.99 C 104.16 78.07 99.52 78.17 97.72 76.24 C 96.43 72.78 97.15 68.95 96.97 65.33 C 93.10 65.36 89.23 65.36 85.36 65.37 C 85.26 68.89 85.76 72.50 84.98 75.95 C 83.24 78.57 77.17 77.94 77.71 74.02 C 77.60 66.01 77.54 57.98 77.74 49.98 Z" />
<path fill="#f8c51a" opacity="1.00" d=" M 123.11 47.16 C 129.12 46.20 136.24 48.14 139.30 53.81 C 143.35 61.22 141.56 72.77 133.09 76.22 C 126.31 78.79 117.06 77.72 113.08 70.98 C 109.63 64.88 109.99 56.21 115.02 51.07 C 117.15 48.85 120.10 47.62 123.11 47.16 M 124.53 53.63 C 116.74 55.98 117.44 70.50 125.97 71.02 C 131.04 71.18 133.63 65.30 132.87 60.93 C 132.88 56.77 128.90 52.24 124.53 53.63 Z" />
<path fill="#f8c51a" opacity="1.00" d=" M 148.61 49.39 C 148.89 46.77 152.19 47.19 154.05 46.70 C 155.01 47.97 156.33 49.20 156.15 50.95 C 156.31 57.63 156.14 64.31 156.19 70.99 C 159.16 71.01 162.13 71.01 165.10 70.92 C 166.78 72.45 167.59 75.14 165.85 76.96 C 160.64 77.74 155.27 77.47 150.03 77.12 C 147.86 75.81 148.52 73.03 148.35 70.93 C 148.57 63.75 148.03 56.54 148.61 49.39 Z" />
<path fill="#f8c51a" opacity="1.00" d=" M 174.14 47.01 C 178.76 47.11 183.41 46.70 188.02 47.21 C 190.52 47.84 191.04 51.82 188.77 53.01 C 185.78 53.68 182.68 53.31 179.65 53.37 C 179.61 55.21 179.58 57.06 179.55 58.91 C 182.86 58.88 186.22 58.91 189.44 59.81 C 189.16 61.65 190.11 64.32 187.86 65.21 C 185.13 65.53 182.38 65.36 179.64 65.37 C 179.61 67.22 179.59 69.08 179.56 70.94 C 183.16 70.90 186.81 70.86 190.32 71.78 C 190.04 73.59 190.85 76.03 188.90 77.13 C 184.00 77.55 179.04 77.51 174.13 77.19 C 172.14 77.13 171.94 74.55 171.90 73.05 C 171.88 65.01 171.90 56.98 171.94 48.95 C 172.67 48.30 173.40 47.65 174.14 47.01 Z" />
<path fill="#f8c51a" opacity="1.00" d=" M 68.21 91.18 C 71.83 90.73 75.98 90.70 79.01 93.03 C 80.94 94.25 80.42 97.98 78.01 98.30 C 74.70 99.12 70.85 95.74 68.16 98.85 C 67.74 100.66 69.86 101.03 71.02 101.63 C 74.24 102.94 78.14 103.55 80.38 106.49 C 82.53 109.89 82.52 114.75 79.96 117.94 C 76.24 122.00 70.12 121.77 65.12 121.02 C 62.73 120.39 58.91 119.23 59.52 116.05 C 59.37 112.91 63.19 112.41 65.35 113.63 C 68.13 114.77 73.20 116.49 73.78 111.98 C 70.32 107.79 62.70 109.24 60.46 103.66 C 58.02 98.05 62.18 91.55 68.21 91.18 Z" />
<path fill="#f8c51a" opacity="1.00" d=" M 94.42 95.41 C 95.26 93.06 97.16 90.65 99.94 90.94 C 102.49 90.62 104.37 92.77 105.24 94.91 C 107.56 100.12 109.29 105.57 111.45 110.85 C 112.53 113.78 114.08 116.78 113.53 120.00 C 112.09 121.85 109.12 121.84 107.25 120.77 C 106.04 119.16 105.57 117.16 104.84 115.32 C 101.52 115.33 98.20 115.36 94.89 115.45 C 94.07 117.45 93.79 119.91 91.95 121.29 C 90.34 121.51 88.66 121.50 87.12 120.96 C 85.39 119.07 86.50 116.37 87.17 114.27 C 89.58 107.98 91.91 101.66 94.42 95.41 M 97.00 108.95 C 98.96 108.97 100.93 108.98 102.90 108.97 C 102.02 106.16 101.11 103.35 100.18 100.55 C 99.04 103.32 97.98 106.12 97.00 108.95 Z" />
<path fill="#f8c51a" opacity="1.00" d=" M 119.99 92.14 C 121.38 90.96 123.33 91.07 125.01 90.69 C 126.01 91.96 127.34 93.20 127.15 94.99 C 127.31 101.65 127.13 108.32 127.19 114.99 C 130.15 115.01 133.11 115.01 136.08 114.91 C 137.79 116.42 138.60 119.16 136.83 120.97 C 131.94 121.77 126.91 121.35 121.97 121.25 C 120.37 121.32 119.36 119.54 119.45 118.11 C 119.22 112.06 119.49 106.01 119.36 99.96 C 119.44 97.36 119.07 94.63 119.99 92.14 Z" />
<path fill="#f8c51a" opacity="1.00" d=" M 146.14 91.01 C 150.74 91.11 155.37 90.71 159.95 91.18 C 162.81 91.79 163.09 96.82 160.00 97.20 C 157.21 97.54 154.40 97.36 151.61 97.37 C 151.61 99.24 151.62 101.11 151.63 102.98 C 154.92 102.89 158.26 102.88 161.44 103.83 C 161.19 105.66 162.07 108.24 159.91 109.21 C 157.17 109.53 154.40 109.36 151.65 109.36 C 151.61 111.22 151.58 113.07 151.55 114.92 C 155.16 114.90 158.81 114.85 162.33 115.79 C 162.13 117.67 162.85 121.07 160.10 121.24 C 155.13 121.37 150.07 121.75 145.15 120.97 C 143.61 119.37 143.95 117.03 143.87 115.01 C 143.95 107.66 143.86 100.30 143.94 92.95 C 144.67 92.30 145.40 91.65 146.14 91.01 Z" />
</g>
<g id="#fcbaacff">
<path fill="#fcbaac" opacity="1.00" d=" M 293.49 80.87 C 293.21 74.01 293.98 67.06 296.77 60.73 C 315.05 60.73 333.33 60.75 351.61 60.71 C 353.35 70.70 355.94 80.53 358.50 90.33 C 360.86 88.98 364.11 87.75 364.43 84.61 C 364.97 79.65 364.52 74.64 364.68 69.66 C 367.91 70.61 371.47 71.52 373.67 74.30 C 377.66 78.67 377.46 86.05 373.24 90.20 C 370.96 92.81 367.46 93.59 364.24 94.35 C 364.28 100.17 364.28 106.00 364.32 111.82 C 364.44 124.01 364.22 136.19 364.23 148.38 C 363.95 148.86 363.39 149.83 363.11 150.32 C 361.96 150.75 360.83 151.19 359.69 151.60 C 347.17 156.30 334.73 161.19 322.19 165.85 C 322.65 160.94 323.21 156.05 323.67 151.14 C 323.97 145.82 323.70 140.49 323.82 135.16 C 309.03 133.03 296.30 120.89 294.03 106.04 C 292.98 97.70 293.75 89.25 293.49 80.87 M 306.33 83.28 C 302.69 85.01 302.92 92.13 307.14 92.91 C 311.82 92.09 311.35 82.59 306.33 83.28 M 329.31 83.47 C 326.39 85.66 326.51 91.39 330.07 92.86 C 335.51 93.00 334.85 81.68 329.31 83.47 M 304.82 107.37 C 304.74 110.85 305.69 114.40 308.14 116.96 C 312.77 122.41 321.87 122.88 327.06 117.96 C 330.17 115.40 331.19 111.38 331.78 107.58 C 322.80 107.24 313.81 107.58 304.82 107.37 Z" />
<path fill="#fcbaac" opacity="1.00" d=" M 326.44 294.77 C 332.91 294.69 338.75 297.71 344.86 299.35 C 347.22 300.18 349.85 300.58 351.89 302.10 C 352.68 315.84 352.13 329.65 352.29 343.42 C 351.70 343.52 350.52 343.71 349.93 343.80 C 342.60 344.90 335.28 346.11 327.94 347.10 C 323.44 347.73 318.68 346.80 314.98 344.10 C 306.98 338.88 304.70 327.01 310.25 319.21 C 315.16 311.60 324.99 310.93 332.62 307.53 C 330.50 303.30 328.46 299.04 326.44 294.77 Z" />
<path fill="#fcbaac" opacity="1.00" d=" M 176.18 356.23 C 184.69 350.82 196.99 352.89 203.04 361.02 C 206.91 366.57 210.54 373.04 209.91 380.05 C 209.38 387.98 203.81 395.52 196.05 397.70 C 192.40 397.93 188.64 396.17 186.99 392.81 C 182.47 384.36 177.97 375.90 173.56 367.40 C 171.54 363.64 172.87 358.78 176.18 356.23 Z" />
</g>
<g id="#4d7cfeff">
<path fill="#4d7cfe" opacity="1.00" d=" M 251.36 175.40 C 259.91 161.89 274.98 152.77 290.92 151.53 C 301.83 150.87 312.75 151.20 323.67 151.14 C 323.21 156.05 322.65 160.94 322.19 165.85 C 334.73 161.19 347.17 156.30 359.69 151.60 C 362.13 151.11 364.61 151.63 367.03 152.00 C 375.53 154.09 384.30 152.10 392.92 152.59 C 407.19 153.22 420.69 161.91 427.28 174.56 C 429.59 178.67 430.54 183.32 432.21 187.68 C 443.32 216.60 454.41 245.52 465.51 274.44 C 467.72 280.48 470.88 286.43 470.58 293.07 C 470.96 309.32 458.55 324.75 442.54 327.69 C 435.01 328.70 427.66 330.61 420.23 332.11 C 420.23 348.97 420.23 365.83 420.23 382.68 C 403.03 382.65 385.83 382.66 368.63 382.68 C 362.33 369.76 356.19 356.75 349.93 343.80 C 350.52 343.71 351.70 343.52 352.29 343.42 C 352.13 329.65 352.68 315.84 351.89 302.10 C 349.85 300.58 347.22 300.18 344.86 299.35 C 338.75 297.71 332.91 294.69 326.44 294.77 C 314.52 269.95 302.61 245.13 290.74 220.28 C 289.39 217.47 287.57 214.67 284.69 213.25 C 281.33 211.60 277.58 211.04 273.99 210.13 C 262.99 207.48 251.99 204.87 240.99 202.21 C 244.07 193.15 246.00 183.49 251.36 175.40 Z" />
</g>
<g id="#f73731ff">
<path fill="#f73731" opacity="1.00" d=" M 181.08 199.06 C 183.39 193.36 189.93 189.82 195.95 191.44 C 210.97 194.98 225.97 198.64 240.99 202.21 C 251.99 204.87 262.99 207.48 273.99 210.13 C 277.58 211.04 281.33 211.60 284.69 213.25 C 287.57 214.67 289.39 217.47 290.74 220.28 C 302.61 245.13 314.52 269.95 326.44 294.77 C 328.46 299.04 330.50 303.30 332.62 307.53 C 324.99 310.93 315.16 311.60 310.25 319.21 C 304.70 327.01 306.98 338.88 314.98 344.10 C 318.68 346.80 323.44 347.73 327.94 347.10 C 335.28 346.11 342.60 344.90 349.93 343.80 C 356.19 356.75 362.33 369.76 368.63 382.68 C 370.28 386.14 371.37 390.17 369.97 393.91 C 368.87 397.77 365.57 400.45 362.07 402.10 C 331.26 416.86 300.47 431.65 269.66 446.40 C 259.76 451.13 249.89 455.95 239.94 460.57 C 233.99 463.41 226.25 460.63 223.42 454.70 C 214.21 435.74 205.16 416.70 196.05 397.70 C 203.81 395.52 209.38 387.98 209.91 380.05 C 210.54 373.04 206.91 366.57 203.04 361.02 C 196.99 352.89 184.69 350.82 176.18 356.23 C 166.02 335.21 156.00 314.11 145.85 293.08 C 143.45 288.67 141.28 283.35 143.68 278.44 C 156.08 251.96 168.63 225.53 181.08 199.06 M 203.19 221.31 C 196.42 223.43 192.13 231.15 193.99 238.02 C 195.54 245.38 203.67 250.40 210.95 248.52 C 218.66 246.97 223.76 238.23 221.36 230.75 C 219.38 223.20 210.52 218.56 203.19 221.31 M 260.34 292.41 C 258.36 293.50 258.06 295.89 257.81 297.91 C 254.57 326.94 251.33 355.97 248.05 384.99 C 247.64 387.42 247.95 390.45 250.42 391.69 C 253.63 393.68 258.01 391.18 258.21 387.50 C 261.61 358.37 264.70 329.20 268.05 300.06 C 268.21 297.70 268.78 294.89 267.02 292.96 C 265.38 291.01 262.34 291.06 260.34 292.41 M 221.29 310.48 C 214.60 312.32 208.13 317.02 206.31 324.01 C 203.62 334.71 209.06 346.84 218.41 352.51 C 226.34 357.34 236.85 354.32 243.03 348.02 C 247.72 343.21 248.85 335.85 247.25 329.50 C 245.39 322.28 241.05 315.29 234.28 311.79 C 230.32 309.68 225.59 309.29 221.29 310.48 M 284.48 329.59 C 278.12 331.21 271.88 335.26 269.46 341.59 C 266.94 348.06 268.27 355.43 271.46 361.42 C 274.43 367.27 279.62 372.33 286.16 373.81 C 292.90 375.19 299.98 372.47 304.96 367.94 C 309.27 363.99 311.03 357.85 310.40 352.14 C 309.67 345.68 306.69 339.47 302.11 334.85 C 297.59 330.32 290.79 327.89 284.48 329.59 Z" />
<path fill="#f73731" opacity="1.00" d=" M 221.39 321.41 C 224.81 319.48 229.17 320.54 231.79 323.31 C 235.30 326.89 237.57 332.07 236.86 337.14 C 236.09 342.79 228.82 346.20 223.99 343.17 C 219.49 340.39 216.86 335.13 216.46 329.96 C 216.18 326.43 218.08 322.82 221.39 321.41 Z" />
<path fill="#f73731" opacity="1.00" d=" M 284.39 340.49 C 287.80 338.78 291.95 339.98 294.47 342.66 C 297.95 346.27 300.20 351.47 299.44 356.53 C 298.58 362.14 291.30 365.47 286.51 362.40 C 282.02 359.56 279.35 354.25 279.05 349.02 C 278.80 345.39 280.97 341.79 284.39 340.49 Z" />
</g>
</svg>
