<?xml version="1.0" encoding="UTF-8" ?>
<!DOCTYPE svg PUBLIC "-//W3C//DTD SVG 1.1//EN" "http://www.w3.org/Graphics/SVG/1.1/DTD/svg11.dtd">
<svg width="512pt" height="512pt" viewBox="0 0 512 512" version="1.1" xmlns="http://www.w3.org/2000/svg">
<g id="#ff782eff">
<path fill="#ff782e" opacity="1.00" d=" M 85.08 52.13 C 113.94 39.17 146.93 35.76 177.88 42.16 C 179.26 42.39 180.64 42.61 182.02 42.85 C 191.84 45.32 201.61 48.14 210.90 52.23 C 227.35 59.30 242.57 69.09 256.00 80.92 C 269.47 69.09 284.71 59.22 301.23 52.22 C 310.46 48.11 320.21 45.40 329.94 42.81 C 331.32 42.58 332.69 42.36 334.08 42.13 C 364.79 35.85 397.44 39.11 426.17 51.74 C 450.94 62.85 472.61 80.98 487.22 103.93 C 491.03 109.64 494.16 115.75 497.17 121.91 C 501.52 131.18 504.60 140.98 507.20 150.87 C 512.60 174.16 512.87 198.59 507.98 221.99 C 505.54 232.93 502.31 243.73 497.78 253.99 C 490.28 271.20 479.80 287.11 466.89 300.75 C 421.26 346.15 375.91 391.85 330.36 437.33 C 324.33 443.30 318.58 449.61 311.82 454.78 C 295.46 467.43 274.70 474.32 254.01 473.77 C 230.62 473.40 207.63 463.42 191.16 446.84 C 147.35 403.02 103.61 359.14 59.81 315.30 C 53.05 308.35 45.70 301.95 39.45 294.51 C 28.85 282.11 20.23 268.07 13.77 253.11 C 10.16 244.62 7.30 235.83 5.15 226.86 C 4.67 224.96 4.26 223.03 3.74 221.14 C -0.78 197.97 -0.60 173.88 4.80 150.86 C 7.37 140.96 10.50 131.18 14.82 121.88 C 28.86 91.16 54.21 65.89 85.08 52.13 M 90.33 89.64 C 67.86 102.22 51.21 123.77 42.84 147.95 C 33.92 174.00 34.15 202.96 42.87 229.02 C 48.79 246.44 58.35 262.63 70.95 276.04 C 117.00 322.00 162.97 368.04 208.98 414.04 C 214.37 419.30 219.38 425.09 225.85 429.08 C 243.61 440.77 268.27 440.77 286.07 429.15 C 292.59 425.13 297.64 419.30 303.07 414.00 C 348.89 368.18 394.70 322.34 440.54 276.55 C 457.18 258.94 468.70 236.57 473.38 212.80 C 477.52 191.04 476.33 168.07 468.80 147.16 C 460.93 124.59 445.70 104.39 425.25 91.81 C 403.35 78.00 376.56 73.10 351.00 76.06 C 321.73 79.35 293.72 93.04 273.17 114.15 C 270.35 117.05 267.80 120.48 263.97 122.10 C 257.02 125.24 247.96 124.02 242.71 118.27 C 232.54 106.90 220.35 97.33 206.84 90.24 C 171.25 71.32 125.80 69.46 90.33 89.64 Z" />
<path fill="#ff782e" opacity="1.00" d=" M 364.04 114.70 C 366.56 105.26 377.82 99.12 387.03 102.76 C 400.84 107.66 413.37 115.81 424.22 125.59 C 436.77 137.17 445.97 152.31 450.18 168.88 C 451.90 178.48 454.34 188.67 451.44 198.27 C 448.73 203.43 444.00 207.83 438.08 208.74 C 431.39 210.11 424.29 207.02 420.34 201.55 C 417.28 197.72 416.91 192.66 416.83 187.96 C 416.66 181.34 414.85 174.90 412.27 168.85 C 405.01 153.92 391.39 142.80 376.10 136.79 C 367.10 134.10 361.12 123.78 364.04 114.70 Z" />
</g>
</svg>
