<?xml version="1.0" encoding="UTF-8" ?>
<!DOCTYPE svg PUBLIC "-//W3C//DTD SVG 1.1//EN" "http://www.w3.org/Graphics/SVG/1.1/DTD/svg11.dtd">
<svg width="512pt" height="512pt" viewBox="0 0 512 512" version="1.1" xmlns="http://www.w3.org/2000/svg">
<g id="#000000ff">
<path fill="#000000" opacity="1.00" d=" M 256.26 0.00 L 261.58 0.00 C 301.33 1.21 340.86 11.28 376.02 29.93 C 427.01 56.61 467.98 101.42 490.77 154.18 C 504.83 186.25 511.93 221.26 512.00 256.25 L 512.00 260.70 C 510.98 303.17 499.82 345.61 478.39 382.39 C 462.36 411.05 440.61 436.51 414.77 456.78 C 411.78 459.21 407.42 460.06 403.91 458.26 C 399.66 456.35 397.29 451.17 398.63 446.71 C 399.42 443.56 402.05 441.43 404.40 439.40 C 426.26 421.85 444.82 400.21 458.99 376.02 C 485.36 331.34 496.20 277.90 489.91 226.43 C 488.24 232.25 485.29 237.72 480.87 241.91 C 477.33 245.23 474.16 249.92 468.92 250.43 C 464.29 251.07 459.88 247.73 458.49 243.41 C 454.18 231.72 449.97 219.99 445.72 208.28 C 444.26 204.17 440.80 201.30 438.15 197.98 C 435.60 195.18 433.49 191.92 430.49 189.57 C 428.33 188.49 425.77 188.93 423.45 188.71 C 424.46 191.36 425.87 194.16 425.15 197.07 C 424.39 201.31 420.61 203.88 417.66 206.60 C 403.51 219.66 386.18 228.92 367.99 234.98 C 363.13 236.88 357.56 234.21 355.40 229.63 C 346.98 213.68 338.71 197.64 330.33 181.66 C 328.17 177.87 328.69 173.37 328.72 169.20 C 325.23 165.70 321.58 162.38 318.07 158.90 C 312.38 152.45 302.37 153.56 296.12 147.94 C 291.49 143.39 293.24 134.71 299.18 132.20 C 303.51 130.07 308.19 132.27 312.35 133.71 C 318.12 136.00 324.76 137.07 329.17 141.85 C 334.81 147.52 340.94 152.72 346.35 158.61 C 350.83 163.74 346.70 171.24 350.24 176.71 C 356.68 188.84 362.98 201.06 369.36 213.22 C 381.33 208.60 392.48 201.97 402.28 193.70 C 400.67 190.96 398.86 188.16 398.59 184.90 C 397.89 179.09 401.09 173.05 406.37 170.48 C 410.27 168.43 414.83 168.85 419.09 168.79 C 425.67 168.86 432.64 168.26 438.70 171.33 C 444.87 174.16 448.87 179.84 453.19 184.82 C 456.98 189.42 461.49 193.66 463.66 199.35 C 466.10 205.71 468.38 212.14 470.65 218.57 C 471.19 215.04 471.65 211.43 473.19 208.17 C 475.41 202.99 479.54 198.97 483.86 195.50 C 472.96 153.43 449.84 114.65 418.27 84.80 C 391.67 59.57 359.04 40.75 323.90 30.28 C 309.02 25.68 293.63 22.96 278.18 21.19 C 269.93 31.28 261.91 41.57 253.76 51.74 C 250.92 55.18 248.44 59.47 243.89 60.81 C 222.64 68.27 201.39 75.73 180.14 83.16 C 175.18 95.01 170.29 106.89 165.42 118.78 C 170.42 125.70 175.28 132.73 180.35 139.60 C 188.19 127.15 202.16 118.69 216.94 118.17 C 222.14 118.03 228.61 117.14 232.29 121.73 C 236.76 126.64 234.32 135.48 227.96 137.39 C 222.74 138.74 217.16 137.40 211.98 139.11 C 203.94 141.34 197.56 147.76 194.72 155.52 C 206.38 155.44 218.16 153.07 229.76 155.30 C 235.49 156.44 241.33 159.54 243.94 165.03 C 245.50 168.01 245.36 171.46 245.08 174.72 C 248.88 177.29 252.80 179.67 256.83 181.85 C 259.47 176.39 265.44 173.97 271.04 172.83 C 274.33 171.97 277.60 173.33 280.75 174.19 C 291.36 177.56 302.80 179.56 312.02 186.18 C 318.68 191.91 322.81 199.96 326.03 207.99 C 330.72 218.92 334.85 230.11 340.46 240.61 C 342.78 244.67 345.53 248.79 349.65 251.22 C 354.34 253.15 359.55 253.13 364.42 254.43 C 369.72 255.60 375.28 258.19 377.69 263.37 C 380.48 268.75 379.14 275.22 376.24 280.27 C 368.31 294.53 353.40 302.95 344.40 316.36 C 341.42 320.67 341.61 326.25 343.21 331.04 C 345.29 337.73 347.11 344.95 345.17 351.90 C 343.25 359.71 337.53 365.64 332.29 371.42 C 327.95 375.96 327.29 382.60 323.75 387.65 C 321.40 391.27 318.09 394.21 316.04 398.03 C 314.00 403.39 313.66 409.47 310.22 414.26 C 305.40 421.03 298.97 426.46 292.27 431.29 C 286.01 435.44 278.70 438.67 271.05 438.36 C 265.06 438.16 259.40 434.94 255.85 430.17 C 248.87 421.06 245.98 409.77 241.55 399.37 C 237.67 389.63 232.77 380.26 230.15 370.06 C 228.59 363.83 228.39 357.16 230.24 350.97 C 231.98 344.49 235.22 337.93 233.61 331.07 C 232.49 324.64 226.51 320.95 223.35 315.61 C 219.41 309.85 219.51 302.65 219.24 295.98 C 219.13 292.47 214.99 290.77 211.95 291.30 C 204.89 292.12 198.10 294.61 190.98 294.99 C 178.26 295.88 165.21 292.55 154.72 285.25 C 142.04 276.50 133.40 262.30 131.12 247.09 C 128.86 232.83 132.08 217.87 139.68 205.63 C 145.28 196.47 153.42 189.25 159.53 180.47 C 163.69 174.57 168.06 168.84 172.95 163.53 C 163.94 151.31 155.25 138.86 146.39 126.54 C 144.05 123.53 143.45 119.40 144.98 115.89 C 150.66 101.95 156.49 88.07 162.17 74.12 C 163.29 71.52 164.51 68.68 167.00 67.10 C 169.81 65.33 173.05 64.47 176.14 63.36 C 195.13 56.74 214.10 50.05 233.09 43.45 C 234.55 42.99 235.93 42.23 236.82 40.94 C 242.27 34.01 247.81 27.14 253.27 20.21 C 215.15 20.67 177.14 30.39 143.68 48.71 C 131.85 54.97 120.79 62.58 110.14 70.66 C 120.39 77.31 128.28 87.87 130.63 99.96 C 133.06 111.94 129.92 124.90 122.23 134.41 C 117.25 140.98 110.20 145.93 106.46 153.42 C 98.71 167.07 90.84 180.64 83.08 194.28 C 81.61 196.93 79.49 199.17 77.00 200.89 C 71.85 204.54 66.71 208.21 61.58 211.90 C 65.72 218.22 70.23 224.30 74.22 230.72 C 77.53 236.07 74.15 243.94 67.95 245.13 C 59.20 246.84 50.35 248.03 41.52 249.27 C 37.16 249.75 32.67 250.50 28.33 249.50 C 24.99 248.50 22.94 245.43 20.59 243.08 C 20.11 252.18 20.15 261.29 20.61 270.39 C 28.80 267.78 36.96 265.05 45.16 262.43 C 48.53 261.16 52.46 261.50 55.32 263.78 C 69.79 274.55 83.96 285.75 98.49 296.42 C 109.15 299.83 121.08 299.40 131.04 304.97 C 141.66 311.02 147.96 323.82 146.04 335.92 C 145.52 339.93 143.70 343.99 144.95 348.05 C 146.61 354.31 149.46 360.37 149.52 366.96 C 149.81 376.98 144.84 386.92 136.73 392.77 C 132.88 395.63 128.28 397.17 123.80 398.73 C 120.84 414.16 117.88 429.59 114.92 445.02 L 115.21 445.68 C 151.77 472.93 196.35 489.34 241.91 491.83 C 269.07 493.45 296.49 490.15 322.56 482.42 C 329.13 480.70 335.34 477.81 341.92 476.15 C 347.48 474.63 353.53 479.19 353.84 484.89 C 354.38 489.39 351.31 493.70 347.13 495.19 C 319.60 505.83 290.17 511.31 260.69 512.00 L 253.41 512.00 C 236.67 511.31 219.87 510.07 203.51 506.29 C 160.68 497.64 120.29 477.42 87.48 448.57 C 36.63 404.34 4.43 339.31 0.55 271.98 C 0.42 269.50 0.19 267.04 0.00 264.57 L 0.00 250.41 C 1.02 219.15 7.34 188.02 19.22 159.07 C 33.34 124.17 55.40 92.52 83.25 67.21 C 129.97 24.44 192.85 -0.29 256.26 0.00 M 93.38 84.97 C 89.24 89.62 84.74 93.93 80.50 98.49 C 69.70 110.97 59.66 124.21 51.67 138.69 C 37.30 163.27 28.07 190.64 23.22 218.65 C 27.53 222.27 31.43 226.48 35.99 229.73 C 39.98 229.34 43.97 228.80 47.92 228.12 C 45.52 222.40 40.34 217.99 38.25 212.02 C 36.95 207.71 39.22 203.15 42.81 200.74 C 49.96 195.56 57.16 190.46 64.35 185.34 C 65.62 184.55 66.37 183.24 67.10 181.98 C 74.81 168.40 82.64 154.88 90.37 141.31 C 94.41 133.36 102.08 128.20 107.17 121.01 C 110.79 116.20 112.13 109.79 110.92 103.92 C 109.23 94.98 102.07 87.47 93.38 84.97 M 184.49 180.49 C 178.78 187.48 174.04 195.22 168.01 201.94 C 162.92 207.92 157.28 213.68 154.10 220.98 C 147.93 234.14 149.47 250.80 158.82 262.09 C 165.11 270.02 175.00 274.78 185.08 275.13 C 194.29 275.71 202.93 271.48 212.11 271.39 C 225.21 270.23 238.47 280.77 239.21 294.13 C 239.92 298.47 238.33 303.69 241.87 307.11 C 246.67 312.27 251.12 318.06 252.77 325.06 C 255.25 333.26 253.92 341.99 251.43 350.01 C 250.20 354.18 248.23 358.44 249.16 362.89 C 250.70 372.14 255.56 380.34 258.84 389.02 C 263.25 398.72 265.57 409.51 271.93 418.23 C 277.55 418.02 282.15 413.79 286.46 410.50 C 289.95 407.26 294.27 404.04 294.99 398.99 C 296.15 392.00 299.30 385.41 304.22 380.28 C 308.80 375.85 309.42 369.15 312.84 363.99 C 316.00 358.61 321.08 354.74 324.61 349.65 C 327.44 345.37 324.89 340.29 323.87 335.86 C 321.33 327.46 321.26 318.13 325.11 310.10 C 332.05 294.96 347.09 286.19 357.03 273.32 C 351.76 272.28 346.28 271.81 341.36 269.51 C 334.14 266.17 328.94 259.83 324.72 253.29 C 316.91 239.98 311.90 225.31 305.70 211.23 C 303.56 207.05 301.37 202.19 296.76 200.26 C 290.03 197.32 282.79 195.80 275.79 193.65 C 273.22 196.78 270.49 200.04 266.65 201.62 C 261.20 204.05 254.95 202.72 249.68 200.47 C 241.37 196.81 234.15 191.21 226.42 186.54 C 222.17 184.19 220.66 178.85 222.01 174.36 C 213.62 174.35 205.24 174.98 196.88 175.57 C 192.48 176.13 187.32 176.61 184.49 180.49 M 22.67 290.76 C 26.78 317.84 35.46 344.27 48.60 368.32 C 61.30 391.62 77.83 412.76 97.28 430.82 C 99.91 417.20 102.49 403.57 105.12 389.96 C 105.64 386.80 107.37 383.74 110.30 382.28 C 114.92 379.98 120.26 379.46 124.67 376.71 C 128.49 374.29 130.28 369.33 129.13 364.99 C 127.66 358.61 124.55 352.57 124.45 345.91 C 124.16 341.80 125.32 337.82 126.20 333.86 C 127.55 328.29 123.60 322.13 118.00 320.98 C 109.68 319.14 101.27 317.74 92.93 315.96 C 89.24 315.29 86.54 312.48 83.61 310.37 C 71.44 301.18 59.39 291.83 47.15 282.74 C 39.02 285.50 30.82 288.05 22.67 290.76 Z" />
<path fill="#000000" opacity="1.00" d=" M 263.39 118.57 C 270.17 116.42 278.03 122.83 276.42 130.00 C 275.59 137.23 266.19 140.65 260.60 136.28 C 253.58 132.22 255.45 120.28 263.39 118.57 Z" />
<path fill="#000000" opacity="1.00" d=" M 391.50 319.64 C 396.04 317.48 402.01 319.50 404.26 324.01 C 405.90 327.48 406.48 331.32 407.56 334.97 C 408.49 338.96 410.03 342.84 410.29 346.95 C 409.91 351.05 408.27 354.89 407.22 358.85 C 402.59 373.92 398.79 389.27 392.84 403.88 C 389.87 410.37 386.01 417.00 379.67 420.69 C 374.07 424.00 366.66 423.44 361.50 419.55 C 356.10 415.54 351.74 409.70 350.58 402.97 C 349.28 395.55 351.66 388.12 354.35 381.28 C 357.68 374.91 353.50 367.74 355.68 361.11 C 357.40 351.33 366.35 345.44 374.79 341.75 C 384.09 337.67 382.77 324.26 391.50 319.64 M 377.79 362.74 C 376.30 363.61 374.71 364.99 375.07 366.94 C 375.35 372.72 376.71 378.72 374.49 384.32 C 373.05 389.98 368.71 395.58 370.94 401.60 C 373.43 398.89 374.76 395.39 376.01 391.99 C 380.18 380.93 383.08 369.45 386.54 358.16 C 383.63 359.70 380.63 361.06 377.79 362.74 Z" />
<path fill="#000000" opacity="1.00" d=" M 376.38 459.53 C 382.82 457.40 389.83 463.52 388.83 470.15 C 388.24 477.85 377.83 482.19 372.12 476.79 C 366.09 471.88 368.77 461.09 376.38 459.53 Z" />
</g>
</svg>
