<svg id="svg" version="1.1" width="512" height="512" xmlns="http://www.w3.org/2000/svg"><path d="M9.732 46.077 C 7.660 47.171,4.623 49.919,2.982 52.183 L 0.000 56.300 0.033 70.900 C 0.066 85.133,0.135 85.598,2.783 89.410 C 4.277 91.560,7.300 94.260,9.500 95.410 C 13.300 97.395,15.243 97.514,48.340 97.787 L 83.179 98.074 89.856 94.997 C 96.045 92.144,97.225 91.940,105.981 92.209 C 114.931 92.485,115.494 92.632,116.661 95.000 C 117.339 96.375,123.974 121.350,131.407 150.500 C 138.840 179.650,149.848 222.625,155.869 246.000 C 161.889 269.375,167.118 290.110,167.487 292.077 L 168.158 295.653 159.829 297.290 C 139.557 301.272,123.650 314.657,116.240 333.967 C 112.867 342.758,112.042 357.703,114.417 367.006 C 120.018 388.951,138.446 406.298,160.148 410.054 C 168.598 411.517,168.621 411.527,167.275 413.226 C 164.580 416.624,162.766 425.399,163.213 432.873 C 164.037 446.653,172.371 459.004,184.764 464.812 C 189.793 467.169,191.734 467.500,200.515 467.500 C 209.816 467.500,211.008 467.265,217.213 464.213 C 229.409 458.214,237.001 446.705,237.793 433.012 C 238.266 424.842,236.345 416.336,233.217 412.750 C 231.764 411.085,235.585 411.000,311.699 411.000 L 391.708 411.000 389.133 416.250 C 386.953 420.692,386.553 422.885,386.533 430.500 C 386.512 438.564,386.841 440.199,389.691 446.225 C 393.531 454.344,400.395 461.340,408.000 464.887 C 412.734 467.095,414.892 467.456,423.500 467.476 C 432.268 467.497,434.199 467.172,439.175 464.840 C 446.759 461.284,452.991 455.347,457.110 447.752 C 460.351 441.774,460.500 441.039,460.500 431.000 C 460.500 420.758,460.229 419.540,456.219 411.750 C 456.007 411.337,460.431 411.000,466.051 411.000 C 471.670 411.000,478.120 410.447,480.384 409.770 C 488.104 407.464,495.000 398.047,495.000 389.812 C 495.000 382.416,489.257 373.874,482.139 370.683 C 480.159 369.796,440.232 369.375,322.323 369.000 C 165.522 368.501,165.140 368.495,162.385 366.438 C 157.278 362.625,155.500 359.284,155.500 353.500 C 155.500 347.365,157.629 343.725,163.105 340.500 C 166.446 338.532,168.762 338.492,308.000 338.000 L 449.500 337.500 453.722 335.244 C 459.928 331.928,464.276 327.755,467.190 322.319 C 470.460 316.219,475.466 296.994,474.641 293.706 C 473.730 290.075,469.520 287.680,465.407 288.451 C 461.287 289.224,460.464 290.657,457.407 302.388 C 454.395 313.945,452.542 317.499,448.080 320.274 L 444.500 322.500 322.000 322.500 L 199.500 322.500 195.920 320.274 C 193.951 319.049,191.577 316.574,190.643 314.774 C 189.709 312.973,181.072 280.900,171.449 243.500 C 147.140 149.021,145.466 142.201,146.367 141.298 C 146.805 140.859,158.192 140.275,171.672 140.000 C 195.944 139.505,196.200 139.477,198.091 137.139 C 199.141 135.841,200.000 134.131,200.000 133.340 C 200.000 131.027,197.215 126.296,195.455 125.621 C 194.565 125.280,188.586 124.993,182.168 124.985 C 175.751 124.976,169.956 124.623,169.290 124.201 C 168.625 123.778,164.948 111.424,161.120 96.749 C 152.345 63.106,150.177 58.863,138.616 52.715 C 134.897 50.737,132.571 50.476,114.500 50.001 C 94.929 49.486,94.403 49.417,90.000 46.750 L 85.500 44.024 49.500 44.056 C 15.532 44.087,13.287 44.201,9.732 46.077 M81.429 60.571 C 83.398 62.541,83.698 78.902,81.800 80.800 C 80.918 81.682,72.327 82.000,49.371 82.000 C 22.315 82.000,17.933 81.790,16.571 80.429 C 14.377 78.234,14.366 64.350,16.557 61.223 C 18.108 59.007,18.217 59.000,48.985 59.000 C 75.717 59.000,80.068 59.211,81.429 60.571 M129.391 66.328 C 136.285 68.409,138.347 72.266,143.922 93.500 C 146.665 103.950,149.565 115.313,150.366 118.750 L 151.823 125.000 147.483 125.000 C 145.096 125.000,142.516 124.373,141.749 123.606 C 140.983 122.840,137.980 113.026,135.077 101.799 C 132.174 90.571,128.971 80.286,127.958 78.942 C 126.207 76.619,125.472 76.476,112.809 76.000 L 99.500 75.500 99.183 71.645 C 98.634 64.952,98.552 64.992,112.719 65.077 C 119.748 65.119,127.251 65.682,129.391 66.328 M223.500 126.195 C 220.630 127.823,220.033 129.028,220.015 133.227 C 219.985 140.501,209.578 139.983,356.206 140.007 C 448.582 140.023,488.717 140.354,490.914 141.120 C 494.442 142.350,496.000 144.622,496.000 148.539 C 496.000 150.008,489.700 175.768,482.000 205.784 C 474.300 235.799,468.000 261.116,468.000 262.044 C 468.000 265.283,471.928 269.000,475.350 269.000 C 480.634 269.000,482.561 266.824,484.844 258.275 C 498.408 207.498,512.000 151.810,512.000 147.011 C 512.000 138.931,507.488 131.622,500.136 127.793 L 494.772 125.000 360.136 125.030 C 261.656 125.053,224.963 125.365,223.500 126.195 M204.333 175.576 C 202.142 177.767,201.837 178.776,202.293 182.326 C 202.588 184.622,207.592 205.850,213.411 229.500 C 222.744 267.425,224.295 272.766,226.552 274.750 C 227.960 275.988,230.232 277.000,231.601 277.000 C 234.753 277.000,239.000 272.826,239.000 269.727 C 239.000 268.427,234.090 247.215,228.089 222.590 C 216.357 174.452,215.821 173.000,209.780 173.000 C 208.028 173.000,205.905 174.004,204.333 175.576 M279.881 174.007 C 275.856 176.358,275.854 178.563,279.827 226.000 C 282.027 252.278,284.149 272.446,284.847 273.738 C 287.218 278.122,294.696 277.921,297.662 273.393 C 299.259 270.956,299.148 268.351,295.584 224.659 C 293.456 198.574,291.336 177.848,290.708 177.000 C 287.775 173.037,283.543 171.867,279.881 174.007 M353.521 175.388 C 352.207 176.702,350.894 179.289,350.603 181.138 C 350.312 182.987,348.697 202.275,347.013 224.000 C 345.330 245.725,343.790 264.850,343.591 266.500 C 342.750 273.501,347.303 278.145,353.487 276.593 C 358.484 275.339,358.754 273.899,362.480 228.813 C 364.416 205.383,366.000 184.345,366.000 182.061 C 366.000 174.265,358.600 170.309,353.521 175.388 M427.694 175.250 C 426.424 176.539,424.734 180.488,423.734 184.500 C 406.877 252.158,402.988 269.556,404.113 272.272 C 406.117 277.111,411.876 278.566,415.905 275.250 C 418.205 273.357,420.680 264.323,433.987 209.237 C 441.441 178.380,441.504 177.673,437.087 174.282 C 434.544 172.330,430.120 172.786,427.694 175.250 M174.508 317.596 L 176.751 322.693 170.442 322.897 C 162.119 323.167,158.565 324.278,152.356 328.555 C 139.838 337.176,135.657 353.932,142.638 367.500 C 146.237 374.494,149.480 377.619,156.969 381.306 L 163.457 384.500 319.940 385.000 L 476.424 385.500 477.962 388.311 C 479.423 390.981,479.378 391.221,477.055 393.129 C 474.717 395.048,473.649 395.109,452.555 394.516 C 440.425 394.175,426.675 393.989,422.000 394.103 C 417.325 394.217,367.600 394.276,311.500 394.234 C 200.838 394.152,197.940 394.155,175.000 394.361 C 159.516 394.500,159.493 394.497,152.759 391.307 C 144.159 387.233,137.295 380.376,132.920 371.488 C 129.653 364.852,129.500 364.049,129.500 353.500 C 129.500 343.102,129.686 342.079,132.695 335.968 C 139.529 322.086,155.148 311.739,168.383 312.327 C 172.039 312.490,172.396 312.797,174.508 317.596 M209.541 410.880 C 223.253 417.108,226.163 435.683,215.152 446.694 C 211.030 450.817,206.215 452.310,198.611 451.826 C 190.676 451.321,185.080 447.634,181.500 440.554 C 172.212 422.178,190.893 402.409,209.541 410.880 M431.355 410.375 C 436.126 412.368,441.857 417.738,443.648 421.895 C 447.607 431.079,444.344 442.703,436.201 448.427 C 427.858 454.290,414.541 452.797,407.922 445.258 C 401.490 437.933,400.337 430.113,404.402 421.383 C 409.104 411.285,421.458 406.240,431.355 410.375 " stroke="none" fill="undefined" fill-rule="evenodd"/></svg>