<svg id="svg" version="1.1" width="512" height="512" xmlns="http://www.w3.org/2000/svg"><path d="M227.000 1.115 C 191.153 5.207,154.433 17.737,123.891 36.300 C 102.886 49.067,88.930 60.180,71.963 77.651 C 35.131 115.575,12.565 160.267,2.866 214.500 C 0.803 226.039,0.539 230.648,0.521 255.500 C 0.498 285.929,1.295 293.475,6.998 316.827 C 16.062 353.941,35.065 391.429,59.804 421.000 C 101.804 471.202,164.303 504.318,229.821 511.086 C 246.572 512.816,282.375 511.775,297.255 509.125 C 324.557 504.264,344.265 497.936,367.528 486.562 C 410.032 465.781,442.782 437.327,468.883 398.500 C 491.328 365.110,505.541 327.009,510.464 287.030 C 512.474 270.712,512.460 240.810,510.435 224.842 C 506.681 195.226,498.239 167.612,484.728 140.743 C 479.591 130.528,474.710 122.131,473.237 120.971 C 467.748 116.654,461.996 117.458,458.169 123.077 C 455.041 127.670,455.641 130.626,461.959 141.738 C 491.757 194.146,499.436 261.382,482.424 320.924 C 471.399 359.511,451.233 393.791,422.694 422.457 L 412.781 432.414 410.442 423.457 C 399.827 382.814,371.269 346.581,333.500 325.837 C 308.491 312.101,284.677 306.008,256.000 306.008 C 221.177 306.008,188.848 316.487,161.000 336.800 C 151.645 343.624,131.946 363.354,125.855 372.000 C 114.742 387.775,106.177 405.924,101.572 423.457 L 99.219 432.414 89.306 422.457 C 11.462 344.266,-1.806 223.761,57.130 130.214 C 66.249 115.739,74.301 105.627,87.450 92.141 C 107.479 71.597,124.965 58.780,151.026 45.541 C 208.451 16.369,275.511 12.605,338.104 35.043 C 352.132 40.071,372.102 50.545,388.652 61.554 C 397.289 67.299,405.220 72.000,406.277 72.000 C 409.811 72.000,414.798 68.903,416.022 65.947 C 417.886 61.446,416.490 56.637,412.233 52.900 C 400.538 42.631,367.685 24.006,348.106 16.545 C 329.051 9.283,304.217 3.313,283.500 1.015 C 272.855 -0.166,237.680 -0.104,227.000 1.115 M435.020 83.284 C 431.557 85.037,429.837 88.789,430.385 93.397 C 430.974 98.341,433.650 101.022,438.603 101.628 C 446.221 102.561,451.201 96.747,449.484 88.927 C 448.272 83.408,440.652 80.435,435.020 83.284 M239.416 106.971 C 226.238 109.772,211.307 116.593,201.000 124.521 C 185.761 136.243,173.293 154.863,168.539 173.000 C 166.208 181.893,165.381 202.316,166.986 211.366 C 171.975 239.512,189.668 263.212,215.556 276.430 C 263.524 300.921,323.125 277.026,341.068 226.110 C 345.199 214.386,346.354 205.892,345.722 191.866 C 345.097 178.006,343.282 169.837,338.503 159.378 C 327.598 135.513,308.446 118.445,283.000 109.913 C 274.291 106.993,272.252 106.702,258.500 106.415 C 250.250 106.243,241.662 106.493,239.416 106.971 M272.500 128.603 C 285.888 131.839,301.410 141.567,309.720 151.930 C 315.195 158.757,321.403 171.303,323.592 179.967 C 325.775 188.601,325.738 203.573,323.513 212.500 C 318.523 232.518,305.327 248.755,286.500 258.043 C 275.803 263.320,267.559 265.275,256.000 265.275 C 244.441 265.275,236.197 263.320,225.500 258.043 C 201.117 246.014,186.748 223.019,186.731 196.000 C 186.702 151.066,228.747 118.028,272.500 128.603 M280.000 328.690 C 321.757 335.395,359.737 363.005,379.333 400.902 C 388.273 418.190,395.434 441.562,393.254 446.339 C 391.961 449.172,376.778 458.753,360.500 467.008 C 332.930 480.987,303.283 488.850,270.374 490.908 C 228.207 493.546,184.153 484.392,148.500 465.585 C 133.335 457.586,119.932 448.945,118.786 446.429 C 116.565 441.556,123.635 418.368,132.667 400.902 C 154.257 359.148,196.612 331.069,244.000 327.091 C 255.502 326.126,267.292 326.650,280.000 328.690 " stroke="none" fill="undefined" fill-rule="evenodd"/></svg>