<svg id="svg" version="1.1" width="512" height="512" xmlns="http://www.w3.org/2000/svg"><path d="M175.500 2.023 C 131.838 8.739,93.528 27.797,62.139 58.418 C 29.092 90.656,8.039 132.194,1.529 178.001 C -0.453 191.944,-0.444 220.190,1.546 233.872 C 6.238 266.131,18.163 296.989,35.795 322.500 C 70.404 372.573,123.190 404.052,184.392 411.114 C 197.036 412.573,228.674 411.710,239.976 409.598 C 270.468 403.900,297.326 393.051,322.085 376.434 C 327.357 372.895,332.075 370.000,332.569 370.000 C 333.062 370.000,364.524 401.008,402.483 438.906 C 448.913 485.261,472.878 508.497,475.710 509.906 C 478.748 511.417,481.811 511.997,486.710 511.991 C 497.197 511.976,505.107 506.733,510.382 496.300 C 512.851 491.417,512.564 480.112,509.849 475.307 C 508.666 473.213,476.716 440.442,438.849 402.483 C 400.982 364.524,370.000 333.067,370.000 332.578 C 370.000 332.090,372.869 327.372,376.375 322.095 C 400.289 286.103,412.000 247.938,412.000 206.000 C 412.000 152.323,391.750 101.696,355.041 63.598 C 321.567 28.857,277.850 6.985,230.026 1.051 C 216.767 -0.594,189.335 -0.105,175.500 2.023 M226.678 53.050 C 290.715 61.650,343.396 110.663,357.203 174.488 C 358.535 180.644,359.323 189.204,359.691 201.500 C 360.151 216.908,359.926 221.275,358.122 231.829 C 348.950 285.513,311.794 330.566,260.314 350.429 C 251.297 353.908,238.568 357.172,227.000 358.973 C 217.510 360.450,193.986 360.212,182.798 358.526 C 119.210 348.941,67.976 300.083,54.312 236.000 C 52.882 229.293,52.500 222.965,52.500 206.000 C 52.500 187.145,52.786 183.223,54.824 174.119 C 67.283 118.474,107.636 74.676,161.500 58.335 C 180.459 52.584,207.111 50.423,226.678 53.050 " stroke="none" fill="@{main-color}" fill-rule="evenodd"/></svg>