<svg id="svg" version="1.1" width="512" height="512" xmlns="http://www.w3.org/2000/svg"><path d="M176.884 2.045 C 131.462 9.255,92.235 29.013,60.604 60.613 C 2.080 119.077,-16.040 207.207,14.554 284.588 C 39.076 346.611,92.137 393.153,156.922 409.464 C 173.656 413.677,187.151 415.275,206.000 415.275 C 240.265 415.275,266.510 408.913,298.647 392.818 C 311.971 386.146,315.293 384.856,317.647 385.445 C 319.610 385.937,338.584 404.158,378.500 443.885 C 431.099 496.234,437.152 501.941,443.500 505.173 C 459.178 513.153,474.049 514.205,486.250 508.198 C 494.889 503.944,503.982 494.812,508.290 486.063 C 514.198 474.064,513.102 459.086,505.176 443.500 C 501.946 437.148,496.269 431.128,443.882 378.500 C 404.042 338.476,385.928 319.616,385.440 317.647 C 384.856 315.297,386.158 311.947,392.818 298.647 C 408.899 266.539,415.191 240.548,415.249 206.000 C 415.280 187.136,413.704 173.764,409.464 156.922 C 395.112 99.921,357.381 51.843,305.000 23.812 C 285.732 13.502,261.296 5.600,237.500 1.987 C 220.365 -0.615,193.478 -0.589,176.884 2.045 M228.308 56.082 C 254.119 59.963,278.188 69.804,298.079 84.607 C 331.917 109.790,352.751 144.608,359.049 186.500 C 360.594 196.773,360.595 219.218,359.051 229.500 C 348.982 296.566,296.566 348.982,229.500 359.051 C 219.218 360.595,196.773 360.594,186.500 359.049 C 144.608 352.751,109.790 331.917,84.607 298.079 C 72.876 282.316,64.347 264.263,59.543 245.027 C 56.006 230.868,54.998 222.574,55.018 207.808 C 55.050 184.026,59.050 165.539,68.881 143.733 C 89.680 97.598,133.323 64.673,184.500 56.506 C 194.589 54.896,218.861 54.661,228.308 56.082 M176.912 84.525 C 162.910 86.888,147.681 91.907,141.338 96.249 C 139.529 97.487,136.850 100.702,135.384 103.393 C 127.884 117.165,136.437 133.323,151.973 134.731 C 156.650 135.155,159.329 134.725,165.645 132.535 C 177.808 128.318,185.467 127.036,198.622 127.017 C 234.298 126.966,264.262 145.774,280.804 178.601 C 286.227 189.363,291.579 193.954,300.270 195.298 C 310.179 196.830,321.590 189.044,323.969 179.127 C 325.495 172.769,324.459 167.848,319.541 158.082 C 299.680 118.643,262.597 91.620,218.530 84.473 C 207.739 82.722,187.438 82.748,176.912 84.525 " stroke="none" fill="@{main-color}" fill-rule="evenodd"/></svg>