<svg id="svg" version="1.1" width="512" height="512" xmlns="http://www.w3.org/2000/svg"><path d="M172.498 1.530 C 99.179 12.242,37.816 61.844,11.907 131.339 C 7.970 141.901,3.245 160.934,1.481 173.337 C -0.456 186.964,-0.413 214.438,1.566 227.872 C 10.358 287.538,45.365 340.190,97.105 371.564 C 114.786 382.285,131.819 389.260,153.000 394.452 C 172.535 399.240,184.520 400.399,207.254 399.698 C 229.406 399.015,243.487 396.566,263.500 389.917 C 274.576 386.237,297.917 375.309,304.154 370.883 C 305.614 369.848,307.866 369.000,309.157 369.000 C 310.932 369.000,327.036 384.546,375.003 432.564 C 409.926 467.524,441.098 498.403,444.272 501.182 C 456.521 511.907,472.504 514.968,486.739 509.316 C 496.207 505.556,505.556 496.207,509.316 486.739 C 514.968 472.504,511.907 456.521,501.182 444.272 C 498.403 441.098,467.524 409.926,432.564 375.003 C 384.546 327.036,369.000 310.932,369.000 309.157 C 369.000 307.866,369.848 305.614,370.883 304.154 C 375.309 297.917,386.237 274.576,389.917 263.500 C 396.566 243.487,399.015 229.406,399.698 207.254 C 400.399 184.520,399.240 172.535,394.452 153.000 C 385.509 116.520,367.601 84.669,341.306 58.477 C 310.702 27.992,270.569 7.857,227.872 1.566 C 214.912 -0.344,185.453 -0.363,172.498 1.530 M226.761 22.555 C 285.048 31.862,334.280 67.793,360.627 120.254 C 369.129 137.181,374.404 154.085,377.549 174.481 C 380.169 191.473,379.224 221.415,375.564 237.383 C 369.143 265.395,357.870 289.368,341.229 310.398 C 314.756 343.856,279.676 365.869,237.383 375.564 C 221.415 379.224,191.473 380.169,174.481 377.549 C 114.808 368.347,66.074 332.847,38.887 278.776 C 26.755 254.645,21.000 229.424,21.000 200.380 C 21.000 151.659,38.042 109.598,71.933 74.672 C 98.476 47.318,132.537 29.546,171.000 22.979 C 184.885 20.609,213.223 20.393,226.761 22.555 M173.500 41.956 C 139.296 47.933,108.397 64.221,84.947 88.636 C 55.350 119.451,40.000 157.616,40.000 200.390 C 40.000 273.057,89.946 337.290,160.500 355.358 C 180.305 360.430,206.250 361.462,226.581 357.986 C 275.925 349.550,319.400 317.602,342.517 272.788 C 362.522 234.009,365.597 188.487,351.050 146.500 C 332.508 92.984,283.351 51.719,226.581 42.014 C 211.515 39.438,188.053 39.412,173.500 41.956 M222.518 62.414 C 234.605 64.541,241.908 66.623,252.607 70.993 C 294.917 88.275,326.511 125.939,336.494 171.000 C 338.732 181.100,339.643 209.649,338.051 219.800 C 333.270 250.282,319.740 277.149,298.444 298.444 C 277.149 319.740,250.282 333.270,219.800 338.051 C 209.649 339.643,181.100 338.732,171.000 336.494 C 113.790 323.819,71.098 278.133,61.949 219.800 C 60.361 209.675,61.268 181.111,63.498 171.000 C 68.477 148.426,80.147 125.341,95.203 108.282 C 117.856 82.616,146.350 67.313,182.000 61.668 C 188.549 60.631,215.173 61.121,222.518 62.414 M194.888 81.500 C 188.794 84.812,188.649 94.743,194.643 98.230 C 196.711 99.434,201.324 100.373,208.143 100.979 C 243.596 104.128,272.600 124.047,289.317 156.728 C 292.401 162.759,295.577 168.234,296.373 168.895 C 300.882 172.637,309.920 169.972,312.091 164.260 C 313.489 160.584,312.652 156.804,308.544 148.231 C 291.805 113.304,258.686 88.187,220.615 81.548 C 209.570 79.622,198.382 79.601,194.888 81.500 M304.750 191.080 C 302.299 192.508,300.000 197.321,300.000 201.027 C 300.000 205.286,304.714 210.000,308.973 210.000 C 315.244 210.000,320.000 205.952,320.000 200.613 C 320.000 192.822,311.201 187.322,304.750 191.080 M381.000 355.276 C 381.000 357.631,357.631 381.000,355.276 381.000 C 354.284 381.000,347.661 375.176,340.559 368.059 L 327.646 355.118 341.382 341.382 L 355.118 327.646 368.059 340.559 C 375.176 347.661,381.000 354.284,381.000 355.276 M443.711 416.250 C 468.560 441.137,489.366 462.767,489.946 464.315 C 491.565 468.638,491.162 476.047,489.057 480.684 C 485.626 488.239,476.145 492.351,466.312 490.546 C 462.946 489.929,457.154 484.513,416.750 444.198 C 391.587 419.092,371.000 398.095,371.000 397.539 C 371.000 396.206,396.169 371.000,397.500 371.000 C 398.067 371.000,418.861 391.363,443.711 416.250 " stroke="none" fill="@{main-color}" fill-rule="evenodd"/></svg>