<svg id="svg" version="1.1" width="512" height="512" xmlns="http://www.w3.org/2000/svg"><path d="M170.500 1.982 C 109.277 11.881,58.170 46.344,27.544 98.382 C -3.014 150.305,-8.545 213.948,12.571 270.682 C 35.849 333.226,90.419 381.044,155.000 395.490 C 196.976 404.879,239.841 401.087,279.000 384.519 C 284.923 382.013,301.163 373.453,310.094 368.129 L 313.689 365.986 317.468 373.743 C 321.106 381.209,323.408 383.668,378.874 439.352 C 410.568 471.171,439.043 499.352,442.152 501.977 C 445.584 504.875,450.600 507.819,454.924 509.471 C 461.197 511.868,463.144 512.150,471.298 511.846 C 479.281 511.548,481.442 511.062,487.026 508.310 C 503.197 500.343,512.000 486.615,512.000 469.368 C 512.000 459.425,508.486 449.717,502.196 442.287 C 499.967 439.654,471.899 411.335,439.822 379.356 C 384.046 323.750,381.184 321.065,374.270 317.856 C 370.293 316.010,367.031 313.884,367.020 313.131 C 367.009 312.378,368.529 309.228,370.397 306.131 C 398.183 260.080,407.034 208.113,395.884 156.500 C 388.434 122.016,370.138 87.702,345.556 62.115 C 314.232 29.509,274.862 9.022,230.000 1.983 C 213.645 -0.584,186.372 -0.584,170.500 1.982 M213.940 52.078 C 277.156 58.000,328.921 102.583,345.054 165.000 C 348.759 179.333,350.169 205.895,347.973 220.000 C 342.559 254.784,328.331 282.910,304.174 306.581 C 276.195 333.998,239.669 349.000,200.894 349.000 C 167.572 349.000,137.160 339.003,111.111 319.486 C 53.137 276.050,34.803 197.238,67.675 132.777 C 90.922 87.192,135.245 56.979,186.050 52.086 C 198.410 50.896,201.308 50.895,213.940 52.078 " stroke="none" fill="@{main-color}" fill-rule="evenodd"/></svg>