<svg id="svg" version="1.1" width="512" height="512" xmlns="http://www.w3.org/2000/svg"><path d="M181.924 2.039 C 152.377 6.730,125.827 16.241,102.148 30.617 C 74.484 47.412,47.308 74.578,30.634 102.104 C 0.897 151.194,-7.740 211.454,6.924 267.530 C 22.298 326.322,62.865 376.168,117.983 403.992 C 134.872 412.517,160.013 420.310,181.500 423.679 C 196.647 426.054,229.365 426.056,244.407 423.683 C 311.747 413.060,368.494 373.411,400.030 314.953 C 412.288 292.229,419.527 270.649,423.694 244.407 C 426.086 229.346,426.080 196.685,423.683 181.469 C 416.119 133.450,394.853 92.144,360.890 59.500 C 327.998 27.886,288.954 8.806,243.195 1.984 C 225.711 -0.623,198.536 -0.599,181.924 2.039 M241.325 58.388 C 295.321 68.476,342.093 107.913,360.354 158.752 C 392.896 249.352,338.132 347.561,244.496 366.520 C 174.825 380.627,105.630 347.463,73.352 284.494 C 62.327 262.986,57.156 242.913,56.261 218.154 C 55.275 190.884,60.373 167.280,72.531 142.819 C 95.377 96.854,137.939 65.969,190.134 57.481 C 201.222 55.678,229.501 56.179,241.325 58.388 M107.005 193.698 C 104.903 194.782,102.513 197.292,101.005 200.000 C 98.682 204.172,98.503 205.447,98.544 217.500 C 98.577 227.435,99.086 232.392,100.703 238.524 C 109.529 271.994,133.313 300.432,167.152 317.978 C 195.290 332.567,231.653 338.970,234.549 329.845 C 235.481 326.908,233.316 325.032,217.333 314.929 C 197.535 302.413,187.949 295.152,177.950 285.098 C 162.052 269.111,153.512 254.986,146.450 233.000 C 141.835 218.634,138.437 211.830,132.027 204.129 C 123.513 193.898,114.170 190.003,107.005 193.698 M399.865 348.250 C 386.409 366.947,371.223 382.395,352.255 396.682 C 343.015 403.641,341.175 405.450,341.936 406.826 C 343.842 410.275,439.640 504.847,442.886 506.484 C 458.090 514.153,475.300 513.875,489.188 505.736 C 510.750 493.099,518.185 466.085,506.485 442.886 C 504.304 438.562,408.083 342.000,405.955 342.000 C 405.079 342.000,402.339 344.813,399.865 348.250 " stroke="none" fill="@{main-color}" fill-rule="evenodd"/></svg>